<svg viewBox="0 0 362 361" fill="none" xmlns="http://www.w3.org/2000/svg">
<path d="M86.2126 48.1497C86.2126 30.3041 86.2126 21.3814 91.7565 15.8373C97.3006 10.2935 106.223 10.2935 124.069 10.2935C141.915 10.2935 150.837 10.2935 156.381 15.8373C161.925 21.3814 161.925 30.3041 161.925 48.1497V123.862C161.925 141.708 161.925 150.63 156.381 156.175C150.837 161.719 141.915 161.719 124.069 161.719C106.223 161.719 97.3006 161.719 91.7565 156.175C86.2126 150.63 86.2126 141.708 86.2126 123.862V48.1497Z" />
<path d="M199.781 237.431C199.781 219.586 199.781 210.663 205.325 205.119C210.869 199.575 219.792 199.575 237.638 199.575C255.483 199.575 264.406 199.575 269.95 205.119C275.494 210.663 275.494 219.586 275.494 237.431C275.494 255.276 275.494 264.199 269.95 269.743C264.406 275.287 255.483 275.287 237.638 275.287C219.792 275.287 210.869 275.287 205.325 269.743C199.781 264.199 199.781 255.276 199.781 237.431Z" />
<path d="M124.069 313.144C124.069 295.298 124.069 286.375 129.613 280.831C135.157 275.287 144.08 275.287 161.925 275.287H313.35C331.196 275.287 340.118 275.287 345.663 280.831C351.207 286.375 351.207 295.298 351.207 313.144C351.207 330.989 351.207 339.912 345.663 345.456C340.118 351 331.196 351 313.35 351H161.925C144.08 351 135.157 351 129.613 345.456C124.069 339.912 124.069 330.989 124.069 313.144Z" />
<path d="M10.5 123.862C10.5 106.017 10.5 97.094 16.0439 91.55C21.5879 86.0061 30.5106 86.0061 48.3563 86.0061C66.2019 86.0061 75.1246 86.0061 80.6687 91.55C86.2126 97.094 86.2126 106.017 86.2126 123.862V199.575C86.2126 217.42 86.2126 226.343 80.6687 231.887C75.1246 237.431 66.2019 237.431 48.3563 237.431C30.5106 237.431 21.5879 237.431 16.0439 231.887C10.5 226.343 10.5 217.42 10.5 199.575V123.862Z" />
</svg>
