<svg viewBox="0 0 191 141" fill="none" xmlns="http://www.w3.org/2000/svg">
<path opacity="0.18" d="M69.1481 10.2863C64.1346 14.9318 60.4187 20.9032 55.0914 25.1759C46.0836 32.4142 33.8577 33.8534 23.2644 38.4611C16.2573 41.5093 9.61351 46.3388 6.51339 53.3247C4.01017 58.987 4.32632 65.6615 6.92863 71.2554C8.17199 73.9373 8.72448 76.8878 8.53575 79.8379C8.34701 82.788 7.42306 85.644 5.84807 88.1456C1.99061 94.2562 -0.335659 101.237 0.0394699 108.407C0.619858 119.435 8.99302 130.313 19.9897 131.328C23.7646 131.677 27.5584 130.91 31.2955 130.226C53.8669 126.097 77.7572 125.036 99.2268 133.121C105.111 135.339 110.776 138.229 116.893 139.687C124.04 141.39 131.49 141.067 138.835 140.734C150.296 140.215 163.669 138.611 169.522 128.74C177.636 115.056 164.712 97.9721 166.549 82.1742C167.566 73.4448 173.071 65.7677 174.231 57.0642C175.491 47.6034 171.006 37.6023 163.103 32.2514C152.127 24.822 136.95 26.6245 125.618 19.7471C116.653 14.3042 110.49 3.6685 99.9205 0.773638C89.5537 -2.06224 76.6931 3.30281 69.1481 10.2863Z" fill="#006CE7"/>
<path opacity="0.11" d="M21.4501 105.321C20.3413 97.7078 17.6965 90.3775 16.6254 82.7569C15.5542 75.1364 16.2998 66.7561 21.1812 60.8154C24.3662 56.9391 28.9433 54.5208 33.4189 52.2535C37.399 50.2363 41.4971 48.2262 45.9232 47.6788C49.8254 47.207 53.7631 47.8794 57.6654 48.3465C65.0075 49.2242 72.4842 49.3398 79.7721 48.0894C89.2871 46.4378 98.2831 42.663 107.583 40.1078C116.693 37.5928 125.71 36.3117 135.895 41.0516C142.935 44.331 148.13 51.1777 149.815 58.7463C152.538 70.9746 146.389 84.5264 151.558 95.936C153.017 99.1493 155.281 101.919 157.131 104.925C159.405 108.631 161.046 112.689 161.987 116.934C162.31 118.394 162.548 119.935 162.135 121.372C161.074 125.052 156.525 126.277 152.698 126.579C139.974 127.584 127.262 125.21 114.572 123.83C93.9703 121.593 73.1825 121.987 52.5457 123.528C47.4952 123.905 42.4479 124.346 37.4037 124.849C33.3339 125.248 25.6072 127.68 21.771 126.522C17.4936 125.227 20.3012 122.421 21.2071 118.394C22.1768 114.119 22.0777 109.625 21.4501 105.321Z" fill="#006CE7"/>
<path d="M90.5965 32.3646C90.5965 32.3646 88.6454 40.2966 85.7293 42.5096C82.7188 44.7934 79.5951 40.4051 79.5951 40.4051L77.8563 43.5477C77.8563 43.5477 81.072 48.7382 84.3137 48.8585C87.5554 48.9788 90.4007 46.0769 90.4007 46.0769L90.5965 32.3646Z" fill="#006CE7"/>
<path d="M73.9328 26.9171L74.374 26.7213L83.3676 29.0074L86.069 47.2212H85.7316L73.9328 26.9171Z" fill="#2D3748"/>
<path opacity="0.05" d="M31.3899 125.196C31.3899 125.196 11.7723 126.51 8.95056 128.391C6.12884 130.271 28.226 130.684 63.4858 129.624C98.7455 128.565 125.894 129.624 145.118 131.564C164.341 133.503 190.416 133.128 190.777 128.379C191.138 123.63 143.178 123.573 143.178 123.573L31.3899 125.196Z" fill="#2D3748"/>
<path d="M153.354 87.3907C153.354 87.3907 152.696 92.869 148.463 93.4069H129.872L127.227 62.9932H146.809C148.39 62.9932 151.629 64.6966 152.276 67.1078C152.363 67.5542 152.42 68.0058 152.448 68.4597C152.882 73.1382 153.354 87.3907 153.354 87.3907Z" fill="#006CE7"/>
<path d="M178.641 29.458H160.71L155.388 24.2321L155.152 23.9962H173.012C174.592 23.9962 177.832 25.6996 178.478 28.1108C178.561 28.556 178.615 29.006 178.641 29.458Z" fill="url(#paint0_linear_3_993)"/>
<path d="M33.7893 65.8243L32.0387 65.0622C31.8108 64.9631 31.6241 64.7886 31.5099 64.5679C31.3957 64.3473 31.3611 64.0941 31.4118 63.8508C31.4625 63.6076 31.5954 63.3893 31.7882 63.2327C31.9811 63.076 32.222 62.9906 32.4704 62.9908H127.227C128.397 62.9798 129.555 63.2329 130.615 63.7312C131.674 64.2296 132.607 64.9603 133.345 65.8691C133.96 66.615 134.367 67.5104 134.524 68.4643C134.951 71.312 134.689 83.7149 134.572 88.3721C134.508 90.9013 132.644 93.0907 130.134 93.3927L129.865 93.4187H38.0879L33.7893 65.8243Z" fill="#006CE7"/>
<path d="M33.7893 65.8243L32.0387 65.0622C31.8108 64.9631 31.6241 64.7886 31.5099 64.5679C31.3957 64.3473 31.3611 64.0941 31.4118 63.8508C31.4625 63.6076 31.5954 63.3893 31.7882 63.2327C31.9811 63.076 32.222 62.9906 32.4704 62.9908H127.227C128.397 62.9798 129.555 63.2329 130.615 63.7312C131.674 64.2296 132.607 64.9603 133.345 65.8691C133.96 66.615 134.367 67.5104 134.524 68.4643C134.951 71.312 134.689 83.7149 134.572 88.3721C134.508 90.9013 132.644 93.0907 130.134 93.3927L129.865 93.4187H38.0879L33.7893 65.8243Z" fill="#006CE7"/>
<path d="M134.579 88.3603C134.515 90.8895 132.651 93.0789 130.141 93.3809L129.872 93.4069H38.095L33.7893 65.8243L32.0387 65.0622C31.8108 64.9631 31.6241 64.7886 31.5099 64.5679C31.3957 64.3473 31.3611 64.0941 31.4118 63.8508C31.4625 63.6076 31.5954 63.3893 31.7882 63.2327C31.9811 63.076 32.222 62.9906 32.4704 62.9908H127.227C128.398 62.9798 129.555 63.2329 130.615 63.7312C131.674 64.2296 132.607 64.9603 133.345 65.8691C133.96 66.615 134.367 67.5104 134.524 68.4643C134.951 71.3002 134.697 83.7031 134.579 88.3603Z" fill="url(#paint1_linear_3_993)"/>
<path opacity="0.61" d="M29.0376 93.4281H130.204C130.554 93.4281 130.89 93.2892 131.138 93.0419C131.386 92.7947 131.525 92.4592 131.526 92.1092C131.526 91.9357 131.491 91.7639 131.425 91.6036C131.359 91.4433 131.261 91.2977 131.139 91.175C131.016 91.0523 130.87 90.955 130.71 90.8886C130.55 90.8222 130.378 90.788 130.204 90.788H29.0376C28.6872 90.788 28.3512 90.9272 28.1034 91.175C27.8556 91.4228 27.7164 91.7588 27.7164 92.1092C27.7171 92.4592 27.8565 92.7947 28.1042 93.0419C28.3519 93.2892 28.6876 93.4281 29.0376 93.4281Z" fill="url(#paint2_linear_3_993)"/>
<path d="M29.0376 93.4281H130.204C130.554 93.4281 130.89 93.2892 131.138 93.0419C131.386 92.7947 131.525 92.4592 131.526 92.1092C131.526 91.9357 131.491 91.7639 131.425 91.6036C131.359 91.4433 131.261 91.2977 131.139 91.175C131.016 91.0523 130.87 90.955 130.71 90.8886C130.55 90.8222 130.378 90.788 130.204 90.788H29.0376C28.6872 90.788 28.3512 90.9272 28.1034 91.175C27.8556 91.4228 27.7164 91.7588 27.7164 92.1092C27.7171 92.4592 27.8565 92.7947 28.1042 93.0419C28.3519 93.2892 28.6876 93.4281 29.0376 93.4281Z" fill="#006CE7"/>
<path d="M150.964 102.084V118.588C150.964 120.741 150.109 122.805 148.587 124.328C147.065 125.851 145.001 126.707 142.848 126.708H36.1108C35.0463 126.71 33.9918 126.502 33.0077 126.096C32.0236 125.69 31.129 125.094 30.3752 124.342C29.6213 123.591 29.0229 122.698 28.6141 121.715C28.2052 120.732 27.994 119.678 27.9925 118.614V102.084C27.9905 100.584 28.4073 99.1137 29.1957 97.8376C29.3679 97.5548 29.5586 97.2837 29.7667 97.026C30.526 96.0721 31.4909 95.3019 32.5893 94.7729C33.6878 94.2439 34.8916 93.9697 36.1108 93.9707H142.846C144.998 93.972 147.063 94.8277 148.585 96.3499C150.107 97.8722 150.963 99.9364 150.964 102.089V102.084Z" fill="#006CE7"/>
<path d="M109.4 126.708H36.1108C34.5555 126.71 33.0325 126.265 31.723 125.426C30.4134 124.587 29.3724 123.389 28.7238 121.976H104.738C104.738 121.976 105.833 125.986 109.4 126.708Z" fill="url(#paint3_linear_3_993)"/>
<path d="M109.4 93.9613C106.031 94.5181 105.09 97.8282 105.09 97.8282H29.1957L29.7667 97.0166C30.526 96.0627 31.4909 95.2925 32.5893 94.7634C33.6878 94.2344 34.8916 93.9602 36.1108 93.9613H109.4Z" fill="url(#paint4_linear_3_993)"/>
<path d="M150.964 102.084V118.588C150.965 120.04 150.576 121.466 149.838 122.717C149.1 123.968 148.039 124.998 146.767 125.699H113.246C112.577 125.699 111.914 125.567 111.295 125.312C110.677 125.056 110.115 124.681 109.642 124.208C109.168 123.735 108.793 123.173 108.536 122.555C108.28 121.937 108.148 121.274 108.147 120.605V100.579C108.147 99.9096 108.279 99.2464 108.535 98.6277C108.791 98.009 109.166 97.4468 109.64 96.9733C110.113 96.4998 110.676 96.1243 111.294 95.8682C111.913 95.6121 112.576 95.4804 113.246 95.4807H147.574C148.624 96.2322 149.479 97.2234 150.069 98.372C150.658 99.5206 150.965 100.793 150.964 102.084Z" fill="url(#paint5_linear_3_993)"/>
<path d="M150.964 102.084V118.588C150.964 118.892 150.947 119.196 150.914 119.498C150.9 119.63 150.881 119.76 150.86 119.89C150.772 120.455 150.622 121.009 150.412 121.541C150.362 121.676 150.308 121.806 150.247 121.935C149.982 122.523 149.65 123.077 149.256 123.587C149.152 123.719 149.043 123.851 148.928 123.979C148.312 124.676 147.581 125.263 146.767 125.713H118.061C117.336 125.714 116.619 125.56 115.959 125.261C115.298 124.962 114.709 124.524 114.232 123.979C114.121 123.854 114.017 123.723 113.921 123.587C113.56 123.09 113.295 122.53 113.14 121.935C113.104 121.808 113.076 121.676 113.052 121.541C112.994 121.234 112.965 120.922 112.965 120.61V100.579C112.965 100.222 113.003 99.8663 113.078 99.5174C113.102 99.3849 113.134 99.2541 113.175 99.1258C113.35 98.5279 113.635 97.9679 114.015 97.4743C114.119 97.3378 114.23 97.2071 114.348 97.0826C114.823 96.5737 115.398 96.1681 116.037 95.8913C116.676 95.6145 117.365 95.4723 118.061 95.4736H147.574C148.206 95.9266 148.769 96.4685 149.246 97.0826C149.345 97.21 149.442 97.3398 149.534 97.4743C149.89 97.988 150.183 98.5425 150.407 99.1258C150.459 99.2555 150.509 99.3876 150.549 99.5174C150.731 100.053 150.853 100.607 150.912 101.169C150.929 101.299 150.94 101.431 150.947 101.563C150.954 101.695 150.964 101.922 150.964 102.084Z" fill="#006CE7"/>
<path d="M150.964 102.084V118.588C150.964 118.892 150.947 119.196 150.914 119.498C150.9 119.63 150.881 119.76 150.86 119.89C150.772 120.455 150.622 121.009 150.412 121.541C150.362 121.676 150.308 121.806 150.247 121.935C149.982 122.523 149.65 123.077 149.256 123.587C149.152 123.719 149.043 123.851 148.928 123.979C148.312 124.676 147.581 125.263 146.767 125.713H118.061C117.336 125.714 116.619 125.56 115.959 125.261C115.298 124.962 114.709 124.524 114.232 123.979C114.121 123.854 114.017 123.723 113.921 123.587C113.56 123.09 113.295 122.53 113.14 121.935C113.104 121.808 113.076 121.676 113.052 121.541C112.994 121.234 112.965 120.922 112.965 120.61V100.579C112.965 100.222 113.003 99.8663 113.078 99.5174C113.102 99.3849 113.134 99.2541 113.175 99.1258C113.35 98.5279 113.635 97.9679 114.015 97.4743C114.119 97.3378 114.23 97.2071 114.348 97.0826C114.823 96.5737 115.398 96.1681 116.037 95.8913C116.676 95.6145 117.365 95.4723 118.061 95.4736H147.574C148.206 95.9266 148.769 96.4685 149.246 97.0826C149.345 97.21 149.442 97.3398 149.534 97.4743C149.89 97.988 150.183 98.5425 150.407 99.1258C150.459 99.2555 150.509 99.3876 150.549 99.5174C150.731 100.053 150.853 100.607 150.912 101.169C150.929 101.299 150.94 101.431 150.947 101.563C150.954 101.695 150.964 101.922 150.964 102.084Z" fill="url(#paint6_linear_3_993)"/>
<path d="M149.534 97.4814H114.015C114.119 97.345 114.23 97.2142 114.348 97.0897H149.244C149.343 97.2171 149.442 97.3469 149.534 97.4814Z" fill="white"/>
<path d="M150.549 99.5175H113.078C113.102 99.385 113.134 99.2542 113.175 99.1258H150.407C150.459 99.2556 150.509 99.3877 150.549 99.5175Z" fill="white"/>
<path d="M150.947 101.556H112.963V101.162H150.912C150.929 101.292 150.94 101.424 150.947 101.556Z" fill="white"/>
<path d="M112.965 103.2H150.966V103.592H112.965V103.2Z" fill="white"/>
<path d="M112.965 105.236H150.966V105.628H112.965V105.236Z" fill="white"/>
<path d="M112.965 107.275H150.966V107.666H112.965V107.275Z" fill="white"/>
<path d="M112.965 109.313H150.966V109.703H112.965V109.313Z" fill="white"/>
<path d="M112.965 111.349H150.966V111.739H112.965V111.349Z" fill="white"/>
<path d="M112.965 113.388H150.966V113.777H112.965V113.388Z" fill="white"/>
<path d="M112.965 115.424H150.966V115.813H112.965V115.424Z" fill="white"/>
<path d="M112.965 117.462H150.966V117.854H112.965V117.462Z" fill="white"/>
<path d="M150.914 119.498C150.9 119.63 150.881 119.76 150.86 119.89H112.965V119.498H150.914Z" fill="white"/>
<path d="M150.424 121.534C150.374 121.669 150.32 121.799 150.259 121.928H113.147C113.111 121.801 113.083 121.669 113.059 121.534H150.424Z" fill="white"/>
<path d="M149.256 123.573C149.152 123.705 149.043 123.837 148.928 123.965H114.232C114.121 123.84 114.017 123.709 113.921 123.573H149.256Z" fill="white"/>
<path d="M103.87 90.1557H128.053C127.027 90.6673 125.896 90.9323 124.75 90.9296H34.8321C33.3465 90.9428 31.893 90.497 30.6703 89.6532C30.3239 89.4145 30.0022 89.1418 29.71 88.8392C29.6156 88.7425 29.5236 88.6411 29.4363 88.5396C29.1072 88.1548 28.8266 87.7308 28.6012 87.2774C28.5516 87.1783 28.5044 87.0769 28.462 86.9778C28.2869 86.5733 28.1602 86.1497 28.0845 85.7155C28.0679 85.6164 28.0514 85.5174 28.0396 85.4135C28.0114 85.1787 27.9972 84.9423 27.9972 84.7058V72.0457C27.9948 71.9111 27.9995 71.7764 28.0113 71.6423C28.0255 71.5102 28.0278 71.4418 28.0396 71.3427C28.0924 70.9117 28.1945 70.4881 28.344 70.0804C28.3817 69.979 28.4218 69.8799 28.4643 69.7785C28.6558 69.3292 28.9031 68.906 29.2004 68.5186L29.4363 68.2166C29.6106 68.0133 29.7973 67.821 29.9955 67.6409C31.3257 66.455 33.0501 65.8073 34.8321 65.8243H124.75C126.163 65.8222 127.546 66.2322 128.73 67.0039H103.87C103.491 67.0035 103.114 67.0494 102.747 67.1408C101.993 67.3197 101.3 67.6978 100.741 68.2355C100.642 68.3304 100.548 68.4312 100.461 68.5375C100.145 68.9071 99.9042 69.3351 99.7529 69.7973C99.7197 69.8963 99.6921 69.9972 99.6704 70.0993C99.6072 70.366 99.5755 70.6392 99.576 70.9133V86.2653C99.5767 86.503 99.6012 86.7401 99.6491 86.973C99.6685 87.0743 99.6937 87.1743 99.7246 87.2727C99.8583 87.7324 100.081 88.1613 100.381 88.5349C100.463 88.6391 100.55 88.7391 100.642 88.8345C101.047 89.2541 101.535 89.5851 102.074 89.8066C102.643 90.0433 103.254 90.162 103.87 90.1557Z" fill="#006CE7"/>
<path d="M131.587 72.1378V84.9465C131.589 85.0191 131.585 85.0918 131.573 85.1635C131.559 85.2343 131.573 85.3074 131.554 85.3782C131.54 85.4427 131.531 85.5082 131.528 85.574C131.528 85.6377 131.511 85.6755 131.502 85.725C131.5 85.7506 131.495 85.7759 131.488 85.8005C131.476 85.8689 131.462 85.9397 131.445 86.0081C131.429 86.0766 131.424 86.0978 131.41 86.1426C131.396 86.1874 131.389 86.2299 131.375 86.2747C131.36 86.3196 131.349 86.3691 131.335 86.4163L131.285 86.5602C131.28 86.6008 131.267 86.6399 131.247 86.6758C131.233 86.7136 131.209 86.7773 131.188 86.8268L131.125 86.9802C131.114 87.0087 131.102 87.0364 131.087 87.0627C131.072 87.1023 131.055 87.1409 131.035 87.1784C131.021 87.2114 131.002 87.2444 130.985 87.2774C130.969 87.3105 130.936 87.3789 130.908 87.4261C130.879 87.4733 130.827 87.5794 130.782 87.662L130.709 87.78C130.643 87.8885 130.575 87.9923 130.502 88.0938C130.464 88.148 130.426 88.1976 130.388 88.2471C130.313 88.3486 130.233 88.4453 130.153 88.542C130.072 88.6388 129.973 88.7449 129.876 88.8417C129.683 89.0393 129.478 89.2245 129.261 89.3961C129.257 89.4027 129.251 89.4077 129.244 89.4103C129.173 89.4669 129.103 89.5188 129.03 89.573L128.794 89.7358L128.558 89.8868C128.482 89.934 128.407 89.9765 128.322 90.0213L128.05 90.1652H103.87C103.254 90.1679 102.643 90.0468 102.074 89.809C101.536 89.5878 101.049 89.2586 100.642 88.8417C100.55 88.7462 100.463 88.6462 100.381 88.542C100.081 88.171 99.8584 87.7444 99.7246 87.2869C99.6934 87.1894 99.6682 87.0902 99.6491 86.9896C99.6012 86.7567 99.5767 86.5196 99.576 86.2818V70.9888C99.5754 70.7163 99.6071 70.4447 99.6704 70.1796C99.6921 70.0782 99.7197 69.9782 99.7529 69.88C99.9043 69.4199 100.145 68.9942 100.461 68.6272C100.548 68.5209 100.642 68.4201 100.741 68.3252C101.302 67.7915 101.994 67.4155 102.747 67.2352C103.115 67.1458 103.492 67.1006 103.87 67.1007H128.73C128.838 67.1715 128.947 67.2446 129.051 67.3225L129.171 67.4121C129.335 67.5342 129.493 67.665 129.643 67.8038L129.773 67.9265L129.867 68.0208L129.994 68.153L130.122 68.2945L130.148 68.3252L130.167 68.3488C130.242 68.4384 130.318 68.5328 130.388 68.6272C130.426 68.6744 130.462 68.7239 130.497 68.7711C130.5 68.7787 130.505 68.7854 130.511 68.79C130.576 68.8812 130.637 68.9732 130.695 69.066L130.797 69.2312C130.858 69.335 130.917 69.4435 130.971 69.5497C130.997 69.6063 131.025 69.6582 131.051 69.7125C131.077 69.7667 131.103 69.8257 131.125 69.88C131.146 69.9342 131.169 69.9791 131.188 70.031C131.207 70.0829 131.228 70.13 131.245 70.1796L131.297 70.3282C131.368 70.5325 131.426 70.7414 131.469 70.9534C131.477 70.9804 131.483 71.0081 131.486 71.036C131.49 71.0863 131.5 71.1361 131.514 71.1847C131.514 71.2342 131.54 71.3522 131.552 71.4347C131.563 71.5173 131.575 71.6329 131.58 71.7344V71.8948C131.58 71.9585 131.587 72.0552 131.587 72.1378Z" fill="url(#paint7_linear_3_993)"/>
<path d="M102.074 89.7971C101.541 89.9269 100.992 90.0448 100.423 90.1557H36.3137C34.4207 90.1714 32.5307 90.0031 30.6703 89.6532C30.3239 89.4145 30.0022 89.1418 29.71 88.8392C29.6156 88.7425 29.5236 88.641 29.4363 88.5396C29.1072 88.1548 28.8266 87.7308 28.6012 87.2774C28.5516 87.1783 28.5044 87.0768 28.462 86.9777C28.2869 86.5733 28.1602 86.1497 28.0845 85.7155C28.0679 85.6164 28.0514 85.5173 28.0396 85.4135C28.0114 85.1787 27.9972 84.9423 27.9972 84.7057V72.0457C27.9948 71.9111 27.9995 71.7764 28.0113 71.6423C28.0255 71.5102 28.0278 71.4418 28.0396 71.3427C28.0924 70.9116 28.1945 70.4881 28.344 70.0804C28.3817 69.979 28.4218 69.8799 28.4643 69.7784C28.6558 69.3292 28.9031 68.9059 29.2004 68.5186L29.4363 68.2166C29.6106 68.0133 29.7973 67.821 29.9955 67.6409C32.0729 67.1929 34.1933 66.9754 36.3184 66.9921H102.218L102.747 67.1289C101.993 67.3079 101.3 67.686 100.741 68.2237C100.642 68.3186 100.548 68.4194 100.461 68.5257C100.145 68.8953 99.9042 69.3233 99.7529 69.7855C99.7197 69.8845 99.6921 69.9853 99.6704 70.0875C99.6072 70.3542 99.5755 70.6274 99.576 70.9015V86.2534C99.5767 86.4912 99.6012 86.7283 99.6491 86.9612C99.6685 87.0625 99.6937 87.1625 99.7246 87.2609C99.8582 87.7206 100.081 88.1495 100.381 88.5231C100.463 88.6273 100.55 88.7273 100.642 88.8227C101.047 89.243 101.535 89.5748 102.074 89.7971Z" fill="#006CE7"/>
<path d="M102.074 89.7971C101.541 89.9269 100.992 90.0448 100.423 90.1557H36.3137C34.4207 90.1714 32.5307 90.0031 30.6703 89.6532C30.3239 89.4145 30.0022 89.1418 29.71 88.8392C29.6156 88.7425 29.5236 88.641 29.4363 88.5396C29.1072 88.1548 28.8266 87.7308 28.6012 87.2774C28.5516 87.1783 28.5044 87.0768 28.462 86.9777C28.2869 86.5733 28.1602 86.1497 28.0845 85.7155C28.0679 85.6164 28.0514 85.5173 28.0396 85.4135C28.0114 85.1787 27.9972 84.9423 27.9972 84.7057V72.0457C27.9948 71.9111 27.9995 71.7764 28.0113 71.6423C28.0255 71.5102 28.0278 71.4418 28.0396 71.3427C28.0924 70.9116 28.1945 70.4881 28.344 70.0804C28.3817 69.979 28.4218 69.8799 28.4643 69.7784C28.6558 69.3292 28.9031 68.9059 29.2004 68.5186L29.4363 68.2166C29.6106 68.0133 29.7973 67.821 29.9955 67.6409C32.0729 67.1929 34.1933 66.9754 36.3184 66.9921H102.218L102.747 67.1289C101.993 67.3079 101.3 67.686 100.741 68.2237C100.642 68.3186 100.548 68.4194 100.461 68.5257C100.145 68.8953 99.9042 69.3233 99.7529 69.7855C99.7197 69.8845 99.6921 69.9853 99.6704 70.0875C99.6072 70.3542 99.5755 70.6274 99.576 70.9015V86.2534C99.5767 86.4912 99.6012 86.7283 99.6491 86.9612C99.6685 87.0625 99.6937 87.1625 99.7246 87.2609C99.8582 87.7206 100.081 88.1495 100.381 88.5231C100.463 88.6273 100.55 88.7273 100.642 88.8227C101.047 89.243 101.535 89.5748 102.074 89.7971Z" fill="url(#paint8_linear_3_993)"/>
<path d="M129.872 91.0948C129.682 91.3143 129.476 91.5194 129.256 91.7082C129.475 91.5175 129.68 91.3126 129.872 91.0948Z" fill="url(#paint9_linear_3_993)"/>
<path d="M130.49 68.9456C130.455 68.8913 130.419 68.837 130.381 68.7851C130.311 68.6813 130.235 68.5775 130.16 68.4784C130.278 68.6294 130.389 68.7851 130.49 68.9456Z" fill="url(#paint10_linear_3_993)"/>
<path d="M131.238 70.5004C131.257 70.5547 131.273 70.6089 131.29 70.6632C131.259 70.5523 131.221 70.4438 131.181 70.3352C131.202 70.3895 131.221 70.4438 131.238 70.5004Z" fill="url(#paint11_linear_3_993)"/>
<path d="M131.587 72.1378V85.088C131.586 85.1797 131.578 85.2712 131.563 85.3617C131.522 85.7503 131.438 86.1331 131.313 86.5036C131.285 86.5956 131.254 86.6853 131.219 86.7726C130.624 88.2528 129.5 89.4588 128.065 90.1558H99.8096C97.6296 90.1558 95.8295 88.6836 95.5629 86.7773C95.5463 86.6869 95.5369 86.5954 95.5346 86.5036C95.5259 86.4253 95.522 86.3465 95.5228 86.2677V70.9888C95.5228 68.8395 97.4432 67.1007 99.8167 67.1007H128.73C130.469 68.2237 131.587 70.0711 131.587 72.1378Z" fill="#006CE7"/>
<path d="M130.381 68.5186H100.461C100.548 68.4124 100.642 68.3115 100.741 68.2166H130.134C130.223 68.3113 130.306 68.4122 130.381 68.5186Z" fill="white"/>
<path d="M131.238 70.0711H99.6704C99.6921 69.9689 99.7197 69.8681 99.753 69.7691H131.132C131.162 69.8776 131.202 69.9791 131.238 70.0711Z" fill="white"/>
<path d="M131.575 71.6423H99.576V71.3403H131.549C131.549 71.4394 131.568 71.5408 131.575 71.6423Z" fill="white"/>
<path d="M99.576 72.9022H131.589V73.2042H99.576V72.9022Z" fill="white"/>
<path d="M99.576 74.4641H131.589V74.7661H99.576V74.4641Z" fill="white"/>
<path d="M99.576 76.0259H131.589V76.3278H99.576V76.0259Z" fill="white"/>
<path d="M99.576 77.5901H131.589V77.8898H99.576V77.5901Z" fill="white"/>
<path d="M99.576 79.1519H131.589V79.4515H99.576V79.1519Z" fill="white"/>
<path d="M99.576 80.7138H131.589V81.0134H99.576V80.7138Z" fill="white"/>
<path d="M99.576 82.2757H131.589V82.5753H99.576V82.2757Z" fill="white"/>
<path d="M99.576 83.8376H131.589V84.1396H99.576V83.8376Z" fill="white"/>
<path d="M131.592 85.4064V85.7084H99.576V85.4064H131.592Z" fill="white"/>
<path d="M131.122 86.9612C131.122 87.0627 130.992 87.1618 130.983 87.2632H99.7246C99.6937 87.1641 99.6685 87.0633 99.6491 86.9612H131.122Z" fill="white"/>
<path d="M101.61 68.5186H29.1957L29.4316 68.2166H101.034C101.232 68.3157 101.423 68.4195 101.61 68.5186Z" fill="white"/>
<path d="M100.959 70.0711H28.3393C28.377 69.9696 28.4172 69.8705 28.4596 69.7691H100.673C100.774 69.8639 100.87 69.9648 100.959 70.0711Z" fill="white"/>
<path d="M101.761 71.6423H28.0066C28.009 71.5419 28.0184 71.4418 28.0349 71.3427H101.685C101.717 71.4407 101.743 71.5408 101.761 71.6423Z" fill="white"/>
<path d="M27.9901 72.9022H101.794V73.2018H27.9901V72.9022Z" fill="white"/>
<path d="M27.9901 74.4641H101.794V74.7637H27.9901V74.4641Z" fill="white"/>
<path d="M27.9901 76.0259H101.794V76.3278H27.9901V76.0259Z" fill="white"/>
<path d="M27.9901 77.5901H101.794V77.8898H27.9901V77.5901Z" fill="white"/>
<path d="M27.9901 79.1543H101.794V79.4516H27.9901V79.1543Z" fill="white"/>
<path d="M27.9901 80.7138H101.794V81.0111H27.9901V80.7138Z" fill="white"/>
<path d="M27.9901 82.2757H101.794V82.5753H27.9901V82.2757Z" fill="white"/>
<path d="M27.9901 83.8376H101.794V84.1396H27.9901V83.8376Z" fill="white"/>
<path d="M101.685 85.4064C101.654 85.5092 101.617 85.61 101.574 85.7084H28.075C28.0585 85.6093 28.042 85.5102 28.0302 85.4064H101.685Z" fill="white"/>
<path d="M100.683 86.9636C100.577 87.0691 100.466 87.1691 100.35 87.2633H28.5964C28.5469 87.1642 28.4997 87.0627 28.4572 86.9636H100.683Z" fill="white"/>
<path opacity="0.2" d="M104.368 62.9931C103.304 64.2719 101.928 65.5577 101.383 65.8432C98.2831 67.4758 94.6923 68.7262 92.8732 71.7225C90.5706 75.4974 92.0593 80.4354 91.0023 84.7341C90.8089 85.5174 90.5092 86.3172 89.9029 86.8574C89.2965 87.3977 88.3222 87.5818 87.6781 87.0934C87.1118 86.6663 86.9703 85.8925 86.8641 85.1918C85.9343 78.5773 85.8994 71.8677 86.7603 65.2439C83.2213 66.8246 80.8267 70.1607 78.9369 73.5345C77.0471 76.9083 75.4616 80.5251 72.8286 83.3586C72.0807 84.1608 71.0969 84.9464 70.0116 84.7907C68.7069 83.1392 69.3911 80.7256 70.1319 78.7485C71.6159 74.766 73.1047 70.7788 75.0251 67.0039C75.6433 65.7771 76.3298 64.5455 77.3679 63.6443C77.6518 63.3981 77.9583 63.1793 78.2833 62.9908L104.368 62.9931Z" fill="#2D3748"/>
<path d="M130.148 88.5254C130.068 88.6316 129.978 88.7142 129.888 88.825H29.7053C29.6109 88.7283 29.5189 88.6269 29.4316 88.5254H130.148Z" fill="white"/>
<path d="M51.3802 126.708H39.2746C35.3936 125.732 33.5132 121.534 33.5132 121.534C33.5132 121.534 33.1617 101.009 33.5132 98.4133C33.8647 95.8181 39.7441 93.9542 39.7441 93.9542H51.3802C47.4991 94.511 44.6798 98.2954 44.6798 98.2954C44.6798 98.2954 44.4438 120.98 44.6798 122.506C44.9157 124.033 51.3802 126.708 51.3802 126.708Z" fill="url(#paint12_linear_3_993)"/>
<path d="M51.3802 126.708H47.4992C43.6228 125.732 41.7425 121.534 41.7425 121.534C41.7425 121.534 41.3886 101.009 41.7425 98.4133C42.0964 95.8181 47.971 93.9542 47.971 93.9542H51.3802C47.4992 94.511 44.6798 98.2954 44.6798 98.2954C44.6798 98.2954 44.4439 120.98 44.6798 122.506C44.9157 124.033 51.3802 126.708 51.3802 126.708Z" fill="#006CE7"/>
<path d="M51.3802 126.708H47.4992C43.6228 125.732 41.7425 121.534 41.7425 121.534C41.7425 121.534 41.3886 101.009 41.7425 98.4133C42.0964 95.8181 47.971 93.9542 47.971 93.9542H51.3802C47.4992 94.511 44.6798 98.2954 44.6798 98.2954C44.6798 98.2954 44.4439 120.98 44.6798 122.506C44.9157 124.033 51.3802 126.708 51.3802 126.708Z" fill="url(#paint13_linear_3_993)"/>
<path d="M68.2397 77.8095L67.112 79.7677L69.7308 80.9072L70.8137 79.0434L68.2397 77.8095Z" fill="url(#paint14_linear_3_993)"/>
<path d="M85.8473 83.0684L85.7246 85.2507L88.5793 85.0856L88.6997 83.0684H85.8473Z" fill="url(#paint15_linear_3_993)"/>
<path d="M67.6264 79.3336C67.5694 79.2144 67.4892 79.1077 67.3904 79.0198C67.2746 78.9425 67.1419 78.8939 67.0035 78.8783L62.4713 77.9676C62.3077 77.9273 62.1395 77.909 61.9711 77.9133C61.537 77.9416 61.1807 78.2602 60.8953 78.5881C60.7318 78.7431 60.6268 78.9498 60.598 79.1732C60.6145 79.3135 60.6599 79.4488 60.7314 79.5706C60.8029 79.6924 60.8988 79.7981 61.0132 79.881C61.3317 80.1763 61.6664 80.4536 62.0159 80.7115C62.6876 81.1823 63.3864 81.6132 64.1086 82.002C64.5946 82.2757 65.0807 82.5494 65.5785 82.7994C66.3971 83.21 67.2465 83.5544 68.1006 83.8894C68.1569 83.9245 68.2248 83.9357 68.2894 83.9207C68.354 83.9056 68.41 83.8655 68.445 83.8092C69.0629 83.165 69.5501 82.407 69.8795 81.5773C69.9621 81.3721 70.1154 80.9214 69.8795 80.7516C69.7969 80.6926 69.5633 80.702 69.4595 80.6784C69.08 80.5873 68.7222 80.4217 68.4072 80.1912C68.0921 79.9608 67.8259 79.6701 67.624 79.336L67.6264 79.3336Z" fill="#2D3748"/>
<path d="M86.0148 84.2599C85.9052 84.1864 85.7827 84.1343 85.6538 84.1065C85.5149 84.099 85.3761 84.1233 85.248 84.1773L80.8738 85.6707C80.7081 85.7167 80.5494 85.785 80.402 85.8736C80.041 86.1096 79.8924 86.5814 79.8098 86.999C79.746 87.2148 79.7602 87.4462 79.8499 87.6525C79.9339 87.7643 80.0402 87.8574 80.162 87.926C80.2839 87.9947 80.4186 88.0373 80.5577 88.0513C80.9808 88.148 81.4094 88.2189 81.8412 88.2636C82.6578 88.3344 83.478 88.3556 84.2972 88.3273C84.8563 88.3273 85.4131 88.3131 85.9699 88.2778C86.8853 88.2211 87.7937 88.0914 88.6973 87.9522C88.7628 87.9548 88.8268 87.9315 88.8753 87.8873C88.9239 87.8432 88.9531 87.7817 88.9568 87.7162C89.1664 86.8482 89.2072 85.9479 89.0771 85.0644C89.0441 84.845 88.9426 84.3825 88.6572 84.3566C88.5557 84.3448 88.3599 84.4722 88.2585 84.5029C88.1045 84.5501 87.9465 84.5833 87.7866 84.602C87.1747 84.677 86.5547 84.5573 86.0148 84.2599Z" fill="#2D3748"/>
<path d="M103.724 54.8299C103.724 54.8299 102.983 61.7639 96.5915 62.9931C92.2645 63.8212 86.9726 63.5263 84.0093 63.2503C83.3086 63.1856 82.6037 63.316 81.9724 63.627C81.3412 63.9381 80.8083 64.4176 80.4326 65.0127L71.2314 79.6687L68.5654 78.3805H68.5441L67.6004 77.9275L75.2611 60.0416C75.7111 58.931 76.4021 57.9342 77.2842 57.1231C78.1663 56.312 79.2175 55.7068 80.3619 55.3514L89.1644 52.6264L91.2217 51.9893C91.2217 51.9893 99.4628 51.1589 103.724 54.8299Z" fill="#2D3748"/>
<path opacity="0.24" d="M89.1809 52.6122L89.7589 53.8367C89.7589 53.8367 79.614 56.8094 78.3682 58.2556C76.7049 60.1903 68.5748 78.3687 68.5748 78.3687H68.5536L67.6098 77.9157L75.261 60.0416C75.7111 58.931 76.4021 57.9342 77.2842 57.1231C78.1663 56.312 79.2175 55.7068 80.3618 55.3513L89.1809 52.6122Z" fill="white"/>
<path d="M92.7765 53.6267C92.7765 53.6267 84.6275 61.5775 84.3632 65.8243C84.099 70.071 85.2385 83.3869 85.2385 83.3869H89.1927C89.1927 83.3869 88.9969 67.221 90.6083 67.1077C92.2197 66.9945 99.5241 62.2853 100.697 60.9405C101.869 59.5957 103.74 54.8252 103.74 54.8252L92.7765 53.6267Z" fill="#2D3748"/>
<path d="M103.724 54.8299C103.724 54.8299 97.2026 58.1636 90.4078 54.2637C89.816 53.9239 89.2477 53.5448 88.7067 53.1289C88.7067 53.1289 91.5662 48.021 89.2895 40.601C88.3151 37.4277 88.2939 31.369 93.1186 30.5055H93.1422C97.941 29.6538 97.6697 30.8382 97.6697 30.8382L99.8403 32.9474C104.014 36.333 104.472 41.5235 103.724 54.8299Z" fill="#006CE7"/>
<path opacity="0.24" d="M93.1422 30.5008C92.9417 30.9377 92.6301 31.3143 92.2386 31.5931C92.2386 31.5931 89.3697 32.8648 89.943 37.0714C90.5163 41.2781 91.5662 49.3681 91.5662 49.3681L90.4078 54.2637C89.816 53.9239 89.2477 53.5448 88.7067 53.1288C88.7067 53.1288 91.5662 48.021 89.2895 40.601C88.3151 37.4277 88.2939 31.369 93.1186 30.5055L93.1422 30.5008Z" fill="white"/>
<path d="M97.4573 30.2318C97.2044 30.5341 96.8944 30.7836 96.545 30.966C96.1956 31.1485 95.8137 31.2603 95.4211 31.2951C95.0285 31.33 94.6329 31.2871 94.2568 31.169C93.8808 31.051 93.5317 30.86 93.2295 30.607L93.1257 30.5173C93.1257 30.5173 89.5867 34.0563 93.1634 34.4833C95.0509 34.7192 97.3748 32.4354 98.0472 31.1449L97.4573 30.2318Z" fill="#2D3748"/>
<path d="M98.5191 26.917C98.5049 26.9642 97.8396 29.0003 97.3394 30.456C96.9683 31.5907 96.1809 32.5425 95.1358 33.1196C94.5227 33.49 93.8402 33.7309 93.1304 33.8274C93.0094 33.8385 92.8874 33.8256 92.7714 33.7894C92.6554 33.7533 92.5477 33.6947 92.4544 33.6169C92.361 33.5391 92.2839 33.4437 92.2275 33.3361C92.171 33.2285 92.1363 33.1109 92.1254 32.9899C92.107 32.7965 92.1508 32.6023 92.2504 32.4354C92.4156 32.1453 92.5949 31.8102 92.76 31.454C93.1045 30.7132 93.3923 29.8898 93.3451 29.2386V29.1678C93.3027 28.8281 93.5244 28.5284 93.8972 28.2666C94.4233 27.9009 95.2514 27.613 96.0607 27.396C96.8705 27.1904 97.6913 27.0305 98.5191 26.917Z" fill="url(#paint16_linear_3_993)"/>
<path d="M93.2743 31.4257C93.1122 31.4586 92.9464 31.4705 92.7812 31.4611C93.1257 30.7202 93.4135 29.8968 93.3663 29.2457L93.9137 28.2736L94.3218 27.5517L96.0772 27.4031L97.8514 27.2544C96.6811 30.0219 94.7158 31.1685 93.2743 31.4257Z" fill="url(#paint17_linear_3_993)"/>
<path d="M96.5702 17.6073C95.3354 17.349 94.0485 17.5916 92.9925 18.2817C91.9365 18.9719 91.1977 20.0531 90.9386 21.2878C90.915 21.4081 90.8938 21.5237 90.8772 21.6535C90.5144 23.5602 90.4992 25.5169 90.8324 27.4291C91.6417 30.39 95.9899 29.3165 96.8722 28.4176C97.7546 27.5187 101.301 23.3758 100.72 21.7644C100.35 20.6697 99.0522 18.1664 96.5702 17.6073Z" fill="url(#paint18_linear_3_993)"/>
<path d="M93.0667 14.7195L93.7367 15.3353C93.2763 15.1993 92.7901 15.1749 92.3183 15.2639C91.8466 15.3529 91.4028 15.5529 91.0235 15.8472C90.1249 16.363 89.4636 17.2097 89.1809 18.2065L90.6696 17.9399C90.6696 17.9399 90.127 19.5419 92.5948 20.3417C95.0626 21.1415 97.6744 21.9649 97.6744 21.9649L97.1459 20.5493C97.1459 20.5493 98.5308 21.5921 98.6464 22.2433C98.6422 23.2309 98.5633 24.2167 98.4105 25.1924C98.4105 25.1924 99.4675 23.7533 99.6279 24.1732C99.7883 24.5932 98.8682 25.9073 98.4482 26.1409C98.0283 26.3744 97.8301 27.3441 97.7782 27.4149C97.7263 27.4857 99.6656 26.6033 99.8567 26.1692C100.048 25.7351 102.865 21.6039 102.091 20.3677L102.726 20.488C102.424 20.1407 102.048 19.8651 101.626 19.6811C101.626 19.6811 98.9909 13.2119 93.0667 14.7195Z" fill="#2D3748"/>
<path d="M92.1324 49.5569C91.7762 49.2007 91.4246 48.776 90.9268 48.6911C90.7522 49.1063 91.1085 49.5333 91.2595 49.9557C91.2828 50.0026 91.2949 50.0543 91.2949 50.1067C91.2949 50.159 91.2828 50.2107 91.2595 50.2577C91.1887 50.3709 91.0236 50.378 90.8938 50.3685C90.2644 50.3237 89.6466 50.1754 89.0654 49.9297C88.5274 49.6938 88.0107 49.3894 87.428 49.3304C87.3657 49.3181 87.3011 49.3264 87.244 49.354C87.1024 49.4437 87.185 49.6608 87.2864 49.7929C87.503 50.0782 87.7489 50.3399 88.0202 50.5738C87.6091 50.3916 87.1706 50.2792 86.7226 50.2411C86.5975 50.2411 86.4276 50.2671 86.43 50.3921C86.4381 50.4435 86.463 50.4908 86.5008 50.5266C86.8324 50.9063 87.2326 51.22 87.6804 51.4515C87.3549 51.3827 87.022 51.355 86.6895 51.3689C86.5456 51.3689 86.3545 51.4444 86.3757 51.5859C86.3849 51.6326 86.4079 51.6753 86.4418 51.7086C86.8409 52.1905 87.3802 52.536 87.9848 52.6972L87.0411 52.7184C86.9816 52.716 86.9225 52.7282 86.8688 52.7538C86.699 52.8623 86.8476 53.1289 87.0128 53.2445C87.7394 53.7518 88.6643 53.8414 89.5537 53.9051C91.2548 54.0278 93.0455 54.0939 94.579 53.3436C94.6899 53.287 94.815 53.2115 94.8362 53.0888C94.841 53.0246 94.8314 52.9601 94.8079 52.9001C94.6215 52.2796 94.5271 51.1542 93.9633 50.7767C93.6896 50.595 93.3522 50.4912 93.0714 50.3048C92.7907 50.1185 92.4533 49.7174 92.1324 49.5569Z" fill="url(#paint19_linear_3_993)"/>
<path d="M105.109 48.2404C104.575 53.4804 95.0792 54.1221 95.0792 54.1221L94.1001 50.7554L93.9279 50.1632C93.9279 50.1632 99.0145 49.5215 99.9865 47.9289C100.959 46.3364 96.9572 40.9973 99.3755 38.0199C101.794 35.0424 102.343 35.9578 102.343 35.9578C102.343 35.9578 105.637 43.0004 105.109 48.2404Z" fill="#006CE7"/>
<path d="M79.5998 40.4076C79.5971 40.5718 79.5837 40.7358 79.5597 40.8983C79.4795 41.632 79.2506 42.9745 78.6419 43.4628C77.7855 44.1494 77.6675 43.1491 77.6864 42.7551C77.7051 42.5387 77.7406 42.3242 77.7926 42.1133C77.9908 41.2593 79.0407 40.6742 79.4441 40.4807L79.5998 40.4076Z" fill="url(#paint20_linear_3_993)"/>
<path d="M79.5597 40.8983C79.4795 41.632 79.2506 42.9745 78.6419 43.4628C78.3777 43.2717 78.038 43.0169 77.6864 42.755C77.2146 42.4011 76.712 42.0284 76.3558 41.7689C76.0387 41.5563 75.7501 41.3042 75.497 41.0186C75.275 40.7287 75.0911 40.4115 74.9496 40.0749L74.2182 38.4847C73.9823 37.9633 73.7464 37.2744 74.1663 36.8709C74.2725 36.7671 75.2398 36.5784 75.3035 36.4416C75.4805 36.0499 74.3598 35.2218 74.4306 34.79C74.4657 34.6725 74.5408 34.5708 74.6429 34.5028C74.745 34.4347 74.8677 34.4044 74.9897 34.4173C75.2257 34.4291 75.8957 35.0448 76.1057 35.1699C76.5209 35.4058 76.1717 35.7408 76.5775 35.9862C77.104 36.2568 77.5823 36.6123 77.9931 37.0385C78.4508 37.574 78.682 38.2606 78.9015 38.9259C79.0619 39.4143 79.2766 39.9428 79.4417 40.4689C79.4866 40.6199 79.5267 40.7591 79.5597 40.8983Z" fill="url(#paint21_linear_3_993)"/>
<path d="M76.0892 37.1375L74.5155 29.6751L73.9328 26.917L83.0774 29.3684L85.7316 47.2212L77.2334 44.6307L76.0892 37.1375Z" fill="#006CE7"/>
<path d="M77.9931 37.0479L74.374 29.0074L77.2334 44.6307L85.7316 47.2212L84.8209 41.0988L77.9931 37.0479Z" fill="url(#paint22_linear_3_993)"/>
<path d="M76.6106 40.3556C76.8984 40.2117 77.4882 39.9498 77.6369 39.6643C77.6722 39.5959 77.7241 39.5063 77.6793 39.4449C77.4741 39.1618 76.6294 39.5228 76.3888 39.4449C76.5539 39.1736 78.0261 38.3502 77.3325 38.1638C77.1839 38.1237 76.2614 38.5909 76.1127 38.5484C76.2283 38.454 77.1768 37.7793 77.3396 37.6047C77.3866 37.5527 77.4145 37.4862 77.4188 37.4163C77.4231 37.3463 77.4034 37.2769 77.3631 37.2196C77.3228 37.1623 77.2641 37.1204 77.1969 37.1007C77.1296 37.0811 77.0576 37.0849 76.9928 37.1116C76.4904 37.3423 75.9753 37.544 75.4498 37.7156C75.5512 37.548 76.922 36.7718 76.9762 36.5737C77.0068 36.4987 77.0117 36.4158 76.9904 36.3377C76.9714 36.2957 76.9437 36.2582 76.9091 36.2277C76.8746 36.1972 76.8339 36.1744 76.7899 36.1608C76.4077 36.0121 75.9783 36.1608 75.5961 36.3141L74.6901 36.6727C74.3999 36.786 74.079 36.9323 73.9823 37.2248C73.9399 37.3729 73.9327 37.5288 73.9611 37.6802C74.0715 38.6354 74.4124 39.5495 74.9543 40.3438C75.2233 40.7355 76.0726 41.6815 76.561 41.7735C76.9951 41.8561 76.2048 40.5797 76.6106 40.3556Z" fill="url(#paint23_linear_3_993)"/>
<path opacity="0.24" d="M86.0714 64.5408C86.0714 64.5408 89.1904 57.3945 92.7954 55.3608L91.5662 54.8629C91.5662 54.8629 85.2362 61.594 84.4883 65.0575C83.7404 68.5209 85.2409 83.3822 85.2409 83.3822H86.279C86.279 83.3822 84.5638 65.9988 86.0714 64.5408Z" fill="white"/>
<path opacity="0.24" d="M100.251 49.0733C98.243 49.899 94.8244 50.6186 94.0883 50.7696L93.9467 50.7979L93.916 50.1774C93.916 50.1774 99.0027 49.5357 99.9747 47.9432C100.947 46.3506 96.9454 41.0115 99.3637 38.0341C99.3637 38.0341 99.057 40.6671 99.852 42.6135C100.647 44.5599 102.506 48.1295 100.251 49.0733Z" fill="white"/>
<defs>
<linearGradient id="paint0_linear_3_993" x1="164.966" y1="23.0596" x2="179.62" y2="45.3903" gradientUnits="userSpaceOnUse">
<stop stop-color="white" stop-opacity="0"/>
<stop offset="0.99" stop-color="white"/>
</linearGradient>
<linearGradient id="paint1_linear_3_993" x1="82.9689" y1="80.4637" x2="83.3865" y2="42.6583" gradientUnits="userSpaceOnUse">
<stop stop-color="white" stop-opacity="0"/>
<stop offset="0.99" stop-color="white"/>
</linearGradient>
<linearGradient id="paint2_linear_3_993" x1="97.2686" y1="49.656" x2="77.6298" y2="96.8962" gradientUnits="userSpaceOnUse">
<stop offset="0.17" stop-color="#2D3748"/>
<stop offset="1" stop-color="#2D3748" stop-opacity="0"/>
</linearGradient>
<linearGradient id="paint3_linear_3_993" x1="68.8202" y1="115.898" x2="69.6152" y2="143.599" gradientUnits="userSpaceOnUse">
<stop stop-color="#2D3748" stop-opacity="0"/>
<stop offset="0.91" stop-color="#2D3748" stop-opacity="0.8"/>
<stop offset="1" stop-color="#2D3748"/>
</linearGradient>
<linearGradient id="paint4_linear_3_993" x1="69.6978" y1="90.8848" x2="68.445" y2="106.551" gradientUnits="userSpaceOnUse">
<stop stop-color="white" stop-opacity="0"/>
<stop offset="0.99" stop-color="white"/>
</linearGradient>
<linearGradient id="paint5_linear_3_993" x1="120.536" y1="110.217" x2="73.3076" y2="108.424" gradientUnits="userSpaceOnUse">
<stop stop-color="#2D3748" stop-opacity="0"/>
<stop offset="0.91" stop-color="#2D3748" stop-opacity="0.8"/>
<stop offset="1" stop-color="#2D3748"/>
</linearGradient>
<linearGradient id="paint6_linear_3_993" x1="129.192" y1="95.2211" x2="137.299" y2="9.7932" gradientUnits="userSpaceOnUse">
<stop stop-color="white" stop-opacity="0"/>
<stop offset="0.99" stop-color="white"/>
</linearGradient>
<linearGradient id="paint7_linear_3_993" x1="132.007" y1="79.9353" x2="99.0499" y2="77.2198" gradientUnits="userSpaceOnUse">
<stop stop-color="#68E1FD"/>
<stop offset="1" stop-color="white"/>
</linearGradient>
<linearGradient id="paint8_linear_3_993" x1="100.708" y1="78.5739" x2="13.1171" y2="78.5739" gradientUnits="userSpaceOnUse">
<stop stop-color="white" stop-opacity="0"/>
<stop offset="0.99" stop-color="white"/>
</linearGradient>
<linearGradient id="paint9_linear_3_993" x1="129.256" y1="91.4015" x2="129.872" y2="91.4015" gradientUnits="userSpaceOnUse">
<stop stop-color="#68E1FD"/>
<stop offset="1" stop-color="#69B9EB"/>
</linearGradient>
<linearGradient id="paint10_linear_3_993" x1="130.16" y1="68.712" x2="130.49" y2="68.712" gradientUnits="userSpaceOnUse">
<stop stop-color="#68E1FD"/>
<stop offset="1" stop-color="#69B9EB"/>
</linearGradient>
<linearGradient id="paint11_linear_3_993" x1="131.181" y1="70.498" x2="131.29" y2="70.498" gradientUnits="userSpaceOnUse">
<stop stop-color="#68E1FD"/>
<stop offset="1" stop-color="#69B9EB"/>
</linearGradient>
<linearGradient id="paint12_linear_3_993" x1="39.0057" y1="133.562" x2="47.1146" y2="84.0829" gradientUnits="userSpaceOnUse">
<stop stop-color="white" stop-opacity="0"/>
<stop offset="0.99" stop-color="white"/>
</linearGradient>
<linearGradient id="paint13_linear_3_993" x1="45.8264" y1="107.518" x2="47.2892" y2="-39.8204" gradientUnits="userSpaceOnUse">
<stop stop-color="white" stop-opacity="0"/>
<stop offset="0.99" stop-color="white"/>
</linearGradient>
<linearGradient id="paint14_linear_3_993" x1="71.2219" y1="79.5436" x2="65.7766" y2="79.0929" gradientUnits="userSpaceOnUse">
<stop stop-color="#ECC4D7"/>
<stop offset="0.42" stop-color="#EFD4D1"/>
<stop offset="1" stop-color="#F2EAC9"/>
</linearGradient>
<linearGradient id="paint15_linear_3_993" x1="89.2749" y1="82.8632" x2="84.2879" y2="84.8901" gradientUnits="userSpaceOnUse">
<stop stop-color="#ECC4D7"/>
<stop offset="0.42" stop-color="#EFD4D1"/>
<stop offset="1" stop-color="#F2EAC9"/>
</linearGradient>
<linearGradient id="paint16_linear_3_993" x1="97.9623" y1="30.3994" x2="94.1095" y2="30.3545" gradientUnits="userSpaceOnUse">
<stop stop-color="#ECC4D7"/>
<stop offset="0.42" stop-color="#EFD4D1"/>
<stop offset="1" stop-color="#F2EAC9"/>
</linearGradient>
<linearGradient id="paint17_linear_3_993" x1="95.636" y1="28.7738" x2="85.1418" y2="33.1928" gradientUnits="userSpaceOnUse">
<stop stop-color="#ECC4D7"/>
<stop offset="0.42" stop-color="#EFD4D1"/>
<stop offset="1" stop-color="#F2EAC9"/>
</linearGradient>
<linearGradient id="paint18_linear_3_993" x1="100.336" y1="22.7506" x2="91.6346" y2="23.8146" gradientUnits="userSpaceOnUse">
<stop stop-color="#ECC4D7"/>
<stop offset="0.42" stop-color="#EFD4D1"/>
<stop offset="1" stop-color="#F2EAC9"/>
</linearGradient>
<linearGradient id="paint19_linear_3_993" x1="86.3639" y1="51.3359" x2="94.8268" y2="51.3359" gradientUnits="userSpaceOnUse">
<stop stop-color="#ECC4D7"/>
<stop offset="0.42" stop-color="#EFD4D1"/>
<stop offset="1" stop-color="#F2EAC9"/>
</linearGradient>
<linearGradient id="paint20_linear_3_993" x1="77.6841" y1="42.052" x2="79.5998" y2="42.052" gradientUnits="userSpaceOnUse">
<stop stop-color="#183866"/>
<stop offset="1" stop-color="#1A7FC1"/>
</linearGradient>
<linearGradient id="paint21_linear_3_993" x1="73.9351" y1="38.9377" x2="79.5597" y2="38.9377" gradientUnits="userSpaceOnUse">
<stop stop-color="#ECC4D7"/>
<stop offset="0.42" stop-color="#EFD4D1"/>
<stop offset="1" stop-color="#F2EAC9"/>
</linearGradient>
<linearGradient id="paint22_linear_3_993" x1="77.1697" y1="33.5349" x2="88.551" y2="61.0562" gradientUnits="userSpaceOnUse">
<stop stop-color="white" stop-opacity="0"/>
<stop offset="0.99" stop-color="white"/>
</linearGradient>
<linearGradient id="paint23_linear_3_993" x1="73.9327" y1="38.9377" x2="77.6982" y2="38.9377" gradientUnits="userSpaceOnUse">
<stop stop-color="#ECC4D7"/>
<stop offset="0.42" stop-color="#EFD4D1"/>
<stop offset="1" stop-color="#F2EAC9"/>
</linearGradient>
</defs>
</svg>
