<svg viewBox="0 0 148 105" fill="none" xmlns="http://www.w3.org/2000/svg">
<path d="M88.6315 104.819C87.4368 104.833 86.2464 104.673 85.0976 104.344C82.0672 103.432 79.3551 100.891 77.6642 97.381C76.149 94.2366 75.541 90.774 74.9568 87.4064C74.9506 87.3763 74.9508 87.3453 74.9572 87.3153C74.9635 87.2853 74.976 87.257 74.9939 87.232C75.0117 87.207 75.0345 87.186 75.0608 87.1703C75.0871 87.1545 75.1164 87.1443 75.1468 87.1404C75.1764 87.1349 75.2068 87.1354 75.2363 87.1417C75.2658 87.1481 75.2937 87.1603 75.3184 87.1775C75.3432 87.1947 75.3642 87.2167 75.3804 87.2421C75.3966 87.2675 75.4076 87.2959 75.4128 87.3256C75.9922 90.6505 76.5907 94.0799 78.0774 97.1672C79.7161 100.563 82.3237 103.01 85.2306 103.888C87.3443 104.52 89.6479 104.363 91.8234 104.107C96.4829 103.556 99.3233 102.112 100.516 99.6989C100.558 99.6039 100.601 99.5184 100.63 99.4376C99.8838 99.6466 99.1476 99.9126 98.4256 100.183C97.8271 100.402 97.2096 100.625 96.5922 100.82C93.5869 101.763 90.3993 101.971 87.2968 101.428C85.8006 101.162 84.8886 100.44 84.8554 99.4994C84.8221 98.5589 85.6344 97.8085 87.0831 97.3905C91.0525 96.2368 95.2573 96.1597 99.2663 97.1672C100.406 97.4522 101.033 97.9272 101.166 98.6159C101.18 98.6913 101.19 98.7674 101.195 98.8439C101.375 98.8012 101.556 98.7632 101.741 98.7299C103.669 98.3879 105.683 98.5827 107.631 98.7679C110.395 99.0339 113.008 99.2857 115.363 98.1267C115.419 98.1006 115.482 98.0974 115.54 98.1178C115.598 98.1383 115.645 98.1807 115.672 98.2359C115.686 98.263 115.694 98.2926 115.696 98.3228C115.698 98.3531 115.695 98.3835 115.685 98.4123C115.675 98.4411 115.66 98.4676 115.64 98.4903C115.62 98.513 115.595 98.5315 115.568 98.5447C113.093 99.7559 110.295 99.4946 107.588 99.2287C105.688 99.0434 103.688 98.8534 101.822 99.1859C101.594 99.2239 101.347 99.2762 101.142 99.3284C101.087 99.5387 101.009 99.7425 100.91 99.9364C99.6463 102.501 96.6824 104.026 91.8614 104.601C90.79 104.737 89.7115 104.81 88.6315 104.819ZM93.5855 96.9155C91.4287 96.9161 89.2827 97.2216 87.2113 97.8227C86.6318 97.989 85.2829 98.4924 85.3114 99.4756C85.3399 100.459 86.8931 100.901 87.368 100.962C90.395 101.503 93.5074 101.31 96.4449 100.402C97.0529 100.212 97.6656 99.9886 98.2546 99.7749C99.0668 99.4756 99.8933 99.1717 100.744 98.9484C100.753 98.868 100.753 98.7866 100.744 98.7062C100.634 98.2027 100.117 97.8465 99.1618 97.6042C97.3386 97.1456 95.4656 96.9143 93.5855 96.9155Z" fill="#E6E7E8"/>
<path d="M144.57 32.1281H113.654C112.405 32.1281 111.393 33.1403 111.393 34.389V100.506C111.393 101.755 112.405 102.767 113.654 102.767H144.57C145.819 102.767 146.831 101.755 146.831 100.506V34.389C146.831 33.1403 145.819 32.1281 144.57 32.1281Z" fill="white"/>
<path d="M144.57 102.995H113.654C112.994 102.994 112.362 102.731 111.895 102.265C111.429 101.798 111.166 101.166 111.165 100.506V34.3842C111.166 33.7245 111.429 33.0922 111.895 32.6257C112.362 32.1592 112.994 31.8966 113.654 31.8953H144.57C145.231 31.8953 145.864 32.1574 146.332 32.624C146.799 33.0906 147.063 33.7237 147.064 34.3842V100.506C147.063 101.167 146.799 101.8 146.332 102.267C145.864 102.733 145.231 102.995 144.57 102.995ZM113.654 32.3561C113.116 32.3561 112.6 32.5697 112.219 32.9501C111.839 33.3304 111.625 33.8463 111.625 34.3842V100.506C111.625 101.044 111.839 101.56 112.219 101.941C112.6 102.321 113.116 102.535 113.654 102.535H144.57C145.108 102.535 145.624 102.321 146.004 101.941C146.385 101.56 146.598 101.044 146.598 100.506V34.3842C146.598 33.8463 146.385 33.3304 146.004 32.9501C145.624 32.5697 145.108 32.3561 144.57 32.3561H113.654Z" fill="#2D3748"/>
<path d="M113.255 38.5166H144.969V92.8782H113.255V38.5166Z" fill="#006CE7"/>
<path d="M132.13 95.5239H126.093C125.327 95.5239 124.706 96.1448 124.706 96.9108V99.224C124.706 99.99 125.327 100.611 126.093 100.611H132.13C132.896 100.611 133.517 99.99 133.517 99.224V96.9108C133.517 96.1448 132.896 95.5239 132.13 95.5239Z" fill="white"/>
<path d="M132.126 100.839H126.098C125.668 100.839 125.256 100.668 124.953 100.364C124.649 100.061 124.478 99.6488 124.478 99.2192V96.9155C124.478 96.486 124.649 96.074 124.953 95.7702C125.256 95.4665 125.668 95.2958 126.098 95.2958H132.126C132.339 95.2952 132.55 95.3367 132.747 95.4178C132.944 95.4989 133.123 95.6181 133.274 95.7686C133.425 95.919 133.545 96.0978 133.626 96.2946C133.708 96.4914 133.75 96.7024 133.75 96.9155V99.2192C133.749 99.6492 133.577 100.061 133.273 100.365C132.968 100.668 132.556 100.839 132.126 100.839ZM126.098 95.7566C125.791 95.7566 125.496 95.8787 125.279 96.096C125.061 96.3134 124.939 96.6082 124.939 96.9155V99.2192C124.939 99.5266 125.061 99.8214 125.279 100.039C125.496 100.256 125.791 100.378 126.098 100.378H132.126C132.433 100.378 132.728 100.256 132.945 100.039C133.162 99.8214 133.284 99.5266 133.284 99.2192V96.9155C133.284 96.6082 133.162 96.3134 132.945 96.096C132.728 95.8787 132.433 95.7566 132.126 95.7566H126.098Z" fill="#E6E7E8"/>
<path d="M132.316 35.4054H123.291C123.261 35.4061 123.23 35.4006 123.202 35.3895C123.174 35.3783 123.148 35.3616 123.127 35.3404C123.105 35.3191 123.088 35.2938 123.076 35.2658C123.064 35.2378 123.058 35.2078 123.058 35.1774C123.058 35.1157 123.083 35.0565 123.126 35.0129C123.17 34.9692 123.229 34.9447 123.291 34.9447H132.316C132.346 34.9447 132.376 34.9507 132.404 34.9625C132.432 34.9743 132.457 34.9915 132.478 35.0131C132.5 35.0348 132.516 35.0605 132.528 35.0887C132.539 35.1169 132.544 35.1471 132.544 35.1774C132.544 35.2076 132.539 35.2375 132.527 35.2655C132.516 35.2934 132.5 35.3188 132.478 35.3401C132.457 35.3614 132.432 35.3782 132.404 35.3894C132.376 35.4006 132.346 35.4061 132.316 35.4054Z" fill="#E6E7E8"/>
<path d="M134.79 35.4054H133.579C133.519 35.4054 133.461 35.3814 133.418 35.3387C133.375 35.2959 133.351 35.2379 133.351 35.1774C133.351 35.1165 133.375 35.058 133.418 35.0145C133.46 34.971 133.518 34.9459 133.579 34.9447H134.79C134.852 34.9447 134.911 34.9692 134.955 35.0129C134.998 35.0565 135.023 35.1157 135.023 35.1774C135.023 35.2078 135.017 35.2378 135.005 35.2658C134.993 35.2938 134.976 35.3191 134.954 35.3404C134.933 35.3616 134.907 35.3783 134.879 35.3895C134.851 35.4006 134.821 35.4061 134.79 35.4054Z" fill="#E6E7E8"/>
<path d="M140.941 72.6725H117.263C116.792 72.6725 116.34 72.4853 116.007 72.1522C115.674 71.819 115.487 71.3672 115.487 70.8961V59.202C115.486 58.9683 115.532 58.7368 115.621 58.5207C115.71 58.3047 115.841 58.1083 116.006 57.9428C116.171 57.7774 116.367 57.6461 116.583 57.5565C116.798 57.4669 117.03 57.4208 117.263 57.4208H140.922C141.395 57.4208 141.848 57.6085 142.182 57.9425C142.516 58.2766 142.703 58.7296 142.703 59.202V70.8961C142.702 71.3644 142.517 71.8133 142.187 72.1458C141.857 72.4783 141.41 72.6675 140.941 72.6725ZM117.263 57.8863C116.914 57.8863 116.58 58.0249 116.333 58.2717C116.086 58.5184 115.948 58.8531 115.948 59.202V70.8961C115.948 71.245 116.086 71.5797 116.333 71.8264C116.58 72.0731 116.914 72.2118 117.263 72.2118H140.922C141.271 72.2118 141.606 72.0731 141.853 71.8264C142.099 71.5797 142.238 71.245 142.238 70.8961V59.202C142.238 58.8531 142.099 58.5184 141.853 58.2717C141.606 58.0249 141.271 57.8863 140.922 57.8863H117.263Z" fill="white"/>
<path d="M115.734 71.3283C115.686 71.3274 115.64 71.3119 115.601 71.2838C115.563 71.2558 115.534 71.2165 115.518 71.1715C115.503 71.1264 115.501 71.0776 115.515 71.0317C115.528 70.9859 115.554 70.9451 115.591 70.915L127.314 61.6387C127.359 61.6041 127.416 61.5874 127.473 61.5918C127.53 61.5961 127.583 61.6213 127.623 61.6624L134.619 68.9201C134.662 68.9637 134.687 69.0226 134.687 69.084C134.687 69.1454 134.662 69.2043 134.619 69.2479C134.598 69.2691 134.573 69.286 134.545 69.2975C134.517 69.309 134.488 69.3149 134.458 69.3149C134.428 69.3149 134.398 69.309 134.37 69.2975C134.343 69.286 134.317 69.2691 134.296 69.2479L127.447 62.1231L115.886 71.2713C115.844 71.3087 115.79 71.329 115.734 71.3283Z" fill="white"/>
<path d="M142.49 69.0009C142.457 69.0004 142.425 68.993 142.395 68.9791C142.366 68.9651 142.34 68.945 142.319 68.9201L138.433 64.5171L133.992 68.2267C133.946 68.2657 133.885 68.2846 133.825 68.2793C133.764 68.274 133.708 68.2448 133.669 68.1982C133.63 68.1515 133.611 68.0913 133.617 68.0308C133.622 67.9702 133.651 67.9142 133.698 67.8752L138.31 64.0183C138.352 63.9768 138.409 63.9536 138.469 63.9536C138.528 63.9536 138.585 63.9768 138.628 64.0183L142.661 68.5924C142.682 68.6136 142.699 68.6387 142.71 68.6665C142.722 68.6942 142.728 68.7239 142.728 68.7539C142.728 68.7839 142.722 68.8136 142.71 68.8413C142.699 68.869 142.682 68.8942 142.661 68.9154C142.641 68.9422 142.615 68.964 142.586 68.9788C142.556 68.9937 142.523 69.0013 142.49 69.0009Z" fill="white"/>
<path d="M134.453 63.6193C134.097 63.6203 133.748 63.5154 133.451 63.3179C133.154 63.1205 132.923 62.8394 132.786 62.5103C132.649 62.1811 132.613 61.8188 132.682 61.4691C132.752 61.1195 132.923 60.7983 133.175 60.5462C133.427 60.2942 133.749 60.1226 134.098 60.0533C134.448 59.984 134.81 60.0201 135.139 60.1569C135.468 60.2938 135.75 60.5252 135.947 60.822C136.144 61.1188 136.249 61.4675 136.248 61.8239C136.247 62.2997 136.058 62.7556 135.721 63.0921C135.385 63.4285 134.929 63.6181 134.453 63.6193ZM134.453 60.4845C134.188 60.4835 133.928 60.5613 133.708 60.7079C133.487 60.8545 133.314 61.0634 133.212 61.308C133.11 61.5527 133.083 61.8222 133.134 62.0823C133.185 62.3424 133.312 62.5815 133.499 62.7693C133.687 62.9571 133.925 63.0852 134.185 63.1373C134.445 63.1893 134.715 63.1631 134.96 63.0618C135.205 62.9606 135.414 62.7889 135.562 62.5686C135.709 62.3482 135.788 62.089 135.788 61.8239C135.788 61.4695 135.647 61.1295 135.397 60.8784C135.147 60.6274 134.807 60.4857 134.453 60.4845Z" fill="white"/>
<path d="M119.106 84.0293H117.829C116.932 84.0293 116.204 84.7566 116.204 85.6537V87.6487C116.204 88.5458 116.932 89.2731 117.829 89.2731H119.106C120.004 89.2731 120.731 88.5458 120.731 87.6487V85.6537C120.731 84.7566 120.004 84.0293 119.106 84.0293Z" fill="white"/>
<path d="M126.203 84.0293H124.925C124.028 84.0293 123.3 84.7566 123.3 85.6537V87.6487C123.3 88.5458 124.028 89.2731 124.925 89.2731H126.203C127.1 89.2731 127.827 88.5458 127.827 87.6487V85.6537C127.827 84.7566 127.1 84.0293 126.203 84.0293Z" fill="white"/>
<path d="M133.299 84.0293H132.021C131.124 84.0293 130.397 84.7566 130.397 85.6537V87.6487C130.397 88.5458 131.124 89.2731 132.021 89.2731H133.299C134.196 89.2731 134.923 88.5458 134.923 87.6487V85.6537C134.923 84.7566 134.196 84.0293 133.299 84.0293Z" fill="white"/>
<path d="M140.395 84.0293H139.117C138.22 84.0293 137.493 84.7566 137.493 85.6537V87.6487C137.493 88.5458 138.22 89.2731 139.117 89.2731H140.395C141.292 89.2731 142.019 88.5458 142.019 87.6487V85.6537C142.019 84.7566 141.292 84.0293 140.395 84.0293Z" fill="white"/>
<path d="M142.152 43.0479H116.071C116.041 43.0485 116.011 43.0431 115.983 43.0319C115.954 43.0207 115.929 43.004 115.907 42.9828C115.885 42.9616 115.868 42.9362 115.856 42.9083C115.845 42.8803 115.838 42.8502 115.839 42.8199C115.839 42.7582 115.863 42.699 115.907 42.6553C115.95 42.6117 116.01 42.5872 116.071 42.5872H142.152C142.214 42.5872 142.273 42.6117 142.317 42.6553C142.361 42.699 142.385 42.7582 142.385 42.8199C142.385 42.8502 142.379 42.8803 142.367 42.9083C142.356 42.9362 142.338 42.9616 142.317 42.9828C142.295 43.004 142.269 43.0207 142.241 43.0319C142.213 43.0431 142.183 43.0485 142.152 43.0479Z" fill="white"/>
<path d="M142.152 46.7242H116.071C116.008 46.7242 115.948 46.6992 115.903 46.6547C115.859 46.6101 115.834 46.5497 115.834 46.4868C115.834 46.4238 115.859 46.3634 115.903 46.3188C115.948 46.2743 116.008 46.2493 116.071 46.2493H142.152C142.215 46.2493 142.276 46.2743 142.32 46.3188C142.365 46.3634 142.39 46.4238 142.39 46.4868C142.39 46.5497 142.365 46.6101 142.32 46.6547C142.276 46.6992 142.215 46.7242 142.152 46.7242Z" fill="white"/>
<path d="M142.152 50.4006H116.071C116.01 50.4006 115.95 50.3761 115.907 50.3324C115.863 50.2888 115.839 50.2296 115.839 50.1679C115.838 50.1375 115.845 50.1075 115.856 50.0795C115.868 50.0515 115.885 50.0262 115.907 50.0049C115.929 49.9837 115.954 49.967 115.983 49.9558C116.011 49.9447 116.041 49.9392 116.071 49.9399H142.152C142.183 49.9392 142.213 49.9447 142.241 49.9558C142.269 49.967 142.295 49.9837 142.317 50.0049C142.338 50.0262 142.356 50.0515 142.367 50.0795C142.379 50.1075 142.385 50.1375 142.385 50.1679C142.385 50.2296 142.361 50.2888 142.317 50.3324C142.273 50.3761 142.214 50.4006 142.152 50.4006Z" fill="white"/>
<path d="M142.152 54.077H116.071C116.008 54.077 115.948 54.052 115.903 54.0074C115.859 53.9629 115.834 53.9025 115.834 53.8395C115.834 53.7765 115.859 53.7161 115.903 53.6716C115.948 53.627 116.008 53.602 116.071 53.602H142.152C142.215 53.602 142.276 53.627 142.32 53.6716C142.365 53.7161 142.39 53.7765 142.39 53.8395C142.39 53.9025 142.365 53.9629 142.32 54.0074C142.276 54.052 142.215 54.077 142.152 54.077Z" fill="white"/>
<path d="M142.152 76.8475H116.071C116.008 76.8475 115.948 76.8225 115.903 76.778C115.859 76.7334 115.834 76.673 115.834 76.61C115.834 76.5471 115.859 76.4867 115.903 76.4421C115.948 76.3976 116.008 76.3726 116.071 76.3726H142.152C142.215 76.3726 142.276 76.3976 142.32 76.4421C142.365 76.4867 142.39 76.5471 142.39 76.61C142.39 76.673 142.365 76.7334 142.32 76.778C142.276 76.8225 142.215 76.8475 142.152 76.8475Z" fill="white"/>
<path d="M142.152 80.5287H116.071C116.041 80.5294 116.011 80.5239 115.983 80.5128C115.954 80.5016 115.929 80.4849 115.907 80.4636C115.885 80.4424 115.868 80.4171 115.856 80.3891C115.845 80.3611 115.838 80.3311 115.839 80.3007C115.839 80.239 115.863 80.1798 115.907 80.1362C115.95 80.0925 116.01 80.068 116.071 80.068H142.152C142.214 80.068 142.273 80.0925 142.317 80.1362C142.361 80.1798 142.385 80.239 142.385 80.3007C142.385 80.3311 142.379 80.3611 142.367 80.3891C142.356 80.4171 142.338 80.4424 142.317 80.4636C142.295 80.4849 142.269 80.5016 142.241 80.5128C142.213 80.5239 142.183 80.5294 142.152 80.5287Z" fill="white"/>
<path d="M137.293 7.3103C137.293 7.3103 137.878 4.8214 137.336 3.40596C137.177 3.0068 136.895 2.66827 136.532 2.43878C136.168 2.2093 135.742 2.10061 135.313 2.12826C135.313 2.12826 131.38 1.25429 130.245 0.228333L130.758 2.04276C130.073 1.99469 129.405 1.81231 128.791 1.50603C128.712 1.81621 128.717 2.14197 128.807 2.44939C128.896 2.75681 129.066 3.03465 129.299 3.25396C129.016 3.38966 128.706 3.4601 128.392 3.4601C128.078 3.4601 127.768 3.38966 127.485 3.25396C127.485 3.25396 128.563 5.89961 131.071 5.62887C132.705 5.38663 135.598 7.85653 137.293 7.3103Z" fill="white"/>
<path d="M136.738 7.62379C135.84 7.62379 134.79 7.14881 133.764 6.67382C132.738 6.19884 131.774 5.72386 131.085 5.82361C128.43 6.13235 127.285 3.35846 127.257 3.32996C127.24 3.28518 127.237 3.23626 127.249 3.18986C127.261 3.14345 127.287 3.10183 127.323 3.07067C127.359 3.0395 127.405 3.02031 127.452 3.01571C127.5 3.01111 127.548 3.02133 127.589 3.04497C127.985 3.25128 128.445 3.29557 128.872 3.16846C128.699 2.92329 128.58 2.64351 128.526 2.34835C128.471 2.05319 128.48 1.74963 128.554 1.45853C128.561 1.42605 128.576 1.39582 128.598 1.37025C128.619 1.34468 128.647 1.32449 128.677 1.31129C128.708 1.29835 128.741 1.29169 128.775 1.29169C128.808 1.29169 128.841 1.29835 128.872 1.31129C129.367 1.53926 129.891 1.69904 130.43 1.78627L130.007 0.294826C129.994 0.246329 129.997 0.194911 130.014 0.147969C130.032 0.101027 130.065 0.0609795 130.107 0.0335866C130.15 0.00743731 130.2 -0.00394 130.249 0.0012105C130.299 0.006361 130.346 0.0277528 130.382 0.0620852C131.408 1.01205 134.937 1.81477 135.317 1.90501C135.793 1.87392 136.266 1.99536 136.667 2.25165C137.069 2.50794 137.378 2.88571 137.55 3.32996C138.115 4.7929 137.55 7.2628 137.517 7.3673C137.509 7.40564 137.492 7.44128 137.466 7.47052C137.44 7.49976 137.406 7.52152 137.369 7.53354C137.165 7.59733 136.952 7.6278 136.738 7.62379ZM131.247 5.33438C132.026 5.33438 132.966 5.77611 133.959 6.23684C135.094 6.76882 136.267 7.31505 137.099 7.12506C137.208 6.60258 137.574 4.64091 137.122 3.49145C136.98 3.13469 136.728 2.83241 136.403 2.62833C136.078 2.42425 135.696 2.32896 135.313 2.35624H135.241C135.099 2.323 132.14 1.66277 130.62 0.784057L130.957 1.97626C130.967 2.01096 130.968 2.04737 130.962 2.08276C130.955 2.11814 130.94 2.15156 130.919 2.1805C130.897 2.20876 130.869 2.23159 130.837 2.24724C130.805 2.26289 130.77 2.27094 130.734 2.27075C130.117 2.23404 129.512 2.08599 128.948 1.83377C128.921 2.06344 128.949 2.29632 129.032 2.51231C129.115 2.7283 129.249 2.9209 129.423 3.07347C129.451 3.09874 129.474 3.13042 129.488 3.16591C129.502 3.2014 129.507 3.23971 129.504 3.27771C129.5 3.31635 129.486 3.35332 129.463 3.38497C129.441 3.41663 129.411 3.44187 129.375 3.4582C128.929 3.65923 128.434 3.72527 127.95 3.64819C128.387 4.36067 129.375 5.54812 131.033 5.35338C131.104 5.34215 131.175 5.33581 131.247 5.33438Z" fill="#2D3748"/>
<path d="M140.614 28.1382C140.614 28.1382 144.043 20.6383 143.625 15.7222C143.207 10.8062 139.987 10.4974 138.875 10.4357C137.764 10.3739 131.841 9.57597 129.679 12.2216C127.518 14.8673 128.079 27.611 128.079 27.611L140.614 28.1382Z" fill="#006CE7"/>
<path d="M127.827 25.0889C125.305 26.2426 122.896 27.6292 120.631 29.2307C118.627 30.5891 117.491 44.9288 117.491 44.9288C117.491 44.9288 117.905 47.2325 120.569 46.8715L127.585 30.8979C127.585 30.8979 130.088 25.0271 127.827 25.0889Z" fill="#2D3748"/>
<path d="M120.023 47.128C119.382 47.1443 118.754 46.9358 118.25 46.5385C117.746 46.1412 117.397 45.5802 117.263 44.9526C117.261 44.9336 117.261 44.9145 117.263 44.8956C117.382 43.4136 118.47 30.4086 120.503 29.0264C122.784 27.4224 125.209 26.0327 127.746 24.8751C127.773 24.868 127.801 24.868 127.827 24.8751C128.005 24.8617 128.183 24.8949 128.344 24.9716C128.504 25.0482 128.642 25.1656 128.744 25.3121C129.632 26.6183 127.993 30.5369 127.794 31.0119L120.778 46.9902C120.762 47.0261 120.737 47.0571 120.706 47.0805C120.674 47.1038 120.637 47.1185 120.598 47.1232C120.407 47.1379 120.215 47.1395 120.023 47.128ZM117.738 44.9051C117.791 45.1521 118.247 46.8762 120.427 46.6482L127.39 30.7981C127.865 29.6582 129.005 26.4853 128.373 25.5733C128.321 25.4966 128.25 25.4345 128.167 25.393C128.083 25.3514 127.991 25.3317 127.898 25.3358C125.407 26.4881 123.023 27.8582 120.774 29.4302C119.197 30.4704 118.042 40.9152 117.738 44.9051Z" fill="#2D3748"/>
<path d="M140.894 26.5613C140.894 26.5613 130.819 26.851 128.449 26.5043C128.449 26.5043 128.316 26.5328 126.578 29.7341C124.839 32.9355 127.338 47.5697 127.338 47.5697C127.338 47.5697 129.627 49.9921 131.437 49.6454L133.579 32.9593C133.579 32.9593 137.232 33.0685 139.279 31.6151C140.685 30.5939 140.623 28.4137 140.894 26.5613Z" fill="#2D3748"/>
<path d="M131.066 49.9114C129.252 49.9114 127.266 47.8215 127.167 47.7265C127.136 47.6939 127.116 47.6523 127.11 47.6077C127.005 47.0092 124.616 32.8833 126.374 29.6249C128.131 26.3665 128.273 26.3 128.402 26.3H128.482C130.805 26.6468 140.789 26.3618 140.889 26.357C140.923 26.3549 140.957 26.3607 140.989 26.3738C141.02 26.387 141.048 26.4072 141.071 26.4329C141.093 26.4585 141.109 26.4891 141.118 26.522C141.127 26.555 141.128 26.5895 141.122 26.623C141.074 26.965 141.031 27.3213 140.993 27.6775C140.818 29.2829 140.637 30.9406 139.393 31.8336C137.588 33.1255 134.605 33.2205 133.783 33.2205L131.665 49.6549C131.659 49.7034 131.638 49.7487 131.604 49.7845C131.571 49.8203 131.527 49.8448 131.48 49.8544C131.344 49.8856 131.206 49.9047 131.066 49.9114ZM127.551 47.4605C127.87 47.7835 129.727 49.5789 131.228 49.4411L133.351 32.9308C133.357 32.8732 133.385 32.8203 133.429 32.7831C133.474 32.7458 133.531 32.7273 133.588 32.7313C133.626 32.7313 137.184 32.8168 139.127 31.4298C140.2 30.6556 140.371 29.1024 140.552 27.5967C140.58 27.3308 140.609 27.06 140.642 26.7988C139.018 26.8415 130.919 27.041 128.563 26.7465C128.425 26.946 128.003 27.6157 126.792 29.8434C125.158 32.831 127.366 46.3538 127.551 47.4605Z" fill="#2D3748"/>
<path d="M129.675 12.2216C129.675 12.2216 128.079 15.2948 127.138 16.8717C126.239 18.2247 125.24 19.5091 124.151 20.7143C124.151 20.7143 116.907 23.2887 116.864 23.4264C116.822 23.5642 117.548 26.0008 117.548 26.0008C117.548 26.0008 125.148 25.4546 126.402 24.8609C127.656 24.2671 130.202 21.346 130.202 21.346L129.675 12.2216Z" fill="#006CE7"/>
<path d="M132.624 10.5734L133.056 13.1953C133.327 13.5845 133.729 13.8619 134.189 13.9756C134.649 14.0892 135.135 14.0314 135.555 13.8128C137.213 13.0813 137.213 11.8274 137.213 11.8274L136.329 6.98255C136.329 6.98255 134.8 6.38883 134.006 3.40594C134.006 3.40594 130.207 3.69568 130.468 5.11588C130.468 5.11588 130.42 7.79002 130.824 9.09147C130.969 9.47396 131.211 9.81193 131.527 10.0719C131.843 10.3318 132.221 10.5047 132.624 10.5734Z" fill="white"/>
<path d="M134.624 14.2593C134.277 14.2483 133.937 14.1568 133.631 13.9919C133.325 13.827 133.062 13.5934 132.862 13.3093C132.847 13.2826 132.835 13.2538 132.829 13.2238L132.42 10.7492C132.003 10.6658 131.615 10.4746 131.295 10.1946C130.975 9.91455 130.734 9.55549 130.596 9.15322C130.183 7.82802 130.226 5.21088 130.226 5.10163C130.208 4.97113 130.217 4.83829 130.253 4.71154C130.289 4.5848 130.351 4.46692 130.435 4.36541C131.18 3.41545 133.693 3.18746 133.978 3.16846C134.032 3.16435 134.086 3.17918 134.13 3.21038C134.174 3.24159 134.206 3.28723 134.22 3.33945C134.966 6.14659 136.391 6.75456 136.405 6.75931C136.442 6.77326 136.474 6.79631 136.499 6.82624C136.524 6.85618 136.54 6.892 136.548 6.93031L137.431 11.7751C137.431 11.8749 137.431 13.2428 135.65 14.017C135.329 14.1683 134.979 14.2508 134.624 14.2593ZM133.275 13.1051C133.52 13.4369 133.875 13.6697 134.277 13.7613C134.679 13.8528 135.101 13.7969 135.465 13.6038C136.937 12.9578 136.975 11.8701 136.975 11.8226L136.115 7.1393C135.726 6.93506 134.529 6.11334 133.826 3.65294C133 3.73843 131.285 4.03292 130.796 4.6599C130.748 4.71638 130.713 4.78275 130.694 4.85422C130.676 4.92569 130.673 5.00046 130.686 5.07313C130.686 5.14438 130.648 7.77102 131.038 9.02498C131.163 9.36711 131.378 9.66953 131.659 9.90088C131.94 10.1322 132.279 10.2841 132.639 10.3407L132.734 10.3692C132.764 10.3866 132.791 10.4104 132.811 10.4392C132.832 10.4679 132.846 10.5007 132.852 10.5354L133.275 13.1051Z" fill="#2D3748"/>
<path d="M135.313 7.07757C135.331 6.83222 135.428 6.59923 135.588 6.4126C135.745 6.24482 135.93 6.10507 136.134 5.99937C136.241 5.93175 136.361 5.888 136.486 5.87112C136.575 5.87033 136.664 5.88645 136.747 5.91862C136.942 5.97937 137.109 6.10514 137.222 6.27485C137.296 6.42211 137.334 6.58503 137.331 6.74984C137.345 6.93279 137.332 7.11672 137.293 7.29607C137.252 7.47425 137.176 7.64245 137.069 7.79087C136.962 7.93929 136.827 8.06496 136.671 8.16053C136.356 8.34924 135.98 8.4088 135.621 8.32678" fill="white"/>
<path d="M135.944 8.61174C135.816 8.61027 135.689 8.59434 135.564 8.56425C135.505 8.54961 135.453 8.51192 135.421 8.45941C135.389 8.4069 135.379 8.34383 135.393 8.28401C135.401 8.25452 135.414 8.22677 135.432 8.20238C135.45 8.17799 135.472 8.15745 135.499 8.14197C135.525 8.12649 135.554 8.11637 135.584 8.11221C135.614 8.10805 135.644 8.10994 135.674 8.11776C135.973 8.18543 136.288 8.13617 136.552 7.98002C136.813 7.81616 136.998 7.55705 137.07 7.25805C137.102 7.1018 137.113 6.94216 137.103 6.78307C137.108 6.65174 137.08 6.52134 137.023 6.40308C136.935 6.27591 136.806 6.18347 136.657 6.14184C136.601 6.1242 136.544 6.11304 136.486 6.10859C136.395 6.12512 136.31 6.16075 136.234 6.21309C136.056 6.30364 135.896 6.42415 135.759 6.56932C135.629 6.71751 135.552 6.90465 135.541 7.1013C135.536 7.16262 135.507 7.21965 135.461 7.2604C135.415 7.30116 135.355 7.32245 135.294 7.31979C135.263 7.318 135.234 7.31014 135.206 7.29667C135.179 7.28321 135.155 7.26441 135.135 7.24139C135.115 7.21837 135.1 7.19159 135.09 7.16264C135.081 7.13368 135.077 7.10314 135.08 7.0728C135.101 6.77708 135.215 6.49576 135.408 6.27008C135.58 6.07665 135.786 5.91577 136.016 5.7951C136.16 5.70593 136.322 5.6507 136.491 5.63361C136.611 5.6333 136.73 5.65421 136.842 5.69536C137.098 5.77224 137.317 5.94152 137.455 6.17034C137.55 6.35369 137.599 6.55751 137.597 6.76407C137.609 6.96772 137.595 7.17206 137.555 7.37204C137.47 7.72714 137.269 8.0435 136.983 8.27013C136.697 8.49676 136.343 8.62044 135.978 8.62124L135.944 8.61174Z" fill="#2D3748"/>
<path d="M132.909 6.37457C132.909 6.37457 132.197 7.85651 132.434 8.06076C132.672 8.265 133.265 8.02276 133.265 8.02276" fill="white"/>
<path d="M132.738 8.36953C132.582 8.37737 132.427 8.33034 132.301 8.23654C132.202 8.15579 131.912 7.9183 132.705 6.27486C132.732 6.22085 132.778 6.17929 132.835 6.15892C132.892 6.13854 132.954 6.14094 133.009 6.16562C133.037 6.17834 133.062 6.19651 133.082 6.21905C133.103 6.2416 133.119 6.26805 133.129 6.29685C133.139 6.32565 133.144 6.3562 133.142 6.38669C133.14 6.41719 133.132 6.447 133.118 6.47435C132.887 6.922 132.727 7.40266 132.643 7.8993C132.835 7.92227 133.029 7.89101 133.204 7.80905C133.261 7.78657 133.324 7.78686 133.381 7.80986C133.437 7.83286 133.483 7.87681 133.508 7.93255C133.519 7.96092 133.525 7.99131 133.525 8.02197C133.525 8.05262 133.519 8.08295 133.507 8.11119C133.495 8.13944 133.478 8.16505 133.456 8.18656C133.434 8.20807 133.408 8.22506 133.38 8.23654C133.176 8.31909 132.958 8.36414 132.738 8.36953Z" fill="#2D3748"/>
<path d="M134.081 6.313C134.207 6.30027 134.294 6.1482 134.276 5.97335C134.258 5.79849 134.142 5.66705 134.017 5.67978C133.892 5.6925 133.805 5.84457 133.823 6.01943C133.84 6.19429 133.956 6.32572 134.081 6.313Z" fill="#2D3748"/>
<path d="M132.158 6.65187C132.284 6.64002 132.372 6.48857 132.355 6.31359C132.339 6.13861 132.224 6.00637 132.098 6.01822C131.973 6.03007 131.885 6.18152 131.901 6.3565C131.918 6.53148 132.033 6.66372 132.158 6.65187Z" fill="#2D3748"/>
<path d="M133.118 9.53321C132.683 9.52401 132.253 9.43548 131.85 9.27197C131.822 9.26011 131.797 9.24276 131.776 9.22095C131.754 9.19915 131.738 9.17332 131.727 9.145C131.716 9.11667 131.71 9.08641 131.711 9.05601C131.712 9.02561 131.719 8.99568 131.731 8.96798C131.757 8.91309 131.803 8.8702 131.86 8.84812C131.916 8.82604 131.979 8.82644 132.035 8.84924C132.035 8.84924 133.114 9.32422 133.84 8.91098C134.031 8.7875 134.19 8.62158 134.305 8.42627C134.42 8.23095 134.489 8.01154 134.505 7.78528C134.515 7.72229 134.55 7.66589 134.602 7.62848C134.653 7.59106 134.718 7.57571 134.781 7.58579C134.844 7.59586 134.9 7.63055 134.938 7.68221C134.975 7.73388 134.99 7.79829 134.98 7.86127C134.954 8.15723 134.859 8.4429 134.702 8.69532C134.545 8.94775 134.331 9.15989 134.078 9.31472C133.783 9.47054 133.452 9.5459 133.118 9.53321Z" fill="#2D3748"/>
<path d="M132.624 10.5734C132.624 10.5734 134.315 10.6779 135.189 9.97021C135.189 9.97021 134.486 12.3451 132.924 12.3451L132.624 10.5734Z" fill="#2D3748"/>
<path d="M132.938 12.6063C132.883 12.6068 132.83 12.5872 132.789 12.5513C132.748 12.5154 132.722 12.4657 132.715 12.4116L132.415 10.6162C132.409 10.5815 132.411 10.5458 132.42 10.5119C132.43 10.4781 132.448 10.4471 132.472 10.4214C132.495 10.3955 132.524 10.3752 132.556 10.362C132.588 10.3488 132.623 10.3432 132.658 10.3454C132.658 10.3454 134.273 10.4357 135.061 9.79444C135.1 9.76479 135.147 9.74807 135.196 9.74662C135.244 9.74518 135.292 9.75909 135.333 9.78638C135.373 9.81368 135.404 9.85299 135.421 9.89875C135.438 9.94452 135.44 9.99442 135.427 10.0414C135.398 10.1412 134.662 12.5778 132.943 12.6063H132.938ZM132.938 10.8156L133.156 12.1266C133.964 11.9889 134.501 11.1054 134.781 10.4974C134.176 10.7156 133.537 10.8219 132.895 10.8109L132.938 10.8156Z" fill="#2D3748"/>
<path d="M142.019 11.6564C143.373 11.8939 148.85 24.5569 146.973 26.0008C144.048 28.257 133.864 26.0008 133.864 26.0008L134.695 22.0727C134.695 22.0727 141.24 22.258 141.345 20.9138C141.449 19.5696 137.545 13.3473 138.049 12.4164C138.552 11.4854 142.019 11.6564 142.019 11.6564Z" fill="#006CE7"/>
<path d="M135.398 23.3457C134.311 23.4149 133.22 23.3623 132.145 23.189C131.349 22.9956 130.532 22.9014 129.713 22.9087C128.633 22.9601 127.572 23.203 126.578 23.6259C126.536 23.6393 126.498 23.6639 126.469 23.6972C126.374 23.8302 126.602 23.9632 126.768 23.9679C127.199 23.9763 127.63 23.9219 128.045 23.8064C127.016 24.1867 126.043 24.7044 125.153 25.3454C125.048 25.4166 124.939 25.5306 124.987 25.6446C125.034 25.7586 125.243 25.7396 125.376 25.6779L127.713 24.6091C127.107 24.8522 126.545 25.1941 126.051 25.6209C125.984 25.6826 125.903 25.7634 125.927 25.8536C125.951 25.9438 126.193 25.9818 126.34 25.9106C127.052 25.5545 127.732 25.1382 128.373 24.6661L126.948 25.7776C126.948 25.8916 127.058 25.9913 127.176 25.9961C127.295 25.9886 127.41 25.9492 127.509 25.8821L129.119 24.9321L128.117 25.6351C127.955 25.7444 127.775 25.9248 127.855 26.1101C127.936 26.2953 128.254 26.2526 128.463 26.1623C129.289 25.8042 130.153 25.5397 131.038 25.3739C131.346 25.2734 131.665 25.208 131.988 25.1791C132.485 25.2448 132.976 25.3529 133.456 25.5021C134.187 25.6636 134.914 25.8299 135.64 25.9771" fill="white"/>
<path d="M128.088 26.4663C128.019 26.4677 127.949 26.4564 127.884 26.4331C127.83 26.4134 127.781 26.3831 127.739 26.3439C127.698 26.3047 127.665 26.2575 127.642 26.2051C127.621 26.1587 127.609 26.1087 127.608 26.0578C127.478 26.1501 127.322 26.2014 127.162 26.2051C127.097 26.2018 127.034 26.1853 126.976 26.1567C126.918 26.1281 126.867 26.088 126.825 26.0388C126.798 26.007 126.776 25.9719 126.758 25.9343C126.659 25.9913 126.554 26.0436 126.45 26.0958C126.37 26.1395 126.283 26.1654 126.192 26.172C126.102 26.1786 126.012 26.1655 125.927 26.1338C125.879 26.1111 125.836 26.0774 125.803 26.0353C125.77 25.9932 125.748 25.944 125.737 25.8916C125.728 25.8446 125.728 25.7961 125.737 25.7491L125.481 25.8678C125.334 25.9447 125.164 25.9617 125.006 25.9153C124.961 25.8992 124.92 25.874 124.886 25.8413C124.852 25.8086 124.824 25.7691 124.806 25.7253C124.763 25.6351 124.711 25.4023 125.039 25.1696C125.563 24.7917 126.116 24.455 126.692 24.1626C126.608 24.1531 126.527 24.1247 126.455 24.0795C126.384 24.0342 126.323 23.9733 126.279 23.9014C126.253 23.8486 126.242 23.7898 126.247 23.7312C126.252 23.6726 126.272 23.6165 126.307 23.5689C126.357 23.5041 126.425 23.4547 126.502 23.4264C127.52 22.9932 128.607 22.7454 129.713 22.695C130.446 22.6777 131.179 22.7543 131.893 22.9229L132.192 22.9752C133.253 23.1461 134.33 23.1987 135.403 23.1319C135.458 23.1319 135.511 23.1531 135.551 23.1911C135.591 23.2292 135.614 23.2812 135.617 23.3362C135.617 23.3917 135.596 23.4453 135.558 23.4858C135.52 23.5264 135.468 23.551 135.412 23.5547C134.309 23.6194 133.203 23.5652 132.111 23.3932L131.807 23.3362C131.126 23.1765 130.427 23.1016 129.727 23.1129C128.728 23.1634 127.744 23.3784 126.815 23.7494C127.213 23.758 127.61 23.7068 127.993 23.5974C128.046 23.5798 128.104 23.5839 128.154 23.6088C128.204 23.6338 128.242 23.6775 128.259 23.7304C128.277 23.7833 128.273 23.8411 128.248 23.891C128.223 23.9408 128.179 23.9788 128.126 23.9964C127.137 24.361 126.2 24.8528 125.338 25.4593L127.081 24.6614C127.262 24.5711 127.442 24.4856 127.628 24.4144C127.679 24.3923 127.736 24.3915 127.788 24.412C127.84 24.4324 127.881 24.4726 127.903 24.5236C127.925 24.5747 127.926 24.6323 127.905 24.684C127.885 24.7357 127.845 24.7771 127.794 24.7991L127.267 25.0414C126.912 25.2262 126.578 25.4475 126.269 25.7016C126.964 25.3538 127.627 24.9453 128.25 24.4809C128.272 24.4642 128.297 24.452 128.324 24.4451C128.351 24.4382 128.379 24.4367 128.406 24.4407C128.433 24.4447 128.46 24.454 128.483 24.4683C128.507 24.4825 128.528 24.5013 128.544 24.5236C128.561 24.5454 128.574 24.5703 128.581 24.597C128.588 24.6236 128.59 24.6514 128.587 24.6788C128.583 24.7062 128.574 24.7326 128.56 24.7565C128.547 24.7804 128.528 24.8014 128.506 24.8181L127.357 25.6921H127.385L128.995 24.7421C129.042 24.721 129.095 24.7175 129.144 24.7321C129.193 24.7467 129.236 24.7786 129.263 24.8218C129.291 24.865 129.302 24.9167 129.295 24.9675C129.288 25.0183 129.262 25.0647 129.223 25.0984L128.216 25.8013C128.055 25.9153 128.022 26.0008 128.026 26.0103C128.141 26.0326 128.259 26.0124 128.359 25.9533C129.202 25.5873 130.083 25.3165 130.986 25.1459L131.29 25.0651C131.515 24.9925 131.751 24.9556 131.988 24.9559C132.351 24.9843 132.709 25.0545 133.057 25.1649C133.209 25.2076 133.356 25.2504 133.498 25.2789L135.683 25.7823C135.737 25.7949 135.784 25.8285 135.814 25.8757C135.843 25.923 135.853 25.9799 135.84 26.0341C135.827 26.0882 135.794 26.1352 135.747 26.1646C135.699 26.194 135.642 26.2034 135.588 26.1908C134.861 26.0246 134.135 25.8536 133.403 25.7158C133.256 25.6826 133.104 25.6398 132.928 25.5971C132.62 25.4981 132.301 25.4328 131.978 25.4024C131.781 25.4056 131.585 25.4409 131.399 25.5068C131.29 25.5353 131.18 25.5686 131.066 25.5876C130.194 25.7579 129.344 26.024 128.53 26.3808C128.39 26.438 128.24 26.4671 128.088 26.4663Z" fill="#2D3748"/>
<path d="M130.378 13.3331C130.017 13.6988 129.109 19.4556 128.777 22.1725Z" fill="white"/>
<path d="M128.777 22.3862H128.748C128.694 22.3791 128.644 22.3506 128.61 22.307C128.576 22.2634 128.561 22.2082 128.568 22.1534C128.772 20.4625 129.751 13.675 130.23 13.1858C130.271 13.1542 130.322 13.1384 130.373 13.1412C130.425 13.144 130.473 13.1653 130.51 13.2011C130.547 13.2369 130.57 13.2849 130.574 13.3362C130.579 13.3875 130.565 13.4386 130.534 13.4803C130.226 13.903 129.352 19.2086 128.986 22.2057C128.978 22.2556 128.953 22.3012 128.915 22.3342C128.876 22.3673 128.828 22.3857 128.777 22.3862Z" fill="#2D3748"/>
<path d="M116.717 27.592L116.879 28.6702L131.784 30.8456L131.532 29.7341L116.717 27.592Z" fill="white"/>
<path d="M131.784 31.0783H131.75L116.845 28.8982C116.796 28.8907 116.751 28.8677 116.716 28.8327C116.681 28.7977 116.658 28.7524 116.651 28.7034L116.489 27.6252C116.482 27.5894 116.485 27.5526 116.495 27.5178C116.506 27.483 116.525 27.4514 116.551 27.4257C116.577 27.4009 116.609 27.3821 116.643 27.3706C116.678 27.3592 116.714 27.3553 116.75 27.3592L131.565 29.5061C131.611 29.5127 131.653 29.5331 131.687 29.5644C131.721 29.5958 131.745 29.6368 131.755 29.6819L131.988 30.7981C131.997 30.8337 131.998 30.8713 131.989 30.9071C131.979 30.9429 131.961 30.9757 131.936 31.0023C131.897 31.0463 131.842 31.0735 131.784 31.0783ZM117.059 28.4659L131.465 30.5701L131.323 29.9384L116.969 27.8627L117.059 28.4659Z" fill="#2D3748"/>
<path d="M116.717 27.592C116.717 27.592 120.109 24.6804 120.223 24.7089C120.337 24.7374 135.579 26.5613 135.579 26.5613L131.513 29.7342L116.717 27.592Z" fill="white"/>
<path d="M131.513 29.9669L116.684 27.8058C116.64 27.7987 116.599 27.7794 116.565 27.75C116.531 27.7206 116.507 27.6823 116.494 27.6395C116.481 27.5973 116.481 27.5522 116.494 27.51C116.506 27.4677 116.531 27.4301 116.565 27.402C120.052 24.4097 120.128 24.4334 120.275 24.4666C120.503 24.5046 130.406 25.6921 135.607 26.3143C135.653 26.3203 135.696 26.3398 135.731 26.3702C135.765 26.4007 135.79 26.4407 135.802 26.4853C135.816 26.5291 135.815 26.576 135.801 26.6195C135.786 26.6629 135.758 26.7007 135.721 26.7276L131.674 29.9004C131.653 29.9216 131.628 29.9383 131.6 29.9498C131.572 29.9612 131.543 29.967 131.513 29.9669ZM117.263 27.4353L131.475 29.492L135.009 26.7228C130.42 26.1718 121.301 25.0794 120.284 24.9464C119.942 25.1601 118.399 26.4568 117.263 27.4353Z" fill="#2D3748"/>
<path d="M131.784 30.8456L135.674 27.592L135.579 26.5613L131.532 29.7342L131.784 30.8456Z" fill="white"/>
<path d="M131.784 31.0784C131.76 31.0829 131.736 31.0829 131.712 31.0784C131.674 31.0671 131.64 31.0456 131.613 31.0164C131.586 30.9871 131.568 30.951 131.56 30.9121L131.309 29.8007C131.298 29.7582 131.3 29.7135 131.314 29.6722C131.328 29.6308 131.355 29.5945 131.389 29.5679L135.436 26.3808C135.469 26.355 135.508 26.3386 135.55 26.3332C135.591 26.3279 135.633 26.3337 135.672 26.3503C135.71 26.3668 135.743 26.3933 135.768 26.4271C135.792 26.4609 135.808 26.5007 135.811 26.5423L135.902 27.573C135.906 27.6103 135.9 27.6481 135.886 27.6829C135.872 27.7177 135.85 27.7485 135.821 27.7725L131.931 31.0309C131.888 31.0624 131.837 31.0791 131.784 31.0784ZM131.784 29.8244L131.921 30.4276L135.427 27.4923L135.384 27.0173L131.784 29.8244Z" fill="#2D3748"/>
<path d="M116.717 27.592L113.853 17.9926L129.565 20.6715L131.532 29.7342L116.717 27.592Z" fill="white"/>
<path d="M131.513 29.9669L116.684 27.8057C116.639 27.7998 116.598 27.7809 116.564 27.7513C116.53 27.7217 116.506 27.6828 116.494 27.6395L113.644 18.0449C113.633 18.0071 113.632 17.9672 113.641 17.9289C113.649 17.8905 113.667 17.855 113.693 17.8256C113.72 17.7962 113.753 17.7739 113.79 17.7607C113.827 17.7476 113.866 17.744 113.905 17.7504L129.613 20.4435C129.658 20.451 129.699 20.4717 129.732 20.503C129.765 20.5344 129.788 20.5748 129.798 20.6193L131.755 29.7057C131.764 29.7418 131.763 29.7794 131.753 29.8152C131.743 29.8509 131.724 29.8835 131.698 29.9099C131.673 29.9324 131.644 29.9492 131.612 29.9591C131.58 29.9689 131.546 29.9716 131.513 29.9669ZM116.874 27.383L131.218 29.4587L129.371 20.871L114.171 18.2824L116.874 27.383Z" fill="#2D3748"/>
<path d="M138.818 27.3688H138.78L135.602 26.8225C135.549 26.8129 135.501 26.7856 135.466 26.745C135.431 26.7045 135.41 26.6531 135.408 26.5993L135.308 22.7995C135.305 22.741 135.326 22.6839 135.365 22.6404C135.404 22.5968 135.459 22.5704 135.517 22.5667L141.136 21.9872L138.638 13.3948C138.621 13.3363 138.629 13.2737 138.658 13.2204C138.687 13.1672 138.736 13.1275 138.794 13.1098C138.824 13.1011 138.854 13.0982 138.885 13.1013C138.915 13.1045 138.945 13.1136 138.972 13.1281C138.999 13.1427 139.022 13.1624 139.042 13.1862C139.061 13.2099 139.075 13.2373 139.084 13.2666L141.654 22.106C141.663 22.1378 141.666 22.1713 141.661 22.2042C141.656 22.2371 141.644 22.2684 141.625 22.296C141.606 22.324 141.582 22.3478 141.553 22.3658C141.525 22.3838 141.492 22.3956 141.459 22.4005L135.759 22.9847L135.854 26.3903L138.847 26.9033C138.878 26.9061 138.908 26.915 138.936 26.9296C138.964 26.9441 138.988 26.9639 139.008 26.988C139.028 27.012 139.043 27.0398 139.053 27.0697C139.062 27.0995 139.065 27.131 139.063 27.1622C139.06 27.1933 139.051 27.2237 139.036 27.2514C139.022 27.2792 139.002 27.3038 138.978 27.3238C138.954 27.3439 138.926 27.359 138.896 27.3684C138.866 27.3777 138.835 27.3811 138.804 27.3783L138.818 27.3688Z" fill="#2D3748"/>
<path d="M117.971 42.3687C117.709 42.1266 117.435 41.8983 117.149 41.6847C116.532 41.2097 115.207 40.54 114.827 41.6325C114.589 42.3069 114.955 43.2047 115.207 43.8269C115.704 45.0169 116.462 46.0801 117.425 46.938C118.266 47.698 120.945 48.7952 120.75 46.6768C120.698 46.2934 120.576 45.9229 120.389 45.5843C119.784 44.3748 118.965 43.2852 117.971 42.3687Z" fill="white"/>
<path d="M119.762 48.1207C118.85 48.0469 117.984 47.6879 117.287 47.0947C116.3 46.2158 115.523 45.1267 115.012 43.9076C114.756 43.2711 114.366 42.3164 114.627 41.5612C114.674 41.4029 114.758 41.2583 114.873 41.14C114.988 41.0216 115.131 40.9331 115.288 40.882C116.062 40.6492 117.083 41.357 117.278 41.5185C117.568 41.7352 117.847 41.9666 118.114 42.2119C119.13 43.1449 119.967 44.2556 120.584 45.4893C120.782 45.8518 120.911 46.248 120.964 46.6578C121.04 47.4842 120.698 47.8405 120.394 47.9877C120.197 48.0818 119.98 48.1274 119.762 48.1207ZM115.62 41.2572C115.549 41.2564 115.479 41.266 115.411 41.2857C115.317 41.3169 115.232 41.3717 115.164 41.4448C115.097 41.5179 115.05 41.6071 115.026 41.7037C114.817 42.3022 115.169 43.1714 115.402 43.7461C115.887 44.9072 116.627 45.9444 117.567 46.7813C118.166 47.3275 119.572 47.9307 120.208 47.6125C120.479 47.4747 120.588 47.1755 120.546 46.6958C120.494 46.3391 120.378 45.9948 120.204 45.6793C119.614 44.4899 118.809 43.4205 117.829 42.5254C117.572 42.2879 117.301 42.0504 117.026 41.8557C116.624 41.5258 116.136 41.3181 115.62 41.2572Z" fill="#2D3748"/>
<path d="M127.02 43.5514C126.837 43.4233 126.615 43.3613 126.393 43.3756C126.253 43.4089 126.125 43.4795 126.022 43.5799C125.831 43.7771 125.686 44.0148 125.599 44.2754C125.512 44.536 125.484 44.8129 125.519 45.0856C125.587 45.6298 125.756 46.1565 126.017 46.6387C126.744 48.1492 127.727 49.6121 129.185 50.4386C129.447 50.5939 129.733 50.7047 130.031 50.7663C132.624 51.2413 131.551 48.6669 130.914 47.5032C130.012 45.8469 128.663 44.4775 127.02 43.5514Z" fill="white"/>
<path d="M130.587 51.0229C130.387 51.021 130.189 51.0019 129.993 50.9659C129.673 50.9001 129.366 50.7814 129.086 50.6144C127.803 49.8924 126.739 48.6242 125.827 46.7338C125.557 46.2263 125.38 45.6745 125.305 45.1046C125.267 44.7998 125.299 44.4905 125.399 44.2C125.498 43.9095 125.663 43.6454 125.88 43.4279C126.01 43.2983 126.175 43.2092 126.355 43.1714C126.624 43.1457 126.895 43.2145 127.119 43.3662C128.794 44.3116 130.172 45.7046 131.1 47.3893C131.575 48.2347 132.254 49.7642 131.684 50.5669C131.553 50.7273 131.384 50.8529 131.192 50.9325C131.001 51.012 130.793 51.0431 130.587 51.0229ZM126.483 43.5799H126.426C126.326 43.6057 126.236 43.6583 126.165 43.7319C125.996 43.906 125.869 44.1162 125.793 44.3466C125.717 44.577 125.695 44.8215 125.728 45.0618C125.792 45.5812 125.953 46.0838 126.203 46.5438C127.072 48.3582 128.102 49.5647 129.28 50.2391C129.521 50.3845 129.784 50.4873 130.059 50.5431C130.71 50.6619 131.138 50.5811 131.328 50.3151C131.698 49.7974 131.256 48.5672 130.72 47.5887C129.836 45.9748 128.52 44.6392 126.92 43.7319C126.788 43.647 126.638 43.5949 126.483 43.5799Z" fill="#2D3748"/>
<path d="M125.979 35.4054C125.922 35.4056 125.867 35.3842 125.825 35.3455C125.782 35.3068 125.756 35.2536 125.751 35.1964C125.751 35.092 125.49 32.5413 125.927 31.0879C125.936 31.0589 125.95 31.0318 125.968 31.0082C125.987 30.9846 126.011 30.965 126.037 30.9505C126.064 30.9359 126.093 30.9267 126.123 30.9234C126.153 30.9201 126.183 30.9227 126.212 30.9311C126.241 30.9395 126.268 30.9536 126.292 30.9725C126.315 30.9913 126.335 31.0147 126.349 31.0411C126.364 31.0676 126.373 31.0967 126.377 31.1267C126.38 31.1567 126.377 31.1871 126.369 31.2161C125.96 32.5841 126.203 35.13 126.207 35.1537C126.213 35.2147 126.194 35.2754 126.155 35.3225C126.115 35.3696 126.059 35.3994 125.998 35.4054H125.979Z" fill="white"/>
<path d="M98.1596 17.5034H3.79985C1.8193 17.5034 0.213745 19.109 0.213745 21.0895V85.8342C0.213745 87.8148 1.8193 89.4203 3.79985 89.4203H98.1596C100.14 89.4203 101.746 87.8148 101.746 85.8342V21.0895C101.746 19.109 100.14 17.5034 98.1596 17.5034Z" fill="white"/>
<path d="M98.1597 89.6531H3.79985C2.79399 89.6469 1.8311 89.2445 1.11983 88.5332C0.408568 87.822 0.00622842 86.8591 0 85.8532V21.0895C0 20.0817 0.400341 19.1152 1.11295 18.4026C1.82556 17.69 2.79207 17.2897 3.79985 17.2897H98.1597C99.1674 17.2897 100.134 17.69 100.847 18.4026C101.559 19.1152 101.96 20.0817 101.96 21.0895V85.839C101.961 86.3392 101.864 86.8348 101.674 87.2975C101.484 87.7602 101.205 88.1807 100.852 88.5351C100.499 88.8895 100.079 89.1706 99.6171 89.3625C99.1551 89.5543 98.6599 89.6531 98.1597 89.6531ZM3.79985 17.7362C2.91004 17.7362 2.05661 18.0893 1.42698 18.718C0.797348 19.3468 0.442991 20.1997 0.441733 21.0895V85.839C0.442991 86.7288 0.797348 87.5817 1.42698 88.2105C2.05661 88.8392 2.91004 89.1924 3.79985 89.1924H98.1597C99.0486 89.1911 99.9008 88.8374 100.529 88.2088C101.158 87.5802 101.512 86.728 101.513 85.839V21.0895C101.512 20.2005 101.158 19.3483 100.529 18.7197C99.9008 18.0911 99.0486 17.7374 98.1597 17.7362H3.79985Z" fill="#2D3748"/>
<path d="M3.96613 26.8035H97.9887V85.6395H3.96613V26.8035Z" fill="#2D3748"/>
<path d="M97.9886 85.877H3.96607C3.90308 85.877 3.84267 85.8519 3.79814 85.8074C3.7536 85.7629 3.72858 85.7025 3.72858 85.6395V26.8035C3.72858 26.7405 3.7536 26.6801 3.79814 26.6356C3.84267 26.5911 3.90308 26.566 3.96607 26.566H98.0124C98.0754 26.566 98.1358 26.5911 98.1803 26.6356C98.2248 26.6801 98.2499 26.7405 98.2499 26.8035V85.6395C98.25 85.6728 98.2432 85.7057 98.2298 85.7362C98.2164 85.7667 98.1968 85.794 98.1721 85.8164C98.1475 85.8388 98.1184 85.8557 98.0868 85.8662C98.0552 85.8766 98.0218 85.8803 97.9886 85.877ZM4.21781 85.402H97.7891V27.041H4.21781V85.402Z" fill="#2D3748"/>
<path d="M3.96613 21.2842H97.9887V26.8035H3.96613V21.2842Z" fill="#006CE7"/>
<path d="M97.9886 27.041H3.96607C3.90308 27.041 3.84267 27.016 3.79814 26.9715C3.7536 26.9269 3.72858 26.8665 3.72858 26.8035V21.2842C3.72858 21.2213 3.7536 21.1609 3.79814 21.1163C3.84267 21.0718 3.90308 21.0468 3.96607 21.0468H98.0124C98.0754 21.0468 98.1358 21.0718 98.1803 21.1163C98.2248 21.1609 98.2499 21.2213 98.2499 21.2842V26.8035C98.25 26.8368 98.2432 26.8698 98.2298 26.9003C98.2164 26.9307 98.1968 26.9581 98.1721 26.9804C98.1475 27.0028 98.1184 27.0198 98.0868 27.0302C98.0552 27.0407 98.0218 27.0443 97.9886 27.041ZM4.21781 26.566H97.7891V21.5217H4.21781V26.566Z" fill="#006CE7"/>
<path d="M22.8181 32.6601H14.7434C14.7131 32.6607 14.6829 32.6553 14.6547 32.6441C14.6265 32.6329 14.6008 32.6162 14.5791 32.595C14.5575 32.5738 14.5402 32.5484 14.5285 32.5204C14.5167 32.4925 14.5107 32.4624 14.5107 32.4321C14.5107 32.3704 14.5352 32.3112 14.5788 32.2675C14.6225 32.2239 14.6817 32.1993 14.7434 32.1993H22.8181C22.8485 32.1993 22.8785 32.2054 22.9065 32.2171C22.9344 32.2289 22.9598 32.2461 22.981 32.2678C23.0023 32.2895 23.019 32.3152 23.0301 32.3434C23.0413 32.3716 23.0467 32.4017 23.0461 32.4321C23.0467 32.4622 23.0413 32.4921 23.0301 32.5201C23.0188 32.548 23.0021 32.5734 22.9808 32.5947C22.9595 32.616 22.9341 32.6328 22.9061 32.644C22.8782 32.6553 22.8482 32.6607 22.8181 32.6601Z" fill="white"/>
<path d="M41.0337 32.6601H24.8843C24.8542 32.6607 24.8242 32.6553 24.7963 32.644C24.7683 32.6328 24.7429 32.616 24.7216 32.5947C24.7003 32.5734 24.6836 32.548 24.6723 32.5201C24.6611 32.4921 24.6557 32.4622 24.6563 32.4321C24.6557 32.4017 24.6611 32.3716 24.6723 32.3434C24.6834 32.3152 24.7001 32.2895 24.7214 32.2678C24.7426 32.2461 24.768 32.2289 24.7959 32.2171C24.8239 32.2054 24.854 32.1993 24.8843 32.1993H41.0337C41.0954 32.1993 41.1546 32.2239 41.1982 32.2675C41.2419 32.3112 41.2664 32.3704 41.2664 32.4321C41.2664 32.4624 41.2604 32.4925 41.2486 32.5204C41.2368 32.5484 41.2196 32.5738 41.198 32.595C41.1763 32.6162 41.1506 32.6329 41.1224 32.6441C41.0942 32.6553 41.064 32.6607 41.0337 32.6601Z" fill="#006CE7"/>
<path d="M46.6147 36.0419H30.4653C30.4023 36.0419 30.3419 36.0169 30.2974 35.9723C30.2529 35.9278 30.2278 35.8674 30.2278 35.8044C30.2278 35.7414 30.2529 35.681 30.2974 35.6365C30.3419 35.5919 30.4023 35.5669 30.4653 35.5669H46.6147C46.6777 35.5669 46.7381 35.5919 46.7826 35.6365C46.8272 35.681 46.8522 35.7414 46.8522 35.8044C46.8522 35.8674 46.8272 35.9278 46.7826 35.9723C46.7381 36.0169 46.6777 36.0419 46.6147 36.0419Z" fill="#006CE7"/>
<path d="M24.7133 36.0419H16.6386C16.5756 36.0419 16.5152 36.0169 16.4707 35.9723C16.4261 35.9278 16.4011 35.8674 16.4011 35.8044C16.4011 35.7414 16.4261 35.681 16.4707 35.6365C16.5152 35.5919 16.5756 35.5669 16.6386 35.5669H24.7133C24.7763 35.5669 24.8367 35.5919 24.8812 35.6365C24.9258 35.681 24.9508 35.7414 24.9508 35.8044C24.9508 35.8674 24.9258 35.9278 24.8812 35.9723C24.8367 36.0169 24.7763 36.0419 24.7133 36.0419Z" fill="white"/>
<path d="M26.6132 39.419H18.5385C18.4768 39.419 18.4176 39.3945 18.374 39.3509C18.3303 39.3072 18.3058 39.248 18.3058 39.1863C18.3058 39.1559 18.3118 39.1259 18.3236 39.0979C18.3353 39.07 18.3526 39.0446 18.3742 39.0234C18.3959 39.0021 18.4216 38.9854 18.4498 38.9743C18.478 38.9631 18.5082 38.9577 18.5385 38.9583H26.6132C26.6433 38.9577 26.6733 38.9631 26.7012 38.9743C26.7292 38.9856 26.7546 39.0023 26.7759 39.0236C26.7972 39.0449 26.8139 39.0703 26.8252 39.0983C26.8364 39.1262 26.8418 39.1562 26.8412 39.1863C26.8418 39.2166 26.8364 39.2468 26.8252 39.275C26.8141 39.3032 26.7974 39.3289 26.7761 39.3506C26.7549 39.3723 26.7295 39.3895 26.7016 39.4012C26.6736 39.413 26.6436 39.419 26.6132 39.419Z" fill="white"/>
<path d="M49.4978 39.419H29.3064C29.276 39.419 29.246 39.413 29.218 39.4012C29.19 39.3895 29.1647 39.3723 29.1434 39.3506C29.1222 39.3289 29.1055 39.3032 29.0943 39.275C29.0832 39.2468 29.0777 39.2166 29.0784 39.1863C29.0777 39.1562 29.0832 39.1262 29.0944 39.0983C29.1056 39.0703 29.1224 39.0449 29.1437 39.0236C29.165 39.0023 29.1904 38.9856 29.2183 38.9743C29.2463 38.9631 29.2762 38.9577 29.3064 38.9583H49.4978C49.5281 38.9577 49.5583 38.9631 49.5865 38.9743C49.6147 38.9854 49.6404 39.0021 49.6621 39.0234C49.6838 39.0446 49.701 39.07 49.7128 39.0979C49.7245 39.1259 49.7306 39.1559 49.7306 39.1863C49.7306 39.248 49.706 39.3072 49.6624 39.3509C49.6187 39.3945 49.5595 39.419 49.4978 39.419Z" fill="#006CE7"/>
<path d="M28.5084 42.7962H20.4337C20.3728 42.7949 20.3148 42.7699 20.2722 42.7263C20.2295 42.6828 20.2057 42.6243 20.2057 42.5634C20.2057 42.503 20.2297 42.445 20.2725 42.4022C20.3152 42.3595 20.3732 42.3354 20.4337 42.3354H28.5084C28.5387 42.3348 28.5689 42.3402 28.5971 42.3514C28.6253 42.3626 28.651 42.3793 28.6727 42.4005C28.6943 42.4217 28.7115 42.4471 28.7233 42.4751C28.7351 42.503 28.7411 42.5331 28.7411 42.5634C28.7411 42.6252 28.7166 42.6844 28.6729 42.728C28.6293 42.7716 28.5701 42.7962 28.5084 42.7962Z" fill="white"/>
<path d="M53.6729 42.7962H29.6673C29.6056 42.7962 29.5464 42.7716 29.5027 42.728C29.4591 42.6844 29.4346 42.6252 29.4346 42.5634C29.4346 42.5331 29.4406 42.503 29.4524 42.4751C29.4641 42.4471 29.4813 42.4217 29.503 42.4005C29.5247 42.3793 29.5504 42.3626 29.5786 42.3514C29.6068 42.3402 29.637 42.3348 29.6673 42.3354H53.6729C53.7032 42.3348 53.7334 42.3402 53.7616 42.3514C53.7898 42.3626 53.8155 42.3793 53.8372 42.4005C53.8588 42.4217 53.8761 42.4471 53.8878 42.4751C53.8996 42.503 53.9056 42.5331 53.9056 42.5634C53.9056 42.6252 53.8811 42.6844 53.8374 42.728C53.7938 42.7716 53.7346 42.7962 53.6729 42.7962Z" fill="#006CE7"/>
<path d="M26.3663 46.1733H18.2916C18.2286 46.1733 18.1682 46.1483 18.1236 46.1037C18.0791 46.0592 18.0541 45.9988 18.0541 45.9358C18.0541 45.8728 18.0791 45.8124 18.1236 45.7679C18.1682 45.7233 18.2286 45.6983 18.2916 45.6983H26.3663C26.4292 45.6983 26.4896 45.7233 26.5342 45.7679C26.5787 45.8124 26.6037 45.8728 26.6037 45.9358C26.6037 45.9988 26.5787 46.0592 26.5342 46.1037C26.4896 46.1483 26.4292 46.1733 26.3663 46.1733Z" fill="white"/>
<path d="M41.0336 46.1733H28.0144C27.9514 46.1733 27.891 46.1483 27.8465 46.1037C27.8019 46.0592 27.7769 45.9988 27.7769 45.9358C27.7769 45.8728 27.8019 45.8124 27.8465 45.7679C27.891 45.7233 27.9514 45.6983 28.0144 45.6983H41.0336C41.0966 45.6983 41.157 45.7233 41.2016 45.7679C41.2461 45.8124 41.2711 45.8728 41.2711 45.9358C41.2711 45.9988 41.2461 46.0592 41.2016 46.1037C41.157 46.1483 41.0966 46.1733 41.0336 46.1733Z" fill="#006CE7"/>
<path d="M59.0259 46.1733H46.0162C45.9532 46.1733 45.8928 46.1483 45.8482 46.1037C45.8037 46.0592 45.7787 45.9988 45.7787 45.9358C45.7787 45.8728 45.8037 45.8124 45.8482 45.7679C45.8928 45.7233 45.9532 45.6983 46.0162 45.6983H59.0354C59.0984 45.6983 59.1588 45.7233 59.2033 45.7679C59.2479 45.8124 59.2729 45.8728 59.2729 45.9358C59.2729 45.9988 59.2479 46.0592 59.2033 46.1037C59.1588 46.1483 59.0984 46.1733 59.0354 46.1733H59.0259Z" fill="#006CE7"/>
<path d="M26.3663 49.5504H18.2916C18.2286 49.5504 18.1682 49.5254 18.1236 49.4809C18.0791 49.4363 18.0541 49.3759 18.0541 49.3129C18.0541 49.2499 18.0791 49.1895 18.1236 49.145C18.1682 49.1005 18.2286 49.0754 18.2916 49.0754H26.3663C26.4292 49.0754 26.4896 49.1005 26.5342 49.145C26.5787 49.1895 26.6037 49.2499 26.6037 49.3129C26.6037 49.3759 26.5787 49.4363 26.5342 49.4809C26.4896 49.5254 26.4292 49.5504 26.3663 49.5504Z" fill="white"/>
<path d="M41.0337 49.5504H29.6674C29.6044 49.5504 29.544 49.5254 29.4994 49.4809C29.4549 49.4363 29.4299 49.3759 29.4299 49.3129C29.4299 49.2499 29.4549 49.1895 29.4994 49.145C29.544 49.1005 29.6044 49.0754 29.6674 49.0754H41.0337C41.0967 49.0754 41.1571 49.1005 41.2016 49.145C41.2461 49.1895 41.2712 49.2499 41.2712 49.3129C41.2712 49.3759 41.2461 49.4363 41.2016 49.4809C41.1571 49.5254 41.0967 49.5504 41.0337 49.5504Z" fill="#006CE7"/>
<path d="M47.5979 49.5504H42.9526C42.8896 49.5504 42.8292 49.5254 42.7846 49.4809C42.7401 49.4363 42.7151 49.3759 42.7151 49.3129C42.7151 49.2499 42.7401 49.1895 42.7846 49.145C42.8292 49.1005 42.8896 49.0754 42.9526 49.0754H47.5979C47.6609 49.0754 47.7213 49.1005 47.7658 49.145C47.8104 49.1895 47.8354 49.2499 47.8354 49.3129C47.8354 49.3759 47.8104 49.4363 47.7658 49.4809C47.7213 49.5254 47.6609 49.5504 47.5979 49.5504Z" fill="#006CE7"/>
<path d="M26.3662 52.9275H18.2915C18.2612 52.9282 18.231 52.9227 18.2028 52.9116C18.1746 52.9004 18.1489 52.8837 18.1272 52.8625C18.1055 52.8412 18.0883 52.8159 18.0766 52.7879C18.0648 52.7599 18.0588 52.7299 18.0588 52.6995C18.0588 52.6378 18.0833 52.5786 18.1269 52.535C18.1706 52.4913 18.2298 52.4668 18.2915 52.4668H26.3662C26.3965 52.4668 26.4266 52.4728 26.4546 52.4846C26.4825 52.4964 26.5079 52.5136 26.5291 52.5352C26.5504 52.5569 26.567 52.5826 26.5782 52.6108C26.5894 52.639 26.5948 52.6692 26.5942 52.6995C26.5948 52.7297 26.5894 52.7596 26.5782 52.7875C26.5669 52.8155 26.5502 52.8409 26.5289 52.8622C26.5076 52.8835 26.4822 52.9003 26.4542 52.9115C26.4263 52.9227 26.3963 52.9282 26.3662 52.9275Z" fill="white"/>
<path d="M45.1138 52.9275H28.4894C28.4289 52.9275 28.3709 52.9035 28.3282 52.8607C28.2854 52.818 28.2614 52.76 28.2614 52.6995C28.2614 52.6386 28.2853 52.5801 28.3279 52.5366C28.3705 52.4931 28.4285 52.468 28.4894 52.4668H45.1138C45.1755 52.4668 45.2347 52.4913 45.2783 52.535C45.322 52.5786 45.3465 52.6378 45.3465 52.6995C45.3465 52.7299 45.3405 52.7599 45.3287 52.7879C45.3169 52.8159 45.2997 52.8412 45.278 52.8625C45.2564 52.8837 45.2307 52.9004 45.2025 52.9116C45.1742 52.9227 45.1441 52.9282 45.1138 52.9275Z" fill="#006CE7"/>
<path d="M55.1548 52.9275H47.0802C47.0498 52.9282 47.0197 52.9227 46.9914 52.9116C46.9632 52.9004 46.9375 52.8837 46.9159 52.8625C46.8942 52.8412 46.877 52.8159 46.8652 52.7879C46.8535 52.7599 46.8474 52.7299 46.8474 52.6995C46.8474 52.6378 46.8719 52.5786 46.9156 52.535C46.9592 52.4913 47.0184 52.4668 47.0802 52.4668H55.1548C55.2157 52.468 55.2737 52.4931 55.3163 52.5366C55.359 52.5801 55.3828 52.6386 55.3828 52.6995C55.3828 52.76 55.3588 52.818 55.316 52.8607C55.2733 52.9035 55.2153 52.9275 55.1548 52.9275Z" fill="#006CE7"/>
<path d="M20.6712 56.3046H16.3964C16.3334 56.3046 16.273 56.2796 16.2284 56.2351C16.1839 56.1905 16.1589 56.1301 16.1589 56.0671C16.1589 56.0042 16.1839 55.9438 16.2284 55.8992C16.273 55.8547 16.3334 55.8297 16.3964 55.8297H20.6712C20.7342 55.8297 20.7946 55.8547 20.8391 55.8992C20.8837 55.9438 20.9087 56.0042 20.9087 56.0671C20.9087 56.1301 20.8837 56.1905 20.8391 56.2351C20.7946 56.2796 20.7342 56.3046 20.6712 56.3046Z" fill="white"/>
<path d="M42.9526 56.3046H24.2193C24.1563 56.3046 24.0959 56.2796 24.0514 56.2351C24.0068 56.1905 23.9818 56.1301 23.9818 56.0671C23.9818 56.0042 24.0068 55.9438 24.0514 55.8992C24.0959 55.8547 24.1563 55.8297 24.2193 55.8297H42.9526C43.0156 55.8297 43.076 55.8547 43.1205 55.8992C43.165 55.9438 43.1901 56.0042 43.1901 56.0671C43.1901 56.1301 43.165 56.1905 43.1205 56.2351C43.076 56.2796 43.0156 56.3046 42.9526 56.3046Z" fill="#006CE7"/>
<path d="M24.4663 59.6865H16.3916C16.3286 59.6865 16.2682 59.6615 16.2237 59.6169C16.1791 59.5724 16.1541 59.512 16.1541 59.449C16.1541 59.386 16.1791 59.3256 16.2237 59.281C16.2682 59.2365 16.3286 59.2115 16.3916 59.2115H24.4663C24.5293 59.2115 24.5897 59.2365 24.6342 59.281C24.6788 59.3256 24.7038 59.386 24.7038 59.449C24.7038 59.512 24.6788 59.5724 24.6342 59.6169C24.5897 59.6615 24.5293 59.6865 24.4663 59.6865Z" fill="white"/>
<path d="M33.7094 63.0636H17.5601C17.5297 63.0636 17.4997 63.0576 17.4717 63.0458C17.4437 63.0341 17.4184 63.0169 17.3972 62.9952C17.3759 62.9735 17.3592 62.9478 17.3481 62.9196C17.3369 62.8914 17.3315 62.8612 17.3321 62.8309C17.3314 62.8008 17.3369 62.7708 17.3481 62.7429C17.3593 62.7149 17.3761 62.6895 17.3974 62.6682C17.4187 62.6469 17.4441 62.6302 17.4721 62.6189C17.5 62.6077 17.53 62.6022 17.5601 62.6029H33.7094C33.7398 62.6023 33.7699 62.6077 33.7981 62.6189C33.8264 62.63 33.8521 62.6467 33.8737 62.668C33.8954 62.6892 33.9126 62.7146 33.9244 62.7425C33.9361 62.7705 33.9422 62.8005 33.9422 62.8309C33.9422 62.8926 33.9177 62.9518 33.874 62.9955C33.8304 63.0391 33.7712 63.0636 33.7094 63.0636Z" fill="white"/>
<path d="M47.5979 63.0636H36.3836C36.3532 63.0636 36.3232 63.0576 36.2952 63.0458C36.2672 63.0341 36.2419 63.0169 36.2206 62.9952C36.1994 62.9735 36.1827 62.9478 36.1715 62.9196C36.1604 62.8914 36.1549 62.8612 36.1556 62.8309C36.1549 62.8008 36.1604 62.7708 36.1716 62.7429C36.1828 62.7149 36.1996 62.6895 36.2209 62.6682C36.2422 62.6469 36.2676 62.6302 36.2956 62.6189C36.3235 62.6077 36.3534 62.6022 36.3836 62.6029H47.5979C47.6282 62.6023 47.6584 62.6077 47.6866 62.6189C47.7148 62.63 47.7405 62.6467 47.7622 62.668C47.7838 62.6892 47.8011 62.7146 47.8128 62.7425C47.8246 62.7705 47.8306 62.8005 47.8306 62.8309C47.8306 62.8926 47.8061 62.9518 47.7624 62.9955C47.7188 63.0391 47.6596 63.0636 47.5979 63.0636Z" fill="#006CE7"/>
<path d="M63.087 63.0636H49.2033C49.173 63.0636 49.1429 63.0576 49.115 63.0458C49.087 63.0341 49.0616 63.0169 49.0404 62.9952C49.0192 62.9735 49.0025 62.9478 48.9913 62.9196C48.9801 62.8914 48.9747 62.8612 48.9753 62.8309C48.9747 62.8008 48.9801 62.7708 48.9914 62.7429C49.0026 62.7149 49.0194 62.6895 49.0407 62.6682C49.062 62.6469 49.0874 62.6302 49.1153 62.6189C49.1433 62.6077 49.1732 62.6022 49.2033 62.6029H63.087C63.1475 62.6029 63.2055 62.6269 63.2482 62.6697C63.291 62.7124 63.315 62.7704 63.315 62.8309C63.315 62.8918 63.2912 62.9503 63.2485 62.9938C63.2059 63.0373 63.1479 63.0624 63.087 63.0636Z" fill="#006CE7"/>
<path d="M41.7936 66.4407H18.2821C18.2203 66.4407 18.1611 66.4162 18.1175 66.3725C18.0738 66.3289 18.0493 66.2697 18.0493 66.208C18.0493 66.1776 18.0554 66.1476 18.0671 66.1196C18.0789 66.0916 18.0961 66.0663 18.1178 66.045C18.1394 66.0238 18.1651 66.0071 18.1933 65.9959C18.2216 65.9848 18.2517 65.9793 18.2821 65.98H41.7936C41.824 65.9793 41.8541 65.9848 41.8823 65.9959C41.9105 66.0071 41.9362 66.0238 41.9579 66.045C41.9796 66.0663 41.9968 66.0916 42.0086 66.1196C42.0203 66.1476 42.0264 66.1776 42.0264 66.208C42.0264 66.2697 42.0019 66.3289 41.9582 66.3725C41.9146 66.4162 41.8554 66.4407 41.7936 66.4407Z" fill="white"/>
<path d="M53.9769 66.4407H43.3991C43.3373 66.4407 43.2781 66.4162 43.2345 66.3725C43.1908 66.3289 43.1663 66.2697 43.1663 66.208C43.1663 66.1776 43.1724 66.1476 43.1841 66.1196C43.1959 66.0916 43.2131 66.0663 43.2348 66.045C43.2564 66.0238 43.2821 66.0071 43.3104 65.9959C43.3386 65.9848 43.3687 65.9793 43.3991 65.98H53.9769C54.007 65.9793 54.037 65.9848 54.0649 65.996C54.0929 66.0072 54.1183 66.024 54.1396 66.0453C54.1609 66.0666 54.1776 66.092 54.1889 66.12C54.2001 66.1479 54.2055 66.1778 54.2049 66.208C54.2055 66.2383 54.2001 66.2685 54.1889 66.2967C54.1777 66.3249 54.161 66.3506 54.1398 66.3723C54.1186 66.3939 54.0932 66.4112 54.0653 66.4229C54.0373 66.4347 54.0072 66.4407 53.9769 66.4407Z" fill="#006CE7"/>
<path d="M87.2208 66.4407H55.7675C55.7066 66.4395 55.6487 66.4144 55.606 66.3709C55.5634 66.3274 55.5395 66.2689 55.5396 66.208C55.5396 66.1475 55.5636 66.0895 55.6063 66.0467C55.6491 66.004 55.7071 65.98 55.7675 65.98H87.2208C87.2511 65.9793 87.2813 65.9848 87.3095 65.9959C87.3377 66.0071 87.3634 66.0238 87.3851 66.045C87.4068 66.0663 87.424 66.0916 87.4357 66.1196C87.4475 66.1476 87.4536 66.1776 87.4536 66.208C87.4536 66.2697 87.429 66.3289 87.3854 66.3725C87.3417 66.4162 87.2825 66.4407 87.2208 66.4407Z" fill="#006CE7"/>
<path d="M29.3063 69.8179H18.187C18.124 69.8179 18.0636 69.7929 18.0191 69.7483C17.9745 69.7038 17.9495 69.6434 17.9495 69.5804C17.9495 69.5174 17.9745 69.457 18.0191 69.4125C18.0636 69.3679 18.124 69.3429 18.187 69.3429H29.3063C29.3693 69.3429 29.4297 69.3679 29.4743 69.4125C29.5188 69.457 29.5438 69.5174 29.5438 69.5804C29.5438 69.6434 29.5188 69.7038 29.4743 69.7483C29.4297 69.7929 29.3693 69.8179 29.3063 69.8179Z" fill="white"/>
<path d="M39.7085 69.8179H31.5198C31.4568 69.8179 31.3964 69.7929 31.3518 69.7483C31.3073 69.7038 31.2823 69.6434 31.2823 69.5804C31.2823 69.5174 31.3073 69.457 31.3518 69.4125C31.3964 69.3679 31.4568 69.3429 31.5198 69.3429H39.7085C39.7714 69.3429 39.8318 69.3679 39.8764 69.4125C39.9209 69.457 39.9459 69.5174 39.9459 69.5804C39.9459 69.6434 39.9209 69.7038 39.8764 69.7483C39.8318 69.7929 39.7714 69.8179 39.7085 69.8179Z" fill="#006CE7"/>
<path d="M50.101 69.8179H41.9124C41.8494 69.8179 41.789 69.7929 41.7444 69.7483C41.6999 69.7038 41.6749 69.6434 41.6749 69.5804C41.6749 69.5174 41.6999 69.457 41.7444 69.4125C41.789 69.3679 41.8494 69.3429 41.9124 69.3429H50.101C50.164 69.3429 50.2244 69.3679 50.269 69.4125C50.3135 69.457 50.3385 69.5174 50.3385 69.5804C50.3385 69.6434 50.3135 69.7038 50.269 69.7483C50.2244 69.7929 50.164 69.8179 50.101 69.8179Z" fill="#006CE7"/>
<path d="M37.8465 73.1949H18.187C18.1567 73.1956 18.1265 73.1901 18.0983 73.179C18.0701 73.1678 18.0444 73.1511 18.0227 73.1298C18.0011 73.1086 17.9838 73.0833 17.9721 73.0553C17.9603 73.0273 17.9543 72.9973 17.9543 72.9669C17.9543 72.9052 17.9788 72.846 18.0225 72.8024C18.0661 72.7587 18.1253 72.7342 18.187 72.7342H37.8465C37.9082 72.7342 37.9674 72.7587 38.0111 72.8024C38.0547 72.846 38.0792 72.9052 38.0792 72.9669C38.0793 72.9973 38.0732 73.0273 38.0614 73.0553C38.0497 73.0833 38.0325 73.1086 38.0108 73.1298C37.9891 73.1511 37.9634 73.1678 37.9352 73.179C37.907 73.1901 37.8768 73.1956 37.8465 73.1949Z" fill="white"/>
<path d="M50.1011 73.1949H40.2689C40.2388 73.1956 40.2089 73.1901 40.1809 73.1789C40.153 73.1677 40.1276 73.1509 40.1063 73.1296C40.085 73.1083 40.0682 73.0829 40.057 73.0549C40.0458 73.027 40.0403 72.9971 40.0409 72.9669C40.0403 72.9366 40.0457 72.9064 40.0569 72.8782C40.0681 72.85 40.0848 72.8243 40.106 72.8026C40.1273 72.781 40.1526 72.7637 40.1806 72.752C40.2086 72.7402 40.2386 72.7342 40.2689 72.7342H50.1011C50.1314 72.7342 50.1614 72.7402 50.1894 72.752C50.2174 72.7637 50.2427 72.781 50.264 72.8026C50.2852 72.8243 50.3019 72.85 50.3131 72.8782C50.3242 72.9064 50.3297 72.9366 50.329 72.9669C50.3297 72.9971 50.3242 73.027 50.313 73.0549C50.3018 73.0829 50.285 73.1083 50.2637 73.1296C50.2424 73.1509 50.217 73.1677 50.1891 73.1789C50.1611 73.1901 50.1312 73.1956 50.1011 73.1949Z" fill="#006CE7"/>
<path d="M67.4853 73.1949H52.5139C52.4838 73.1956 52.4539 73.1901 52.4259 73.1789C52.398 73.1677 52.3726 73.1509 52.3513 73.1296C52.33 73.1083 52.3132 73.0829 52.302 73.0549C52.2908 73.027 52.2853 72.9971 52.2859 72.9669C52.2853 72.9366 52.2907 72.9064 52.3019 72.8782C52.3131 72.85 52.3298 72.8243 52.351 72.8026C52.3723 72.781 52.3976 72.7637 52.4256 72.752C52.4535 72.7402 52.4836 72.7342 52.5139 72.7342H67.4853C67.5159 72.7342 67.5462 72.7402 67.5744 72.7519C67.6026 72.7636 67.6283 72.7808 67.6499 72.8024C67.6715 72.824 67.6887 72.8496 67.7004 72.8779C67.7121 72.9061 67.7181 72.9364 67.7181 72.9669C67.7181 72.9973 67.712 73.0273 67.7003 73.0553C67.6885 73.0833 67.6713 73.1086 67.6496 73.1298C67.628 73.1511 67.6023 73.1678 67.5741 73.179C67.5458 73.1901 67.5157 73.1956 67.4853 73.1949Z" fill="#006CE7"/>
<path d="M84.0147 73.1949H69.0623C69.0319 73.1956 69.0018 73.1901 68.9736 73.179C68.9453 73.1678 68.9197 73.1511 68.898 73.1298C68.8763 73.1086 68.8591 73.0833 68.8473 73.0553C68.8356 73.0273 68.8295 72.9973 68.8295 72.9669C68.8295 72.9052 68.8541 72.846 68.8977 72.8024C68.9413 72.7587 69.0005 72.7342 69.0623 72.7342H84.0147C84.0764 72.7342 84.1356 72.7587 84.1793 72.8024C84.2229 72.846 84.2474 72.9052 84.2474 72.9669C84.2474 72.9973 84.2414 73.0273 84.2296 73.0553C84.2179 73.0833 84.2007 73.1086 84.179 73.1298C84.1573 73.1511 84.1316 73.1678 84.1034 73.179C84.0752 73.1901 84.045 73.1956 84.0147 73.1949Z" fill="#006CE7"/>
<path d="M34.8874 76.5721H23.1601C23.1298 76.5727 23.0996 76.5673 23.0714 76.5561C23.0432 76.5449 23.0175 76.5282 22.9958 76.507C22.9741 76.4857 22.9569 76.4604 22.9452 76.4324C22.9334 76.4045 22.9274 76.3744 22.9274 76.3441C22.9274 76.3135 22.9334 76.2832 22.9451 76.255C22.9568 76.2268 22.9739 76.2011 22.9955 76.1795C23.0171 76.1579 23.0428 76.1407 23.071 76.129C23.0993 76.1174 23.1295 76.1113 23.1601 76.1113H34.8874C34.9177 76.1113 34.9478 76.1174 34.9758 76.1291C35.0037 76.1409 35.0291 76.1581 35.0503 76.1798C35.0715 76.2015 35.0882 76.2271 35.0994 76.2554C35.1106 76.2836 35.116 76.3137 35.1154 76.3441C35.116 76.3742 35.1106 76.4041 35.0994 76.4321C35.0881 76.46 35.0714 76.4854 35.0501 76.5067C35.0288 76.528 35.0034 76.5448 34.9754 76.556C34.9475 76.5673 34.9175 76.5727 34.8874 76.5721Z" fill="white"/>
<path d="M48.8139 76.5721H37.0866C37.0564 76.5727 37.0265 76.5673 36.9986 76.556C36.9706 76.5448 36.9452 76.528 36.9239 76.5067C36.9026 76.4854 36.8858 76.46 36.8746 76.4321C36.8634 76.4041 36.8579 76.3742 36.8586 76.3441C36.8579 76.3137 36.8634 76.2836 36.8745 76.2554C36.8857 76.2271 36.9024 76.2015 36.9236 76.1798C36.9449 76.1581 36.9702 76.1409 36.9982 76.1291C37.0262 76.1174 37.0562 76.1113 37.0866 76.1113H48.8139C48.8444 76.1113 48.8747 76.1174 48.9029 76.129C48.9312 76.1407 48.9568 76.1579 48.9784 76.1795C49 76.2011 49.0172 76.2268 49.0289 76.255C49.0406 76.2832 49.0466 76.3135 49.0466 76.3441C49.0466 76.3744 49.0405 76.4045 49.0288 76.4324C49.017 76.4604 48.9998 76.4857 48.9781 76.507C48.9565 76.5282 48.9308 76.5449 48.9026 76.5561C48.8744 76.5673 48.8442 76.5727 48.8139 76.5721Z" fill="#006CE7"/>
<path d="M62.84 76.5721H51.1127C51.0824 76.5727 51.0522 76.5673 51.024 76.5561C50.9958 76.5449 50.9701 76.5282 50.9485 76.507C50.9268 76.4857 50.9096 76.4604 50.8978 76.4324C50.886 76.4045 50.88 76.3744 50.88 76.3441C50.88 76.3135 50.886 76.2832 50.8977 76.255C50.9094 76.2268 50.9266 76.2011 50.9482 76.1795C50.9698 76.1579 50.9954 76.1407 51.0237 76.129C51.0519 76.1174 51.0822 76.1113 51.1127 76.1113H62.84C62.8704 76.1113 62.9004 76.1174 62.9284 76.1291C62.9564 76.1409 62.9817 76.1581 63.003 76.1798C63.0242 76.2015 63.0409 76.2271 63.0521 76.2554C63.0632 76.2836 63.0687 76.3137 63.068 76.3441C63.0687 76.3742 63.0632 76.4041 63.052 76.4321C63.0408 76.46 63.024 76.4854 63.0027 76.5067C62.9814 76.528 62.956 76.5448 62.928 76.556C62.9001 76.5673 62.8701 76.5727 62.84 76.5721Z" fill="#006CE7"/>
<path d="M77.365 76.952H65.6329C65.57 76.952 65.5095 76.927 65.465 76.8825C65.4205 76.8379 65.3954 76.7775 65.3954 76.7145C65.3954 76.6516 65.4205 76.5911 65.465 76.5466C65.5095 76.5021 65.57 76.4771 65.6329 76.4771H77.365C77.428 76.4771 77.4884 76.5021 77.5329 76.5466C77.5774 76.5911 77.6025 76.6516 77.6025 76.7145C77.6025 76.7775 77.5774 76.8379 77.5329 76.8825C77.4884 76.927 77.428 76.952 77.365 76.952Z" fill="#006CE7"/>
<path d="M32.9875 79.9493H24.9128C24.8827 79.9499 24.8527 79.9445 24.8248 79.9332C24.7968 79.922 24.7714 79.9052 24.7501 79.8839C24.7288 79.8626 24.7121 79.8372 24.7008 79.8093C24.6896 79.7813 24.6842 79.7514 24.6848 79.7213C24.6842 79.6909 24.6896 79.6608 24.7008 79.6326C24.712 79.6043 24.7286 79.5786 24.7499 79.557C24.7711 79.5353 24.7965 79.5181 24.8244 79.5063C24.8524 79.4946 24.8825 79.4885 24.9128 79.4885H32.9875C33.0492 79.4885 33.1084 79.513 33.1521 79.5567C33.1957 79.6003 33.2202 79.6595 33.2202 79.7213C33.2202 79.7516 33.2142 79.7816 33.2024 79.8096C33.1907 79.8376 33.1735 79.8629 33.1518 79.8842C33.1301 79.9054 33.1044 79.9221 33.0762 79.9333C33.048 79.9445 33.0178 79.9499 32.9875 79.9493Z" fill="white"/>
<path d="M42.9715 79.9493H34.8969C34.8665 79.9499 34.8364 79.9445 34.8082 79.9333C34.7799 79.9221 34.7542 79.9054 34.7326 79.8842C34.7109 79.8629 34.6937 79.8376 34.6819 79.8096C34.6702 79.7816 34.6641 79.7516 34.6641 79.7213C34.6641 79.6595 34.6886 79.6003 34.7323 79.5567C34.7759 79.513 34.8351 79.4885 34.8969 79.4885H42.9715C43.0019 79.4885 43.0319 79.4946 43.0599 79.5063C43.0879 79.5181 43.1132 79.5353 43.1345 79.557C43.1557 79.5786 43.1724 79.6043 43.1836 79.6326C43.1947 79.6608 43.2002 79.6909 43.1995 79.7213C43.2002 79.7514 43.1947 79.7813 43.1835 79.8093C43.1723 79.8372 43.1555 79.8626 43.1342 79.8839C43.1129 79.9052 43.0875 79.922 43.0596 79.9332C43.0316 79.9445 43.0017 79.9499 42.9715 79.9493Z" fill="#006CE7"/>
<path d="M61.6383 80.2912L44.9475 79.9492C44.9171 79.9492 44.8871 79.9432 44.8591 79.9314C44.8311 79.9197 44.8058 79.9025 44.7846 79.8808C44.7633 79.8591 44.7466 79.8334 44.7355 79.8052C44.7243 79.777 44.7189 79.7468 44.7195 79.7165C44.7188 79.6855 44.7245 79.6548 44.7363 79.6262C44.7481 79.5975 44.7657 79.5717 44.7881 79.5502C44.8104 79.5288 44.8369 79.5122 44.866 79.5016C44.8951 79.491 44.9261 79.4865 44.957 79.4885L61.6478 79.8305C61.7108 79.8305 61.7712 79.8555 61.8157 79.9C61.8603 79.9446 61.8853 80.005 61.8853 80.068C61.8853 80.131 61.8603 80.1914 61.8157 80.2359C61.7712 80.2804 61.7108 80.3055 61.6478 80.3055L61.6383 80.2912Z" fill="#006CE7"/>
<path d="M67.8653 42.7962H56.9407C56.9104 42.7962 56.8804 42.7901 56.8524 42.7784C56.8244 42.7666 56.7991 42.7494 56.7778 42.7277C56.7566 42.706 56.7399 42.6804 56.7287 42.6521C56.7176 42.6239 56.7121 42.5938 56.7128 42.5634C56.7121 42.5333 56.7176 42.5034 56.7288 42.4754C56.74 42.4475 56.7568 42.4221 56.7781 42.4008C56.7994 42.3795 56.8248 42.3627 56.8527 42.3515C56.8807 42.3402 56.9106 42.3348 56.9407 42.3354H67.8653C67.8957 42.3348 67.9258 42.3402 67.954 42.3514C67.9822 42.3626 68.0079 42.3793 68.0296 42.4005C68.0513 42.4218 68.0685 42.4471 68.0803 42.4751C68.092 42.503 68.0981 42.5331 68.0981 42.5634C68.0981 42.6252 68.0735 42.6844 68.0299 42.728C67.9862 42.7717 67.927 42.7962 67.8653 42.7962Z" fill="#006CE7"/>
<path d="M75.94 42.8294C73.8026 42.8294 72.2162 42.8294 72.1402 42.7819C72.1112 42.7738 72.0841 42.7601 72.0604 42.7415C72.0367 42.7229 72.0169 42.6998 72.0021 42.6736C71.9723 42.6206 71.9647 42.5579 71.9811 42.4993C71.9974 42.4407 72.0364 42.3911 72.0894 42.3612C72.1424 42.3314 72.2051 42.3238 72.2637 42.3402C72.6817 42.3924 79.8919 42.3639 84.6607 42.3402C84.691 42.3396 84.7212 42.345 84.7494 42.3562C84.7776 42.3673 84.8033 42.384 84.825 42.4053C84.8467 42.4265 84.8639 42.4519 84.8756 42.4798C84.8874 42.5078 84.8934 42.5378 84.8934 42.5682C84.8934 42.6299 84.8689 42.6891 84.8253 42.7328C84.7816 42.7764 84.7224 42.8009 84.6607 42.8009C82.1148 42.8104 78.5999 42.8294 75.94 42.8294Z" fill="#006CE7"/>
<path d="M66.1221 36.0419H50.2578C50.1948 36.0419 50.1344 36.0169 50.0898 35.9723C50.0453 35.9278 50.0203 35.8674 50.0203 35.8044C50.0203 35.7414 50.0453 35.681 50.0898 35.6365C50.1344 35.5919 50.1948 35.5669 50.2578 35.5669H66.1221C66.1851 35.5669 66.2455 35.5919 66.2901 35.6365C66.3346 35.681 66.3596 35.7414 66.3596 35.8044C66.3596 35.8674 66.3346 35.9278 66.2901 35.9723C66.2455 36.0169 66.1851 36.0419 66.1221 36.0419Z" fill="#006CE7"/>
<path d="M85.0977 36.0419H69.2903C69.2273 36.0419 69.1669 36.0169 69.1224 35.9723C69.0778 35.9278 69.0528 35.8674 69.0528 35.8044C69.0528 35.7414 69.0778 35.681 69.1224 35.6365C69.1669 35.5919 69.2273 35.5669 69.2903 35.5669H85.0787C85.1417 35.5669 85.2021 35.5919 85.2466 35.6365C85.2911 35.681 85.3162 35.7414 85.3162 35.8044C85.3162 35.8674 85.2911 35.9278 85.2466 35.9723C85.2021 36.0169 85.1417 36.0419 85.0787 36.0419H85.0977Z" fill="#006CE7"/>
<path d="M51.241 32.6791C48.3104 32.6791 46.078 32.6791 45.9877 32.6791C45.9274 32.6686 45.8737 32.6348 45.8382 32.5851C45.8026 32.5353 45.7881 32.4735 45.7977 32.4131C45.8071 32.3542 45.8392 32.3013 45.8872 32.2657C45.9351 32.2302 45.9951 32.2149 46.0542 32.2231C46.4579 32.2516 58.171 32.2231 64.3172 32.2231C64.379 32.2231 64.4382 32.2476 64.4818 32.2913C64.5255 32.3349 64.55 32.3941 64.55 32.4559C64.55 32.4862 64.5439 32.5162 64.5322 32.5442C64.5204 32.5722 64.5032 32.5975 64.4815 32.6188C64.4599 32.64 64.4342 32.6567 64.4059 32.6679C64.3777 32.679 64.3476 32.6845 64.3172 32.6838C61.7381 32.6696 55.6773 32.6791 51.241 32.6791Z" fill="#006CE7"/>
<path d="M68.5968 32.6743C68.5543 32.6734 68.513 32.6604 68.4777 32.6369C68.4423 32.6133 68.4145 32.5802 68.3973 32.5413C68.3741 32.4825 68.374 32.417 68.3969 32.3581C68.4198 32.2991 68.464 32.2509 68.5208 32.2231C68.706 32.1328 72.3967 32.1233 79.4834 32.2231C79.5439 32.2255 79.6012 32.2509 79.6436 32.2942C79.6859 32.3375 79.7102 32.3953 79.7114 32.4558C79.7114 32.4862 79.7053 32.5162 79.6936 32.5442C79.6818 32.5722 79.6646 32.5975 79.6429 32.6187C79.6212 32.64 79.5955 32.6567 79.5673 32.6678C79.5391 32.679 79.509 32.6844 79.4786 32.6838C75.351 32.6411 69.0765 32.6031 68.687 32.6838C68.6567 32.6893 68.6253 32.686 68.5968 32.6743Z" fill="white"/>
<path d="M53.2929 56.3046H45.1137C45.0507 56.3046 44.9903 56.2796 44.9458 56.2351C44.9012 56.1905 44.8762 56.1301 44.8762 56.0671C44.8762 56.0042 44.9012 55.9438 44.9458 55.8992C44.9903 55.8547 45.0507 55.8297 45.1137 55.8297H53.2929C53.3559 55.8297 53.4163 55.8547 53.4608 55.8992C53.5054 55.9438 53.5304 56.0042 53.5304 56.0671C53.5304 56.1301 53.5054 56.1905 53.4608 56.2351C53.4163 56.2796 53.3559 56.3046 53.2929 56.3046Z" fill="#006CE7"/>
<path d="M34.5264 59.6865H28.5084C28.4454 59.6865 28.385 59.6615 28.3404 59.6169C28.2959 59.5724 28.2709 59.512 28.2709 59.449C28.2709 59.386 28.2959 59.3256 28.3404 59.281C28.385 59.2365 28.4454 59.2115 28.5084 59.2115H34.5264C34.5894 59.2115 34.6498 59.2365 34.6943 59.281C34.7388 59.3256 34.7639 59.386 34.7639 59.449C34.7639 59.512 34.7388 59.5724 34.6943 59.6169C34.6498 59.6615 34.5894 59.6865 34.5264 59.6865Z" fill="#006CE7"/>
<path d="M51.1127 59.6865H36.811C36.7481 59.6865 36.6876 59.6615 36.6431 59.6169C36.5986 59.5724 36.5735 59.512 36.5735 59.449C36.5735 59.386 36.5986 59.3256 36.6431 59.281C36.6876 59.2365 36.7481 59.2115 36.811 59.2115H51.1127C51.1757 59.2115 51.2361 59.2365 51.2807 59.281C51.3252 59.3256 51.3502 59.386 51.3502 59.449C51.3502 59.512 51.3252 59.5724 51.2807 59.6169C51.2361 59.6615 51.1757 59.6865 51.1127 59.6865Z" fill="white"/>
<path d="M81.6825 59.6865H53.9769C53.9139 59.6865 53.8535 59.6615 53.8089 59.6169C53.7644 59.5724 53.7394 59.512 53.7394 59.449C53.7394 59.386 53.7644 59.3256 53.8089 59.281C53.8535 59.2365 53.9139 59.2115 53.9769 59.2115H81.6825C81.7455 59.2115 81.8059 59.2365 81.8505 59.281C81.895 59.3256 81.92 59.386 81.92 59.449C81.92 59.512 81.895 59.5724 81.8505 59.6169C81.8059 59.6615 81.7455 59.6865 81.6825 59.6865Z" fill="#006CE7"/>
<path d="M7.5427 24.8514C7.98865 24.8514 8.35017 24.4899 8.35017 24.0439C8.35017 23.598 7.98865 23.2365 7.5427 23.2365C7.09675 23.2365 6.73523 23.598 6.73523 24.0439C6.73523 24.4899 7.09675 24.8514 7.5427 24.8514Z" fill="#2D3748"/>
<path d="M10.3736 24.8514C10.8195 24.8514 11.181 24.4899 11.181 24.0439C11.181 23.598 10.8195 23.2365 10.3736 23.2365C9.92762 23.2365 9.5661 23.598 9.5661 24.0439C9.5661 24.4899 9.92762 24.8514 10.3736 24.8514Z" fill="white"/>
<path d="M13.2045 24.8514C13.6505 24.8514 14.012 24.4899 14.012 24.0439C14.012 23.598 13.6505 23.2365 13.2045 23.2365C12.7585 23.2365 12.397 23.598 12.397 24.0439C12.397 24.4899 12.7585 24.8514 13.2045 24.8514Z" fill="white"/>
<path d="M66.0842 99.8319H35.8706L39.2857 89.4203H62.6691L66.0842 99.8319Z" fill="white"/>
<path d="M66.0841 100.069H35.8706C35.8328 100.071 35.7953 100.063 35.7613 100.046C35.7272 100.03 35.6977 100.005 35.6753 99.975C35.6528 99.9446 35.6381 99.9092 35.6324 99.8719C35.6267 99.8345 35.6302 99.7963 35.6426 99.7606L39.0577 89.3491C39.0729 89.3006 39.1033 89.2583 39.1443 89.2284C39.1853 89.1985 39.2349 89.1825 39.2857 89.1828H62.669C62.7198 89.1825 62.7693 89.1985 62.8104 89.2284C62.8514 89.2583 62.8818 89.3006 62.897 89.3491L66.3121 99.7606C66.3245 99.7963 66.328 99.8345 66.3223 99.8719C66.3166 99.9092 66.3018 99.9446 66.2794 99.975C66.257 100.005 66.2274 100.03 66.1934 100.046C66.1594 100.063 66.1219 100.071 66.0841 100.069ZM36.1983 99.5944H65.7564L62.498 89.6578H39.4567L36.1983 99.5944Z" fill="#2D3748"/>
<path d="M68.5778 99.8319H33.3769C32.5663 99.8319 31.9092 100.488 31.9092 101.297C31.9092 102.107 32.5663 102.763 33.3769 102.763H68.5778C69.3884 102.763 70.0455 102.107 70.0455 101.297C70.0455 100.488 69.3884 99.8319 68.5778 99.8319Z" fill="white"/>
<path d="M68.5826 103.005H33.3769C32.9247 103.005 32.491 102.825 32.1712 102.505C31.8514 102.186 31.6718 101.752 31.6718 101.3C31.6718 100.847 31.8514 100.414 32.1712 100.094C32.491 99.7741 32.9247 99.5944 33.3769 99.5944H68.5826C69.0348 99.5944 69.4685 99.7741 69.7883 100.094C70.1081 100.414 70.2877 100.847 70.2877 101.3C70.2877 101.752 70.1081 102.186 69.7883 102.505C69.4685 102.825 69.0348 103.005 68.5826 103.005ZM33.3769 100.069C33.0507 100.069 32.7378 100.199 32.5071 100.43C32.2763 100.66 32.1467 100.973 32.1467 101.3C32.1467 101.626 32.2763 101.939 32.5071 102.169C32.7378 102.4 33.0507 102.53 33.3769 102.53H68.5826C68.9088 102.53 69.2217 102.4 69.4524 102.169C69.6831 101.939 69.8128 101.626 69.8128 101.3C69.8128 100.973 69.6831 100.66 69.4524 100.43C69.2217 100.199 68.9088 100.069 68.5826 100.069H33.3769Z" fill="#2D3748"/>
<path d="M36.7778 97.0722C37.2528 96.8157 63.4243 92.0374 63.4243 92.0374L62.5646 89.4203H39.1812L36.7778 97.0722Z" fill="#2D3748"/>
<path d="M36.773 97.3098C36.7187 97.3093 36.6663 97.2891 36.6258 97.2528C36.5913 97.223 36.5665 97.1835 36.5547 97.1395C36.5428 97.0954 36.5444 97.0489 36.5593 97.0058L38.9627 89.3538C38.9763 89.3066 39.0051 89.2652 39.0446 89.236C39.0841 89.2068 39.1321 89.1915 39.1812 89.1923H62.5645C62.613 89.1912 62.6606 89.2058 62.7 89.2341C62.7395 89.2624 62.7686 89.3027 62.783 89.3491L63.6427 91.9615C63.6519 91.993 63.6545 92.0261 63.6503 92.0587C63.646 92.0912 63.6351 92.1225 63.6181 92.1507C63.6012 92.1788 63.5786 92.2031 63.5517 92.222C63.5249 92.241 63.4944 92.2541 63.4622 92.2607C56.29 93.5716 37.5235 97.0343 36.8633 97.286C36.8349 97.2994 36.8043 97.3074 36.773 97.3098ZM39.3664 89.6531L37.134 96.754C40.2784 96.0416 58.5937 92.6882 63.1345 91.857L62.4125 89.6531H39.3664Z" fill="#2D3748"/>
</svg>
