<svg viewBox="0 0 254 259" fill="none" xmlns="http://www.w3.org/2000/svg">
<path opacity="0.18" d="M226.979 156.401C225.905 169.24 226.754 182.188 225.553 195.017C224.352 207.847 220.832 220.978 212.266 230.839C207.857 235.793 202.471 239.849 196.42 242.766C189.34 246.287 181.464 248.544 173.612 249.847C159.065 252.287 144.191 251.914 129.474 253.042C109.512 254.567 89.7597 258.853 69.7342 258.834C56.4228 258.834 42.5989 256.593 30.7867 250.966C24.7955 248.168 19.371 244.355 14.7702 239.707C-0.655479 223.947 -3.58045 199.167 4.06158 178.77C11.4692 159.002 27.8226 141.448 27.012 120.433C26.5238 108.161 20.0927 95.6902 24.0529 83.9983C25.6252 79.3819 28.726 75.3603 32.3542 71.9996C47.6723 57.8202 70.5838 55.3373 90.0624 47.2705C98.1585 43.9239 104.883 37.8302 112.803 34.5638C118.663 32.1565 126.358 33.2469 132.457 34.2098C148.225 36.702 163.134 44.6225 173.432 56.4891C177.479 61.162 180.912 66.5525 181.943 72.566C182.567 76.2146 182.31 80.0758 183.842 83.4648C185.376 86.8541 188.417 89.2377 191.368 91.5317L206.569 103.332C214.268 109.322 222.287 115.708 225.934 124.573C230.022 134.566 227.874 145.724 226.979 156.401Z" fill="#006CE7"/>
<g clip-path="url(#clip0_1_564)">
<path d="M159.198 171.76L150.937 242.764C150.903 243.074 150.934 243.388 151.028 243.685C151.123 243.982 151.279 244.256 151.486 244.489C151.694 244.722 151.948 244.909 152.232 245.037C152.517 245.166 152.825 245.233 153.137 245.234C153.642 245.232 154.131 245.057 154.524 244.74C154.917 244.422 155.19 243.981 155.298 243.487L170.865 171.758H159.198V171.76Z" fill="white"/>
<path d="M153.137 245.841C152.739 245.839 152.346 245.754 151.984 245.591C151.621 245.427 151.297 245.189 151.033 244.892C150.769 244.595 150.57 244.246 150.45 243.867C150.329 243.488 150.29 243.088 150.335 242.693L158.595 171.689C158.613 171.54 158.684 171.404 158.796 171.305C158.908 171.206 159.053 171.152 159.202 171.153H170.865C170.956 171.153 171.045 171.173 171.127 171.213C171.209 171.252 171.28 171.309 171.337 171.379C171.394 171.45 171.434 171.532 171.455 171.62C171.476 171.709 171.477 171.8 171.457 171.889L155.89 243.617C155.752 244.245 155.405 244.808 154.904 245.212C154.403 245.617 153.78 245.838 153.137 245.841ZM159.746 172.366L151.548 242.832C151.528 243.229 151.654 243.619 151.903 243.928C152.152 244.238 152.506 244.445 152.897 244.51C153.289 244.575 153.691 244.494 154.027 244.282C154.362 244.07 154.608 243.742 154.718 243.36L170.123 172.366H159.746Z" fill="#2D3748"/>
<path d="M189.719 171.76L197.98 242.764C198.015 243.074 197.984 243.388 197.889 243.685C197.794 243.982 197.638 244.256 197.431 244.489C197.223 244.722 196.969 244.909 196.685 245.037C196.401 245.166 196.092 245.233 195.78 245.234C195.275 245.233 194.785 245.059 194.391 244.742C193.998 244.425 193.724 243.983 193.615 243.489L178.048 171.76H189.717H189.719Z" fill="white"/>
<path d="M195.778 245.841C195.134 245.839 194.51 245.618 194.009 245.214C193.507 244.809 193.159 244.246 193.021 243.617L177.454 171.889C177.434 171.8 177.435 171.709 177.456 171.62C177.477 171.532 177.517 171.45 177.574 171.379C177.631 171.309 177.703 171.252 177.784 171.213C177.866 171.173 177.956 171.153 178.046 171.153H189.715C189.865 171.152 190.009 171.206 190.121 171.305C190.233 171.404 190.304 171.54 190.322 171.689L198.583 242.693C198.627 243.088 198.588 243.488 198.468 243.867C198.347 244.247 198.148 244.596 197.883 244.893C197.619 245.19 197.295 245.428 196.932 245.591C196.569 245.755 196.176 245.84 195.778 245.841ZM178.796 172.366L194.202 243.36C194.311 243.742 194.557 244.07 194.893 244.282C195.228 244.494 195.63 244.575 196.022 244.51C196.413 244.445 196.767 244.238 197.016 243.928C197.265 243.619 197.392 243.229 197.372 242.832L189.174 172.366H178.802H178.796Z" fill="#2D3748"/>
<path d="M233.289 165.021H226.268L232.197 126.641H239.219L233.289 165.021Z" fill="white"/>
<path d="M233.289 165.628H226.26C226.171 165.629 226.084 165.611 226.004 165.575C225.923 165.538 225.852 165.485 225.794 165.419C225.736 165.352 225.694 165.274 225.67 165.189C225.645 165.104 225.64 165.015 225.653 164.928L231.583 126.55C231.605 126.406 231.679 126.275 231.79 126.18C231.902 126.086 232.043 126.035 232.189 126.037H239.211C239.299 126.036 239.386 126.054 239.466 126.09C239.547 126.126 239.618 126.179 239.676 126.246C239.734 126.313 239.776 126.391 239.801 126.476C239.825 126.56 239.831 126.649 239.817 126.736L233.889 165.106C233.869 165.251 233.797 165.383 233.687 165.479C233.576 165.575 233.435 165.628 233.289 165.628ZM226.975 164.415H232.769L238.513 127.25H232.719L226.975 164.415Z" fill="#2D3748"/>
<path d="M236.247 131.685C235.294 131.685 234.352 131.479 233.486 131.081C232.62 130.682 231.851 130.101 231.231 129.377C230.611 128.653 230.156 127.803 229.895 126.887C229.635 125.97 229.576 125.007 229.723 124.066L235.155 88.8577C235.396 87.3001 236.186 85.88 237.382 84.8541C238.579 83.8281 240.103 83.264 241.679 83.2637C242.631 83.2639 243.572 83.4701 244.437 83.868C245.302 84.2659 246.071 84.8461 246.69 85.5689C247.31 86.2917 247.766 87.14 248.027 88.0556C248.288 88.9712 248.348 89.9324 248.203 90.8734L242.773 126.087C242.533 127.646 241.743 129.067 240.546 130.094C239.349 131.121 237.824 131.685 236.247 131.685Z" fill="#006CE7"/>
<path d="M203.111 171.76L194.851 242.764C194.816 243.074 194.847 243.388 194.942 243.685C195.036 243.982 195.192 244.256 195.4 244.489C195.607 244.722 195.861 244.909 196.146 245.037C196.43 245.166 196.738 245.233 197.05 245.234C197.556 245.233 198.045 245.059 198.439 244.742C198.833 244.425 199.106 243.983 199.215 243.489L214.782 171.76H203.111Z" fill="white"/>
<path d="M197.052 245.841C196.655 245.839 196.262 245.754 195.899 245.591C195.537 245.427 195.213 245.189 194.948 244.892C194.684 244.595 194.485 244.246 194.365 243.867C194.245 243.488 194.205 243.088 194.25 242.693L202.511 171.689C202.528 171.54 202.6 171.404 202.712 171.305C202.823 171.206 202.968 171.152 203.117 171.153H214.786C214.877 171.153 214.967 171.173 215.048 171.213C215.13 171.252 215.202 171.309 215.259 171.379C215.316 171.45 215.356 171.532 215.377 171.62C215.397 171.709 215.398 171.8 215.379 171.889L199.812 243.617C199.674 244.246 199.325 244.81 198.823 245.214C198.321 245.619 197.697 245.84 197.052 245.841ZM203.651 172.366L195.453 242.832C195.433 243.229 195.559 243.619 195.808 243.928C196.057 244.238 196.411 244.445 196.803 244.51C197.194 244.575 197.596 244.494 197.932 244.282C198.268 244.07 198.514 243.742 198.623 243.36L214.028 172.366H203.651Z" fill="#2D3748"/>
<path d="M233.633 171.76L241.893 242.764C241.928 243.074 241.897 243.388 241.802 243.685C241.708 243.982 241.552 244.256 241.344 244.489C241.137 244.722 240.883 244.909 240.598 245.037C240.314 245.166 240.006 245.233 239.694 245.234C239.188 245.233 238.698 245.059 238.305 244.742C237.911 244.425 237.637 243.983 237.529 243.489L221.961 171.76H233.631H233.633Z" fill="white"/>
<path d="M239.692 245.841C239.048 245.839 238.423 245.618 237.922 245.214C237.421 244.809 237.072 244.246 236.934 243.617L221.367 171.887C221.348 171.798 221.349 171.707 221.369 171.618C221.39 171.53 221.43 171.448 221.487 171.377C221.544 171.307 221.616 171.25 221.698 171.211C221.779 171.171 221.869 171.151 221.959 171.151H233.629C233.778 171.15 233.922 171.204 234.034 171.303C234.146 171.402 234.218 171.538 234.235 171.687L242.496 242.691C242.541 243.086 242.502 243.487 242.382 243.866C242.261 244.245 242.062 244.595 241.798 244.892C241.533 245.19 241.209 245.428 240.846 245.591C240.483 245.754 240.09 245.84 239.692 245.841ZM222.71 172.366L238.115 243.36C238.224 243.742 238.47 244.07 238.806 244.282C239.142 244.494 239.544 244.575 239.935 244.51C240.327 244.445 240.681 244.238 240.93 243.928C241.179 243.619 241.305 243.229 241.285 242.832L233.093 172.366H222.716H222.71Z" fill="#2D3748"/>
<path d="M204.844 161.095H159.566C156.247 161.095 153.557 163.785 153.557 167.104C153.557 170.422 156.247 173.112 159.566 173.112H204.844C208.162 173.112 210.852 170.422 210.852 167.104C210.852 163.785 208.162 161.095 204.844 161.095Z" fill="#E75300"/>
<path d="M233.275 161.095H203.471C200.153 161.095 197.463 163.785 197.463 167.104C197.463 170.422 200.153 173.112 203.471 173.112H233.275C236.593 173.112 239.283 170.422 239.283 167.104C239.283 163.785 236.593 161.095 233.275 161.095Z" fill="white"/>
<path d="M233.275 173.719H203.471C201.717 173.719 200.034 173.022 198.793 171.781C197.553 170.541 196.856 168.858 196.856 167.104C196.856 165.349 197.553 163.667 198.793 162.426C200.034 161.186 201.717 160.489 203.471 160.489H233.275C235.029 160.489 236.712 161.186 237.952 162.426C239.193 163.667 239.89 165.349 239.89 167.104C239.89 168.858 239.193 170.541 237.952 171.781C236.712 173.022 235.029 173.719 233.275 173.719ZM203.471 161.702C202.038 161.702 200.664 162.271 199.651 163.284C198.638 164.297 198.069 165.671 198.069 167.104C198.069 168.536 198.638 169.91 199.651 170.923C200.664 171.936 202.038 172.506 203.471 172.506H233.275C234.708 172.506 236.082 171.936 237.095 170.923C238.108 169.91 238.677 168.536 238.677 167.104C238.677 165.671 238.108 164.297 237.095 163.284C236.082 162.271 234.708 161.702 233.275 161.702H203.471Z" fill="#2D3748"/>
<path d="M82.5491 214.921C82.5491 214.921 66.4766 166.4 98.3184 135.169C98.3184 135.169 116.208 175.803 82.5491 214.921Z" fill="#006CE7"/>
<path d="M97.1053 143.053C97.1053 143.053 86.8897 178.571 83.3699 212.954C83.3699 212.954 93.7695 176.409 97.1053 143.053Z" fill="white"/>
<path d="M81.6413 215.649C81.6413 215.649 89.6776 170.363 66.701 140.696C66.699 140.698 57.011 178.571 81.6413 215.649Z" fill="#E75300"/>
<path d="M67.9464 148.104C67.9464 148.104 76.7327 181.522 80.9843 213.795C80.9843 213.795 72.0201 179.412 67.9464 148.104Z" fill="white"/>
<path d="M82.6967 213.627C63.6927 207.831 53.7197 175.619 53.7197 175.619L60.2781 177.216L63.1448 177.912L64.3255 177.645L70.2895 176.294C77.4403 189.233 82.6967 213.627 82.6967 213.627Z" fill="#006CE7"/>
<path d="M80.1332 211.605C79.931 211.304 67.3075 192.579 60.2861 177.218L63.1529 177.914L64.3336 177.647C67.2003 183.206 76.0938 200.718 80.1332 211.605Z" fill="white"/>
<path d="M70.2976 176.294C70.2976 176.294 57.1222 188.101 52.1367 211.836C52.0701 212.153 51.9124 212.445 51.6829 212.674C51.4534 212.903 51.162 213.061 50.8444 213.128C50.5268 213.194 50.1967 213.167 49.8944 213.048C49.5922 212.93 49.3309 212.727 49.1425 212.462C47.4827 210.119 45.4853 205.657 44.9576 197.455C44.0155 182.764 49.5408 174.541 52.7755 173.195C52.7755 173.195 54.5566 174.459 58.0724 175.419C59.0979 175.697 60.138 175.918 61.1878 176.082C64.2034 176.536 67.2642 176.607 70.2976 176.294Z" fill="#006CE7"/>
<path d="M61.1878 176.082C57.9127 180.621 50.9439 191.631 49.9451 204.396C49.9451 204.396 47.7678 188.966 58.0724 175.419C59.0979 175.697 60.138 175.918 61.1878 176.082Z" fill="white"/>
<path d="M109.391 184.555C100.85 210.392 84.2978 213.922 84.2978 213.922L81.3037 213.388C88.784 200.89 92.6252 183.706 92.6252 183.706L99.3636 184.049L102.123 184.191L109.391 184.555Z" fill="#E75300"/>
<path d="M102.127 184.187C97.9666 202.218 84.5203 212.157 84.3019 212.319C93.6018 202.603 97.8918 189.526 99.3676 184.047L102.127 184.187Z" fill="white"/>
<path d="M109.179 219.154C109.179 219.154 107.363 199.72 92.6252 183.706C92.6252 183.706 96.7536 182.594 102.992 182.782C104.074 182.814 105.216 182.887 106.417 183.01C109.01 183.277 111.577 183.76 114.09 184.454C114.09 184.454 119.963 204.845 109.179 219.154Z" fill="#E75300"/>
<path d="M110.78 208.371C109.935 197.47 105.012 186.771 102.993 182.778C104.074 182.81 105.216 182.883 106.417 183.006C112.64 195.535 110.78 208.371 110.78 208.371Z" fill="white"/>
<path d="M101.027 211.472C101.027 211.472 100.304 223.46 96.5655 234.062C95.8353 236.176 94.9479 238.231 93.911 240.212C92.9777 242.012 91.8379 243.698 90.5146 245.234H74.7453C70.3663 240.273 67.7684 232.267 66.2542 225.296C65.2623 220.74 64.5867 216.121 64.2325 211.472H101.027Z" fill="#E75300"/>
<path d="M96.5655 234.062C95.8353 236.176 94.9479 238.231 93.911 240.212C92.512 237.212 89.059 233.46 80.6082 232.194C73.7001 231.161 69.0421 228.642 66.2542 225.296C65.2623 220.74 64.5867 216.121 64.2325 211.472H72.8692C73.6536 215.491 76.1969 222.435 84.4495 224.411C92.0187 226.224 95.3303 230.195 96.5655 234.062Z" fill="white"/>
<path d="M86.0669 214.252C80.584 214.078 78.8898 218.649 88.7961 221.58C98.7025 224.512 94.0526 214.504 86.0669 214.252Z" fill="white"/>
<path d="M134.183 207.881L130.342 222.741L136.205 223.954L141.461 209.296L134.183 207.881Z" fill="white"/>
<path d="M136.205 224.56C136.164 224.56 136.122 224.556 136.082 224.548L130.219 223.335C130.138 223.319 130.062 223.286 129.994 223.239C129.927 223.192 129.87 223.132 129.826 223.062C129.783 222.992 129.754 222.914 129.741 222.833C129.729 222.752 129.733 222.669 129.754 222.589L133.595 207.73C133.634 207.58 133.728 207.451 133.859 207.369C133.99 207.287 134.147 207.257 134.299 207.287L141.577 208.702C141.664 208.719 141.746 208.754 141.817 208.805C141.889 208.857 141.949 208.924 141.992 209.001C142.036 209.078 142.062 209.163 142.068 209.251C142.075 209.339 142.063 209.428 142.032 209.511L136.775 224.168C136.731 224.284 136.653 224.383 136.551 224.453C136.45 224.524 136.329 224.561 136.205 224.56ZM131.088 222.276L135.811 223.252L140.651 209.755L134.626 208.585L131.088 222.276Z" fill="#2D3748"/>
<path d="M106.395 242.57V245.234H139.326C139.326 245.234 139.434 243.843 139.529 241.504C139.731 236.903 139.969 229.172 139.359 220.618L128.846 218.934C128.846 218.934 119.823 228.323 111.795 235.629C110.962 236.387 110.083 237.125 109.167 237.827C107.4 239.171 106.395 240.837 106.395 242.57Z" fill="#006CE7"/>
<path d="M121.952 235.942C121.833 235.942 121.717 235.907 121.618 235.842C121.518 235.776 121.441 235.683 121.394 235.573C121.348 235.464 121.334 235.343 121.356 235.226C121.377 235.109 121.433 235.001 121.515 234.915C128.549 227.623 131.693 221.611 131.723 221.552C131.758 221.479 131.807 221.414 131.868 221.36C131.929 221.306 132 221.265 132.077 221.24C132.154 221.214 132.235 221.204 132.316 221.21C132.397 221.216 132.476 221.239 132.548 221.276C132.62 221.313 132.683 221.364 132.735 221.427C132.787 221.489 132.826 221.561 132.85 221.638C132.873 221.716 132.881 221.798 132.873 221.878C132.864 221.959 132.84 222.037 132.8 222.108C132.671 222.359 129.543 228.337 122.387 235.756C122.33 235.815 122.263 235.862 122.188 235.894C122.114 235.926 122.033 235.942 121.952 235.942Z" fill="#2D3748"/>
<path d="M134.119 236.288C135.733 236.288 137.042 234.831 137.042 233.033C137.042 231.236 135.733 229.778 134.119 229.778C132.504 229.778 131.195 231.236 131.195 233.033C131.195 234.831 132.504 236.288 134.119 236.288Z" fill="white"/>
<path d="M134.119 236.895C132.172 236.895 130.589 235.162 130.589 233.033C130.589 230.904 132.172 229.172 134.119 229.172C136.066 229.172 137.649 230.904 137.649 233.033C137.649 235.162 136.066 236.895 134.119 236.895ZM134.119 230.383C132.841 230.383 131.802 231.572 131.802 233.031C131.802 234.491 132.841 235.68 134.119 235.68C135.396 235.68 136.435 234.491 136.435 233.031C136.435 231.572 135.396 230.385 134.119 230.385V230.383Z" fill="#2D3748"/>
<path d="M106.395 242.57V245.234H139.326C139.326 245.234 139.434 243.843 139.529 241.504H122.142C122.142 241.504 121.03 233.759 111.797 235.627C110.964 236.385 110.085 237.123 109.169 237.825C107.4 239.171 106.395 240.837 106.395 242.57Z" fill="white"/>
<path d="M139.326 245.841H106.395C106.234 245.841 106.08 245.777 105.966 245.663C105.852 245.549 105.789 245.395 105.789 245.234V242.57C105.789 240.675 106.86 238.819 108.807 237.344C109.674 236.686 110.548 235.959 111.401 235.18C111.482 235.107 111.581 235.057 111.688 235.035C114.878 234.388 117.506 234.774 119.498 236.177C121.618 237.673 122.393 239.895 122.645 240.898H139.541C139.623 240.898 139.704 240.914 139.779 240.946C139.854 240.978 139.923 241.025 139.979 241.084C140.036 241.144 140.08 241.214 140.109 241.29C140.138 241.367 140.151 241.449 140.147 241.53C140.046 243.853 139.945 245.267 139.945 245.281C139.933 245.435 139.863 245.58 139.747 245.684C139.632 245.788 139.482 245.844 139.326 245.841ZM106.996 244.628H138.766C138.801 244.108 138.853 243.245 138.906 242.111H122.154C122.007 242.112 121.865 242.06 121.753 241.965C121.642 241.869 121.569 241.736 121.548 241.591C121.548 241.565 121.109 238.793 118.782 237.16C117.108 235.985 114.856 235.659 112.086 236.191C111.247 236.949 110.388 237.661 109.535 238.31C107.897 239.551 106.996 241.065 106.996 242.57V244.628Z" fill="#2D3748"/>
<path d="M225.564 134.023C225.564 134.023 222.598 152.218 221.925 154.508C221.252 156.799 214.243 160.709 209.255 160.978C204.268 161.247 163.027 160.978 163.027 160.978L145.1 212.598L129.331 209.094C129.331 209.094 138.154 169.985 142.406 152.879C143.513 148.431 144.31 145.463 144.561 145.073C144.856 144.614 148.364 143.658 153.495 142.445C169.393 138.735 200.899 132.803 200.899 132.803C200.899 132.803 206.02 122.964 215.456 122.964C224.891 122.964 226.642 127.553 225.564 134.023Z" fill="#006CE7"/>
<path d="M149.736 152.07C147.203 153.455 144.445 153.688 142.406 152.879C143.513 148.431 144.31 145.463 144.561 145.073C144.856 144.614 148.364 143.658 153.495 142.445C153.657 142.645 153.802 142.859 153.925 143.086C155.48 145.932 153.604 149.943 149.736 152.07Z" fill="white"/>
<path d="M214.78 147.331C214.742 147.331 214.703 147.326 214.665 147.317C212.995 146.927 211.835 146.062 211.194 144.746C209.69 141.62 211.8 137.095 211.897 136.903C211.955 136.782 212.058 136.689 212.185 136.644C212.311 136.599 212.45 136.606 212.572 136.664C212.693 136.722 212.786 136.825 212.831 136.951C212.876 137.078 212.869 137.217 212.811 137.338C212.791 137.381 210.81 141.622 212.106 144.309C212.607 145.348 213.521 146.011 214.896 146.331C215.02 146.356 215.13 146.426 215.205 146.529C215.28 146.631 215.313 146.758 215.298 146.884C215.284 147.01 215.223 147.126 215.127 147.209C215.031 147.292 214.907 147.335 214.78 147.331Z" fill="#2D3748"/>
<path d="M141.057 205.825C140.978 205.825 140.9 205.807 140.829 205.771C140.758 205.735 140.697 205.684 140.65 205.62C140.603 205.556 140.572 205.482 140.558 205.404C140.545 205.326 140.55 205.246 140.574 205.17L156.208 154.359C156.238 154.262 156.296 154.176 156.375 154.112C156.455 154.049 156.551 154.011 156.653 154.003L213.808 149.719L216.032 136.228C216.04 136.161 216.062 136.095 216.096 136.037C216.13 135.978 216.176 135.926 216.231 135.886C216.285 135.845 216.347 135.816 216.413 135.799C216.48 135.783 216.548 135.781 216.615 135.792C216.683 135.803 216.747 135.827 216.804 135.864C216.862 135.9 216.911 135.948 216.95 136.004C216.988 136.06 217.015 136.123 217.029 136.19C217.042 136.257 217.042 136.325 217.029 136.392L214.736 150.277C214.718 150.389 214.662 150.491 214.579 150.568C214.495 150.645 214.388 150.691 214.275 150.7L157.061 154.988L141.528 205.469C141.497 205.571 141.435 205.659 141.35 205.723C141.265 205.787 141.163 205.823 141.057 205.825Z" fill="#2D3748"/>
<path d="M144.393 208.488C144.356 208.488 144.32 208.484 144.284 208.476L132.457 205.847C132.329 205.815 132.219 205.735 132.15 205.623C132.081 205.511 132.058 205.376 132.086 205.248C132.115 205.119 132.192 205.007 132.302 204.935C132.412 204.863 132.546 204.836 132.675 204.861L144.502 207.489C144.623 207.516 144.731 207.587 144.803 207.688C144.875 207.789 144.908 207.914 144.894 208.037C144.881 208.161 144.822 208.275 144.73 208.358C144.637 208.441 144.517 208.488 144.393 208.488Z" fill="#2D3748"/>
<path d="M164.917 169.952L169.889 184.472L175.45 182.258L171.773 167.128L164.917 169.952Z" fill="white"/>
<path d="M169.889 185.079C169.763 185.079 169.64 185.04 169.537 184.968C169.434 184.895 169.356 184.793 169.314 184.674L164.343 170.154C164.293 170.008 164.3 169.848 164.364 169.707C164.428 169.566 164.544 169.455 164.687 169.396L171.542 166.566C171.623 166.532 171.71 166.517 171.798 166.52C171.885 166.524 171.97 166.546 172.048 166.585C172.126 166.625 172.195 166.681 172.249 166.749C172.303 166.818 172.342 166.897 172.363 166.982L176.041 182.113C176.075 182.255 176.057 182.405 175.99 182.535C175.923 182.665 175.811 182.766 175.675 182.82L170.113 185.044C170.041 185.07 169.965 185.081 169.889 185.079ZM165.677 170.296L170.259 183.673L174.737 181.886L171.35 167.959L165.677 170.296Z" fill="#2D3748"/>
<path d="M160.807 214.207L162.273 216.431L189.768 198.304C189.768 198.304 189.091 197.091 187.89 195.07C185.528 191.115 181.469 184.527 176.253 177.724L166.549 182.103C166.549 182.103 164.183 194.906 161.494 205.425C161.215 206.517 160.888 207.616 160.504 208.71C159.776 210.817 159.853 212.762 160.807 214.207Z" fill="#006CE7"/>
<path d="M169.816 200.215C169.779 200.215 169.741 200.212 169.705 200.205C169.626 200.19 169.552 200.16 169.485 200.117C169.418 200.074 169.36 200.017 169.315 199.952C169.27 199.886 169.239 199.812 169.222 199.734C169.206 199.656 169.205 199.576 169.219 199.497C171.079 189.536 170.396 182.788 170.388 182.717C170.371 182.556 170.419 182.395 170.521 182.27C170.622 182.144 170.77 182.064 170.931 182.047C171.092 182.03 171.253 182.078 171.378 182.18C171.504 182.281 171.584 182.429 171.601 182.59C171.631 182.871 172.311 189.583 170.418 199.718C170.393 199.858 170.318 199.985 170.208 200.076C170.098 200.167 169.959 200.216 169.816 200.215Z" fill="#2D3748"/>
<path d="M179.441 192.745C180.781 191.857 181.066 189.927 180.077 188.435C179.088 186.943 177.2 186.453 175.86 187.341C174.52 188.229 174.236 190.159 175.224 191.651C176.213 193.143 178.101 193.633 179.441 192.745Z" fill="white"/>
<path d="M179.01 194.756C178.701 194.756 178.392 194.716 178.093 194.637C177.131 194.376 176.299 193.769 175.758 192.933C175.202 192.105 174.972 191.102 175.111 190.115C175.172 189.64 175.335 189.185 175.589 188.779C175.843 188.374 176.181 188.028 176.58 187.765C176.98 187.502 177.432 187.329 177.904 187.256C178.377 187.183 178.86 187.214 179.32 187.345C180.278 187.613 181.107 188.218 181.654 189.048C182.202 189.879 182.431 190.879 182.3 191.865C182.236 192.339 182.073 192.794 181.82 193.2C181.567 193.606 181.23 193.953 180.832 194.219C180.291 194.573 179.657 194.76 179.01 194.756ZM178.404 188.437C177.993 188.434 177.591 188.553 177.248 188.778C176.993 188.95 176.777 189.175 176.616 189.437C176.455 189.698 176.351 189.991 176.312 190.297C176.217 190.987 176.38 191.688 176.77 192.266C177.148 192.852 177.728 193.278 178.4 193.463C178.695 193.55 179.006 193.572 179.311 193.527C179.615 193.482 179.906 193.37 180.163 193.201C180.42 193.031 180.637 192.808 180.799 192.546C180.961 192.284 181.063 191.989 181.099 191.683C181.186 190.993 181.024 190.294 180.641 189.713C180.258 189.132 179.679 188.707 179.01 188.515C178.813 188.463 178.609 188.437 178.404 188.437Z" fill="#2D3748"/>
<path d="M160.807 214.207L162.273 216.431L189.768 198.304C189.768 198.304 189.091 197.091 187.89 195.07L173.372 204.638C173.372 204.638 168.18 198.776 161.501 205.425C161.222 206.517 160.894 207.616 160.51 208.71C159.776 210.817 159.853 212.762 160.807 214.207Z" fill="white"/>
<path d="M162.273 217.04C162.173 217.039 162.074 217.014 161.986 216.967C161.898 216.919 161.823 216.85 161.767 216.767L160.302 214.543C159.258 212.962 159.133 210.821 159.946 208.518C160.308 207.493 160.635 206.405 160.92 205.283C160.947 205.177 161.002 205.08 161.08 205.002C163.385 202.71 165.797 201.58 168.237 201.658C170.831 201.739 172.701 203.169 173.463 203.868L187.57 194.568C187.639 194.523 187.716 194.493 187.797 194.479C187.878 194.465 187.961 194.467 188.041 194.486C188.121 194.505 188.197 194.54 188.263 194.589C188.329 194.638 188.384 194.7 188.426 194.771C189.618 196.766 190.306 198.005 190.314 198.017C190.39 198.152 190.411 198.312 190.374 198.462C190.336 198.612 190.242 198.743 190.112 198.826L162.616 216.953C162.513 217.015 162.393 217.045 162.273 217.04ZM162.052 205.742C161.767 206.84 161.446 207.906 161.088 208.914C160.405 210.851 160.482 212.612 161.312 213.867L162.445 215.586L188.967 198.104C188.711 197.651 188.278 196.901 187.7 195.927L173.712 205.148C173.59 205.229 173.443 205.263 173.298 205.244C173.153 205.225 173.02 205.154 172.923 205.045C172.905 205.025 171.017 202.95 168.174 202.867C166.14 202.815 164.072 203.779 162.052 205.742Z" fill="#2D3748"/>
<path d="M170.295 138.86L175.931 168.005L162.056 172.724C162.056 172.724 148.792 148.698 145.252 137.797C144.674 136.024 144.354 134.597 144.393 133.679C144.662 127.116 151.131 121.371 155.039 121.506C155.505 121.543 155.967 121.616 156.422 121.722C164.246 123.356 195.789 133.772 195.789 133.772L170.295 138.86Z" fill="#006CE7"/>
<path d="M162.056 173.229C161.966 173.229 161.877 173.205 161.799 173.159C161.722 173.114 161.657 173.048 161.614 172.969C161.535 172.827 153.753 158.709 148.572 147.323C148.542 147.263 148.526 147.197 148.522 147.13C148.519 147.062 148.529 146.995 148.552 146.932C148.575 146.868 148.61 146.81 148.656 146.761C148.701 146.711 148.756 146.672 148.818 146.644C148.879 146.616 148.945 146.6 149.012 146.598C149.08 146.597 149.147 146.608 149.21 146.632C149.272 146.657 149.33 146.693 149.378 146.74C149.427 146.787 149.465 146.843 149.492 146.905C154.188 157.215 161.031 169.805 162.295 172.109L175.351 167.662L169.798 138.953C169.785 138.888 169.785 138.821 169.799 138.755C169.813 138.69 169.839 138.628 169.876 138.573C169.914 138.518 169.962 138.471 170.018 138.435C170.074 138.398 170.136 138.373 170.202 138.361L195.174 133.378C195.239 133.364 195.306 133.364 195.371 133.377C195.436 133.389 195.498 133.415 195.554 133.451C195.609 133.488 195.657 133.535 195.694 133.59C195.731 133.645 195.757 133.707 195.77 133.772C195.784 133.837 195.784 133.904 195.771 133.969C195.759 134.034 195.733 134.096 195.697 134.152C195.66 134.207 195.613 134.255 195.558 134.292C195.503 134.329 195.441 134.355 195.376 134.368L170.885 139.257L176.427 167.908C176.45 168.028 176.429 168.152 176.367 168.258C176.306 168.363 176.209 168.443 176.093 168.482L162.218 173.193C162.167 173.214 162.112 173.226 162.056 173.229Z" fill="#2D3748"/>
<path d="M152.951 135.272C149.672 138.12 146.595 137.389 144.864 136.556C144.528 135.355 144.355 134.372 144.383 133.679C144.652 127.116 151.121 121.371 155.029 121.506C155.495 121.543 155.957 121.616 156.412 121.722C156.412 121.722 156.412 121.743 156.422 121.783C156.551 122.584 157.702 131.142 152.951 135.272Z" fill="white"/>
<path d="M162.115 169.117C161.995 169.117 161.879 169.074 161.788 168.996C161.697 168.919 161.637 168.811 161.617 168.693C161.598 168.574 161.622 168.453 161.684 168.351C161.745 168.248 161.842 168.171 161.955 168.133L173.21 164.358C173.337 164.318 173.474 164.328 173.593 164.388C173.711 164.448 173.802 164.553 173.844 164.679C173.886 164.805 173.877 164.942 173.819 165.062C173.76 165.181 173.657 165.272 173.532 165.316L162.277 169.091C162.225 169.108 162.17 169.117 162.115 169.117Z" fill="#2D3748"/>
<path d="M169.191 164.872C169.071 164.872 168.954 164.829 168.863 164.75C168.771 164.672 168.71 164.564 168.692 164.445L163.706 133.042C163.692 132.956 163.701 132.868 163.732 132.786C163.762 132.704 163.813 132.632 163.88 132.575C163.947 132.519 164.027 132.481 164.113 132.465C164.198 132.449 164.287 132.456 164.369 132.484L177.448 136.988C177.574 137.032 177.679 137.124 177.738 137.245C177.796 137.365 177.805 137.504 177.761 137.631C177.717 137.758 177.625 137.862 177.504 137.921C177.384 137.98 177.245 137.988 177.118 137.945L164.836 133.715L169.688 164.287C169.699 164.353 169.696 164.42 169.681 164.484C169.665 164.549 169.637 164.61 169.598 164.664C169.559 164.717 169.51 164.763 169.453 164.797C169.396 164.832 169.333 164.855 169.268 164.866C169.242 164.87 169.217 164.872 169.191 164.872Z" fill="#2D3748"/>
<path d="M170.295 139.366C170.164 139.366 170.037 139.316 169.943 139.224L161.984 131.516C161.935 131.47 161.897 131.414 161.87 131.353C161.843 131.292 161.829 131.226 161.827 131.16C161.826 131.093 161.838 131.027 161.862 130.965C161.887 130.903 161.923 130.846 161.97 130.798C162.016 130.75 162.072 130.712 162.133 130.686C162.194 130.659 162.26 130.645 162.327 130.645C162.393 130.644 162.46 130.656 162.522 130.681C162.583 130.706 162.64 130.743 162.687 130.79L170.647 138.499C170.719 138.569 170.768 138.659 170.789 138.757C170.809 138.855 170.8 138.957 170.762 139.05C170.725 139.143 170.66 139.223 170.577 139.279C170.493 139.336 170.395 139.366 170.295 139.366Z" fill="#2D3748"/>
<path d="M130.896 45.8016C130.797 46.0177 130.776 46.2614 130.837 46.4912C130.898 46.7209 131.037 46.9224 131.23 47.0611L140.155 53.4618C140.328 53.5855 140.449 53.7696 140.493 53.9778C140.536 54.1859 140.501 54.403 140.392 54.5859C140.332 54.6887 140.25 54.7777 140.153 54.847C140.056 54.9162 139.945 54.9643 139.828 54.9879C139.711 55.0116 139.591 55.0103 139.474 54.9842C139.358 54.9582 139.248 54.9078 139.153 54.8366L136.294 52.6996C136.056 52.5231 135.767 52.4304 135.471 52.4358C135.175 52.4413 134.889 52.5448 134.658 52.73C134.412 52.9268 134.243 53.2042 134.181 53.5135C134.12 53.8227 134.169 54.1438 134.321 54.4201L136.771 58.8881C137.535 60.2804 138.784 61.3433 140.281 61.8741L142.137 62.5332L144.223 65.6385L150.557 64.29L148.333 59.7069L146.768 52.1518C146.65 51.5783 146.385 51.0453 145.999 50.6043C145.614 50.1633 145.121 49.8294 144.569 49.6347L132.166 45.2598C131.925 45.1758 131.661 45.1847 131.426 45.2849C131.191 45.3851 131.002 45.5694 130.896 45.8016Z" fill="white"/>
<path d="M144.223 66.245C144.124 66.2452 144.026 66.2209 143.938 66.1744C143.85 66.1279 143.775 66.0605 143.72 65.9782L141.753 63.0447L140.087 62.4523C138.449 61.8725 137.082 60.7103 136.245 59.1873L133.787 54.7213C133.573 54.3323 133.498 53.8816 133.575 53.4441C133.652 53.0067 133.877 52.6088 134.212 52.3168C134.547 52.0248 134.971 51.8562 135.415 51.8391C135.859 51.8219 136.295 51.9572 136.652 52.2225L139.512 54.3473C139.541 54.3688 139.574 54.3838 139.609 54.3912C139.644 54.3985 139.68 54.398 139.715 54.3898C139.761 54.3807 139.804 54.358 139.838 54.3247C139.872 54.2913 139.896 54.2487 139.906 54.2022C139.915 54.1556 139.911 54.1072 139.894 54.0629C139.877 54.0186 139.847 53.9804 139.808 53.9531L130.876 47.5524C130.569 47.3314 130.348 47.0107 130.251 46.6449C130.154 46.2791 130.187 45.891 130.344 45.5469C130.511 45.1754 130.812 44.8807 131.187 44.7214C131.561 44.5621 131.982 44.5501 132.366 44.6876L144.773 49.0606C145.423 49.2916 146.002 49.6857 146.456 50.205C146.91 50.7243 147.223 51.3515 147.365 52.0264L148.915 59.5067L151.103 64.0212C151.143 64.104 151.164 64.1948 151.163 64.2868C151.163 64.3788 151.142 64.4695 151.101 64.5521C151.061 64.6347 151.002 64.707 150.929 64.7635C150.857 64.82 150.772 64.8593 150.682 64.8784L144.348 66.2268C144.307 66.2373 144.265 66.2434 144.223 66.245ZM135.485 53.0514C135.358 53.051 135.232 53.0839 135.122 53.1469C135.011 53.2099 134.918 53.3007 134.853 53.4104C134.788 53.52 134.753 53.6448 134.751 53.7723C134.749 53.8997 134.781 54.0255 134.842 54.1371L137.305 58.605C137.997 59.8664 139.129 60.8291 140.485 61.3101L142.341 61.9691C142.464 62.0123 142.569 62.0938 142.642 62.2016L144.502 64.9613L149.678 63.8594L147.789 59.9778C147.767 59.9328 147.751 59.8852 147.741 59.8362L146.176 52.2812C146.077 51.8105 145.859 51.3731 145.542 51.011C145.226 50.6489 144.822 50.3741 144.369 50.213L131.965 45.8259C131.867 45.7908 131.759 45.794 131.664 45.8348C131.568 45.8756 131.491 45.9511 131.448 46.0462C131.408 46.1343 131.399 46.2336 131.424 46.3272C131.448 46.4209 131.505 46.503 131.583 46.5597L140.509 52.9604C140.823 53.1883 141.034 53.5316 141.095 53.9147C141.155 54.2978 141.062 54.6894 140.834 55.0034C140.606 55.3173 140.263 55.5279 139.879 55.5887C139.496 55.6496 139.105 55.5557 138.791 55.3279L135.93 53.197C135.802 53.1011 135.645 53.05 135.485 53.0514Z" fill="#2D3748"/>
<path d="M184.625 64.0899L183.715 87.946C183.715 87.946 168.73 92.1915 157.971 94.5994C157.494 94.7072 157.026 94.8103 156.568 94.9087C154.091 95.4531 151.501 95.057 149.301 93.7973C147.101 92.5376 145.448 90.5045 144.664 88.0935C141.413 78.0922 139.789 65.1513 139.789 65.1513C139.789 65.1513 144.797 61.6639 151.166 62.6747L157.837 75.1082L184.625 64.0899Z" fill="#E75300"/>
<path d="M157.971 94.5994C157.494 94.7072 157.026 94.8103 156.568 94.9087C154.417 95.3765 152.174 95.1393 150.169 94.2322C148.164 93.3252 146.504 91.7965 145.436 89.8726C146.473 88.9743 147.734 88.3728 149.085 88.1318C150.436 87.8908 151.827 88.0191 153.111 88.5033C154.395 88.9875 155.524 89.8096 156.38 90.8826C157.235 91.9556 157.785 93.2398 157.971 94.5994Z" fill="white"/>
<path d="M155.512 85.7221C155.436 85.7222 155.361 85.7051 155.293 85.6722C155.224 85.6392 155.164 85.5912 155.116 85.5318C155.069 85.4723 155.036 85.4029 155.019 85.3287C155.002 85.2546 155.002 85.1776 155.019 85.1034L157.041 76.3091C157.054 76.2425 157.08 76.1792 157.118 76.123C157.156 76.0668 157.204 76.0187 157.261 75.9818C157.318 75.9448 157.382 75.9197 157.449 75.9079C157.515 75.8961 157.584 75.8978 157.65 75.913C157.716 75.9282 157.778 75.9566 157.833 75.9964C157.888 76.0362 157.935 76.0866 157.97 76.1447C158.005 76.2028 158.028 76.2673 158.037 76.3344C158.047 76.4016 158.043 76.4699 158.025 76.5355L156.004 85.3299C155.978 85.4411 155.915 85.5404 155.826 85.6117C155.737 85.6829 155.626 85.7218 155.512 85.7221Z" fill="#2D3748"/>
<path d="M142.337 70.525C142.223 70.525 142.112 70.4864 142.023 70.4156C141.933 70.3447 141.871 70.2458 141.845 70.1348C141.819 70.0238 141.831 69.9073 141.88 69.8041C141.928 69.701 142.01 69.6173 142.112 69.5667C142.288 69.4798 146.493 67.4358 152.354 67.2195C152.488 67.2147 152.619 67.2633 152.717 67.3547C152.815 67.446 152.873 67.5727 152.878 67.7067C152.883 67.8408 152.834 67.9712 152.743 68.0694C152.651 68.1676 152.525 68.2255 152.391 68.2303C149.002 68.3498 145.666 69.1113 142.561 70.4744C142.491 70.5084 142.415 70.5257 142.337 70.525Z" fill="#2D3748"/>
<path d="M143.077 67.7249C143.803 67.7249 144.391 67.1366 144.391 66.4108C144.391 65.6851 143.803 65.0967 143.077 65.0967C142.351 65.0967 141.763 65.6851 141.763 66.4108C141.763 67.1366 142.351 67.7249 143.077 67.7249Z" fill="white"/>
<path d="M143.077 68.3314C142.697 68.3314 142.326 68.2188 142.01 68.0077C141.694 67.7967 141.448 67.4967 141.302 67.1458C141.157 66.7949 141.119 66.4087 141.193 66.0361C141.267 65.6636 141.45 65.3213 141.719 65.0527C141.987 64.7841 142.329 64.6012 142.702 64.5271C143.075 64.453 143.461 64.491 143.812 64.6364C144.163 64.7818 144.463 65.0279 144.674 65.3438C144.885 65.6596 144.997 66.031 144.997 66.4108C144.997 66.92 144.794 67.4082 144.434 67.7683C144.074 68.1284 143.586 68.3309 143.077 68.3314ZM143.077 65.7032C142.937 65.7032 142.8 65.7447 142.684 65.8225C142.567 65.9002 142.477 66.0107 142.423 66.14C142.369 66.2693 142.355 66.4116 142.383 66.5489C142.41 66.6861 142.477 66.8122 142.576 66.9112C142.675 67.0101 142.801 67.0775 142.939 67.1048C143.076 67.1321 143.218 67.1181 143.348 67.0645C143.477 67.011 143.587 66.9203 143.665 66.8039C143.743 66.6876 143.784 66.5508 143.784 66.4108C143.784 66.2231 143.71 66.0432 143.577 65.9105C143.444 65.7778 143.264 65.7032 143.077 65.7032Z" fill="#2D3748"/>
<path d="M233.651 68.8409C233.651 68.8409 218.286 58.6313 206.965 58.8335C195.643 59.0357 184.625 64.0899 184.625 64.0899C175.426 83.2961 172.573 126.275 172.573 126.275C172.573 126.275 177.628 128.016 191.941 132.51C199.828 135.632 208.053 137.819 216.448 139.026L217.886 130.466C217.939 130.15 218.112 129.867 218.37 129.675C218.627 129.484 218.948 129.399 219.267 129.439C219.429 129.46 219.586 129.512 219.729 129.594C219.871 129.675 219.996 129.784 220.096 129.914C220.196 130.043 220.27 130.192 220.312 130.35C220.355 130.509 220.366 130.674 220.344 130.836L219.214 139.374C224.319 139.924 227.194 139.72 227.194 139.72C233.867 116.066 233.651 68.8409 233.651 68.8409Z" fill="#E75300"/>
<path d="M177.587 88.3543C177.512 88.3547 177.438 88.3382 177.37 88.3062C177.302 88.2742 177.242 88.2275 177.194 88.1694C177.147 88.1113 177.113 88.0433 177.094 87.9704C177.076 87.8975 177.075 87.8214 177.09 87.7478C178.978 78.2196 181.16 70.618 183.575 65.1533C183.599 65.0881 183.635 65.0284 183.683 64.978C183.73 64.9275 183.788 64.8873 183.851 64.8599C183.915 64.8325 183.983 64.8185 184.053 64.8187C184.122 64.8188 184.19 64.8333 184.254 64.861C184.317 64.8888 184.374 64.9293 184.421 64.9801C184.469 65.0308 184.505 65.0907 184.528 65.156C184.551 65.2214 184.56 65.2907 184.555 65.3598C184.55 65.4289 184.531 65.4962 184.499 65.5577C182.114 70.9536 179.955 78.4844 178.081 87.9399C178.059 88.0556 177.998 88.1603 177.908 88.2359C177.818 88.3116 177.705 88.3534 177.587 88.3543Z" fill="#2D3748"/>
<path d="M218.899 64.3082C216.713 68.9703 212.834 70.7595 210.422 71.4327C209.916 68.0423 208.362 63.7503 208.362 63.7503C206.398 66.2774 205.293 69.6678 204.997 71.2305C198.963 69.3605 198.459 63.4854 198.459 63.4854C199.391 57.6447 204.579 53.3911 208.903 53.6781C218.458 54.3008 218.899 64.3082 218.899 64.3082Z" fill="white"/>
<path d="M210.422 72.0392C210.275 72.0408 210.133 71.9893 210.021 71.8941C209.91 71.799 209.837 71.6667 209.815 71.5217C209.477 69.2614 208.653 66.5523 208.163 65.0664C206.949 66.9913 206.077 69.1116 205.586 71.3337C205.57 71.4177 205.536 71.4975 205.488 71.5678C205.439 71.6381 205.376 71.6972 205.302 71.7413C205.229 71.7854 205.147 71.8135 205.062 71.8237C204.977 71.834 204.891 71.8261 204.809 71.8007C198.459 69.8315 197.851 63.5905 197.847 63.5279C197.841 63.4789 197.841 63.4293 197.847 63.3803C198.876 56.9351 204.518 52.7704 208.93 53.0696C214.152 53.4153 216.752 56.464 218.013 58.9588C218.846 60.6231 219.348 62.4328 219.493 64.288C219.497 64.3862 219.478 64.4841 219.436 64.5731C218.59 66.3858 217.359 67.9919 215.828 69.2791C214.296 70.5663 212.502 71.5034 210.571 72.0251C210.522 72.036 210.472 72.0407 210.422 72.0392ZM208.361 63.1437C208.487 63.1441 208.609 63.1831 208.711 63.2555C208.813 63.3279 208.89 63.4301 208.932 63.5481C208.992 63.7139 210.316 67.3893 210.907 70.6564C212.51 70.1331 213.991 69.2899 215.259 68.1779C216.527 67.0659 217.556 65.7082 218.284 64.1869C218.189 62.9456 217.249 54.8265 208.861 54.2685C204.989 54.0117 200.004 57.8954 199.07 63.4874C199.145 64.1283 199.836 68.6124 204.555 70.4198C204.987 68.7034 206.051 65.7275 207.882 63.3702C207.939 63.2985 208.012 63.2408 208.095 63.2012C208.177 63.1616 208.268 63.1413 208.359 63.1417L208.361 63.1437Z" fill="#2D3748"/>
<path d="M241.253 94.751C241.222 103.03 240.978 113.658 239.281 120.752C238.206 125.24 236.552 128.317 234.001 128.485C231.896 128.625 229.688 128.182 227.485 127.355C218.021 123.793 206.956 112.259 205.853 109.968C204.488 107.152 206.661 99.9913 209.997 99.4555C213.333 98.9198 222.936 104.308 222.936 104.308C222.936 104.308 227.325 81.2905 228.35 76.5881C229.375 71.8856 233.651 68.8267 233.651 68.8267C239.696 71.5459 241.303 81.246 241.253 94.751Z" fill="#E75300"/>
<path d="M209.92 111.373C210.559 111.248 210.975 110.628 210.85 109.989C210.725 109.351 210.105 108.934 209.467 109.06C208.828 109.185 208.412 109.804 208.537 110.443C208.662 111.082 209.282 111.498 209.92 111.373Z" fill="white"/>
<path d="M209.694 112.002C209.235 112.003 208.793 111.828 208.46 111.512C208.126 111.197 207.927 110.765 207.904 110.307C207.88 109.848 208.034 109.398 208.333 109.05C208.632 108.702 209.054 108.482 209.511 108.437C209.968 108.391 210.424 108.523 210.787 108.805C211.149 109.087 211.389 109.497 211.456 109.951C211.524 110.405 211.414 110.868 211.15 111.243C210.886 111.619 210.488 111.878 210.038 111.968C209.924 111.99 209.809 112.002 209.694 112.002ZM209.694 109.643C209.609 109.643 209.525 109.661 209.449 109.698C209.372 109.734 209.305 109.786 209.251 109.851C209.197 109.917 209.158 109.993 209.137 110.075C209.116 110.157 209.114 110.243 209.13 110.326C209.144 110.4 209.173 110.47 209.215 110.533C209.256 110.596 209.31 110.649 209.372 110.691C209.435 110.733 209.505 110.763 209.579 110.777C209.652 110.792 209.728 110.793 209.802 110.778C209.876 110.764 209.946 110.735 210.009 110.693C210.071 110.651 210.125 110.598 210.167 110.535C210.209 110.473 210.238 110.403 210.253 110.329C210.268 110.256 210.268 110.18 210.254 110.106C210.229 109.976 210.159 109.859 210.058 109.775C209.956 109.69 209.828 109.644 209.696 109.643H209.694Z" fill="#2D3748"/>
<path d="M226.648 127.636C226.567 127.636 226.487 127.619 226.413 127.587C217.257 123.736 206.512 112.736 205.305 110.247C204.278 108.127 205.028 104.479 206.257 102.124C207.235 100.246 208.529 99.0916 209.896 98.8712C212.912 98.388 220.057 102.072 222.491 103.388C223.284 99.2371 226.846 80.6254 227.748 76.4728C228.397 73.4989 230.257 71.1638 231.702 69.7284C231.816 69.615 231.971 69.5516 232.132 69.5522C232.293 69.5528 232.447 69.6172 232.56 69.7315C232.674 69.8457 232.737 70.0002 232.736 70.1612C232.736 70.3221 232.671 70.4763 232.557 70.5897C231.227 71.9098 229.525 74.0468 228.932 76.7316C227.921 81.3815 223.567 104.204 223.522 104.429C223.504 104.523 223.464 104.612 223.405 104.688C223.345 104.764 223.269 104.825 223.182 104.865C223.094 104.906 222.999 104.925 222.903 104.921C222.806 104.917 222.712 104.891 222.629 104.843C220 103.374 212.65 99.6496 210.082 100.062C209.099 100.22 208.121 101.148 207.322 102.678C206.081 105.06 205.66 108.216 206.386 109.712C207.345 111.689 217.536 122.537 226.872 126.463C227.005 126.514 227.116 126.611 227.185 126.735C227.254 126.859 227.277 127.004 227.25 127.143C227.223 127.283 227.149 127.409 227.038 127.499C226.928 127.589 226.79 127.638 226.648 127.636Z" fill="#2D3748"/>
<path d="M212.354 114.026C212.235 114.026 212.119 113.991 212.019 113.925C211.92 113.859 211.842 113.765 211.796 113.655C211.75 113.546 211.737 113.425 211.759 113.307C211.781 113.19 211.837 113.082 211.92 112.997C216.713 108.076 213.911 100.642 213.883 100.567C213.825 100.417 213.828 100.25 213.893 100.103C213.958 99.9556 214.079 99.8402 214.229 99.782C214.38 99.7238 214.547 99.7277 214.694 99.7927C214.841 99.8577 214.957 99.9786 215.015 100.129C215.144 100.462 218.122 108.371 212.791 113.844C212.734 113.902 212.666 113.948 212.591 113.979C212.516 114.01 212.436 114.026 212.354 114.026Z" fill="#2D3748"/>
<path d="M232.26 111.436C232.16 111.436 232.063 111.411 231.975 111.365C231.887 111.318 231.812 111.25 231.757 111.167C229.966 108.825 227.494 107.095 224.681 106.214C224.543 106.17 224.425 106.079 224.349 105.956C224.272 105.833 224.242 105.687 224.264 105.544C224.286 105.401 224.359 105.27 224.468 105.176C224.578 105.082 224.718 105.03 224.863 105.029C225.065 105.029 229.69 105.05 233.556 106.835C233.628 106.868 233.693 106.916 233.747 106.974C233.801 107.033 233.843 107.101 233.871 107.176C233.898 107.251 233.911 107.33 233.908 107.41C233.904 107.49 233.886 107.568 233.852 107.64C233.819 107.713 233.771 107.778 233.713 107.832C233.654 107.886 233.585 107.928 233.511 107.955C233.436 107.983 233.356 107.995 233.277 107.992C233.197 107.989 233.119 107.97 233.046 107.937C231.578 107.29 230.032 106.838 228.447 106.59C231.277 108.302 232.693 110.379 232.776 110.496C232.836 110.588 232.871 110.695 232.875 110.805C232.88 110.915 232.854 111.025 232.801 111.121C232.748 111.218 232.669 111.298 232.574 111.354C232.479 111.409 232.37 111.438 232.26 111.436Z" fill="#2D3748"/>
<path d="M239.281 120.76C238.206 125.248 236.552 128.325 234.001 128.493C231.896 128.633 229.688 128.19 227.485 127.363C227.438 127.102 227.406 126.839 227.388 126.575C227.294 125.158 227.624 123.746 228.335 122.517C229.047 121.289 230.108 120.3 231.383 119.676C232.659 119.053 234.091 118.823 235.497 119.016C236.904 119.209 238.221 119.816 239.281 120.76Z" fill="white"/>
<path d="M203.048 82.461L190.02 85.017C189.381 85.1423 188.965 85.7618 189.09 86.4005L193.593 109.348C193.718 109.987 194.337 110.403 194.976 110.278L208.004 107.722C208.643 107.596 209.059 106.977 208.934 106.338L204.432 83.3907C204.306 82.7519 203.687 82.3357 203.048 82.461Z" fill="white"/>
<path d="M194.745 110.906C194.332 110.905 193.932 110.761 193.613 110.498C193.294 110.234 193.076 109.869 192.997 109.463L188.494 86.5166C188.449 86.286 188.45 86.0487 188.497 85.8184C188.543 85.5881 188.635 85.3693 188.766 85.1745C188.898 84.9797 189.067 84.8128 189.263 84.6833C189.459 84.5539 189.679 84.4644 189.909 84.4201L202.937 81.8647C203.168 81.8198 203.405 81.8207 203.635 81.8676C203.865 81.9144 204.084 82.0062 204.279 82.1376C204.474 82.269 204.641 82.4376 204.77 82.6336C204.9 82.8296 204.989 83.0492 205.034 83.2799L209.536 106.226C209.581 106.457 209.58 106.694 209.533 106.924C209.486 107.154 209.395 107.373 209.263 107.568C209.132 107.763 208.963 107.929 208.767 108.059C208.571 108.188 208.352 108.278 208.121 108.323L195.093 110.878C194.978 110.899 194.862 110.908 194.745 110.906ZM203.275 83.0454C203.238 83.0451 203.2 83.0485 203.164 83.0555L190.136 85.6109C190.062 85.6254 189.992 85.6543 189.929 85.696C189.866 85.7378 189.813 85.7914 189.771 85.854C189.729 85.9165 189.7 85.9867 189.685 86.0605C189.67 86.1343 189.67 86.2103 189.685 86.2841L194.187 109.23C194.217 109.379 194.305 109.51 194.431 109.595C194.557 109.679 194.712 109.71 194.861 109.681L207.888 107.126C208.037 107.096 208.168 107.008 208.253 106.882C208.337 106.756 208.368 106.602 208.339 106.453L203.837 83.5063C203.811 83.3764 203.741 83.2596 203.638 83.1756C203.536 83.0916 203.407 83.0456 203.275 83.0454Z" fill="#2D3748"/>
<path d="M193.09 89.1154C193.729 88.9901 194.145 88.3707 194.02 87.7319C193.895 87.0931 193.275 86.6769 192.636 86.8022C191.998 86.9276 191.581 87.547 191.707 88.1858C191.832 88.8245 192.452 89.2408 193.09 89.1154Z" fill="white"/>
<path d="M192.861 89.7473C192.523 89.7462 192.192 89.6493 191.907 89.4676C191.622 89.2859 191.394 89.027 191.251 88.7211C191.107 88.4151 191.053 88.0746 191.095 87.7392C191.138 87.4038 191.274 87.0873 191.489 86.8265C191.704 86.5657 191.989 86.3713 192.31 86.2659C192.631 86.1605 192.976 86.1485 193.304 86.2313C193.631 86.314 193.929 86.4881 194.162 86.7333C194.394 86.9785 194.552 87.2848 194.618 87.6164C194.708 88.0821 194.61 88.5645 194.344 88.9576C194.079 89.3507 193.668 89.6224 193.203 89.7129C193.09 89.7352 192.976 89.7467 192.861 89.7473ZM192.861 87.388C192.824 87.3877 192.787 87.3911 192.75 87.3981C192.606 87.4256 192.479 87.5071 192.394 87.626C192.308 87.7448 192.272 87.8918 192.292 88.0366C192.313 88.1814 192.388 88.3129 192.502 88.404C192.616 88.4951 192.761 88.5387 192.907 88.526C193.053 88.5132 193.188 88.445 193.284 88.3354C193.381 88.2258 193.432 88.0832 193.427 87.9371C193.421 87.791 193.36 87.6526 193.256 87.5504C193.151 87.4482 193.011 87.39 192.865 87.388H192.861Z" fill="#2D3748"/>
<path d="M198.764 93.3863C196.68 93.9929 196.894 97.177 199.472 97.177C202.05 97.177 209.682 96.7222 208.57 93.6391C207.458 90.556 202.903 92.1733 198.764 93.3863Z" fill="white"/>
<path d="M199.466 97.7835C197.816 97.7835 196.921 96.6959 196.767 95.6183C196.678 95.0084 196.813 94.3868 197.148 93.8692C197.482 93.3515 197.994 92.973 198.587 92.8041L199.48 92.5393C203.429 91.3646 207.907 90.0323 209.134 93.4328C209.262 93.7531 209.308 94.1004 209.268 94.443C209.227 94.7856 209.101 95.1126 208.901 95.3939C207.306 97.6683 200.762 97.7835 199.466 97.7835ZM198.928 93.9686C198.614 94.0538 198.343 94.2516 198.166 94.5242C197.989 94.7968 197.918 95.1251 197.968 95.4465C198.045 95.9903 198.479 96.5705 199.466 96.5705C202.331 96.5705 206.946 96.0712 207.911 94.6964C207.998 94.5743 208.052 94.4313 208.066 94.2819C208.081 94.1325 208.056 93.9819 207.994 93.8453C207.215 91.6881 204.12 92.4301 199.828 93.7038L198.928 93.9706V93.9686Z" fill="#2D3748"/>
<path d="M199.978 96.9749C197.972 97.7835 198.006 101.22 199.068 104.91C200.129 108.6 202.757 110.369 206.447 109.459C210.137 108.549 212.31 106.426 211.147 101.22C209.985 96.0146 208.412 93.5885 199.978 96.9749Z" fill="white"/>
<path d="M204.627 110.298C201.678 110.298 199.442 108.444 198.473 105.078C197.137 100.428 197.598 97.272 199.741 96.4128C204.005 94.7025 206.728 94.3729 208.57 95.3433C210.339 96.2754 211.091 98.2324 211.728 101.089C212.838 106.062 211.202 108.909 206.58 110.049C205.942 110.211 205.286 110.294 204.627 110.298ZM200.192 97.5389C198.762 98.1131 198.544 100.941 199.64 104.744C200.639 108.218 203 109.683 206.291 108.873C210.232 107.9 211.505 105.652 210.537 101.356C209.975 98.8368 209.354 97.1326 207.998 96.4189C206.518 95.6405 204.035 95.9964 200.186 97.5409L200.192 97.5389Z" fill="#2D3748"/>
<path d="M214.885 42.0251L214.534 47.9022L213.947 57.9561C210.486 60.2123 207.187 60.3558 204.09 57.8691L204.696 53.2192L205.63 46.1635L214.885 42.0251Z" fill="white"/>
<path d="M208.851 60.2972C207.053 60.2972 205.337 59.6442 203.712 58.3402C203.63 58.2751 203.567 58.19 203.528 58.0934C203.489 57.9967 203.476 57.8916 203.489 57.7883L205.038 46.0725C205.051 45.9697 205.091 45.872 205.153 45.7888C205.215 45.7057 205.297 45.6398 205.392 45.5974L214.639 41.4711C214.734 41.4285 214.839 41.4112 214.943 41.4208C215.046 41.4304 215.146 41.4666 215.232 41.526C215.318 41.5853 215.387 41.6658 215.432 41.7596C215.478 41.8534 215.498 41.9574 215.492 42.0615L214.556 57.9904C214.55 58.0853 214.523 58.1776 214.475 58.2597C214.427 58.3419 214.361 58.4117 214.281 58.4635C212.403 59.6866 210.589 60.2972 208.851 60.2972ZM204.739 57.6002C207.367 59.5734 210.197 59.5754 213.363 57.6002L214.222 42.9753L206.196 46.5577L204.739 57.6002Z" fill="#2D3748"/>
<path d="M211.691 43.4504C211.56 46.1069 211.511 55.1621 204.348 55.9101L205.638 46.1534L211.691 43.4504Z" fill="#2D3748"/>
<path d="M197.022 42.1706C197.509 47.0126 198.914 52.8027 204.722 51.9011C211.629 50.8296 216.092 45.9472 216.157 39.3766C216.222 32.8061 213.191 29.1003 205.323 29.8524C204.654 29.915 203.991 30.0333 203.342 30.2062C198.813 31.4192 196.537 35.1776 196.818 39.5808C196.868 40.3774 196.927 41.2588 197.022 42.1706Z" fill="white"/>
<path d="M203.566 52.6006C202.253 52.6317 200.971 52.2025 199.941 51.3876C197.046 49.0626 196.504 44.0973 196.211 39.6233C196.039 36.9263 196.759 34.5205 198.291 32.6666C199.909 30.7157 202.317 29.535 205.264 29.252C205.425 29.2367 205.585 29.2859 205.71 29.3889C205.835 29.4918 205.913 29.64 205.928 29.8009C205.944 29.9617 205.894 30.1221 205.791 30.2466C205.689 30.3712 205.54 30.4497 205.379 30.465C200.224 30.9583 197.091 34.5246 197.422 39.5505C197.624 42.5952 197.98 48.262 200.701 50.4455C201.736 51.2764 203.022 51.5594 204.629 51.3087C207.199 50.9044 209.417 49.9805 211.22 48.5471C211.346 48.4471 211.507 48.4012 211.667 48.4196C211.826 48.438 211.972 48.5191 212.072 48.6451C212.172 48.7711 212.218 48.9317 212.2 49.0915C212.181 49.2513 212.1 49.3973 211.974 49.4973C210.031 51.0419 207.557 52.083 204.815 52.5076C204.402 52.5706 203.984 52.6017 203.566 52.6006Z" fill="#2D3748"/>
<path d="M218.211 40.6139C217.546 41.5766 216.799 42.4797 215.977 43.3129L212.494 43.5292L211.752 41.0648C211.752 41.0648 209.542 40.9657 209.085 39.4757C209.074 39.4413 209.064 39.4062 209.057 39.3706C208.94 38.8813 208.487 36.7019 208.818 33.3176C208.818 33.3176 203.505 35.6628 200.614 35.9681C199.575 36.0793 198.36 35.679 197.23 35.1189C194.966 34.0009 192.984 30.3113 193.389 27.8186V27.7701C194.011 24.1148 195.916 26.648 195.916 26.648C195.916 26.648 196.462 23.7044 198.304 23.4942C200.145 23.2839 201.32 26.0011 201.32 26.0011C204.859 25.1765 208.521 25.0236 212.116 25.5502C219.242 26.6379 217.467 31.5466 217.467 31.5466C217.467 31.5466 222.707 33.2287 218.211 40.6139Z" fill="#2D3748"/>
<path d="M213.252 43.1532C212.953 40.4077 214.884 37.8583 217.627 37.543C218.208 37.4731 218.798 37.515 219.364 37.6663C222.764 38.5841 221.87 46.5011 213.551 45.8966L213.252 43.1532Z" fill="white"/>
<path d="M214.419 46.5375C214.123 46.5375 213.819 46.526 213.505 46.5031C213.344 46.4913 213.194 46.4161 213.089 46.294C212.983 46.172 212.931 46.013 212.943 45.8521C212.954 45.6913 213.03 45.5417 213.152 45.4363C213.274 45.3309 213.433 45.2783 213.594 45.2901C218.165 45.6237 220.203 43.2927 220.558 41.1962C220.801 39.7668 220.231 38.5275 219.204 38.2506C218.712 38.119 218.199 38.0827 217.694 38.1434C215.31 38.4184 213.586 40.6341 213.852 43.0865C213.861 43.1661 213.854 43.2467 213.831 43.3236C213.809 43.4004 213.771 43.4721 213.721 43.5346C213.671 43.597 213.609 43.6489 213.539 43.6874C213.468 43.7258 213.391 43.75 213.312 43.7587C213.232 43.7673 213.151 43.7602 213.075 43.7377C212.998 43.7151 212.926 43.6777 212.864 43.6275C212.801 43.5773 212.749 43.5152 212.711 43.445C212.672 43.3747 212.648 43.2975 212.639 43.2179C212.302 40.1065 214.503 37.2902 217.548 36.9405C218.206 36.8624 218.873 36.9105 219.513 37.082C221.157 37.5268 222.097 39.3423 221.737 41.4024C221.308 44.0306 218.874 46.5375 214.419 46.5375Z" fill="#2D3748"/>
<path d="M244.235 245.841H64.7076C64.5468 245.841 64.3925 245.777 64.2788 245.663C64.165 245.549 64.1011 245.395 64.1011 245.234C64.1011 245.073 64.165 244.919 64.2788 244.805C64.3925 244.692 64.5468 244.628 64.7076 244.628H244.235C244.395 244.628 244.55 244.692 244.663 244.805C244.777 244.919 244.841 245.073 244.841 245.234C244.841 245.395 244.777 245.549 244.663 245.663C244.55 245.777 244.395 245.841 244.235 245.841Z" fill="#2D3748"/>
<path d="M59.2672 245.841H49.7531C49.5923 245.841 49.438 245.777 49.3242 245.663C49.2105 245.549 49.1466 245.395 49.1466 245.234C49.1466 245.073 49.2105 244.919 49.3242 244.805C49.438 244.692 49.5923 244.628 49.7531 244.628H59.2672C59.4281 244.628 59.5824 244.692 59.6961 244.805C59.8098 244.919 59.8737 245.073 59.8737 245.234C59.8737 245.395 59.8098 245.549 59.6961 245.663C59.5824 245.777 59.4281 245.841 59.2672 245.841Z" fill="#2D3748"/>
<path d="M253.049 245.841H248.296C248.135 245.841 247.981 245.777 247.867 245.663C247.754 245.549 247.69 245.395 247.69 245.234C247.69 245.073 247.754 244.919 247.867 244.805C247.981 244.692 248.135 244.628 248.296 244.628H253.053C253.214 244.628 253.368 244.693 253.481 244.807C253.595 244.921 253.658 245.075 253.658 245.236C253.657 245.397 253.593 245.551 253.479 245.664C253.365 245.778 253.21 245.841 253.049 245.841Z" fill="#2D3748"/>
<path d="M194.836 253.59H114.106C113.945 253.59 113.791 253.526 113.677 253.412C113.563 253.298 113.499 253.144 113.499 252.983C113.499 252.823 113.563 252.668 113.677 252.555C113.791 252.441 113.945 252.377 114.106 252.377H194.836C194.997 252.377 195.151 252.441 195.265 252.555C195.379 252.668 195.443 252.823 195.443 252.983C195.443 253.144 195.379 253.298 195.265 253.412C195.151 253.526 194.997 253.59 194.836 253.59Z" fill="#2D3748"/>
<path d="M103.84 253.59H86.8574C86.6965 253.59 86.5422 253.526 86.4285 253.412C86.3148 253.298 86.2509 253.144 86.2509 252.983C86.2509 252.823 86.3148 252.668 86.4285 252.555C86.5422 252.441 86.6965 252.377 86.8574 252.377H103.84C104.001 252.377 104.155 252.441 104.269 252.555C104.382 252.668 104.446 252.823 104.446 252.983C104.446 253.144 104.382 253.298 104.269 253.412C104.155 253.526 104.001 253.59 103.84 253.59Z" fill="#2D3748"/>
<path d="M212.486 253.59H206.904C206.743 253.59 206.589 253.526 206.475 253.412C206.361 253.298 206.297 253.144 206.297 252.983C206.297 252.823 206.361 252.668 206.475 252.555C206.589 252.441 206.743 252.377 206.904 252.377H212.486C212.647 252.377 212.801 252.441 212.915 252.555C213.028 252.668 213.092 252.823 213.092 252.983C213.092 253.144 213.028 253.298 212.915 253.412C212.801 253.526 212.647 253.59 212.486 253.59Z" fill="#2D3748"/>
<path d="M134.375 133.135H64.0202C63.1838 133.114 62.3797 132.807 61.7419 132.266C61.1041 131.725 60.6709 130.981 60.5146 130.159L41.5106 11.182C41.2478 9.53838 42.392 8.20608 44.066 8.20608H114.421C115.258 8.22691 116.062 8.53358 116.699 9.07505C117.337 9.61651 117.77 10.3601 117.927 11.182L136.931 130.159C137.194 131.801 136.049 133.135 134.375 133.135Z" fill="white"/>
<path d="M134.375 133.741H64.0202C62.0632 133.741 60.2235 132.177 59.9162 130.254L40.9122 11.277C40.8251 10.8198 40.8421 10.3488 40.9619 9.89898C41.0817 9.44918 41.3012 9.0321 41.6041 8.67869C41.907 8.32527 42.2856 8.04458 42.7118 7.85742C43.138 7.67026 43.6009 7.58144 44.0661 7.59755H114.421C116.378 7.59755 118.218 9.16234 118.525 11.085L137.529 130.062C137.616 130.519 137.599 130.99 137.48 131.44C137.36 131.89 137.14 132.307 136.837 132.66C136.534 133.014 136.156 133.294 135.73 133.482C135.303 133.669 134.841 133.758 134.375 133.741ZM44.0661 8.81057C43.7753 8.80134 43.486 8.85614 43.2188 8.97108C42.9515 9.08602 42.7128 9.25829 42.5195 9.47571C42.3373 9.69896 42.2066 9.95966 42.1367 10.2392C42.0668 10.5188 42.0594 10.8103 42.1151 11.0931L61.1191 130.07C61.2484 130.752 61.6076 131.368 62.1366 131.817C62.6657 132.266 63.3327 132.52 64.0263 132.537H134.381C134.672 132.546 134.961 132.491 135.229 132.376C135.496 132.261 135.735 132.089 135.928 131.871C136.11 131.648 136.241 131.387 136.311 131.108C136.381 130.828 136.388 130.537 136.332 130.254L117.328 11.277C117.199 10.5954 116.84 9.97867 116.311 9.52981C115.782 9.08096 115.115 8.82709 114.421 8.81057H44.0661Z" fill="#2D3748"/>
<path d="M126.891 122.351H115.367C114.531 122.33 113.727 122.024 113.089 121.482C112.451 120.941 112.018 120.197 111.862 119.375L108.451 98.0423C108.188 96.3987 109.333 95.0664 111.007 95.0664H122.53C123.367 95.0872 124.171 95.3939 124.809 95.9354C125.446 96.4768 125.879 97.2204 126.036 98.0423L129.447 119.375C129.709 121.019 128.565 122.351 126.891 122.351Z" fill="#E75300"/>
<path d="M103.239 122.351H91.7155C90.8791 122.33 90.075 122.024 89.4372 121.482C88.7993 120.941 88.3662 120.197 88.2098 119.375L84.7992 98.0423C84.5364 96.3987 85.6807 95.0664 87.3547 95.0664H98.8783C99.7148 95.0872 100.519 95.3939 101.157 95.9354C101.795 96.4768 102.228 97.2204 102.384 98.0423L105.795 119.375C106.055 121.019 104.913 122.351 103.239 122.351Z" fill="#006CE7"/>
<path d="M79.5853 122.351H68.0616C67.2252 122.33 66.4211 122.024 65.7833 121.482C65.1455 120.941 64.7123 120.197 64.556 119.375L61.1454 98.0423C60.8825 96.3987 62.0268 95.0664 63.7008 95.0664H75.2245C76.0609 95.0872 76.8649 95.3939 77.5028 95.9354C78.1406 96.4768 78.5737 97.2204 78.7301 98.0423L82.1407 119.375C82.4035 121.019 81.2592 122.351 79.5853 122.351Z" fill="white"/>
<path d="M79.5853 122.958H68.0616C66.1046 122.958 64.2648 121.393 63.9575 119.47L60.5469 98.1394C60.4599 97.6821 60.4768 97.2111 60.5966 96.7613C60.7164 96.3115 60.9359 95.8944 61.2388 95.541C61.5417 95.1876 61.9203 94.9069 62.3465 94.7197C62.7727 94.5326 63.2356 94.4438 63.7008 94.4599H75.2245C77.1815 94.4599 79.0212 96.0247 79.3285 97.9473L82.7391 119.278C82.8262 119.736 82.8092 120.207 82.6894 120.656C82.5696 121.106 82.3502 121.523 82.0472 121.877C81.7443 122.23 81.3657 122.511 80.9395 122.698C80.5133 122.885 80.0505 122.974 79.5853 122.958ZM63.7008 95.6648C63.41 95.6556 63.1207 95.7104 62.8535 95.8253C62.5862 95.9403 62.3475 96.1125 62.1542 96.33C61.972 96.5532 61.8413 96.8139 61.7714 97.0935C61.7015 97.373 61.6941 97.6646 61.7498 97.9473L65.1564 119.278C65.2857 119.96 65.6449 120.577 66.1739 121.025C66.703 121.474 67.37 121.728 68.0636 121.745H79.5873C79.8781 121.754 80.1673 121.699 80.4346 121.584C80.7018 121.469 80.9406 121.297 81.1339 121.08C81.3161 120.856 81.4468 120.596 81.5167 120.316C81.5866 120.037 81.5939 119.745 81.5382 119.462L78.1357 98.1394C78.0068 97.4594 77.6491 96.8439 77.1221 96.3953C76.5951 95.9466 75.9305 95.6917 75.2386 95.6729H63.7149L63.7008 95.6648Z" fill="#2D3748"/>
<path d="M129.068 80.9387H52.6522L43.13 21.3107H119.546L129.068 80.9387Z" fill="white"/>
<path d="M129.068 81.5453H52.6482C52.5025 81.5471 52.3611 81.4964 52.2497 81.4024C52.1383 81.3085 52.0645 81.1777 52.0417 81.0338L42.5316 21.4058C42.5178 21.3185 42.5231 21.2293 42.5473 21.1444C42.5716 21.0595 42.614 20.9808 42.6718 20.914C42.7296 20.8472 42.8012 20.7938 42.8818 20.7576C42.9623 20.7213 43.0498 20.7031 43.1381 20.7042H119.558C119.704 20.7024 119.846 20.7531 119.957 20.847C120.068 20.941 120.142 21.0718 120.165 21.2157L129.689 80.8437C129.703 80.9322 129.698 81.0226 129.673 81.1086C129.648 81.1946 129.604 81.274 129.544 81.341C129.485 81.4081 129.412 81.4612 129.329 81.4965C129.247 81.5318 129.158 81.5485 129.068 81.5453ZM53.1698 80.3322H128.357L119.029 21.9172H43.8417L53.1698 80.3322Z" fill="#2D3748"/>
<path d="M86.5763 68.8732C74.0761 63.1801 60.6986 68.8732 60.6986 68.8732L55.426 35.8993C55.426 35.8993 68.8036 30.2062 81.3037 35.8993L86.5763 68.8732Z" fill="#E75300"/>
<path d="M91.293 68.8732C101.976 63.1801 117.171 68.8732 117.171 68.8732L111.904 35.8993C111.904 35.8993 96.7091 30.2062 86.0264 35.8993L91.293 68.8732Z" fill="#E75300"/>
<path d="M91.293 68.8793H86.5763L81.3098 35.8993H86.0264L91.293 68.8793Z" fill="#006CE7"/>
<path d="M53.9481 17.3886H49.2032C49.0196 17.3832 48.8421 17.3224 48.6938 17.2141C48.5455 17.1059 48.4334 16.9553 48.3723 16.7821L47.048 12.9894C47.0064 12.8919 46.9902 12.7854 47.0011 12.6799C47.012 12.5745 47.0495 12.4735 47.1102 12.3865C47.1708 12.2996 47.2526 12.2295 47.3479 12.1829C47.4431 12.1363 47.5487 12.1147 47.6545 12.1201H53.8389C54.0688 12.1242 54.2882 12.2169 54.4513 12.3789C54.6144 12.5409 54.7086 12.7596 54.7143 12.9894L54.6011 16.7821C54.6014 16.8658 54.5843 16.9487 54.5509 17.0255C54.5176 17.1023 54.4687 17.1713 54.4074 17.2283C54.346 17.2853 54.2735 17.3289 54.1945 17.3565C54.1155 17.3841 54.0316 17.3951 53.9481 17.3886Z" fill="#006CE7"/>
<path d="M112.438 13.7152H106.737C106.513 13.7099 106.298 13.6281 106.128 13.4835C105.958 13.3389 105.842 13.1402 105.801 12.9207C105.781 12.8218 105.784 12.7197 105.809 12.6222C105.835 12.5247 105.882 12.4342 105.948 12.3577C106.014 12.2812 106.096 12.2205 106.188 12.1804C106.281 12.1403 106.381 12.1218 106.482 12.1262H112.193C112.417 12.1315 112.631 12.2133 112.802 12.3579C112.972 12.5025 113.088 12.7011 113.129 12.9207C113.149 13.0204 113.146 13.1234 113.12 13.2218C113.094 13.3201 113.046 13.4111 112.979 13.4879C112.912 13.5646 112.829 13.625 112.735 13.6644C112.641 13.7038 112.539 13.7212 112.438 13.7152Z" fill="#006CE7"/>
<path d="M113.044 17.3886H107.323C107.1 17.3833 106.885 17.3015 106.714 17.1569C106.544 17.0123 106.429 16.8137 106.387 16.5941C106.367 16.4952 106.37 16.3932 106.396 16.2956C106.421 16.1981 106.469 16.1077 106.534 16.0311C106.6 15.9546 106.682 15.894 106.775 15.8539C106.867 15.8137 106.968 15.7952 107.068 15.7996H112.782C113.005 15.8049 113.22 15.8867 113.39 16.0313C113.56 16.1759 113.676 16.3746 113.718 16.5941C113.737 16.6923 113.734 16.7936 113.709 16.8905C113.684 16.9874 113.637 17.0774 113.573 17.1538C113.508 17.2302 113.427 17.291 113.335 17.3316C113.244 17.3723 113.144 17.3918 113.044 17.3886Z" fill="#006CE7"/>
<path d="M161.325 14.5138C162.245 14.1165 162.981 13.3855 163.385 12.4678L163.912 11.2548L164.44 12.4678C164.84 13.3864 165.574 14.1194 166.492 14.5198L167.705 15.0475L166.492 15.5752C165.574 15.9756 164.84 16.7087 164.44 17.6272L163.912 18.8402L163.385 17.6272C162.984 16.7087 162.251 15.9756 161.333 15.5752L160.12 15.0475L161.325 14.5138Z" fill="#006CE7"/>
<path d="M34.9259 126.625C35.6294 126.319 36.1907 125.758 36.4968 125.054L36.9011 124.128L37.3055 125.054C37.6116 125.758 38.1729 126.319 38.8763 126.625L39.8023 127.029L38.8763 127.434C38.1729 127.74 37.6116 128.301 37.3055 129.005L36.9011 129.931L36.4968 129.005C36.1907 128.301 35.6294 127.74 34.9259 127.434L34 127.029L34.9259 126.625Z" fill="#E75300"/>
<path d="M47.4524 143.438C48.5648 142.953 49.4525 142.065 49.937 140.953L50.5759 139.487L51.2148 140.953C51.6993 142.065 52.587 142.953 53.6994 143.438L55.1651 144.076L53.6994 144.715C52.587 145.2 51.6993 146.088 51.2148 147.2L50.5739 148.662L49.935 147.196C49.4505 146.083 48.5628 145.196 47.4503 144.711L45.9866 144.08L47.4524 143.438Z" fill="#006CE7"/>
<path d="M224.675 5.56169C226.241 4.87926 227.492 3.62894 228.174 2.06213L229.074 0L229.973 2.06213C230.656 3.62894 231.906 4.87926 233.473 5.56169L235.535 6.46135L233.473 7.36101C231.907 8.04059 230.656 9.2871 229.971 10.8505L229.072 12.9126L228.172 10.8505C227.49 9.28366 226.239 8.03333 224.673 7.3509L222.61 6.45124L224.675 5.56169Z" fill="#E75300"/>
<path d="M235.96 48.1468C237.235 48.1468 238.268 47.1131 238.268 45.838C238.268 44.5629 237.235 43.5292 235.96 43.5292C234.685 43.5292 233.651 44.5629 233.651 45.838C233.651 47.1131 234.685 48.1468 235.96 48.1468Z" fill="#006CE7"/>
</g>
<defs>
<clipPath id="clip0_1_564">
<rect width="220" height="254" fill="white" transform="translate(34)"/>
</clipPath>
</defs>
</svg>
