<svg viewBox="0 0 275 213" fill="none" xmlns="http://www.w3.org/2000/svg">
<path d="M272.728 157.367H0.422114C0.310162 157.367 0.202796 157.322 0.123634 157.243C0.0444722 157.164 0 157.057 0 156.945C0 156.833 0.0444722 156.725 0.123634 156.646C0.202796 156.567 0.310162 156.523 0.422114 156.523H272.728C272.84 156.523 272.947 156.567 273.026 156.646C273.105 156.725 273.15 156.833 273.15 156.945C273.148 157.056 273.102 157.162 273.024 157.241C272.945 157.32 272.839 157.365 272.728 157.367Z" fill="#D1D3D4"/>
<path d="M9.54825 109.82H99.6948V156.945H9.54825V109.82Z" fill="white"/>
<path d="M99.6949 157.367H9.54827C9.43632 157.367 9.32896 157.322 9.24979 157.243C9.17063 157.164 9.12616 157.057 9.12616 156.945V109.82C9.12616 109.708 9.17063 109.601 9.24979 109.522C9.32896 109.442 9.43632 109.398 9.54827 109.398H99.6949C99.8068 109.398 99.9142 109.442 99.9933 109.522C100.072 109.601 100.117 109.708 100.117 109.82V156.979C100.108 157.085 100.06 157.183 99.982 157.255C99.9037 157.327 99.8012 157.367 99.6949 157.367ZM9.97039 156.523H99.2727V110.242H9.97039V156.523Z" fill="#D1D3D4"/>
<path d="M9.54825 109.82H99.6948V112.673H9.54825V109.82Z" fill="white"/>
<path d="M99.6949 113.079H9.54827C9.43632 113.079 9.32896 113.034 9.24979 112.955C9.17063 112.876 9.12616 112.769 9.12616 112.657V109.812C9.12616 109.7 9.17063 109.592 9.24979 109.513C9.32896 109.434 9.43632 109.389 9.54827 109.389H99.6949C99.8068 109.389 99.9142 109.434 99.9933 109.513C100.072 109.592 100.117 109.7 100.117 109.812V112.657C100.117 112.769 100.072 112.876 99.9933 112.955C99.9142 113.034 99.8068 113.079 99.6949 113.079ZM9.97039 112.235H99.2727V110.234H9.97039V112.235Z" fill="#D1D3D4"/>
<path d="M44.8875 101.201H64.3638V156.945H44.8875V101.201Z" fill="white"/>
<path d="M64.3554 157.367H44.8875C44.7756 157.367 44.6682 157.322 44.589 157.243C44.5099 157.164 44.4654 157.057 44.4654 156.945V101.226C44.4654 101.114 44.5099 101.007 44.589 100.927C44.6682 100.848 44.7756 100.804 44.8875 100.804H64.3554C64.4673 100.804 64.5747 100.848 64.6539 100.927C64.733 101.007 64.7775 101.114 64.7775 101.226V156.945C64.7775 157.057 64.733 157.164 64.6539 157.243C64.5747 157.322 64.4673 157.367 64.3554 157.367ZM45.3096 156.523H63.9333V101.648H45.3096V156.523Z" fill="#D1D3D4"/>
<path d="M43.3932 97.7814H65.8412V101.2H43.3932V97.7814Z" fill="white"/>
<path d="M65.8412 101.614H43.3932C43.2812 101.614 43.1739 101.57 43.0947 101.491C43.0155 101.411 42.9711 101.304 42.9711 101.192V97.8152C42.9711 97.7032 43.0155 97.5959 43.0947 97.5167C43.1739 97.4375 43.2812 97.3931 43.3932 97.3931H65.8412C65.9531 97.3931 66.0605 97.4375 66.1397 97.5167C66.2188 97.5959 66.2633 97.7032 66.2633 97.8152V101.192C66.2633 101.304 66.2188 101.411 66.1397 101.491C66.0605 101.57 65.9531 101.614 65.8412 101.614ZM43.8153 100.77H65.4191V98.2373H43.79L43.8153 100.77Z" fill="#D1D3D4"/>
<path d="M50.1808 146.181H59.0536V156.936H50.1808V146.181Z" fill="white"/>
<path d="M59.0621 157.367H50.1808C50.0695 157.365 49.9634 157.32 49.8847 157.241C49.806 157.162 49.7609 157.056 49.7587 156.945V146.181C49.7609 146.07 49.806 145.964 49.8847 145.885C49.9634 145.806 50.0695 145.761 50.1808 145.759H59.0621C59.1734 145.761 59.2795 145.806 59.3582 145.885C59.4369 145.964 59.482 146.07 59.4842 146.181V156.979C59.4738 157.084 59.4251 157.182 59.3472 157.253C59.2694 157.325 59.1679 157.365 59.0621 157.367ZM50.6198 156.523H58.6569V146.603H50.6029L50.6198 156.523Z" fill="#D1D3D4"/>
<path d="M50.1808 148.072H59.0536V156.945H50.1808V148.072Z" fill="white"/>
<path d="M59.0621 157.367H50.1808C50.0695 157.365 49.9634 157.32 49.8847 157.241C49.806 157.162 49.7609 157.056 49.7587 156.945V148.072C49.7587 147.96 49.8032 147.853 49.8823 147.774C49.9615 147.694 50.0689 147.65 50.1808 147.65H59.0621C59.174 147.65 59.2814 147.694 59.3606 147.774C59.4397 147.853 59.4842 147.96 59.4842 148.072V156.979C59.4738 157.084 59.4251 157.182 59.3472 157.253C59.2694 157.325 59.1679 157.365 59.0621 157.367ZM50.6198 156.523H58.6569V148.536H50.6029L50.6198 156.523Z" fill="#D1D3D4"/>
<path d="M15.787 118.136H20.3796V124.679H15.787V118.136Z" fill="white"/>
<path d="M20.3796 125.101H15.787C15.6751 125.101 15.5677 125.056 15.4885 124.977C15.4094 124.898 15.3649 124.79 15.3649 124.678V118.144C15.3649 118.032 15.4094 117.925 15.4885 117.846C15.5677 117.766 15.6751 117.722 15.787 117.722H20.3796C20.4916 117.722 20.5989 117.766 20.6781 117.846C20.7572 117.925 20.8017 118.032 20.8017 118.144V124.687C20.7995 124.797 20.7541 124.903 20.6751 124.98C20.5962 125.057 20.4901 125.101 20.3796 125.101ZM16.2091 124.256H19.9575V118.558H16.2091V124.256Z" fill="#D1D3D4"/>
<path d="M25.293 118.136H29.8856V124.679H25.293V118.136Z" fill="white"/>
<path d="M29.8941 125.101H25.293C25.1817 125.098 25.0756 125.053 24.9969 124.974C24.9182 124.896 24.8731 124.79 24.8709 124.678V118.144C24.8709 118.032 24.9154 117.925 24.9946 117.846C25.0737 117.766 25.1811 117.722 25.293 117.722H29.8941C30.006 117.722 30.1134 117.766 30.1925 117.846C30.2717 117.925 30.3162 118.032 30.3162 118.144V124.687C30.3119 124.797 30.2658 124.901 30.1873 124.978C30.1088 125.054 30.0039 125.098 29.8941 125.101ZM25.6729 124.256H29.4382V118.558H25.7151L25.6729 124.256Z" fill="#D1D3D4"/>
<path d="M34.8075 118.136H39.4001V124.679H34.8075V118.136Z" fill="white"/>
<path d="M39.4001 125.101H34.8075C34.6955 125.101 34.5882 125.056 34.509 124.977C34.4298 124.898 34.3854 124.79 34.3854 124.678V118.144C34.3854 118.032 34.4298 117.925 34.509 117.846C34.5882 117.766 34.6955 117.722 34.8075 117.722H39.4001C39.512 117.722 39.6194 117.766 39.6986 117.846C39.7777 117.925 39.8222 118.032 39.8222 118.144V124.687C39.82 124.797 39.7745 124.903 39.6956 124.98C39.6167 125.057 39.5106 125.101 39.4001 125.101ZM35.2296 124.256H38.978V118.558H35.2296V124.256Z" fill="#D1D3D4"/>
<path d="M15.787 127.464H20.3796V134.007H15.787V127.464Z" fill="white"/>
<path d="M20.3796 134.429H15.787C15.6751 134.429 15.5677 134.385 15.4885 134.306C15.4094 134.227 15.3649 134.119 15.3649 134.007V127.431C15.3649 127.319 15.4094 127.211 15.4885 127.132C15.5677 127.053 15.6751 127.009 15.787 127.009H20.3796C20.4916 127.009 20.5989 127.053 20.6781 127.132C20.7572 127.211 20.8017 127.319 20.8017 127.431V133.973C20.8064 134.032 20.7989 134.09 20.7798 134.145C20.7607 134.201 20.7304 134.251 20.6907 134.294C20.651 134.337 20.6029 134.371 20.5493 134.394C20.4958 134.418 20.438 134.429 20.3796 134.429ZM16.2091 133.585H19.9575V127.887H16.2091V133.585Z" fill="#D1D3D4"/>
<path d="M25.293 127.464H29.8856V134.007H25.293V127.464Z" fill="white"/>
<path d="M29.8941 134.429H25.293C25.1817 134.427 25.0756 134.382 24.9969 134.303C24.9182 134.225 24.8731 134.118 24.8709 134.007V127.431C24.8709 127.319 24.9154 127.211 24.9946 127.132C25.0737 127.053 25.1811 127.009 25.293 127.009H29.8941C30.006 127.009 30.1134 127.053 30.1925 127.132C30.2717 127.211 30.3162 127.319 30.3162 127.431V133.973C30.3196 134.031 30.3113 134.089 30.2917 134.144C30.2721 134.199 30.2417 134.249 30.2023 134.291C30.1629 134.334 30.1152 134.368 30.0623 134.392C30.0093 134.416 29.9521 134.428 29.8941 134.429ZM25.6729 133.585H29.4382V127.887H25.7151L25.6729 133.585Z" fill="#D1D3D4"/>
<path d="M34.8075 127.464H39.4001V134.007H34.8075V127.464Z" fill="white"/>
<path d="M39.4001 134.429H34.8075C34.6955 134.429 34.5882 134.385 34.509 134.306C34.4298 134.227 34.3854 134.119 34.3854 134.007V127.431C34.3854 127.319 34.4298 127.211 34.509 127.132C34.5882 127.053 34.6955 127.009 34.8075 127.009H39.4001C39.512 127.009 39.6194 127.053 39.6986 127.132C39.7777 127.211 39.8222 127.319 39.8222 127.431V133.973C39.8269 134.032 39.8194 134.09 39.8003 134.145C39.7812 134.201 39.7508 134.251 39.7112 134.294C39.6715 134.337 39.6234 134.371 39.5698 134.394C39.5163 134.418 39.4585 134.429 39.4001 134.429ZM35.2296 133.585H38.978V127.887H35.2296V133.585Z" fill="#D1D3D4"/>
<path d="M15.787 136.793H20.3796V143.336H15.787V136.793Z" fill="white"/>
<path d="M20.3796 143.758H15.787C15.6751 143.758 15.5677 143.714 15.4885 143.634C15.4094 143.555 15.3649 143.448 15.3649 143.336V136.793C15.3649 136.681 15.4094 136.574 15.4885 136.495C15.5677 136.416 15.6751 136.371 15.787 136.371H20.3796C20.4916 136.371 20.5989 136.416 20.6781 136.495C20.7572 136.574 20.8017 136.681 20.8017 136.793V143.336C20.8017 143.448 20.7572 143.555 20.6781 143.634C20.5989 143.714 20.4916 143.758 20.3796 143.758ZM16.2091 142.914H19.9575V137.215H16.2091V142.914Z" fill="#D1D3D4"/>
<path d="M25.293 136.793H29.8856V143.336H25.293V136.793Z" fill="white"/>
<path d="M29.8941 143.758H25.293C25.1817 143.756 25.0756 143.711 24.9969 143.632C24.9182 143.553 24.8731 143.447 24.8709 143.336V136.793C24.8709 136.681 24.9154 136.574 24.9946 136.495C25.0737 136.416 25.1811 136.371 25.293 136.371H29.8941C30.006 136.371 30.1134 136.416 30.1925 136.495C30.2717 136.574 30.3162 136.681 30.3162 136.793V143.336C30.314 143.447 30.2689 143.553 30.1902 143.632C30.1115 143.711 30.0053 143.756 29.8941 143.758ZM25.6729 142.914H29.4382V137.215H25.7151L25.6729 142.914Z" fill="#D1D3D4"/>
<path d="M34.8075 136.793H39.4001V143.336H34.8075V136.793Z" fill="white"/>
<path d="M39.4001 143.758H34.8075C34.6955 143.758 34.5882 143.714 34.509 143.634C34.4298 143.555 34.3854 143.448 34.3854 143.336V136.793C34.3854 136.681 34.4298 136.574 34.509 136.495C34.5882 136.416 34.6955 136.371 34.8075 136.371H39.4001C39.512 136.371 39.6194 136.416 39.6986 136.495C39.7777 136.574 39.8222 136.681 39.8222 136.793V143.336C39.8222 143.448 39.7777 143.555 39.6986 143.634C39.6194 143.714 39.512 143.758 39.4001 143.758ZM35.2296 142.914H38.978V137.215H35.2296V142.914Z" fill="#D1D3D4"/>
<path d="M69.9864 118.136H74.579V124.679H69.9864V118.136Z" fill="white"/>
<path d="M74.5789 125.101H69.961C69.849 125.101 69.7417 125.056 69.6625 124.977C69.5834 124.898 69.5389 124.79 69.5389 124.678V118.144C69.5389 118.032 69.5834 117.925 69.6625 117.846C69.7417 117.766 69.849 117.722 69.961 117.722H74.5536C74.6655 117.722 74.7729 117.766 74.8521 117.846C74.9312 117.925 74.9757 118.032 74.9757 118.144V124.687C74.9738 124.793 74.9318 124.895 74.8583 124.971C74.7847 125.048 74.685 125.094 74.5789 125.101ZM70.4084 124.256H74.1821V118.558H70.4338L70.4084 124.256Z" fill="#D1D3D4"/>
<path d="M79.4924 118.136H84.085V124.679H79.4924V118.136Z" fill="white"/>
<path d="M84.085 125.101H79.4924C79.3804 125.101 79.2731 125.056 79.1939 124.977C79.1147 124.898 79.0703 124.79 79.0703 124.678V118.144C79.0703 118.032 79.1147 117.925 79.1939 117.846C79.2731 117.766 79.3804 117.722 79.4924 117.722H84.085C84.1969 117.722 84.3043 117.766 84.3834 117.846C84.4626 117.925 84.5071 118.032 84.5071 118.144V124.687C84.5049 124.797 84.4594 124.903 84.3805 124.98C84.3016 125.057 84.1955 125.101 84.085 125.101ZM79.9145 124.256H83.6628V118.558H79.9145V124.256Z" fill="#D1D3D4"/>
<path d="M88.9984 118.136H93.591V124.679H88.9984V118.136Z" fill="white"/>
<path d="M93.5994 125.101H88.9984C88.8871 125.098 88.781 125.053 88.7023 124.974C88.6236 124.896 88.5784 124.79 88.5763 124.678V118.144C88.5763 118.032 88.6207 117.925 88.6999 117.846C88.7791 117.766 88.8864 117.722 88.9984 117.722H93.5994C93.7114 117.722 93.8187 117.766 93.8979 117.846C93.977 117.925 94.0215 118.032 94.0215 118.144V124.687C94.0172 124.797 93.9711 124.901 93.8927 124.978C93.8142 125.054 93.7093 125.098 93.5994 125.101ZM89.4205 124.256H93.1773V118.558H89.4205V124.256Z" fill="#D1D3D4"/>
<path d="M69.9864 127.464H74.579V134.007H69.9864V127.464Z" fill="white"/>
<path d="M74.5789 134.429H69.961C69.849 134.429 69.7417 134.385 69.6625 134.306C69.5834 134.227 69.5389 134.119 69.5389 134.007V127.431C69.5389 127.319 69.5834 127.211 69.6625 127.132C69.7417 127.053 69.849 127.009 69.961 127.009H74.5536C74.6655 127.009 74.7729 127.053 74.8521 127.132C74.9312 127.211 74.9757 127.319 74.9757 127.431V133.973C74.9803 134.03 74.9736 134.086 74.956 134.14C74.9385 134.193 74.9104 134.243 74.8734 134.285C74.8364 134.327 74.7913 134.362 74.7407 134.387C74.6902 134.412 74.6351 134.426 74.5789 134.429ZM70.4084 133.585H74.1821V127.887H70.4338L70.4084 133.585Z" fill="#D1D3D4"/>
<path d="M79.4924 127.464H84.085V134.007H79.4924V127.464Z" fill="white"/>
<path d="M84.085 134.429H79.4924C79.3804 134.429 79.2731 134.385 79.1939 134.306C79.1147 134.227 79.0703 134.119 79.0703 134.007V127.431C79.0703 127.319 79.1147 127.211 79.1939 127.132C79.2731 127.053 79.3804 127.009 79.4924 127.009H84.085C84.1969 127.009 84.3043 127.053 84.3834 127.132C84.4626 127.211 84.5071 127.319 84.5071 127.431V133.973C84.5117 134.032 84.5043 134.09 84.4852 134.145C84.4661 134.201 84.4357 134.251 84.396 134.294C84.3564 134.337 84.3082 134.371 84.2547 134.394C84.2011 134.418 84.1434 134.429 84.085 134.429ZM79.9145 133.585H83.6628V127.887H79.9145V133.585Z" fill="#D1D3D4"/>
<path d="M88.9984 127.464H93.591V134.007H88.9984V127.464Z" fill="white"/>
<path d="M93.5994 134.429H88.9984C88.8871 134.427 88.781 134.382 88.7023 134.303C88.6236 134.225 88.5784 134.118 88.5763 134.007V127.431C88.5763 127.319 88.6207 127.211 88.6999 127.132C88.7791 127.053 88.8864 127.009 88.9984 127.009H93.5994C93.7114 127.009 93.8187 127.053 93.8979 127.132C93.977 127.211 94.0215 127.319 94.0215 127.431V133.973C94.0249 134.031 94.0166 134.089 93.9971 134.144C93.9775 134.199 93.9471 134.249 93.9077 134.291C93.8682 134.334 93.8206 134.368 93.7676 134.392C93.7147 134.416 93.6574 134.428 93.5994 134.429ZM89.4205 133.585H93.1773V127.887H89.4205V133.585Z" fill="#D1D3D4"/>
<path d="M69.9864 136.793H74.579V143.336H69.9864V136.793Z" fill="white"/>
<path d="M74.5789 143.758H69.961C69.849 143.758 69.7417 143.714 69.6625 143.634C69.5834 143.555 69.5389 143.448 69.5389 143.336V136.793C69.5389 136.681 69.5834 136.574 69.6625 136.495C69.7417 136.416 69.849 136.371 69.961 136.371H74.5536C74.6655 136.371 74.7729 136.416 74.8521 136.495C74.9312 136.574 74.9757 136.681 74.9757 136.793V143.336C74.9759 143.444 74.9349 143.547 74.8612 143.626C74.7874 143.704 74.6864 143.752 74.5789 143.758ZM70.4084 142.914H74.1821V137.215H70.4338L70.4084 142.914Z" fill="#D1D3D4"/>
<path d="M79.4924 136.793H84.085V143.336H79.4924V136.793Z" fill="white"/>
<path d="M84.085 143.758H79.4924C79.3804 143.758 79.2731 143.714 79.1939 143.634C79.1147 143.555 79.0703 143.448 79.0703 143.336V136.793C79.0703 136.681 79.1147 136.574 79.1939 136.495C79.2731 136.416 79.3804 136.371 79.4924 136.371H84.085C84.1969 136.371 84.3043 136.416 84.3834 136.495C84.4626 136.574 84.5071 136.681 84.5071 136.793V143.336C84.5071 143.448 84.4626 143.555 84.3834 143.634C84.3043 143.714 84.1969 143.758 84.085 143.758ZM79.9145 142.914H83.6628V137.215H79.9145V142.914Z" fill="#D1D3D4"/>
<path d="M88.9984 136.793H93.591V143.336H88.9984V136.793Z" fill="white"/>
<path d="M93.5994 143.758H88.9984C88.8871 143.756 88.781 143.711 88.7023 143.632C88.6236 143.553 88.5784 143.447 88.5763 143.336V136.793C88.5763 136.681 88.6207 136.574 88.6999 136.495C88.7791 136.416 88.8864 136.371 88.9984 136.371H93.5994C93.7114 136.371 93.8187 136.416 93.8979 136.495C93.977 136.574 94.0215 136.681 94.0215 136.793V143.336C94.0194 143.447 93.9742 143.553 93.8955 143.632C93.8168 143.711 93.7107 143.756 93.5994 143.758ZM89.4205 142.914H93.1773V137.215H89.4205V142.914Z" fill="#D1D3D4"/>
<path d="M116.698 152.893C116.597 152.894 116.5 152.858 116.424 152.793C116.348 152.728 116.298 152.637 116.284 152.538C116.101 151.848 115.754 151.212 115.271 150.686C114.789 150.16 114.186 149.758 113.515 149.516C112.843 149.274 112.123 149.198 111.416 149.295C110.709 149.392 110.036 149.659 109.454 150.073C109.4 150.119 109.336 150.151 109.267 150.166C109.197 150.181 109.125 150.178 109.057 150.157C108.99 150.136 108.929 150.099 108.879 150.049C108.829 149.999 108.792 149.938 108.77 149.87C108.568 149.174 108.222 148.527 107.755 147.972C107.289 147.417 106.711 146.965 106.06 146.645C105.421 146.294 104.716 146.078 103.99 146.013C103.263 145.947 102.531 146.033 101.839 146.265C101.787 146.286 101.731 146.296 101.674 146.295C101.618 146.293 101.562 146.281 101.511 146.257C101.459 146.234 101.413 146.201 101.375 146.159C101.336 146.118 101.307 146.069 101.287 146.016C101.268 145.963 101.26 145.907 101.263 145.85C101.266 145.794 101.28 145.739 101.305 145.688C101.329 145.637 101.364 145.592 101.407 145.555C101.449 145.518 101.499 145.489 101.552 145.472C102.35 145.203 103.194 145.102 104.033 145.176C104.871 145.25 105.685 145.498 106.423 145.902C107.752 146.57 108.795 147.694 109.361 149.068C110.022 148.681 110.762 148.449 111.525 148.389C112.288 148.329 113.055 148.443 113.768 148.722C114.597 148.985 115.341 149.466 115.923 150.113C116.505 150.76 116.903 151.55 117.077 152.403C117.095 152.513 117.068 152.626 117.004 152.718C116.939 152.809 116.841 152.872 116.731 152.893H116.698Z" fill="#D1D3D4"/>
<path d="M274.576 154.598C274.472 154.596 274.371 154.555 274.295 154.483C274.218 154.412 274.171 154.314 274.163 154.209C274.046 153.392 273.752 152.609 273.302 151.916C272.852 151.223 272.256 150.637 271.556 150.198C270.856 149.759 270.068 149.479 269.249 149.375C268.429 149.272 267.597 149.349 266.81 149.6C266.755 149.625 266.696 149.638 266.636 149.638C266.577 149.638 266.518 149.625 266.463 149.6C266.41 149.571 266.363 149.531 266.325 149.483C266.288 149.435 266.26 149.38 266.244 149.321C265.947 148.055 265.348 146.88 264.498 145.895C263.647 144.911 262.572 144.147 261.362 143.669C260.152 143.191 258.845 143.014 257.551 143.151C256.258 143.288 255.017 143.737 253.935 144.459C253.841 144.518 253.729 144.538 253.62 144.516C253.512 144.494 253.416 144.431 253.353 144.34C252.727 143.388 251.851 142.626 250.82 142.141C249.789 141.655 248.643 141.464 247.511 141.588C246.414 141.759 245.418 142.326 244.712 143.182C244.006 144.037 243.638 145.123 243.678 146.231C243.687 146.325 243.664 146.418 243.614 146.497C243.564 146.576 243.489 146.636 243.401 146.668C243.313 146.7 243.217 146.702 243.128 146.673C243.039 146.645 242.962 146.587 242.909 146.51C242.709 146.239 242.457 146.01 242.167 145.837C241.877 145.665 241.555 145.552 241.221 145.505C240.251 145.354 239.26 145.581 238.452 146.139C237.253 146.983 236.417 148.426 235.818 150.664C235.795 150.747 235.747 150.821 235.68 150.877C235.614 150.933 235.533 150.967 235.446 150.976C235.36 150.982 235.273 150.961 235.198 150.918C235.123 150.874 235.063 150.809 235.024 150.731C234.84 150.368 234.584 150.045 234.273 149.782C233.961 149.52 233.599 149.323 233.209 149.203C232.041 148.82 230.77 148.904 229.664 149.44C227.73 150.402 226.489 152.352 225.442 154.302C225.417 154.352 225.381 154.396 225.338 154.432C225.295 154.468 225.246 154.494 225.192 154.511C225.139 154.527 225.083 154.533 225.027 154.528C224.972 154.522 224.918 154.506 224.868 154.48C224.771 154.424 224.699 154.334 224.668 154.227C224.636 154.12 224.648 154.004 224.699 153.906C225.822 151.829 227.156 149.752 229.301 148.688C230.616 148.045 232.131 147.942 233.522 148.401C234.206 148.624 234.818 149.026 235.295 149.566C235.72 147.934 236.669 146.487 237.996 145.446C238.981 144.764 240.19 144.489 241.373 144.678C241.901 144.766 242.403 144.971 242.842 145.278C243.036 144.148 243.576 143.107 244.386 142.297C245.196 141.486 246.238 140.947 247.367 140.752C248.588 140.612 249.825 140.795 250.953 141.284C252.081 141.773 253.06 142.551 253.792 143.538C254.96 142.837 256.274 142.413 257.633 142.299C258.991 142.184 260.358 142.383 261.627 142.88C262.896 143.376 264.035 144.157 264.956 145.163C265.876 146.168 266.554 147.371 266.936 148.68C267.792 148.457 268.686 148.417 269.559 148.563C270.431 148.708 271.264 149.036 272.002 149.524C272.827 150.015 273.526 150.691 274.046 151.498C274.566 152.305 274.892 153.221 274.999 154.176C275.003 154.231 274.997 154.287 274.98 154.34C274.963 154.393 274.935 154.442 274.899 154.484C274.863 154.527 274.819 154.562 274.769 154.587C274.72 154.612 274.666 154.627 274.61 154.632L274.576 154.598Z" fill="#D1D3D4"/>
<path d="M94.6632 212.698C94.6027 212.697 94.543 212.684 94.4878 212.659C94.4326 212.635 94.3831 212.599 94.3424 212.554L48.7541 160.575C48.6802 160.49 48.6432 160.379 48.6511 160.267C48.659 160.154 48.7112 160.05 48.7963 159.976C48.8814 159.902 48.9924 159.865 49.1048 159.873C49.2172 159.881 49.3218 159.933 49.3957 160.018L94.984 211.997C95.0233 212.035 95.0545 212.081 95.0759 212.132C95.0972 212.183 95.1082 212.237 95.1082 212.292C95.1082 212.347 95.0972 212.402 95.0759 212.453C95.0545 212.503 95.0233 212.549 94.984 212.588C94.9416 212.628 94.891 212.659 94.8356 212.678C94.7802 212.697 94.7214 212.704 94.6632 212.698Z" fill="#D1D3D4"/>
<path d="M269.494 207.303H269.393L67.9855 159.748C67.9301 159.735 67.8777 159.711 67.8314 159.678C67.785 159.645 67.7457 159.604 67.7155 159.555C67.6853 159.507 67.6649 159.453 67.6555 159.397C67.646 159.341 67.6477 159.284 67.6605 159.228C67.6732 159.173 67.6968 159.121 67.7298 159.074C67.7628 159.028 67.8046 158.989 67.8528 158.958C67.901 158.928 67.9547 158.908 68.0108 158.898C68.0669 158.889 68.1243 158.891 68.1797 158.903L269.587 206.442C269.699 206.454 269.801 206.51 269.872 206.598C269.942 206.686 269.975 206.798 269.963 206.91C269.95 207.022 269.894 207.125 269.806 207.195C269.718 207.266 269.606 207.298 269.494 207.286V207.303Z" fill="#D1D3D4"/>
<path d="M217.093 34.1604C217.093 34.1604 224.615 25.524 228.068 24.0888C231.521 22.6536 235.666 29.2302 235.269 30.7329C234.872 32.2356 220.428 40.8045 220.428 40.8045L217.093 34.1604Z" fill="white"/>
<path d="M220.445 41.1928H220.343C220.291 41.1792 220.243 41.1539 220.202 41.1188C220.161 41.0837 220.128 41.0397 220.107 40.9902L216.73 34.3546C216.696 34.2856 216.682 34.2082 216.691 34.1317C216.7 34.0553 216.731 33.9831 216.781 33.924C217.093 33.5694 224.379 25.2031 227.924 23.7933C229.241 23.2445 230.744 23.6498 232.272 24.9752C234.205 26.6636 235.945 29.6775 235.649 30.8848C235.269 32.4128 224.058 39.1666 220.639 41.1928C220.575 41.2076 220.508 41.2076 220.445 41.1928ZM217.557 34.2195L220.605 40.2641C227.46 36.1781 234.611 31.518 234.915 30.6315C235.083 29.9561 233.766 27.2039 231.782 25.4986C230.879 24.7219 229.537 23.903 228.237 24.4433C225.172 25.7097 218.689 32.9363 217.557 34.2195Z" fill="#2D3748"/>
<path d="M96.1321 16.077C94.3085 14.0593 92.274 11.9234 89.5893 11.5098C86.4826 11.037 83.2829 13.0378 80.3028 12.1598C79.4954 11.8884 78.7264 11.5138 78.015 11.0454C76.5629 10.2012 75.0602 9.18813 74.2497 7.66852C74.0893 10.331 74.0893 13.0008 74.2497 15.6634C76.4531 16.9381 78.8423 18.2636 81.3834 18.0187C82.5389 17.8303 83.671 17.519 84.7603 17.0901C86.9282 16.3809 89.1843 15.9775 91.4635 15.8913C93.6585 15.8069 96.1996 16.2037 97.3731 18.0863C97.5569 17.7406 97.6526 17.3549 97.6517 16.9635" fill="#006CE7"/>
<path d="M93.9119 25.5747L100.927 32.548C100.927 32.548 107.234 27.871 107.166 27.8625C107.099 27.8541 103.3 20.847 101.797 18.652C100.294 16.457 93.7431 17.7234 93.1437 19.4962C92.5443 21.2691 93.9119 25.5747 93.9119 25.5747Z" fill="white"/>
<path d="M100.927 32.9363C100.877 32.9382 100.827 32.9294 100.781 32.9105C100.734 32.8916 100.692 32.863 100.657 32.8266L93.6418 25.8448C93.5984 25.8029 93.5664 25.7506 93.5489 25.6928C93.4898 25.5156 92.139 21.3197 92.7807 19.4118C93.1606 18.2552 95.212 17.4785 97.0693 17.2084C97.9727 17.0817 100.987 16.8031 102.135 18.4325C103.283 20.0618 105.258 23.6667 106.508 25.8955C106.981 26.7397 107.394 27.4742 107.487 27.5839C107.526 27.6268 107.552 27.6793 107.563 27.7359C107.639 28.0398 107.639 28.0398 101.181 32.8012C101.117 32.877 101.026 32.9253 100.927 32.9363ZM94.2496 25.3383L100.961 32.033C103.021 30.5049 105.841 28.4113 106.668 27.8119C106.499 27.5248 106.238 27.0605 105.824 26.3091C104.575 24.0888 102.498 20.3995 101.485 18.9053C100.911 18.061 99.2221 17.7233 97.1875 18.0104C95.3556 18.2721 93.7431 19.0066 93.5151 19.6988C93.0593 21.0074 93.8697 24.1479 94.2496 25.3636V25.3383Z" fill="#2D3748"/>
<path d="M164.987 143.074C164.987 143.074 167.241 147.456 175.776 152.462C184.312 157.468 198.571 163.04 200.884 165.674C203.197 168.308 204.362 179.916 204.362 179.916C204.362 179.916 209.74 174.766 209.883 172.757C210.027 170.748 206.937 160.17 206.937 160.17L175.886 132.792L164.987 143.074Z" fill="white"/>
<path d="M204.362 180.305C204.317 180.313 204.272 180.313 204.227 180.305C204.16 180.279 204.1 180.236 204.056 180.179C204.011 180.123 203.983 180.055 203.974 179.984C203.974 179.866 202.758 168.46 200.597 165.944C199.373 164.534 194.172 162.061 188.676 159.452C184.303 157.375 179.348 155.02 175.591 152.817C167.056 147.819 164.742 143.462 164.616 143.277C164.579 143.202 164.567 143.117 164.583 143.035C164.598 142.953 164.639 142.878 164.7 142.821L175.616 132.496C175.688 132.431 175.781 132.395 175.878 132.395C175.975 132.395 176.068 132.431 176.14 132.496L207.19 159.883C207.247 159.928 207.289 159.99 207.308 160.06C207.435 160.499 210.424 170.731 210.272 172.782C210.12 174.834 205.206 179.654 204.624 180.195C204.554 180.263 204.46 180.302 204.362 180.305ZM165.477 143.159C166.093 144.138 168.786 147.928 175.971 152.133C179.702 154.319 184.641 156.666 188.997 158.735C194.814 161.495 199.845 163.884 201.171 165.429C203.172 167.742 204.337 176.404 204.658 179.097C206.346 177.409 209.402 174.091 209.503 172.74C209.613 171.17 207.477 163.403 206.599 160.398L175.895 133.34L165.477 143.159Z" fill="#2D3748"/>
<path d="M205.181 158.616C204.995 159.089 208.6 169.169 207.908 171.964C207.216 174.758 204.168 178.279 204.168 178.279C204.168 178.279 202.328 182.297 203.999 182.829C205.671 183.361 214.18 173.095 213.657 171.204C213.134 169.313 210.643 165.556 210.643 165.556L215.481 168.646L216.181 166.797C216.181 166.797 212.264 162.39 209.875 160.887C208.396 159.965 206.822 159.204 205.181 158.616Z" fill="#2D3748"/>
<path d="M204.134 183.226C204.051 183.226 203.968 183.212 203.889 183.183C203.712 183.131 203.548 183.039 203.411 182.914C203.274 182.79 203.166 182.637 203.096 182.466C202.496 181.115 203.687 178.422 203.822 178.126C203.836 178.093 203.856 178.061 203.881 178.034C203.881 178.034 206.878 174.547 207.545 171.871C207.992 170.056 206.447 164.703 205.527 161.504C204.818 159.055 204.742 158.718 204.826 158.481C204.862 158.393 204.93 158.322 205.016 158.281C205.102 158.241 205.2 158.234 205.291 158.262C206.963 158.852 208.566 159.625 210.069 160.567C212.475 162.086 216.299 166.366 216.46 166.544C216.505 166.595 216.535 166.657 216.547 166.724C216.559 166.791 216.552 166.86 216.527 166.924L215.827 168.781C215.807 168.832 215.775 168.879 215.735 168.917C215.695 168.955 215.647 168.983 215.594 169C215.542 169.017 215.486 169.022 215.431 169.015C215.377 169.008 215.324 168.988 215.278 168.958L211.85 166.772C212.732 168.133 213.46 169.589 214.02 171.111C214.484 172.799 209.74 178.709 207.097 181.242C205.409 182.888 204.59 183.226 204.134 183.226ZM204.48 178.481C204.134 179.258 203.391 181.292 203.771 182.162C203.8 182.236 203.846 182.302 203.904 182.356C203.963 182.411 204.033 182.451 204.109 182.474C204.244 182.525 204.953 182.288 206.582 180.718C209.816 177.603 213.581 172.327 213.336 171.305C212.83 169.498 210.39 165.801 210.364 165.759C210.317 165.687 210.296 165.601 210.304 165.516C210.313 165.431 210.351 165.351 210.411 165.29C210.472 165.23 210.552 165.192 210.637 165.183C210.722 165.175 210.808 165.196 210.879 165.244L215.329 168.089L215.784 166.873C215.05 166.029 211.766 162.5 209.706 161.2C208.429 160.406 207.081 159.733 205.679 159.19C205.814 159.705 206.042 160.507 206.27 161.301C207.275 164.779 208.803 170.039 208.296 172.056C207.57 174.766 204.843 178.084 204.48 178.481Z" fill="#2D3748"/>
<path d="M130.053 148.536C130.053 148.536 143.924 191.381 143.924 193.044C143.924 194.707 136.993 204.019 136.993 204.019C136.993 204.019 145.435 204.686 148.077 202.195C150.72 199.705 153.557 192.065 153.557 192.065L146.583 139.588L130.053 148.536Z" fill="white"/>
<path d="M139.466 204.466C138.082 204.466 137.077 204.39 136.934 204.382C136.865 204.375 136.799 204.351 136.743 204.311C136.687 204.271 136.642 204.217 136.613 204.154C136.584 204.092 136.573 204.022 136.58 203.954C136.588 203.886 136.613 203.821 136.655 203.766C139.306 200.211 143.51 194.15 143.51 193.036C143.51 191.752 135.211 165.792 129.665 148.646C129.637 148.56 129.64 148.467 129.674 148.384C129.708 148.3 129.77 148.232 129.851 148.19L146.397 139.25C146.453 139.223 146.513 139.209 146.575 139.209C146.636 139.209 146.697 139.223 146.752 139.25C146.809 139.278 146.858 139.319 146.895 139.371C146.932 139.422 146.955 139.482 146.963 139.545L153.936 192.022C153.953 192.083 153.953 192.147 153.936 192.208C153.827 192.521 151.058 199.958 148.364 202.482C146.507 204.162 142.227 204.466 139.466 204.466ZM137.727 203.622C139.779 203.715 145.739 203.799 147.807 201.858C150.222 199.604 152.83 192.824 153.16 191.963L146.271 140.145L130.517 148.688C132.341 154.311 144.304 191.372 144.304 193.01C144.304 194.648 139.483 201.267 137.727 203.647V203.622Z" fill="#2D3748"/>
<path d="M153.388 190.748C153.388 190.748 148.88 201.106 146.583 202.389C144.287 203.673 137.575 203.175 137.575 203.175C137.575 203.175 133.042 205.049 133.878 206.551C134.713 208.054 146.828 208.13 149.572 206.222C151.332 204.856 152.657 203.009 153.388 200.904L153.97 206.72L156.207 206.796C156.207 206.796 157.626 198.498 156.874 196.007C156.123 193.517 153.388 190.748 153.388 190.748Z" fill="#2D3748"/>
<path d="M140.623 208.054C138.802 208.088 136.983 207.933 135.195 207.59C134.274 207.379 133.751 207.109 133.506 206.746C133.422 206.596 133.373 206.43 133.361 206.26C133.35 206.089 133.376 205.917 133.439 205.758C133.937 204.323 137.035 202.997 137.39 202.854C137.445 202.838 137.503 202.838 137.558 202.854C137.626 202.854 144.177 203.335 146.355 202.119C148.153 201.115 151.767 193.5 152.999 190.646C153.025 190.59 153.064 190.541 153.112 190.503C153.161 190.465 153.217 190.439 153.278 190.427C153.338 190.417 153.399 190.422 153.456 190.441C153.514 190.46 153.565 190.493 153.607 190.537C153.725 190.646 156.427 193.39 157.187 195.94C157.947 198.489 156.596 206.56 156.537 206.915C156.52 207.003 156.473 207.082 156.403 207.137C156.334 207.193 156.246 207.222 156.157 207.219L153.911 207.143C153.821 207.139 153.736 207.103 153.67 207.04C153.605 206.978 153.565 206.895 153.557 206.805L153.118 202.457C152.345 204.086 151.186 205.5 149.741 206.577C148.289 207.582 144.253 208.054 140.623 208.054ZM137.634 203.58C136.419 204.095 134.469 205.176 134.182 206.011C134.154 206.071 134.14 206.136 134.14 206.201C134.14 206.267 134.154 206.332 134.182 206.391C134.182 206.391 134.333 206.628 135.347 206.864C138.673 207.641 147.166 207.455 149.335 205.927C151.027 204.609 152.305 202.834 153.016 200.811C153.041 200.728 153.094 200.656 153.166 200.608C153.238 200.56 153.325 200.539 153.411 200.548C153.497 200.557 153.577 200.596 153.638 200.658C153.698 200.72 153.735 200.801 153.742 200.887L154.291 206.374L155.878 206.433C156.123 204.888 157.136 198.236 156.503 196.134C155.81 194.385 154.784 192.788 153.481 191.432C152.527 193.584 148.854 201.562 146.727 202.744C144.506 204.002 138.479 203.631 137.634 203.58Z" fill="#2D3748"/>
<path d="M178.309 52.3535C178.738 53.6256 178.889 54.9749 178.752 56.3104C178.616 57.6458 178.194 58.9364 177.516 60.095C175.033 64.4452 171.055 67.7454 166.321 69.3815C162.83 70.6188 159.103 71.0461 155.422 70.631C150.583 70.0076 146.118 67.7002 142.81 64.1136C140.524 61.7538 139.118 58.6814 138.825 55.4096C138.664 52.1509 140.201 48.7233 143.046 47.153C144.405 46.4101 146.161 45.9289 146.668 44.4599C147.09 43.2274 146.372 41.9273 146.296 40.6018C146.195 38.829 147.292 37.2249 148.533 35.9164C151.421 32.9025 154.646 31.3829 158.96 31.9654C162.902 32.4888 166.262 35.1059 168.921 37.9256C170.095 39.1666 171.311 40.4583 171.724 42.1468C171.927 42.991 171.918 43.8352 172.146 44.595C172.932 47.4316 176.148 48.8162 177.735 51.2897C177.958 51.6262 178.151 51.9822 178.309 52.3535Z" fill="white"/>
<path d="M158.107 71.1966C157.192 71.2003 156.279 71.1439 155.372 71.0278C150.452 70.3609 145.92 67.9923 142.565 64.333C140.214 61.9076 138.769 58.7483 138.47 55.3842C138.354 53.6812 138.705 51.9788 139.486 50.461C140.267 48.9433 141.449 47.668 142.902 46.7731C143.215 46.6043 143.535 46.4523 143.865 46.2919C144.971 45.7685 146.001 45.2788 146.347 44.2995C146.514 43.5588 146.467 42.7858 146.212 42.0708C146.084 41.5838 146 41.0866 145.958 40.5849C145.866 38.9978 146.651 37.3178 148.297 35.604C151.488 32.2777 154.916 30.986 159.052 31.5348C162.48 31.9991 165.806 33.9831 169.251 37.6217C170.331 38.7698 171.69 40.205 172.138 41.9948C172.229 42.3957 172.297 42.8016 172.341 43.2105C172.385 43.6231 172.459 44.0321 172.56 44.4346C172.991 45.988 174.248 47.0939 175.515 48.2589C176.499 49.0594 177.368 49.9912 178.098 51.028C178.336 51.403 178.539 51.7986 178.706 52.2099C179.152 53.537 179.308 54.9446 179.162 56.3372C179.017 57.7298 178.573 59.0748 177.862 60.2807C175.349 64.7325 171.291 68.1086 166.456 69.7698C163.769 70.6957 160.949 71.1775 158.107 71.1966ZM157.178 32.1849C154.038 32.1849 151.404 33.4428 148.82 36.1358C147.326 37.6892 146.608 39.1751 146.693 40.5427C146.733 40.9988 146.812 41.4507 146.929 41.8935C147.227 42.7469 147.265 43.6693 147.039 44.5443C146.592 45.836 145.351 46.427 144.169 46.9926C143.848 47.1446 143.535 47.2881 143.24 47.4485C141.905 48.2656 140.821 49.4343 140.106 50.8266C139.391 52.2189 139.074 53.7811 139.188 55.342C139.48 58.5171 140.85 61.4965 143.071 63.7843C146.316 67.3126 150.696 69.5919 155.448 70.2257C159.077 70.6487 162.754 70.2417 166.203 69.0354C170.843 67.4082 174.74 64.1618 177.178 59.8924C177.832 58.7851 178.24 57.5499 178.374 56.2708C178.508 54.9918 178.365 53.6989 177.955 52.4801C177.807 52.1127 177.626 51.7595 177.414 51.4248C176.718 50.4502 175.895 49.5728 174.966 48.8161C173.641 47.6258 172.273 46.3932 171.783 44.595C171.668 44.1547 171.589 43.7058 171.547 43.2527C171.504 42.8862 171.439 42.5225 171.353 42.1636C170.956 40.568 169.732 39.2764 168.651 38.1282C165.35 34.6331 162.168 32.7167 158.917 32.2862C158.341 32.2119 157.76 32.178 157.178 32.1849Z" fill="#2D3748"/>
<path d="M170.964 58.5332L216.418 28.521L225.341 44.2489L180.167 77.4439C180.167 77.4439 179.685 85.5063 177.634 105.911C176.41 118.169 205.493 121.538 219.153 142.728C219.153 142.728 174.62 167.81 143.839 160.93C116.183 154.75 119.019 156.058 114.351 153.728L136.655 104.636C136.655 104.636 137.921 78.533 137.415 75.384L93.9118 34.5656L107.47 21.421L147.9 56.9377L170.964 58.5332Z" fill="#006CE7"/>
<path d="M153.151 80.3228C153.151 80.3228 151.969 62.3323 153.295 58.9554C153.616 58.001 154.124 57.12 154.789 56.3636C155.775 55.5217 156.956 54.9411 158.225 54.6752C159.711 54.2446 161.357 53.8816 162.775 54.5232C163.416 54.8571 163.97 55.3365 164.392 55.9229C164.814 56.5093 165.093 57.1865 165.207 57.9001C165.425 59.3302 165.368 60.7887 165.038 62.1972C163.924 68.1068 153.151 80.3228 153.151 80.3228Z" fill="#2D3748"/>
<path d="M153.151 80.6943H153.033C152.963 80.6709 152.901 80.627 152.856 80.5684C152.811 80.5097 152.784 80.4389 152.78 80.365C152.729 79.6305 151.606 62.2563 152.949 58.8372C153.278 57.6616 153.943 56.6075 154.862 55.8039C155.781 55.0002 156.915 54.4818 158.124 54.3122C159.736 53.8478 161.433 53.4679 162.927 54.1686C163.622 54.5255 164.224 55.0407 164.683 55.6728C165.142 56.3049 165.446 57.036 165.57 57.8073C165.802 59.2844 165.744 60.7926 165.401 62.2479C164.287 68.225 153.869 80.0864 153.43 80.5845C153.394 80.6211 153.35 80.6498 153.302 80.6687C153.254 80.6876 153.203 80.6963 153.151 80.6943ZM161.036 54.5232C160.115 54.5585 159.202 54.7234 158.326 55.0129C157.228 55.1474 156.194 55.6076 155.359 56.3343C154.524 57.061 153.926 58.0209 153.641 59.0905C152.527 61.9271 153.244 75.6964 153.464 79.3519C155.735 76.7011 163.738 67.0347 164.666 62.0622C164.986 60.7011 165.046 59.2919 164.844 57.9086C164.739 57.2564 164.483 56.6378 164.096 56.1026C163.709 55.5675 163.202 55.1306 162.615 54.8271C162.117 54.6126 161.578 54.5089 161.036 54.5232Z" fill="#2D3748"/>
<path d="M165.536 64.9579C165.893 66.7417 166.054 68.559 166.017 70.3778C166.04 76.9269 166.526 83.4662 167.469 89.947C168.457 96.4475 169.884 103.666 173.843 109.086C182.843 121.403 200.014 118.744 200.014 118.744L205.645 102.239C205.645 102.239 194.577 105.464 184.109 99.8245C182.126 98.6212 180.507 96.9027 179.424 94.852C175.65 88.4612 174.248 80.6352 172.898 73.4339C172.56 71.6357 171.741 64.5526 170.829 62.7966C169.908 61.039 168.575 59.5301 166.945 58.3983C165.315 57.2664 163.436 56.5453 161.467 56.2961C161.375 56.2744 161.278 56.2896 161.197 56.3383C161.16 56.3726 161.131 56.4146 161.112 56.4613C161.093 56.5079 161.085 56.5582 161.087 56.6085L160.792 59.1918C162.002 59.6789 163.07 60.4621 163.899 61.4695C164.728 62.4769 165.291 63.6764 165.536 64.9579Z" fill="white"/>
<path d="M196.156 119.36C190.474 119.36 179.93 118.06 173.531 109.314C169.63 103.978 168.128 96.8781 167.089 90.0061C166.138 83.509 165.65 76.9525 165.629 70.3862C165.667 68.5934 165.512 66.8016 165.165 65.0423C164.931 63.8192 164.394 62.6745 163.601 61.7139C162.809 60.7534 161.787 60.0079 160.631 59.5464C160.556 59.5104 160.494 59.4522 160.453 59.3797C160.412 59.3072 160.395 59.2239 160.403 59.1411L160.699 56.6085C160.705 56.5069 160.731 56.4076 160.776 56.3163C160.821 56.225 160.884 56.1435 160.96 56.0766C161.039 56.0215 161.129 55.9826 161.223 55.9623C161.317 55.942 161.414 55.9407 161.509 55.9584C163.542 56.2068 165.485 56.947 167.167 58.115C168.85 59.283 170.223 60.8436 171.167 62.6616C171.885 64.0292 172.518 68.3685 172.94 71.2305C173.075 72.176 173.193 72.9611 173.278 73.4086L173.387 73.9911C174.73 81.1417 176.114 88.5371 179.761 94.7C180.796 96.6982 182.366 98.3699 184.295 99.529C194.501 105.025 205.4 101.943 205.535 101.91C205.604 101.889 205.677 101.888 205.746 101.907C205.815 101.927 205.877 101.966 205.924 102.019C205.973 102.07 206.007 102.133 206.022 102.201C206.037 102.27 206.032 102.342 206.008 102.408L200.377 118.912C200.354 118.978 200.313 119.036 200.26 119.081C200.206 119.125 200.142 119.155 200.073 119.166C198.774 119.321 197.465 119.386 196.156 119.36ZM165.916 64.865C166.276 66.6797 166.437 68.5282 166.397 70.3778C166.434 76.9111 166.934 83.4335 167.891 89.8963C168.921 96.6502 170.424 103.657 174.198 108.858C182.404 120.086 197.709 118.651 199.769 118.397L205.037 102.779C202.42 103.37 192.889 105 183.932 100.162C181.894 98.9411 180.225 97.1906 179.103 95.0968C175.388 88.8157 173.987 81.3528 172.636 74.1346L172.526 73.5521C172.442 73.0962 172.324 72.3026 172.188 71.3487C171.8 68.6978 171.15 64.274 170.5 63.0161C169.605 61.3268 168.32 59.8751 166.752 58.7813C165.184 57.6875 163.378 56.9832 161.484 56.7267L161.222 58.9976C162.428 59.5265 163.487 60.3408 164.308 61.3704C165.128 62.4 165.686 63.6139 165.933 64.9072L165.916 64.865Z" fill="#2D3748"/>
<path d="M154.789 56.3636C154.789 56.3636 117.643 49.6098 92.6708 98.7438L106.263 109.195C106.263 109.195 115.549 60.8887 154.772 61.2939L154.789 56.3636Z" fill="white"/>
<path d="M106.263 109.584C106.176 109.585 106.092 109.555 106.027 109.499L92.4176 99.0562C92.345 99.0022 92.294 98.924 92.2739 98.8358C92.2538 98.7476 92.2658 98.6551 92.3078 98.575C99.4584 84.5101 112.308 66.182 132.94 58.7781C145.308 54.3375 154.747 55.9668 154.84 55.9837C154.929 55.9995 155.01 56.0462 155.069 56.1156C155.128 56.185 155.16 56.2728 155.161 56.3636V61.2939C155.16 61.3445 155.149 61.3945 155.129 61.4409C155.108 61.4873 155.079 61.5292 155.042 61.564C155.008 61.6014 154.966 61.6306 154.92 61.6496C154.873 61.6686 154.823 61.6768 154.772 61.6738H154.291C116.208 61.6738 106.736 108.79 106.643 109.271C106.629 109.336 106.599 109.396 106.557 109.446C106.514 109.496 106.459 109.535 106.398 109.558C106.355 109.576 106.309 109.584 106.263 109.584ZM93.1436 98.6087L106.01 108.495C107.956 100.185 111.143 92.2158 115.465 84.8563C122.058 73.8813 134.122 60.8633 154.299 60.8633H154.384V56.6422C152.695 56.4143 144.076 55.5363 133.16 59.4619C121.974 63.548 105.959 73.6112 93.1605 98.6341L93.1436 98.6087Z" fill="#2D3748"/>
<path d="M154.384 54.4725C153.54 58.4741 150.441 66.9586 158.419 65.6838C159.254 65.5075 160.056 65.2058 160.8 64.789C165.612 62.3829 166 59.5463 166.625 54.5738C166.895 52.4126 167.638 42.3663 167.638 42.3663C167.638 42.3663 156.993 34.2701 156.993 34.2617C156.933 34.076 153.936 36.1697 153.008 37.3431C150.036 41.0999 150.264 46.1906 150.298 50.7495C150.34 54.616 154.384 54.4725 154.384 54.4725Z" fill="white"/>
<path d="M156.917 66.1904C156.336 66.234 155.754 66.1542 155.206 65.9563C154.659 65.7584 154.16 65.4469 153.742 65.0422C151.91 63.0583 152.898 58.9891 153.616 56.0174C153.717 55.6038 153.81 55.1732 153.894 54.844C152.832 54.7755 151.823 54.3569 151.024 53.6536C150.645 53.2739 150.349 52.8198 150.154 52.32C149.959 51.8202 149.87 51.2854 149.893 50.7495V49.9812C149.85 45.6588 149.808 40.7538 152.695 37.1068C153.43 36.1781 156.469 33.7298 157.043 33.8734C157.109 33.8838 157.171 33.9131 157.22 33.9578L167.858 42.0624C167.91 42.0991 167.951 42.1489 167.978 42.2067C168.004 42.2644 168.015 42.3282 168.01 42.3916C168.01 42.8053 167.267 52.5223 166.997 54.616C166.38 59.6054 166 62.6193 160.969 65.1351C160.178 65.5735 159.323 65.8868 158.436 66.0637C157.933 66.1432 157.426 66.1855 156.917 66.1904ZM154.384 54.0842C154.441 54.0858 154.497 54.0995 154.548 54.1246C154.599 54.1497 154.644 54.1855 154.68 54.2295C154.716 54.2736 154.742 54.3248 154.757 54.3799C154.771 54.4349 154.773 54.4924 154.764 54.5485C154.662 55.0381 154.527 55.5953 154.384 56.2369C153.7 59.0398 152.771 62.881 154.325 64.561C155.085 65.4052 156.444 65.6501 158.352 65.3377C159.151 65.1754 159.919 64.8906 160.631 64.4935C165.291 62.1634 165.629 59.4281 166.245 54.5738C166.49 52.6236 167.132 44.0463 167.233 42.6027C159.88 36.997 157.634 35.2917 156.942 34.726C155.606 35.5289 154.385 36.5087 153.312 37.6386C150.585 41.0746 150.636 45.625 150.678 50.0234V50.7917C150.66 51.2246 150.731 51.6566 150.888 52.0605C151.045 52.4644 151.284 52.8315 151.589 53.1386C152.377 53.7796 153.369 54.1153 154.384 54.0842Z" fill="#2D3748"/>
<path d="M153.675 58.356C155.612 58.7783 157.637 58.4398 159.331 57.4105C160.024 56.9852 160.616 56.4134 161.065 55.7353C161.515 55.0572 161.81 54.2891 161.931 53.4848C161.931 53.4848 158.014 55.1142 154.401 54.4725L153.675 58.356Z" fill="#2D3748"/>
<path d="M155.414 58.9047C154.801 58.9059 154.19 58.8437 153.59 58.719C153.497 58.6968 153.417 58.6397 153.365 58.5595C153.313 58.4794 153.294 58.3823 153.312 58.2885L154.038 54.405C154.046 54.357 154.063 54.311 154.09 54.2699C154.116 54.2289 154.15 54.1935 154.19 54.1659C154.23 54.1383 154.276 54.1191 154.324 54.1095C154.371 54.0998 154.42 54.0998 154.468 54.1095C157.93 54.7174 161.754 53.1556 161.788 53.1387C161.843 53.1076 161.906 53.0913 161.969 53.0913C162.033 53.0913 162.095 53.1076 162.151 53.1387C162.201 53.1752 162.241 53.2237 162.267 53.2798C162.294 53.3358 162.306 53.3976 162.303 53.4595C162.182 54.3232 161.873 55.1496 161.395 55.8794C160.918 56.6092 160.285 57.2243 159.542 57.6806C158.322 58.4972 156.882 58.9241 155.414 58.9047ZM154.105 58.0605C155.834 58.3626 157.615 58.0234 159.111 57.1065C160.22 56.3936 161.044 55.3155 161.442 54.0589C159.281 54.8378 156.974 55.1261 154.688 54.9031L154.105 58.0605Z" fill="#2D3748"/>
<path d="M158.2 48.7318C157.643 48.7318 156.326 48.6473 155.853 47.8875C155.38 47.1277 157.423 44.671 158.732 43.3709C158.801 43.3018 158.895 43.2631 158.993 43.2631C159.091 43.2631 159.185 43.3018 159.255 43.3709C159.325 43.4419 159.364 43.5374 159.364 43.6368C159.364 43.7363 159.325 43.8318 159.255 43.9028C157.71 45.4393 156.427 47.1277 156.503 47.5161C156.765 47.9466 157.896 48.0311 158.394 47.9973C158.493 47.9948 158.589 48.03 158.663 48.0959C158.736 48.1618 158.782 48.2533 158.791 48.3519C158.795 48.4513 158.761 48.5485 158.695 48.6227C158.628 48.6969 158.535 48.7421 158.436 48.7486L158.2 48.7318Z" fill="#2D3748"/>
<path d="M157.66 51.7204C155.422 51.7204 153.911 49.3904 153.852 49.2891C153.826 49.248 153.807 49.2022 153.798 49.1541C153.789 49.106 153.79 49.0567 153.8 49.0088C153.811 48.961 153.83 48.9157 153.858 48.8754C153.885 48.8351 153.921 48.8007 153.962 48.7741C154.003 48.7475 154.049 48.7292 154.097 48.7203C154.145 48.7114 154.194 48.7121 154.242 48.7223C154.29 48.7325 154.335 48.752 154.376 48.7797C154.416 48.8074 154.45 48.8428 154.477 48.8838C154.477 48.8838 155.836 50.9691 157.66 50.9691C158.875 50.9691 160.066 50.0742 161.214 48.3013C161.269 48.22 161.353 48.1632 161.449 48.1427C161.545 48.1223 161.645 48.1398 161.729 48.1916C161.771 48.2181 161.808 48.2529 161.836 48.2938C161.865 48.3348 161.885 48.3811 161.895 48.4299C161.905 48.4788 161.905 48.5292 161.896 48.5782C161.886 48.6272 161.867 48.6737 161.839 48.715C160.547 50.7074 159.145 51.7204 157.66 51.7204Z" fill="#2D3748"/>
<path d="M163.265 42.6111C163.2 42.6109 163.136 42.5937 163.08 42.5611C163.024 42.5285 162.977 42.4817 162.944 42.4254C162.775 42.1383 162.176 41.311 161.653 41.311C161.416 41.311 161.18 41.5136 160.952 41.9019C160.895 41.9744 160.814 42.0238 160.724 42.0411C160.634 42.0584 160.54 42.0423 160.461 41.9959C160.382 41.9496 160.322 41.876 160.292 41.7888C160.263 41.7017 160.267 41.6069 160.302 41.522C160.419 41.2553 160.607 41.0256 160.845 40.8576C161.083 40.6895 161.362 40.5894 161.653 40.5681C162.699 40.5681 163.501 41.9019 163.594 42.0539C163.643 42.139 163.657 42.2401 163.631 42.3351C163.606 42.43 163.544 42.511 163.459 42.5604C163.4 42.594 163.333 42.6115 163.265 42.6111Z" fill="#2D3748"/>
<path d="M154.384 41.8008C154.316 41.7988 154.25 41.7815 154.19 41.7501C154.107 41.6964 154.048 41.6126 154.026 41.5165C154.004 41.4204 154.021 41.3195 154.072 41.2351C154.266 40.9034 154.526 40.6142 154.835 40.385C155.144 40.1559 155.496 39.9913 155.87 39.9012C156.841 39.7662 157.296 40.7961 157.398 41.3533C157.408 41.4011 157.408 41.4503 157.398 41.498C157.388 41.5458 157.369 41.5911 157.341 41.6313C157.314 41.6715 157.278 41.7057 157.237 41.7319C157.196 41.7581 157.15 41.7758 157.102 41.7839C157.005 41.8014 156.905 41.7803 156.823 41.7251C156.741 41.67 156.684 41.5851 156.663 41.4884C156.663 41.4884 156.478 40.5935 155.963 40.6442C155.432 40.7997 154.982 41.1533 154.705 41.6319C154.671 41.6857 154.623 41.7296 154.567 41.7592C154.511 41.7889 154.447 41.8032 154.384 41.8008Z" fill="#2D3748"/>
<path d="M137.719 102.382C137.619 102.383 137.522 102.344 137.45 102.275C137.378 102.206 137.335 102.111 137.331 102.011L136.326 70.8675C136.324 70.7659 136.361 70.6674 136.431 70.5933C136.5 70.5191 136.596 70.4751 136.697 70.4707C136.799 70.4684 136.897 70.506 136.972 70.5754C137.046 70.6449 137.09 70.7406 137.094 70.8421L138.099 102.028C138.101 102.129 138.063 102.228 137.994 102.302C137.925 102.376 137.829 102.42 137.727 102.425L137.719 102.382Z" fill="#2D3748"/>
<path d="M151.936 26.1234L150.247 33.9662C150.247 33.9662 152.974 32.2271 158.968 32.5902C166.44 33.0545 171.859 41.4714 171.859 41.4714L173.252 30.2854C173.252 30.2854 163.924 16.6427 151.936 26.1234Z" fill="#2D3748"/>
<path d="M171.885 41.8007C171.823 41.8016 171.761 41.7866 171.706 41.757C171.652 41.7275 171.606 41.6844 171.572 41.6318C171.522 41.5474 166.161 33.3668 158.968 32.9194C153.16 32.5648 150.526 34.2195 150.475 34.2364C150.413 34.2754 150.341 34.2961 150.268 34.2961C150.195 34.2961 150.123 34.2754 150.061 34.2364C149.999 34.1951 149.951 34.1357 149.924 34.0662C149.897 33.9967 149.892 33.9205 149.909 33.848L151.598 26.0136C151.621 25.929 151.668 25.8528 151.733 25.7941C155.194 23.0757 158.782 21.9698 162.387 22.5185C169.073 23.5316 173.438 29.7789 173.615 30.0406C173.666 30.1149 173.69 30.2042 173.683 30.2938L172.29 41.4883C172.28 41.5634 172.247 41.6336 172.195 41.6895C172.144 41.7453 172.077 41.7841 172.003 41.8007H171.885ZM157.347 32.1258C157.871 32.1258 158.433 32.1427 159.036 32.1765C165.3 32.5648 170.07 38.2718 171.657 40.4246L172.889 30.3445C172.273 29.5003 168.128 24.1394 162.244 23.2446C158.867 22.738 155.49 23.7595 152.265 26.2922L150.796 33.2486C152.882 32.4389 155.11 32.0571 157.347 32.1258Z" fill="#2D3748"/>
<path d="M153.084 32.9954C153.084 32.9954 142.016 28.0229 141.873 27.5501C141.645 26.7734 159.145 18.2636 160.792 17.8922C162.438 17.5207 183.088 30.792 183.265 31.2647C183.442 31.7375 183.898 32.3622 182.944 33.0545C182.311 33.5188 169.386 37.2165 169.386 37.2165L161.982 31.0368L153.084 32.9954Z" fill="#2D3748"/>
<path d="M169.386 37.588C169.3 37.5856 169.217 37.556 169.149 37.5036L161.847 31.442L153.16 33.3584C153.086 33.3835 153.006 33.3835 152.932 33.3584C141.712 28.293 141.577 27.8709 141.518 27.6852C141.499 27.5555 141.52 27.4232 141.577 27.3053C142.421 25.9039 159.601 17.7824 160.716 17.5545C161.02 17.4869 161.94 17.3097 172.763 23.9875C172.873 24.0466 183.358 30.5471 183.611 31.1465L183.67 31.2901C183.782 31.4586 183.858 31.6483 183.893 31.8475C183.928 32.0466 183.921 32.2509 183.874 32.4474C183.826 32.644 183.739 32.8286 183.616 32.9897C183.494 33.1508 183.34 33.285 183.164 33.3837C182.505 33.8649 171.657 36.9801 169.487 37.6049L169.386 37.588ZM161.982 30.6653C162.069 30.6668 162.153 30.6998 162.218 30.7582L169.504 36.8029C174.426 35.393 182.218 33.0967 182.767 32.7506C183.316 32.4044 183.231 32.0161 183.029 31.5771V31.4673C181.88 30.3952 162.725 18.2636 160.952 18.2636C159.449 18.5253 144.338 25.9039 142.396 27.491C143.645 28.2677 149.411 30.9355 153.126 32.6071L161.864 30.6738L161.982 30.6653Z" fill="#2D3748"/>
<path d="M96.8666 8.81665C96.8666 8.81665 97.2297 15.8997 94.4015 19.1331C91.5733 22.3665 82.3206 28.3436 82.3206 28.3436L88.112 34.5656C88.112 34.5656 98.2427 25.507 100.387 20.2137C101.743 16.7867 102.657 13.2008 103.105 9.54268C103.105 9.54268 99.8383 5.86185 96.8666 8.81665Z" fill="white"/>
<path d="M88.1119 34.9202C88.0579 34.9202 88.0045 34.909 87.955 34.8872C87.9056 34.8654 87.8613 34.8335 87.8249 34.7936L82.0419 28.6054C82.0028 28.5642 81.9733 28.5148 81.9558 28.4607C81.9383 28.4067 81.9331 28.3494 81.9406 28.293C81.949 28.2368 81.9691 28.1829 81.9996 28.1349C82.0301 28.0869 82.0705 28.0458 82.1179 28.0144C82.2023 27.9553 91.3538 22.0373 94.1144 18.8799C96.875 15.7225 96.4867 8.90113 96.4782 8.8336C96.4793 8.72379 96.5214 8.61836 96.5964 8.53811C96.9647 8.12852 97.4171 7.80332 97.9227 7.58476C98.4283 7.3662 98.9752 7.25943 99.5259 7.27177C101.011 7.43567 102.386 8.13495 103.392 9.23882C103.43 9.27777 103.458 9.32437 103.476 9.3754C103.493 9.42642 103.499 9.48065 103.494 9.5343C103.029 13.2248 102.107 16.8433 100.75 20.3066C98.5719 25.6168 88.7873 34.4221 88.3652 34.7936C88.3339 34.831 88.2953 34.8615 88.2517 34.8833C88.2082 34.9051 88.1606 34.9176 88.1119 34.9202ZM82.9199 28.4112L88.1288 33.9916C89.7751 32.4888 98.1245 24.7051 100.032 20.0449C101.344 16.7031 102.24 13.2128 102.7 9.6525C101.854 8.76285 100.727 8.19315 99.509 8.04002C99.092 8.03974 98.6791 8.12161 98.2938 8.28095C97.9085 8.44029 97.5583 8.67398 97.2633 8.96867C97.2633 10.1253 97.3731 16.3219 94.7307 19.3864C92.1558 22.2821 84.7266 27.2293 82.9199 28.4112Z" fill="#2D3748"/>
<path d="M96.816 26.4442C96.816 26.4442 94.6041 22.0204 91.5818 21.5645C91.5818 21.5645 95.0769 18.9305 95.3892 15.942C100.252 14.3633 100.59 17.1745 100.59 19.3189C100.59 19.302 98.6648 24.7473 96.816 26.4442Z" fill="#006CE7"/>
<path d="M81.2992 30.0321C80.9699 31.4251 82.0252 33.1895 82.9876 34.0422C84.6761 35.5365 88.7959 36.0346 89.0661 32.8687C89.1167 32.0435 88.9499 31.2194 88.5826 30.4787C88.2152 29.738 87.66 29.1067 86.9724 28.6476C85.1573 27.4488 82.2785 27.5163 81.3752 29.7451C81.3452 29.8394 81.3198 29.9352 81.2992 30.0321Z" fill="white"/>
<path d="M86.3053 35.5956C85.013 35.5864 83.7614 35.1435 82.7511 34.3377C81.6029 33.3247 80.5645 31.442 80.9275 29.9393C80.9516 29.8203 80.9884 29.7043 81.0373 29.5932C81.2168 29.1318 81.4996 28.7177 81.864 28.3826C82.2284 28.0475 82.6647 27.8002 83.1394 27.6599C83.8241 27.4783 84.5393 27.4423 85.2387 27.5543C85.9382 27.6663 86.6064 27.9237 87.2001 28.31C87.9417 28.8089 88.5404 29.4925 88.9372 30.2935C89.334 31.0944 89.5151 31.9849 89.4627 32.8772C89.4505 33.4034 89.284 33.9144 88.9838 34.3466C88.6836 34.7789 88.263 35.1134 87.7742 35.3086C87.3079 35.499 86.8089 35.5965 86.3053 35.5956ZM81.6704 30.1166C81.4003 31.2732 82.2867 32.9025 83.2576 33.7552C83.8411 34.2256 84.5297 34.548 85.2646 34.695C85.9996 34.842 86.7592 34.8092 87.4787 34.5994C87.8257 34.4599 88.125 34.2232 88.3406 33.9177C88.5563 33.6122 88.6791 33.2509 88.6944 32.8772C88.7441 32.1198 88.5931 31.3627 88.2566 30.6824C87.9201 30.002 87.4101 29.4224 86.778 29.0022C86.2853 28.6787 85.7302 28.462 85.1486 28.366C84.567 28.27 83.9717 28.297 83.4011 28.445C83.0417 28.5496 82.7099 28.7325 82.4296 28.9807C82.1493 29.2289 81.9275 29.5361 81.7802 29.8802L81.7042 30.1166H81.6704Z" fill="#2D3748"/>
<path d="M86.9048 35.2579C86.8098 35.2549 86.7192 35.2173 86.6502 35.152C86.5811 35.0867 86.5384 34.9984 86.5301 34.9037C86.5217 34.8091 86.5484 34.7147 86.605 34.6384C86.6616 34.562 86.7443 34.5091 86.8373 34.4896C87.1226 34.4043 87.3727 34.2293 87.5507 33.9905C87.7286 33.7517 87.8248 33.462 87.825 33.1642C87.7839 32.4784 87.5065 31.8281 87.0399 31.3238C86.5735 30.7602 85.9995 30.2953 85.3514 29.9561C85.0545 29.7864 84.7221 29.6881 84.3806 29.6691C84.2453 29.6618 84.1103 29.6871 83.9868 29.7429C83.8634 29.7987 83.7552 29.8835 83.6714 29.9899C83.5832 30.1578 83.5287 30.3414 83.511 30.5302C83.3992 30.899 83.3992 31.2927 83.511 31.6615C83.7525 32.0449 84.1105 32.3408 84.5325 32.5057C85.0475 32.7759 85.2586 32.759 85.3346 32.7252C85.4105 32.6914 85.4781 32.5395 85.5034 32.4213C85.5458 32.1509 85.5046 31.874 85.3852 31.6277C85.2652 31.2813 85.0134 30.9961 84.6845 30.8341C84.5899 30.7965 84.5139 30.7231 84.4729 30.63C84.4318 30.5368 84.429 30.4313 84.465 30.336C84.4819 30.2888 84.5081 30.2453 84.542 30.2082C84.5758 30.1711 84.6167 30.1411 84.6623 30.1199C84.7078 30.0987 84.7571 30.0867 84.8073 30.0847C84.8575 30.0827 84.9075 30.0906 84.9546 30.1081C85.2196 30.2228 85.4582 30.3906 85.6556 30.6011C85.8531 30.8117 86.0053 31.0605 86.1028 31.3322C86.2812 31.729 86.3343 32.1708 86.2548 32.5986C86.2286 32.7766 86.1606 32.9459 86.0565 33.0927C85.9523 33.2394 85.8148 33.3594 85.6554 33.4428C85.4056 33.5154 85.1429 33.5318 84.886 33.4909C84.6291 33.4501 84.3844 33.3529 84.1695 33.2064C83.6095 32.9667 83.1396 32.5559 82.8272 32.0329C82.6256 31.5252 82.5901 30.9666 82.7259 30.4374C82.7528 30.1395 82.845 29.8513 82.996 29.5931C83.1533 29.3807 83.3582 29.2082 83.5943 29.0894C83.8303 28.9707 84.091 28.909 84.3552 28.9093C84.8174 28.934 85.2679 29.0639 85.6722 29.2892C86.4244 29.6678 87.0909 30.1964 87.6308 30.8426C88.2279 31.4842 88.5702 32.3218 88.5933 33.198C88.5967 33.6752 88.4384 34.1395 88.144 34.5152C87.8496 34.8908 87.4366 35.1556 86.9723 35.2663L86.9048 35.2579Z" fill="#2D3748"/>
<path d="M103.671 21.7165C103.57 21.4717 101.392 16.5667 100.294 16.4654C99.1966 16.3641 95.2288 17.622 95.7691 18.0779C96.3094 18.5338 99.146 18.652 99.146 18.652C98.6534 19.4407 98.3922 20.3519 98.3922 21.2818C98.3922 22.2116 98.6534 23.1228 99.146 23.9115" fill="white"/>
<path d="M99.1039 24.2997C99.0401 24.2982 98.9776 24.2812 98.9218 24.2504C98.8659 24.2195 98.8183 24.1756 98.7831 24.1225C98.2926 23.3679 98.0068 22.4988 97.9535 21.6004C97.9002 20.702 98.0813 19.8053 98.4791 18.998C97.5252 18.9305 95.9971 18.7616 95.5159 18.3733C95.4274 18.3065 95.3642 18.2117 95.3366 18.1044C95.309 17.997 95.3187 17.8835 95.3639 17.7823C95.6932 16.9381 99.3572 16.0094 100.32 16.0939C101.772 16.2289 104.009 21.5391 104.026 21.5898C104.065 21.6849 104.065 21.7917 104.025 21.8867C103.985 21.9817 103.91 22.0571 103.815 22.0963C103.718 22.1326 103.612 22.1301 103.517 22.0891C103.422 22.0481 103.348 21.972 103.308 21.8768C102.81 20.6189 100.919 16.9212 100.252 16.8621C98.8907 16.9862 97.5618 17.3492 96.3264 17.9343C97.2447 18.1385 98.1804 18.2544 99.1208 18.2804C99.1894 18.2833 99.2561 18.3044 99.3139 18.3415C99.3717 18.3785 99.4187 18.4303 99.45 18.4915C99.4833 18.5508 99.5008 18.6176 99.5008 18.6856C99.5008 18.7536 99.4833 18.8205 99.45 18.8798C98.9942 19.6042 98.7524 20.4427 98.7524 21.2985C98.7524 22.1544 98.9942 22.9928 99.45 23.7172C99.4783 23.7592 99.4979 23.8064 99.5077 23.856C99.5174 23.9056 99.5172 23.9567 99.507 24.0062C99.4968 24.0558 99.4768 24.1028 99.4481 24.1445C99.4195 24.1862 99.3828 24.2218 99.3403 24.2491C99.2689 24.2907 99.1861 24.3084 99.1039 24.2997Z" fill="#2D3748"/>
<path d="M92.2235 18.196C91.9105 18.4151 91.6268 18.6733 91.3792 18.9643C91.1352 19.2813 90.9697 19.6516 90.8963 20.0448C90.823 20.4381 90.8438 20.8432 90.9571 21.2268C91.1956 21.9963 91.7259 22.6418 92.4345 23.025C92.6468 23.163 92.9006 23.2227 93.1521 23.1939C93.3109 23.1427 93.4575 23.0593 93.5827 22.949C94.3213 22.367 94.9601 21.6684 95.4737 20.8807C95.9257 20.2881 96.1341 19.5451 96.0563 18.8039C95.947 18.4196 95.7379 18.071 95.4502 17.7937C95.1625 17.5164 94.8065 17.3203 94.4185 17.2252C93.5236 16.9719 92.882 17.6811 92.2235 18.196Z" fill="white"/>
<path d="M92.9747 23.5907C92.7026 23.5791 92.438 23.4977 92.2065 23.3543C91.3983 22.9282 90.7914 22.1999 90.518 21.3282C90.3878 20.8856 90.3643 20.4184 90.4494 19.965C90.5345 19.5116 90.7258 19.0848 91.0077 18.7195C91.287 18.3973 91.6078 18.1134 91.9616 17.8753C92.0883 17.7908 92.2065 17.6895 92.3247 17.5967C92.5869 17.2995 92.9209 17.0745 93.2948 16.943C93.6687 16.8114 94.07 16.7778 94.4605 16.8453C94.9166 16.9578 95.3338 17.1913 95.6681 17.5211C96.0024 17.851 96.2415 18.265 96.3601 18.7195C96.4167 19.1358 96.3898 19.5592 96.2811 19.9651C96.1724 20.3709 95.984 20.751 95.7269 21.0833C95.1949 21.9073 94.5303 22.6376 93.7598 23.2446C93.5895 23.3927 93.3873 23.4996 93.1689 23.5569L92.9747 23.5907ZM92.4513 18.5253C92.1413 18.7221 91.8576 18.9576 91.6071 19.226C91.4029 19.4942 91.2652 19.8069 91.205 20.1385C91.1448 20.4701 91.164 20.8112 91.2609 21.134C91.4714 21.8052 91.9345 22.3683 92.5526 22.7042C92.6817 22.7988 92.8405 22.8437 93 22.8309C93.1039 22.7952 93.1989 22.7376 93.2786 22.662C93.9842 22.1119 94.5921 21.447 95.0768 20.695C95.4756 20.1879 95.6658 19.5478 95.6087 18.9052C95.514 18.5903 95.3388 18.3056 95.1005 18.0791C94.8621 17.8526 94.5688 17.6921 94.2495 17.6136C93.7767 17.47 93.4053 17.7486 92.8143 18.2214C92.6792 18.3227 92.5526 18.4325 92.4175 18.5253H92.4513Z" fill="#2D3748"/>
<path d="M111.261 26.4442L99.585 37.5035Z" fill="white"/>
<path d="M99.5851 37.8918C99.4803 37.8908 99.3801 37.8483 99.3065 37.7736C99.2338 37.7008 99.193 37.6022 99.193 37.4993C99.193 37.3964 99.2338 37.2977 99.3065 37.2249L110.982 26.1655C111.055 26.0928 111.154 26.052 111.257 26.052C111.359 26.052 111.458 26.0928 111.531 26.1655C111.567 26.2008 111.595 26.2429 111.614 26.2893C111.634 26.3357 111.644 26.3854 111.644 26.4357C111.644 26.4859 111.634 26.5357 111.614 26.582C111.595 26.6284 111.567 26.6705 111.531 26.7058L99.8468 37.7905C99.7748 37.855 99.6818 37.8911 99.5851 37.8918Z" fill="#2D3748"/>
<path d="M182.978 41.7753C182.879 41.7753 182.785 41.7362 182.715 41.6665C182.646 41.5969 182.606 41.5024 182.606 41.4039V32.1174C182.606 32.0189 182.646 31.9244 182.715 31.8547C182.785 31.785 182.879 31.7459 182.978 31.7459C183.077 31.7459 183.173 31.7847 183.244 31.8542C183.315 31.9236 183.356 32.0181 183.358 32.1174V41.4039C183.358 41.5024 183.319 41.5969 183.249 41.6665C183.179 41.7362 183.085 41.7753 182.986 41.7753H182.978Z" fill="#2D3748"/>
<path d="M183.155 40.5597C183.155 40.5597 181.467 44.7808 181.644 44.7808C181.821 44.7808 183.746 45.1523 183.746 45.1523L183.155 40.5597Z" fill="#2D3748"/>
<path d="M183.746 45.5406H183.67C182.826 45.3633 181.83 45.186 181.669 45.1775C181.61 45.19 181.548 45.1837 181.492 45.1595C181.436 45.1353 181.389 45.0944 181.357 45.0425C181.18 44.8314 181.129 44.7723 182.809 40.4583C182.839 40.3806 182.895 40.3155 182.967 40.274C183.039 40.2324 183.123 40.2171 183.206 40.2304C183.288 40.2395 183.364 40.2762 183.422 40.3345C183.481 40.3928 183.517 40.4692 183.527 40.5512L184.109 45.1353C184.117 45.1937 184.111 45.253 184.092 45.3087C184.073 45.3643 184.041 45.4148 183.999 45.4561C183.927 45.5121 183.838 45.5418 183.746 45.5406ZM182.1 44.4768C182.353 44.519 182.733 44.5866 183.307 44.7048L182.978 42.0961C182.598 43.067 182.243 43.9703 182.1 44.4515V44.4768Z" fill="#2D3748"/>
<path d="M165.756 45.6165C166.148 44.9769 166.775 44.5168 167.503 44.3352C168.231 44.1536 169.001 44.2651 169.648 44.6457C169.942 44.8211 170.183 45.0717 170.348 45.3717C170.56 45.8379 170.602 46.3637 170.466 46.8576C170.23 47.7921 169.662 48.6091 168.869 49.1571C168.075 49.7051 167.11 49.9469 166.152 49.8377" fill="white"/>
<path d="M166.642 50.2598C166.462 50.2724 166.282 50.2724 166.102 50.2598C166.05 50.2545 165.999 50.2388 165.953 50.2135C165.908 50.1882 165.867 50.1539 165.835 50.1127C165.803 50.0715 165.779 50.0242 165.766 49.9736C165.752 49.9231 165.749 49.8703 165.757 49.8185C165.764 49.7667 165.782 49.7169 165.809 49.6722C165.836 49.6274 165.872 49.5886 165.914 49.5581C165.957 49.5276 166.005 49.5059 166.056 49.4945C166.107 49.483 166.16 49.482 166.211 49.4915C167.071 49.5802 167.935 49.3584 168.646 48.866C169.356 48.3736 169.867 47.6433 170.086 46.8069C170.201 46.4014 170.171 45.9688 170.002 45.5828C169.867 45.3433 169.672 45.1427 169.436 45.0003C168.872 44.6828 168.208 44.5933 167.58 44.7503C166.952 44.9073 166.408 45.2989 166.06 45.8445C166.035 45.8887 166.002 45.9275 165.962 45.9587C165.922 45.9899 165.877 46.0129 165.828 46.0262C165.779 46.0396 165.728 46.0431 165.678 46.0365C165.628 46.03 165.58 46.0135 165.536 45.988C165.447 45.9382 165.381 45.8554 165.353 45.7574C165.324 45.6595 165.336 45.5543 165.384 45.4646C165.602 45.1006 165.891 44.784 166.233 44.5331C166.575 44.2823 166.964 44.1024 167.377 44.0041C167.786 43.8941 168.213 43.8688 168.633 43.9297C169.053 43.9907 169.455 44.1366 169.816 44.3586C170.165 44.5641 170.455 44.8546 170.661 45.2029C170.911 45.7504 170.965 46.3678 170.813 46.9504C170.576 47.8827 170.04 48.7116 169.286 49.3095C168.533 49.9074 167.604 50.2412 166.642 50.2598Z" fill="#2D3748"/>
<path d="M172.231 34.1013C172.17 34.1008 172.111 34.0878 172.055 34.0631C172 34.0384 171.951 34.0025 171.91 33.9578C171.842 33.8734 164.607 25.5155 158.74 25.9208C152.873 26.326 151.21 29.1626 151.193 29.1964C151.135 29.2874 151.044 29.3527 150.939 29.3789C150.834 29.4051 150.724 29.3902 150.63 29.3372C150.536 29.2842 150.465 29.1972 150.434 29.0941C150.402 28.991 150.41 28.8795 150.458 28.7827C150.534 28.6476 152.391 25.4987 158.681 25.0765C164.97 24.6544 172.239 33.0545 172.552 33.4091C172.603 33.4705 172.635 33.5451 172.646 33.6244C172.656 33.7036 172.644 33.7842 172.61 33.8567C172.577 33.9292 172.523 33.9907 172.456 34.034C172.389 34.0773 172.311 34.1007 172.231 34.1013Z" fill="white"/>
<path d="M255.556 28.3521L232.585 41.6993L216.426 13.8989L239.735 0.382812L255.556 28.3521Z" fill="white"/>
<path d="M232.585 42.0877C232.516 42.0879 232.449 42.0701 232.39 42.036C232.33 42.0019 232.281 41.9528 232.247 41.8935L216.088 14.0931C216.051 13.9981 216.051 13.8926 216.088 13.7976C216.101 13.7475 216.124 13.7005 216.156 13.6598C216.188 13.6191 216.228 13.5855 216.274 13.5613L239.592 0.0536296C239.678 0.00214043 239.781 -0.0130391 239.879 0.0114173C239.929 0.0241941 239.976 0.0473171 240.017 0.0793016C240.057 0.111286 240.091 0.151427 240.115 0.197148L255.936 28.1664C255.985 28.2538 255.997 28.357 255.97 28.4534C255.943 28.5498 255.879 28.6318 255.792 28.6814L232.779 42.037C232.72 42.0707 232.653 42.0881 232.585 42.0877ZM216.95 14.034L232.72 41.1759L255.033 28.2086L239.592 0.91474L216.95 14.034Z" fill="#2D3748"/>
<path d="M233.412 38.8796H233.302C233.196 38.8505 233.105 38.7808 233.049 38.6854L219.288 15.047C219.26 14.9996 219.241 14.9469 219.233 14.8921C219.225 14.8372 219.228 14.7814 219.243 14.7279C219.257 14.6743 219.282 14.6242 219.316 14.5804C219.349 14.5366 219.392 14.5001 219.44 14.473L238.351 3.49802C238.398 3.46884 238.451 3.44999 238.507 3.44272C238.562 3.43545 238.618 3.43991 238.672 3.4558C238.726 3.46829 238.778 3.492 238.823 3.52542C238.868 3.55885 238.905 3.60126 238.933 3.64998L252.686 27.2883C252.742 27.386 252.757 27.5017 252.728 27.6106C252.7 27.7194 252.63 27.8129 252.534 27.8709L233.623 38.8458C233.556 38.8733 233.484 38.8849 233.412 38.8796ZM220.234 14.9373L233.564 37.8749L251.749 27.3137L238.41 4.36757L220.234 14.9373Z" fill="#D1D3D4"/>
<path d="M227.19 17.2252C227.098 17.2243 227.009 17.1932 226.936 17.1368C226.863 17.0804 226.81 17.0017 226.787 16.9127C226.763 16.8237 226.768 16.7294 226.803 16.6441C226.838 16.5587 226.9 16.4871 226.979 16.4401L236.375 10.9779C236.423 10.9497 236.477 10.9312 236.532 10.9235C236.587 10.9159 236.644 10.9192 236.698 10.9333C236.752 10.9474 236.803 10.972 236.847 11.0058C236.892 11.0395 236.929 11.0817 236.958 11.1299C236.986 11.1781 237.004 11.2315 237.012 11.2868C237.02 11.3422 237.016 11.3985 237.002 11.4526C236.988 11.5067 236.964 11.5575 236.93 11.6021C236.896 11.6467 236.854 11.6841 236.806 11.7124L227.401 17.1746C227.336 17.2092 227.263 17.2266 227.19 17.2252Z" fill="#D1D3D4"/>
<path d="M221.078 29.7029C221.078 29.7029 221.804 26.326 221.922 25.6253C222.04 24.9245 224.792 22.147 225.248 22.6367C225.704 23.1263 223.771 26.6974 223.771 26.6974C224.278 27.127 224.646 27.6965 224.831 28.3348C225.016 28.973 225.008 29.6515 224.809 30.2854" fill="white"/>
<path d="M224.826 30.6737C224.79 30.6827 224.752 30.6827 224.716 30.6737C224.618 30.6444 224.535 30.5773 224.486 30.4871C224.437 30.397 224.426 30.291 224.455 30.1925C224.64 29.6259 224.653 29.0171 224.492 28.443C224.331 27.869 224.004 27.3555 223.551 26.9676C223.479 26.9135 223.428 26.8348 223.41 26.7461C223.391 26.6575 223.405 26.5651 223.45 26.4864C224.089 25.3839 224.591 24.2073 224.944 22.9828C223.881 23.6724 222.984 24.5893 222.319 25.6675L221.432 29.7535L220.672 29.5847C220.672 29.5847 221.407 26.2078 221.559 25.5071C222.314 24.1004 223.468 22.9488 224.877 22.1977C224.991 22.1515 225.116 22.1404 225.236 22.166C225.357 22.1916 225.467 22.2526 225.552 22.3412C225.704 22.5101 226.177 23.0081 224.269 26.5623C224.754 27.0464 225.097 27.6541 225.26 28.3194C225.424 28.9848 225.402 29.6822 225.198 30.336C225.184 30.4265 225.14 30.5096 225.072 30.5711C225.004 30.6326 224.917 30.6689 224.826 30.6737Z" fill="#2D3748"/>
<path d="M220.445 46.6212C220.376 46.6214 220.309 46.6036 220.25 46.5695C220.19 46.5354 220.141 46.4863 220.107 46.427L212.661 32.9194C212.629 32.8748 212.606 32.8239 212.595 32.77C212.584 32.7161 212.585 32.6604 212.597 32.6067C212.609 32.553 212.632 32.5025 212.665 32.4585C212.698 32.4145 212.74 32.3781 212.788 32.3515C212.837 32.325 212.89 32.309 212.945 32.3047C213 32.3003 213.055 32.3077 213.107 32.3262C213.158 32.3448 213.206 32.3742 213.245 32.4124C213.285 32.4506 213.316 32.4968 213.336 32.5479L220.782 46.0556C220.809 46.0994 220.826 46.1483 220.832 46.199C220.839 46.2498 220.835 46.3013 220.821 46.3505C220.806 46.3996 220.782 46.4453 220.749 46.4846C220.717 46.5239 220.676 46.5561 220.63 46.579C220.572 46.606 220.509 46.6204 220.445 46.6212Z" fill="#2D3748"/>
<path d="M106.212 102.416C106.131 102.419 106.051 102.395 105.984 102.349L95.5919 95.5189C95.4979 95.4583 95.4319 95.363 95.4081 95.2538C95.3844 95.1446 95.4049 95.0304 95.4652 94.9364C95.5274 94.8419 95.6242 94.7756 95.7347 94.7519C95.8453 94.7282 95.9608 94.749 96.0562 94.8097L106.449 101.64C106.542 101.703 106.606 101.8 106.628 101.911C106.65 102.021 106.628 102.136 106.567 102.23C106.527 102.287 106.474 102.334 106.412 102.366C106.35 102.398 106.282 102.416 106.212 102.416Z" fill="#D1D3D4"/>
<path d="M191.53 116.819C191.471 116.831 191.411 116.831 191.353 116.819C191.251 116.773 191.171 116.688 191.132 116.584C191.092 116.479 191.096 116.363 191.141 116.261L196.207 104.696C196.253 104.594 196.337 104.514 196.441 104.473C196.545 104.432 196.661 104.433 196.764 104.476C196.815 104.498 196.861 104.53 196.9 104.57C196.939 104.61 196.969 104.657 196.99 104.709C197.01 104.761 197.02 104.816 197.019 104.872C197.018 104.927 197.006 104.982 196.983 105.033L191.918 116.608C191.88 116.676 191.823 116.732 191.755 116.769C191.686 116.807 191.608 116.824 191.53 116.819Z" fill="#D1D3D4"/>
</svg>
