<svg viewBox="0 0 198 242" fill="none" xmlns="http://www.w3.org/2000/svg">
<path d="M61.5113 178.041C36.9445 191.553 38.2772 216.035 38.2772 216.035L176.043 235.955C176.043 235.955 173.338 223.232 140.029 200.783C111.578 181.641 76.9099 169.583 61.5113 178.041Z" fill="#006CE7"/>
<path d="M162.856 116.321C162.856 116.321 175.911 139.836 172.494 144.236C169.078 148.636 159.146 144.772 159.146 144.772" fill="white"/>
<path d="M167.371 146.86C164.489 146.816 161.637 146.268 158.944 145.241C158.832 145.193 158.743 145.103 158.696 144.99C158.649 144.878 158.647 144.752 158.691 144.638C158.735 144.524 158.821 144.432 158.932 144.381C159.042 144.329 159.169 144.323 159.284 144.362C159.387 144.359 168.927 148.046 172.089 143.956C174.745 140.543 166.002 123.021 162.411 116.561C162.377 116.504 162.356 116.44 162.348 116.374C162.34 116.308 162.346 116.242 162.365 116.178C162.385 116.115 162.417 116.056 162.46 116.005C162.503 115.955 162.556 115.914 162.616 115.885C162.725 115.825 162.854 115.812 162.974 115.847C163.093 115.882 163.194 115.963 163.254 116.072C164.604 118.501 176.368 139.991 172.852 144.508C171.593 146.151 169.547 146.791 167.371 146.86Z" fill="#2D3748"/>
<path d="M74.6246 95.1413C71.2224 117.245 87.1543 156.251 87.1543 156.251L87.9774 195.897C87.9774 195.897 91.6923 202.994 109.178 210.099C126.664 217.203 132.365 210.467 132.365 210.467L131.431 172.966C135.52 176.11 159.88 177.799 161.149 168.421C163.095 153.645 164.7 138.817 165.964 123.937C166.753 114.641 169.955 101.089 164.657 92.2491L74.6246 95.1413Z" fill="white"/>
<path d="M124.115 213.832C120.496 213.947 115.604 213.159 109.032 210.537C91.5556 203.442 87.7202 196.414 87.5602 196.127C87.5438 196.059 87.5416 195.988 87.5536 195.919L86.7324 156.33C86.3445 155.399 82.5625 145.889 79.2079 134.092C75.9489 122.632 72.4396 106.548 74.1973 95.0509C74.2137 94.9422 74.2675 94.8425 74.3496 94.7693C74.4317 94.6961 74.5368 94.6539 74.6468 94.65L164.68 91.7955C164.764 91.7923 164.847 91.8123 164.92 91.8533C164.993 91.8942 165.053 91.9546 165.093 92.0277C169.456 99.3125 168.158 109.852 167.114 118.27C166.858 120.306 166.617 122.228 166.465 123.997C165.208 138.779 163.635 153.732 161.66 168.48C161.341 170.914 159.599 172.809 156.48 174.096C149.284 177.069 136.329 176.056 131.948 173.818L132.874 210.451C132.871 210.565 132.831 210.676 132.761 210.766C132.616 210.95 130.23 213.638 124.115 213.832ZM88.4449 195.768C88.9524 196.601 93.3387 203.159 109.391 209.668C124.995 216.002 131.037 211.122 131.925 210.283L130.988 172.98C130.983 172.891 131.005 172.801 131.052 172.724C131.098 172.647 131.166 172.586 131.247 172.548C131.327 172.508 131.415 172.49 131.504 172.497C131.592 172.504 131.677 172.536 131.749 172.588C134.591 174.781 148.479 176.378 156.104 173.222C158.897 172.077 160.439 170.434 160.713 168.359C162.652 153.65 164.262 138.705 165.52 123.933C165.671 122.145 165.911 120.213 166.167 118.168C167.181 109.967 168.414 99.77 164.418 92.7565L75.035 95.5903C71.953 117.382 87.4285 155.676 87.5918 156.067C87.6035 156.123 87.6053 156.18 87.5972 156.237L88.4449 195.768Z" fill="#2D3748"/>
<path d="M162.022 116.847L94.886 118.975C94.761 118.979 94.6396 118.934 94.5484 118.848C94.4573 118.762 94.4038 118.644 94.3999 118.519C94.3959 118.394 94.4418 118.273 94.5273 118.182C94.6129 118.091 94.7311 118.037 94.8561 118.033L161.993 115.905C162.118 115.901 162.239 115.947 162.33 116.032C162.421 116.118 162.475 116.236 162.479 116.361C162.483 116.486 162.437 116.607 162.351 116.698C162.266 116.79 162.147 116.843 162.022 116.847Z" fill="#2D3748"/>
<path d="M156.552 115.03C157.463 115.001 158.134 112.856 158.051 110.238C157.968 107.621 157.162 105.522 156.252 105.551C155.341 105.58 154.67 107.725 154.753 110.343C154.836 112.96 155.642 115.059 156.552 115.03Z" fill="#2D3748"/>
<path d="M161.684 157.312C161.684 157.312 149.619 163.514 144.407 151.125Z" fill="white"/>
<path d="M155.447 159.34C153.932 159.401 152.42 159.17 150.992 158.66C147.92 157.541 145.549 155.06 143.969 151.337C143.931 151.224 143.937 151.102 143.985 150.993C144.034 150.884 144.122 150.798 144.231 150.752C144.341 150.705 144.464 150.702 144.576 150.743C144.688 150.783 144.78 150.864 144.835 150.97C146.313 154.479 148.49 156.778 151.314 157.801C156.19 159.58 161.417 156.953 161.463 156.923C161.576 156.867 161.705 156.858 161.825 156.896C161.944 156.935 162.043 157.018 162.102 157.129C162.131 157.184 162.148 157.245 162.154 157.307C162.159 157.369 162.152 157.432 162.132 157.491C162.113 157.551 162.082 157.606 162.042 157.653C162.001 157.7 161.952 157.739 161.896 157.767C159.874 158.72 157.68 159.254 155.447 159.34Z" fill="#2D3748"/>
<path d="M131.459 172.966C123.199 171.167 115.223 168.246 107.754 164.285C107.754 164.285 112.596 189.079 131.177 191.452L131.459 172.966Z" fill="#2D3748"/>
<path d="M131.192 191.914L131.117 191.916C112.422 189.538 107.341 164.619 107.295 164.375C107.278 164.287 107.286 164.195 107.319 164.112C107.352 164.028 107.408 163.956 107.48 163.903C107.553 163.85 107.639 163.819 107.729 163.814C107.819 163.808 107.908 163.828 107.987 163.872C115.413 167.809 123.339 170.718 131.549 172.519C131.657 172.54 131.755 172.599 131.825 172.684C131.895 172.77 131.933 172.878 131.931 172.988L131.65 191.465C131.648 191.532 131.633 191.598 131.606 191.658C131.579 191.719 131.54 191.774 131.491 191.819C131.404 191.883 131.299 191.916 131.192 191.914ZM108.453 165.187C109.598 169.763 115.211 188.553 130.716 190.891L130.981 173.339C123.157 171.584 115.588 168.845 108.453 165.187Z" fill="#2D3748"/>
<path d="M74.6249 95.1412L9.60225 49.7025C9.60225 49.7025 -9.45924 79.4804 15.2686 101.692C39.9965 123.904 74.6249 95.1412 74.6249 95.1412Z" fill="#2D3748"/>
<path d="M38.3927 110.504C34.12 110.71 29.8487 110.069 25.8252 108.616C21.8016 107.164 18.1054 104.929 14.9496 102.042C-9.77856 79.8207 9.0001 49.7499 9.18722 49.4044C9.25788 49.2981 9.36718 49.2236 9.4919 49.1966C9.55378 49.1823 9.61802 49.1814 9.68027 49.1941C9.74251 49.2068 9.8013 49.2327 9.85265 49.2701L74.8942 94.7083C74.9523 94.7505 75 94.8055 75.0337 94.869C75.0673 94.9325 75.086 95.0029 75.0882 95.0747C75.0905 95.1465 75.0763 95.2179 75.0468 95.2834C75.0173 95.3489 74.9731 95.4068 74.9178 95.4527C74.6805 95.7054 57.2945 109.905 38.3927 110.504ZM9.72742 50.3776C7.58069 54.0676 -6.97471 81.09 15.5782 101.343C38.1312 121.595 69.5626 98.4992 73.8617 95.1654L9.72742 50.3776Z" fill="#2D3748"/>
<path d="M87.1547 156.251C87.1547 156.251 98.6901 130.664 105.243 127.9C111.795 125.136 119.467 93.7196 119.467 93.7196L74.6249 95.1413C74.6249 95.1413 64.8577 124.436 87.1547 156.251Z" fill="#2D3748"/>
<path d="M87.1696 156.722C87.0917 156.726 87.0141 156.709 86.9439 156.676C86.8737 156.642 86.813 156.591 86.7673 156.527C64.5981 124.878 74.0826 95.2905 74.1864 94.9948C74.2148 94.9035 74.2707 94.8233 74.3466 94.7651C74.4224 94.707 74.5145 94.6738 74.61 94.6701L119.452 93.2485C119.526 93.2446 119.599 93.2586 119.666 93.2894C119.732 93.3201 119.791 93.3667 119.835 93.425C119.883 93.4791 119.916 93.5444 119.932 93.6149C119.947 93.6854 119.944 93.7586 119.924 93.8277C119.606 95.1206 112.1 125.513 105.407 128.329C99.0966 130.99 87.6812 156.197 87.5664 156.445C87.5322 156.522 87.4782 156.588 87.4102 156.636C87.3421 156.685 87.2623 156.714 87.179 156.722L87.1696 156.722ZM74.9791 95.6017C74.0433 98.81 66.9741 126.038 87.068 155.301C89.0713 150.955 98.9716 130.023 105.05 127.463C110.82 125.025 117.763 98.5652 118.87 94.2101L74.9791 95.6017Z" fill="#2D3748"/>
<path d="M114.964 126.017C115.195 122.293 113.367 118.786 111.584 115.503C110.337 112.885 108.699 110.472 106.726 108.347C104.653 106.319 101.778 104.911 98.9039 105.285C97.6385 105.501 96.4334 105.983 95.3684 106.7C94.3033 107.417 93.4025 108.351 92.7256 109.442C91.3848 111.639 90.5541 114.108 90.2948 116.669C89.6181 122.238 90.4192 127.888 92.6176 133.051C94.8161 138.213 98.3345 142.705 102.819 146.077" fill="white"/>
<path d="M102.834 146.548C102.729 146.554 102.625 146.524 102.539 146.463C97.9993 143.029 94.4375 138.466 92.208 133.228C89.9784 127.991 89.1589 122.261 89.8307 116.608C90.0925 113.975 90.9471 111.436 92.3306 109.181C93.0489 108.035 94.0011 107.054 95.1247 106.302C96.2484 105.549 97.5183 105.042 98.8513 104.815C100.371 104.694 101.898 104.919 103.318 105.472C104.739 106.024 106.016 106.891 107.055 108.007C109.063 110.167 110.731 112.62 112.001 115.282C113.644 118.305 115.678 122.07 115.427 126.049C115.424 126.111 115.409 126.171 115.383 126.227C115.356 126.283 115.319 126.333 115.272 126.374C115.226 126.415 115.172 126.446 115.114 126.466C115.055 126.486 114.993 126.494 114.932 126.489C114.808 126.481 114.692 126.425 114.61 126.332C114.527 126.239 114.485 126.118 114.492 125.994C114.723 122.28 112.749 118.645 111.176 115.724C109.941 113.151 108.331 110.777 106.397 108.678C105.452 107.671 104.295 106.885 103.01 106.378C101.725 105.871 100.344 105.655 98.9656 105.745C97.7675 105.956 96.6275 106.417 95.6202 107.099C94.6129 107.781 93.7611 108.669 93.1206 109.703C91.8109 111.836 91.0033 114.238 90.7589 116.729C90.1084 122.215 90.9053 127.776 93.0703 132.859C95.2353 137.941 98.6931 142.369 103.1 145.7C103.15 145.736 103.193 145.782 103.225 145.835C103.257 145.888 103.278 145.947 103.287 146.009C103.296 146.07 103.293 146.132 103.277 146.192C103.261 146.252 103.234 146.308 103.196 146.358C103.156 146.416 103.101 146.464 103.038 146.497C102.975 146.53 102.905 146.548 102.834 146.548Z" fill="#2D3748"/>
<path d="M168.459 129.706C164.822 129.822 161.778 123.957 161.537 116.362C161.296 108.768 163.934 102.714 167.599 102.597C171.265 102.481 174.271 108.347 174.512 115.951C174.753 123.555 172.086 129.591 168.459 129.706ZM167.629 103.54C164.623 103.635 162.262 109.492 162.479 116.333C162.696 123.173 165.423 128.859 168.429 128.764C171.435 128.669 173.786 122.812 173.57 115.981C173.353 109.15 170.626 103.445 167.629 103.54Z" fill="#2D3748"/>
<path d="M47.2064 49.0385C47.4874 48.0864 47.7615 47.2099 48.0626 46.2949C48.2173 45.8184 48.3908 45.3413 48.5649 44.883C48.6643 44.5962 48.8589 44.352 49.1164 44.1911C49.3738 44.0302 49.6786 43.9623 49.98 43.9987C50.7173 44.0508 51.448 44.1879 52.1865 44.2777C52.5769 44.3505 52.9724 44.3916 53.3694 44.4006C53.6646 44.3967 53.95 44.2948 54.1808 44.1107C54.994 43.2832 55.7684 42.4192 56.5424 41.5458C56.6699 41.3832 56.7556 41.1918 56.7919 40.9883C56.8282 40.7849 56.814 40.5757 56.7507 40.379C56.5341 39.4993 56.2896 38.6298 56.0825 37.7498C55.989 37.4071 55.9459 37.0525 55.9548 36.6974C55.9585 36.5684 55.9886 36.4415 56.0433 36.3245C56.098 36.2076 56.1761 36.1031 56.2728 36.0177C57.5998 35.0919 59.0587 34.3715 60.6005 33.8808C60.826 33.7976 61.0731 33.7931 61.3015 33.868C61.5299 33.943 61.7262 34.093 61.8586 34.2937C62.4482 35.039 63.0563 35.7743 63.6182 36.5393C63.8016 36.8313 64.0654 37.064 64.3778 37.2097C64.6903 37.3554 65.0382 37.4078 65.3797 37.3607C66.3196 37.2554 67.3178 37.2049 68.2868 37.127C68.4646 37.1116 68.6358 37.0529 68.7856 36.9561C68.9354 36.8593 69.0593 36.7273 69.1464 36.5716C69.4789 36.0517 69.7826 35.5139 70.1054 34.9849C70.4281 34.4559 70.6615 34.0806 70.9493 33.6376C71.0786 33.4122 71.2822 33.2386 71.5253 33.1466C71.7684 33.0546 72.0359 33.0499 72.2821 33.1332C73.6347 33.5525 74.9974 33.9903 76.3421 34.457C76.5965 34.5505 76.8112 34.7282 76.9507 34.9605C77.0901 35.1929 77.146 35.4659 77.1089 35.7344C77.0571 36.4811 76.9108 37.2215 76.8116 37.9603C76.8227 38.309 76.7304 38.6703 76.7132 39.0199C76.694 39.2475 76.7285 39.4764 76.8138 39.6883C76.8992 39.9002 77.033 40.0891 77.2046 40.2399C77.9325 40.8865 78.6695 41.5234 79.3698 42.1897C79.5741 42.3959 79.8309 42.5423 80.1125 42.6132C80.394 42.6841 80.6895 42.6767 80.9671 42.5918C81.9028 42.3546 82.8376 42.0892 83.8204 41.8505C84.1321 41.7337 84.4771 41.7427 84.7823 41.8756C85.0875 42.0085 85.3291 42.2549 85.4559 42.5627C86.0389 43.6949 86.603 44.8278 87.1488 45.98C87.2477 46.1328 87.3148 46.3039 87.3462 46.4831C87.3776 46.6624 87.3726 46.8461 87.3316 47.0234C87.2906 47.2006 87.2143 47.3679 87.1074 47.5151C87.0005 47.6623 86.8651 47.7866 86.7092 47.8804C86.2317 48.2917 85.7054 48.6479 85.2085 49.041C84.8588 49.3162 84.5097 49.6102 84.1801 49.9225C84.043 50.0405 83.9339 50.1876 83.8608 50.3531C83.7877 50.5185 83.7525 50.6983 83.7577 50.8791C83.7896 51.8873 83.8216 52.8955 83.9381 53.8916C83.9525 54.166 84.0389 54.4317 84.1886 54.6621C84.3383 54.8924 84.546 55.0793 84.7908 55.204L86.4697 56.094C86.8188 56.2864 87.1563 56.4993 87.4803 56.7316C87.7161 56.8747 87.8948 57.0954 87.9856 57.3558C88.0765 57.6163 88.0739 57.9002 87.9783 58.1589C87.5736 59.3791 87.1599 60.6089 86.7364 61.8297C86.6597 62.012 86.564 62.1857 86.451 62.3481C86.3486 62.548 86.186 62.7108 85.9863 62.8135C85.7865 62.9163 85.5596 62.9539 85.3373 62.921L82.7135 62.5703L82.5156 62.5766C82.1471 62.4921 81.7618 62.5204 81.4096 62.6577C81.0573 62.795 80.7545 63.035 80.5404 63.3466C80.0687 63.9369 79.5295 64.4822 79.01 65.0552C78.7738 65.3037 78.6097 65.6119 78.5356 65.9466C78.4614 66.2813 78.48 66.63 78.5892 66.955C78.8325 67.7867 79.0667 68.6282 79.2635 69.4803C79.3382 69.6423 79.3774 69.8184 79.3786 69.9968C79.3798 70.1752 79.3429 70.3517 79.2704 70.5147C79.1979 70.6777 79.0915 70.8234 78.9582 70.942C78.8249 71.0605 78.6678 71.1493 78.4975 71.2023C77.3376 71.805 76.1485 72.3804 74.9585 72.9274C74.6951 73.0836 74.3819 73.1329 74.0832 73.0651C73.7846 72.9974 73.5233 72.8178 73.353 72.5633C72.8633 71.9941 72.3724 71.3871 71.9667 70.7869C70.9826 69.4976 70.7435 69.392 69.0969 69.5196L67.2159 69.6924C66.9149 69.7042 66.6221 69.7937 66.3659 69.9522C66.1098 70.1108 65.8991 70.3329 65.7543 70.5971C65.3977 71.2498 65.0506 71.9022 64.6645 72.5181C64.4653 72.8622 64.2322 73.1855 63.9688 73.4834C63.8493 73.6221 63.692 73.7231 63.5161 73.7739C63.3401 73.8247 63.1532 73.8231 62.9781 73.7694L59.1639 72.4661C58.9882 72.3959 58.8208 72.3063 58.665 72.199C58.4668 72.097 58.3053 71.9359 58.2027 71.7381C58.1001 71.5403 58.0615 71.3154 58.0923 71.0947L58.4342 68.49C58.4258 68.2262 58.474 67.9606 58.4845 67.6961C58.5025 67.4802 58.4693 67.2631 58.3875 67.0625C58.3057 66.8618 58.1778 66.6833 58.014 66.5415C57.2968 65.9354 56.5891 65.329 55.8907 64.7223C55.6892 64.5381 55.4419 64.4113 55.1747 64.355C54.9075 64.2988 54.6301 64.3153 54.3714 64.4027C53.53 64.6368 52.6879 64.8522 51.8461 65.0769L51.7519 65.0799C50.6372 65.3228 50.2746 65.1928 49.7621 64.1998C49.2496 63.2068 48.663 61.9615 48.1348 60.7709C48.0494 60.6365 47.9929 60.4858 47.9688 60.3284C47.9447 60.171 47.9535 60.0103 47.9947 59.8565C48.036 59.7027 48.1087 59.5591 48.2083 59.4348C48.3079 59.3106 48.4322 59.2084 48.5734 59.1347C49.2357 58.6044 49.9077 58.0832 50.6092 57.5987C50.9503 57.3894 51.2224 57.0846 51.392 56.7221C51.5616 56.3597 51.6211 55.9554 51.5632 55.5594C51.4768 54.619 51.4208 53.7436 51.345 52.8405C51.3366 52.6519 51.2812 52.4685 51.1839 52.3068C51.0865 52.1452 50.9502 52.0105 50.7874 51.9149C50.0184 51.4583 49.2405 51.0208 48.4803 50.545C47.939 50.3014 47.5011 49.8743 47.2442 49.3391L47.2064 49.0385ZM76.1813 53.1849C76.1478 52.0492 75.8896 50.9313 75.4214 49.896C74.9533 48.8607 74.2846 47.9284 73.454 47.1531C72.6234 46.3778 71.6473 45.7748 70.5822 45.379C69.5171 44.9832 68.3842 44.8024 67.2488 44.8471C64.9981 44.984 62.8874 45.9856 61.3579 47.6425C59.8284 49.2993 58.9985 51.4833 59.0418 53.7377C59.1257 55.9978 60.0959 58.134 61.7424 59.6845C63.3889 61.235 65.5795 62.0751 67.8405 62.0232C68.973 62.005 70.0903 61.7602 71.1267 61.3033C72.163 60.8464 73.0974 60.1867 73.8748 59.363C74.6521 58.5393 75.2567 57.5683 75.6528 56.5072C76.049 55.4462 76.2287 54.3165 76.1813 53.1849Z" fill="white"/>
<path d="M63.3447 74.3237C63.1771 74.3251 63.0105 74.2985 62.8517 74.2451L61.7744 73.8831L58.9907 72.9526C58.8044 72.8823 58.6273 72.7897 58.4632 72.677C58.1736 72.5293 57.9364 72.2961 57.7839 72.009C57.6313 71.722 57.5708 71.3949 57.6106 71.0722L57.7535 69.9264C57.823 69.4432 57.8838 68.9791 57.9433 68.4773C57.9745 68.2264 57.9917 67.9739 57.9948 67.7211C58.0076 67.5757 57.9864 67.4294 57.933 67.2936C57.8796 67.1578 57.7954 67.0363 57.687 66.9385C57.0375 66.3838 56.4068 65.8284 55.7475 65.2645L55.5437 65.0823C55.4001 64.9511 55.2236 64.8613 55.033 64.8225C54.8424 64.7837 54.6449 64.7973 54.4614 64.862C53.8632 65.0319 53.2549 65.1832 52.6469 65.344L51.9267 65.5366L51.8042 65.5405C50.4645 65.8282 49.9197 65.6002 49.3058 64.384C48.8048 63.4567 48.2981 62.3504 47.6876 60.9455C47.4806 60.5838 47.4216 60.1561 47.5231 59.7519C47.6246 59.3478 47.8786 58.9986 48.232 58.7777C49.0046 58.159 49.6584 57.6572 50.2954 57.222C50.566 57.0586 50.7819 56.8184 50.9155 56.532C51.0492 56.2456 51.0947 55.9259 51.0462 55.6136C51.0283 55.0482 50.9538 54.4847 50.9076 53.9202C50.8968 53.581 50.8858 53.2323 50.875 52.8931C50.8731 52.7787 50.8418 52.6666 50.7841 52.5677C50.7265 52.4688 50.6445 52.3863 50.5459 52.3282L49.5851 51.7739L48.2105 50.9591C47.5789 50.6627 47.0741 50.1501 46.7875 49.5139C46.7761 49.4645 46.7744 49.4133 46.7828 49.3632L46.7723 49.0334C46.7617 48.9838 46.7601 48.9328 46.7675 48.8826L47.0066 48.0922L47.614 46.1299C47.7684 45.644 47.9422 45.1763 48.1252 44.6989C48.2518 44.3173 48.5025 43.9891 48.8373 43.7665C49.1721 43.5439 49.5718 43.4398 49.9727 43.4707C50.4738 43.5114 50.9665 43.5807 51.4595 43.6594L52.1983 43.7586L52.5016 43.8056C52.7642 43.8502 53.0299 43.8733 53.2962 43.8747C53.4718 43.8725 53.6433 43.8213 53.7914 43.7269C54.6505 42.8602 55.4519 41.9576 56.1347 41.1814C56.213 41.077 56.264 40.9547 56.283 40.8256C56.3019 40.6965 56.2883 40.5648 56.2433 40.4423C56.146 40.0492 56.0486 39.6561 55.9419 39.2634C55.8351 38.8706 55.6953 38.328 55.5749 37.8036C55.4737 37.4141 55.4261 37.0126 55.4333 36.6102C55.4453 36.41 55.4989 36.2145 55.5907 36.0362C55.6825 35.8579 55.8104 35.7007 55.9664 35.5746C57.3298 34.6219 58.8296 33.8811 60.4147 33.3774C60.7319 33.2697 61.0752 33.2666 61.3942 33.3686C61.7132 33.4705 61.9911 33.6721 62.1871 33.9437C62.3936 34.2107 62.6001 34.4777 62.8158 34.735C63.1991 35.2227 63.5825 35.7105 63.9472 36.2082C64.0817 36.4331 64.2801 36.6129 64.5171 36.7247C64.7542 36.8364 65.0191 36.8751 65.2782 36.8357C65.9189 36.8154 66.5479 36.72 67.1597 36.6817L68.1665 36.6027C68.272 36.5961 68.3739 36.5614 68.4616 36.5022C68.5492 36.4431 68.6195 36.3616 68.6651 36.2662C68.8629 35.9581 69.0512 35.6503 69.2383 35.3048L69.7671 34.4297C70.0001 34.045 70.2331 33.6603 70.4856 33.2939C70.6695 32.9818 70.9553 32.7427 71.295 32.6168C71.6346 32.4909 72.0073 32.486 72.3501 32.6028C73.9982 33.1165 75.2089 33.5214 76.429 33.9261C76.7802 34.052 77.078 34.2938 77.2733 34.6117C77.4686 34.9296 77.5497 35.3045 77.5032 35.6747C77.5196 36.1929 77.3944 36.7062 77.3251 37.1989C77.2858 37.4454 77.2464 37.6919 77.2165 37.9381C77.1866 38.1843 77.1344 38.6198 77.1168 38.9599C77.1007 39.1172 77.122 39.276 77.1792 39.4234C77.2363 39.5708 77.3276 39.7025 77.4455 39.8078L77.9304 40.2263C78.5031 40.7364 79.0755 41.237 79.6299 41.7665C79.776 41.9165 79.9612 42.0226 80.1644 42.0728C80.3677 42.1231 80.581 42.1154 80.7802 42.0507L82.146 41.6961C82.6385 41.561 83.1343 41.4321 83.6335 41.3094C84.0487 41.1696 84.5011 41.1895 84.9025 41.3651C85.3039 41.5407 85.6255 41.8594 85.8047 42.2592C86.3876 43.3915 86.9618 44.5429 87.4982 45.6954C87.753 46.0993 87.8378 46.5875 87.7342 47.0537C87.6306 47.5199 87.347 47.9262 86.9452 48.1842C86.6514 48.4387 86.3473 48.6653 86.0244 48.8925L85.4166 49.3551C85.0763 49.63 84.7363 49.9143 84.4061 50.2077C84.3177 50.2884 84.2484 50.3877 84.203 50.4984C84.1576 50.6091 84.1372 50.7285 84.1434 50.848L84.1628 51.4605C84.1882 52.2614 84.2133 53.0529 84.3047 53.8517C84.3143 54.0467 84.3765 54.2355 84.4846 54.3981C84.5927 54.5607 84.7427 54.6911 84.9187 54.7755L85.61 55.1591L86.5708 55.7135C86.935 55.9127 87.2883 56.1313 87.6291 56.3685C87.9444 56.5725 88.1817 56.877 88.3025 57.2326C88.4233 57.5882 88.4206 57.9742 88.2949 58.3281C87.8811 59.558 87.4294 60.7796 87.0439 62.0086C86.9698 62.2114 86.8714 62.4046 86.7509 62.5838C86.6044 62.873 86.3702 63.1085 86.0818 63.2565C85.7935 63.4046 85.4656 63.4577 85.1453 63.4081L82.6552 63.1098L82.429 63.117C82.1454 63.0486 81.8476 63.0691 81.576 63.1755C81.3044 63.282 81.0721 63.4693 80.9104 63.7122C80.5658 64.1476 80.1826 64.5558 79.8177 64.9447L79.3618 65.4402C79.1794 65.6312 79.053 65.8686 78.9963 66.1266C78.9396 66.3845 78.9548 66.6531 79.0403 66.9029C79.2736 67.7161 79.5181 68.5856 79.7249 69.4562C79.8101 69.6694 79.8517 69.8976 79.8472 70.1272C79.8426 70.3567 79.792 70.5831 79.6984 70.7927C79.6048 71.0024 79.47 71.1911 79.3021 71.3478C79.1342 71.5044 78.9366 71.6257 78.7209 71.7046C77.6443 72.2575 76.4741 72.8322 75.154 73.44C74.7984 73.6422 74.3801 73.7042 73.9811 73.6139C73.5821 73.5236 73.2313 73.2875 72.9974 72.9519C72.5955 72.4742 72.2119 71.977 71.8377 71.4795L71.5917 71.1572C70.706 69.9968 70.6106 69.9621 69.171 70.0738L67.2901 70.2466C67.0671 70.253 66.8497 70.318 66.6597 70.4349C66.4698 70.5519 66.3139 70.7167 66.2077 70.9129L65.8508 71.5561C65.6101 71.9976 65.3694 72.4392 65.1093 72.8624C64.8923 73.2096 64.6403 73.5337 64.3571 73.8295C64.2328 73.9786 64.0783 74.0998 63.9038 74.1849C63.7293 74.2701 63.5387 74.3174 63.3447 74.3237ZM54.8067 63.8512C55.3143 63.8359 55.8077 64.02 56.1812 64.3642L56.385 64.5463C57.0251 65.1014 57.6561 65.6662 58.3242 66.2109C58.5405 66.3997 58.7108 66.6353 58.8221 66.8998C58.9335 67.1644 58.983 67.4509 58.9668 67.7374C58.962 68.0187 58.9425 68.2995 58.9086 68.5787C58.8485 69.0617 58.7877 69.5258 58.7191 70.0373L58.5665 71.174C58.5465 71.3056 58.5699 71.4401 58.6332 71.5572C58.6964 71.6744 58.7961 71.7677 58.9172 71.8231C59.0451 71.9086 59.18 71.9832 59.3204 72.0461L62.1044 72.986L63.1817 73.348C63.2685 73.3797 63.3634 73.3814 63.4514 73.353C63.5394 73.3246 63.6153 73.2676 63.6672 73.1911C63.9102 72.9306 64.1256 72.6456 64.3099 72.3407C64.5606 71.9177 64.8019 71.4951 65.0334 71.0633L65.3997 70.4197C65.5833 70.085 65.8498 69.8032 66.1738 69.6013C66.4978 69.3994 66.8683 69.2843 67.2496 69.2669L69.1306 69.0941C70.9087 68.9529 71.301 69.1291 72.3741 70.5476L72.6296 70.8696C72.994 71.358 73.3585 71.8463 73.7504 72.3055C73.8009 72.3923 73.8688 72.4679 73.9497 72.5275C74.0307 72.587 74.123 72.6294 74.2209 72.6519C74.3188 72.6745 74.4204 72.6767 74.5192 72.6584C74.618 72.6402 74.7121 72.6019 74.7955 72.5459C76.1062 71.9384 77.2582 71.3831 78.3159 70.8308C78.9283 70.5096 79.0074 70.3279 78.8439 69.6351C78.6471 68.783 78.4029 67.923 78.1702 67.1286C78.0388 66.7246 78.0185 66.2926 78.1116 65.8781C78.2047 65.4635 78.4077 65.0817 78.6992 64.7727L79.1642 64.2674C79.5198 63.8789 79.885 63.4995 80.2114 63.0835C80.4799 62.7057 80.8538 62.4155 81.2864 62.2491C81.719 62.0827 82.1911 62.0476 82.6435 62.1481L82.8131 62.1427L85.437 62.4934C85.569 62.5164 85.705 62.4954 85.824 62.4337C85.943 62.372 86.0385 62.273 86.0958 62.1518C86.1857 62.0151 86.2633 61.8706 86.3274 61.72C86.754 60.4992 87.168 59.2788 87.5695 58.0587C87.6411 57.891 87.6478 57.7026 87.5883 57.5302C87.5288 57.3577 87.4074 57.2136 87.2475 57.1257C86.938 56.9078 86.6167 56.707 86.2853 56.5243C85.968 56.3362 85.642 56.1674 85.3251 55.9888L84.6146 55.5963C84.3043 55.4324 84.0411 55.1917 83.8502 54.8973C83.6592 54.6028 83.5468 54.2644 83.5238 53.9142C83.4981 53.1039 83.4256 52.3044 83.381 51.4947L83.3616 50.8822C83.3456 50.6246 83.3886 50.3668 83.4873 50.1283C83.586 49.8898 83.7377 49.6769 83.9311 49.5059C84.2708 49.1876 84.6264 48.8867 84.9966 48.6044C85.1988 48.4376 85.4108 48.28 85.6227 48.1224C85.8347 47.9647 86.2032 47.6889 86.4787 47.4538C86.5947 47.3898 86.6959 47.3021 86.7756 47.1963C86.8554 47.0906 86.912 46.9692 86.9417 46.8401C86.9715 46.711 86.9737 46.5771 86.9482 46.4471C86.9227 46.3171 86.8701 46.1939 86.7938 46.0856C86.2482 44.9428 85.6838 43.8005 85.1108 42.6868C85.0718 42.5808 85.0116 42.4839 84.9338 42.4021C84.856 42.3202 84.7623 42.2551 84.6584 42.2107C84.5546 42.1663 84.4428 42.1436 84.3299 42.1439C84.2169 42.1442 84.1053 42.1676 84.0017 42.2126L82.5328 42.5893L81.0748 43.0129C80.7215 43.1153 80.3471 43.121 79.9908 43.0295C79.6345 42.9379 79.3094 42.7524 79.0492 42.4923C78.5045 41.9719 77.9325 41.4807 77.3695 40.9798L76.8843 40.5519C76.6584 40.3565 76.4822 40.1102 76.3701 39.8333C76.258 39.5565 76.2133 39.2569 76.2396 38.9594C76.228 38.5919 76.3014 38.2312 76.3463 37.8619C76.3912 37.4926 76.4153 37.3598 76.4543 37.1039C76.5327 36.6015 76.6035 36.156 76.6351 35.6645C76.6648 35.5001 76.6361 35.3304 76.554 35.1849C76.4719 35.0394 76.3415 34.9271 76.1854 34.8676C75.0217 34.4612 73.7733 34.0574 72.1347 33.5435C71.9847 33.497 71.823 33.5064 71.6794 33.5699C71.5358 33.6334 71.42 33.7467 71.3534 33.8889C71.1103 34.255 70.8861 34.6206 70.6622 34.9955L70.1331 35.8612C69.9451 36.1784 69.748 36.5054 69.5505 36.8229C69.4275 37.0433 69.2515 37.2295 69.0384 37.3647C68.8253 37.4999 68.5818 37.5799 68.33 37.5973L67.3139 37.6767C66.6826 37.6967 66.0607 37.7164 65.432 37.8212C65.0102 37.8789 64.5807 37.8148 64.194 37.6366C63.8074 37.4583 63.4797 37.1733 63.2496 36.8151C62.8946 36.3265 62.513 35.8953 62.1382 35.379L61.4998 34.5786C61.4212 34.4552 61.3023 34.3628 61.1632 34.3173C61.0241 34.2719 60.8736 34.2761 60.7373 34.3292C59.2454 34.8081 57.8338 35.5078 56.5492 36.405C56.4834 36.5011 56.4446 36.6131 56.4369 36.7293C56.4304 37.0463 56.469 37.3627 56.5516 37.6689C56.6704 38.1461 56.7887 38.6046 56.9179 39.1098C57.0471 39.6151 57.1224 39.9051 57.2197 40.2981C57.3037 40.5678 57.3186 40.8543 57.2631 41.1313C57.2076 41.4082 57.0835 41.6668 56.9021 41.8834C56.2102 42.6693 55.3905 43.5913 54.5223 44.4678C54.2064 44.7294 53.8138 44.881 53.4041 44.8994C53.087 44.8991 52.7705 44.8712 52.4582 44.8162L52.1756 44.8251L51.4176 44.7171C50.9437 44.6472 50.4699 44.5774 49.9973 44.5452C49.7947 44.5241 49.5911 44.575 49.4222 44.6891C49.2534 44.8031 49.13 44.9729 49.0738 45.1687C48.8997 45.627 48.735 46.0849 48.5798 46.5426C48.3739 47.1905 48.1778 47.8475 47.9799 48.448L47.7573 49.1625L47.763 49.3415C47.9842 49.7394 48.3241 50.0584 48.7352 50.2539L50.1004 51.069L51.0615 51.6327C51.2909 51.7651 51.4833 51.9532 51.6207 52.1797C51.7581 52.4062 51.8362 52.6636 51.8477 52.9283L51.8805 53.9648C51.8982 54.5207 51.9629 55.0752 52.0182 55.6299C52.085 56.1108 52.0114 56.6007 51.8061 57.0407C51.6008 57.4806 51.2727 57.8518 50.8612 58.1095C50.2522 58.5344 49.6072 59.017 48.8531 59.6257C48.4024 59.989 48.3613 60.179 48.5753 60.6815C49.1946 62.0673 49.6901 63.1174 50.1731 64.0736C50.5848 64.8623 50.7191 64.9335 51.6463 64.7249L52.4416 64.5204C53.0401 64.36 53.6484 64.2086 54.2373 64.0391C54.419 63.9542 54.6101 63.8912 54.8067 63.8512ZM67.8837 62.4934C65.4957 62.5567 63.1795 61.6732 61.4402 60.0357C59.7009 58.3981 58.6795 56.1393 58.5989 53.7518C58.5613 52.5641 58.7607 51.3807 59.1854 50.2709C59.6101 49.1611 60.2517 48.147 61.0727 47.2878C62.6824 45.5728 64.8867 44.5379 67.2345 44.3949C68.4317 44.3406 69.6277 44.525 70.7531 44.9372C71.8784 45.3494 72.9105 45.9812 73.7895 46.7959C74.6684 47.6107 75.3766 48.592 75.8728 49.6828C76.3691 50.7737 76.6435 51.9524 76.6801 53.1503C76.7498 54.2965 76.5888 55.4452 76.2068 56.5282C75.8247 57.6112 75.2294 58.6065 74.4559 59.4554C73.6297 60.3882 72.6191 61.1398 71.488 61.6626C70.3568 62.1855 69.1296 62.4684 67.8837 62.4934ZM67.2267 45.3383C65.1274 45.4707 63.1602 46.4082 61.7352 47.9553C61.0005 48.7244 60.4265 49.6322 60.0466 50.6257C59.6668 51.6191 59.4887 52.6783 59.5229 53.7414C59.5932 55.8798 60.5069 57.9036 62.0644 59.3705C63.622 60.8375 65.6968 61.6284 67.8356 61.5706C68.9481 61.5451 70.0433 61.29 71.0526 60.8214C72.0619 60.3528 72.9635 59.6808 73.701 58.8474C74.3918 58.0954 74.9242 57.2121 75.2664 56.25C75.6086 55.288 75.7536 54.2669 75.6928 53.2476C75.6675 52.172 75.4284 51.1123 74.9894 50.13C74.5504 49.1478 73.9203 48.2628 73.1359 47.5265C72.3514 46.7903 71.4282 46.2175 70.4202 45.8416C69.4121 45.4658 68.3394 45.2942 67.2644 45.3371L67.2267 45.3383Z" fill="#2D3748"/>
<path d="M116.8 76.8357C115.406 76.8799 113.971 76.8594 112.607 76.9686C111.622 77.1445 110.608 76.928 109.781 76.3654C108.954 75.8029 108.38 74.939 108.182 73.9586C107.175 70.7544 105.471 67.8128 103.193 65.3449C99.9704 61.6554 98.3333 56.8435 98.6373 51.9542C99.2597 41.8326 107.15 35.461 117.547 36.1406C132.887 37.1257 137.742 52.8272 130.09 64.0394C128.026 67.0759 126.045 70.0344 125.246 73.6817C124.801 75.7143 123.331 76.6664 121.227 76.6388C119.738 76.686 118.27 76.7891 116.8 76.8357Z" fill="white"/>
<path d="M112.293 77.4691C111.25 77.5618 110.21 77.2685 109.37 76.6448C108.529 76.0212 107.947 75.1106 107.734 74.086C106.725 70.9537 105.047 68.0782 102.816 65.6587C99.5157 61.8637 97.8382 56.9239 98.1453 51.9038C98.2276 49.6403 98.7623 47.4163 99.7178 45.3627C100.673 43.3091 102.03 41.4676 103.708 39.9467C105.619 38.3516 107.827 37.1506 110.205 36.4131C112.582 35.6757 115.082 35.4162 117.56 35.6498C124.29 36.0872 129.688 39.4626 132.351 44.9148C135.266 50.8778 134.54 58.3145 130.457 64.3202C128.512 67.2115 126.492 70.1617 125.684 73.8093C125.205 75.975 123.611 77.148 121.205 77.1488C120.216 77.1802 119.208 77.2121 118.219 77.2435L116.815 77.288L115.524 77.3289C114.581 77.3588 113.592 77.3902 112.64 77.4204L112.293 77.4691ZM115.382 36.5771C111.332 36.6187 107.423 38.0775 104.336 40.7002C102.748 42.1362 101.465 43.8773 100.564 45.8197C99.663 47.762 99.1623 49.8659 99.0917 52.0058C98.9386 54.369 99.2529 56.7393 100.017 58.9809C100.78 61.2225 101.979 63.2916 103.543 65.0697C105.861 67.594 107.601 70.5935 108.641 73.8592C108.721 74.2948 108.885 74.7104 109.126 75.0823C109.366 75.4542 109.678 75.775 110.042 76.0263C110.407 76.2776 110.817 76.4545 111.25 76.5468C111.684 76.6392 112.131 76.6451 112.566 76.5644L115.506 76.4712L116.787 76.4305L118.191 76.386L121.216 76.2901C123.188 76.3031 124.386 75.4256 124.765 73.6875C125.588 69.8886 127.679 66.8229 129.679 63.8826C133.573 58.1565 134.273 51.0791 131.508 45.4131C128.957 40.1932 123.982 37.0968 117.498 36.6704C116.788 36.5703 116.08 36.555 115.382 36.5771Z" fill="#2D3748"/>
<path d="M122.417 76.6765L111.119 77.0347C110.104 77.0669 109.308 77.9156 109.34 78.9304L109.358 79.5052C109.39 80.5199 110.239 81.3165 111.254 81.2843L122.551 80.9261C123.566 80.894 124.363 80.0452 124.331 79.0305L124.312 78.4557C124.28 77.4409 123.431 76.6443 122.417 76.6765Z" fill="white"/>
<path d="M122.576 81.397L111.269 81.7555C110.658 81.7748 110.064 81.5515 109.618 81.1343C109.172 80.7171 108.909 80.1401 108.887 79.5295L108.868 78.9171C108.851 78.3063 109.077 77.7138 109.496 77.2692C109.915 76.8246 110.493 76.5641 111.103 76.5447L122.411 76.1862C123.021 76.1669 123.615 76.3902 124.061 76.8074C124.507 77.2246 124.77 77.8016 124.792 78.4122L124.811 79.0058C124.822 79.3097 124.772 79.6128 124.666 79.8976C124.559 80.1825 124.398 80.4435 124.19 80.6656C123.982 80.8878 123.733 81.0668 123.456 81.1923C123.179 81.3178 122.88 81.3873 122.576 81.397ZM111.134 77.5058C110.773 77.5173 110.432 77.6709 110.184 77.9332C109.936 78.1955 109.802 78.5452 109.811 78.906L109.829 79.4997C109.835 79.6786 109.876 79.8547 109.95 80.0178C110.024 80.1808 110.13 80.3276 110.261 80.4497C110.392 80.5718 110.546 80.6668 110.713 80.7292C110.881 80.7916 111.06 80.8201 111.239 80.8132L122.546 80.4547C122.725 80.4503 122.901 80.4105 123.065 80.3376C123.228 80.2647 123.376 80.1602 123.499 80.03C123.622 79.8999 123.718 79.7467 123.782 79.5793C123.845 79.4119 123.875 79.2335 123.869 79.0545L123.85 78.4421C123.836 78.0814 123.68 77.7409 123.416 77.4948C123.152 77.2488 122.801 77.1171 122.44 77.1285L111.134 77.5058Z" fill="#2D3748"/>
<path d="M122.551 80.9261L111.254 81.2843C110.239 81.3164 109.442 82.1652 109.474 83.18L109.493 83.7547C109.525 84.7695 110.374 85.5661 111.388 85.5339L122.686 85.1757C123.701 85.1435 124.497 84.2948 124.465 83.28L124.447 82.7053C124.415 81.6905 123.566 80.8939 122.551 80.9261Z" fill="white"/>
<path d="M122.711 85.6559L111.404 86.0144C110.791 86.0338 110.196 85.8092 109.75 85.39C109.303 84.9708 109.041 84.3913 109.022 83.7791L109.003 83.1949C108.984 82.5826 109.209 81.9877 109.628 81.541C110.047 81.0944 110.626 80.8325 111.239 80.8131L122.546 80.4546C123.158 80.4352 123.753 80.6598 124.2 81.079C124.646 81.4982 124.908 82.0777 124.928 82.69L124.946 83.2742C124.966 83.8865 124.741 84.4814 124.322 84.928C123.903 85.3747 123.323 85.6365 122.711 85.6559ZM111.269 81.7554C110.906 81.7669 110.563 81.9218 110.315 82.1862C110.067 82.4505 109.934 82.8026 109.946 83.165L109.964 83.7492C109.976 84.1115 110.131 84.4545 110.395 84.7026C110.659 84.9507 111.011 85.0836 111.374 85.0722L122.681 84.7137C123.043 84.7022 123.386 84.5472 123.634 84.2829C123.882 84.0185 124.015 83.6664 124.004 83.3041L123.985 82.7199C123.974 82.3575 123.819 82.0145 123.555 81.7664C123.29 81.5183 122.938 81.3854 122.576 81.3969L111.269 81.7554Z" fill="#2D3748"/>
<path d="M122.847 85.1801C122.897 86.7819 120.338 88.1647 117.134 88.2663C113.931 88.3678 111.289 87.1499 111.238 85.5481L122.847 85.1801Z" fill="white"/>
<path d="M117.149 88.7373C113.625 88.8491 110.827 87.4569 110.767 85.563C110.763 85.438 110.809 85.3166 110.894 85.2255C110.98 85.1343 111.098 85.0809 111.223 85.0769L122.832 84.7089C122.957 84.7049 123.078 84.7508 123.169 84.8363C123.26 84.9219 123.314 85.0401 123.318 85.1651C123.378 87.059 120.673 88.6256 117.149 88.7373ZM111.837 86.0007C112.368 86.9836 114.396 87.8814 117.119 87.7951C119.842 87.7087 121.801 86.7034 122.277 85.6697L111.837 86.0007Z" fill="#2D3748"/>
<path d="M114.166 75.2498C114.103 75.247 114.043 75.2319 113.986 75.2055C113.93 75.179 113.88 75.1418 113.838 75.0957C113.796 75.0497 113.764 74.9959 113.743 74.9374C113.722 74.8788 113.713 74.8167 113.716 74.7547L113.703 74.3401C113.984 71.0062 113.944 67.6531 113.583 64.3269C111.472 64.0689 109.455 63.3045 107.703 62.0987C106.62 61.4021 105.745 60.4262 105.17 59.2739C104.864 58.6655 104.721 57.9882 104.754 57.3079C104.787 56.6276 104.995 55.9674 105.358 55.3914C105.68 54.9823 106.083 54.6442 106.542 54.3985C107 54.1527 107.505 54.0045 108.024 53.9633C108.542 53.922 109.064 53.9886 109.556 54.1588C110.048 54.329 110.499 54.5991 110.881 54.9522C112.311 56.7374 113.324 58.8191 113.847 61.0456C114.079 61.8396 114.265 62.6462 114.405 63.4614C115.991 63.569 117.584 63.3842 119.104 62.9163L119.096 62.6713L119.085 62.3132C119.318 59.5517 119.605 56.1093 121.524 53.8696C121.842 53.4917 122.983 52.2859 124.25 52.3778C124.562 52.4103 124.862 52.5205 125.122 52.6985C125.381 52.8764 125.592 53.1164 125.734 53.3965C126.171 54.1835 126.414 55.0635 126.443 55.9632C126.471 56.8629 126.285 57.7565 125.899 58.5696C125.133 60.1422 123.93 61.4607 122.435 62.3674C121.651 62.8718 120.813 63.2875 119.937 63.6067C119.767 67.2206 120.037 70.8418 120.741 74.3905C120.761 74.5133 120.733 74.6392 120.662 74.7417C120.592 74.8442 120.484 74.9153 120.362 74.9401C120.239 74.9604 120.113 74.9323 120.011 74.8617C119.908 74.791 119.837 74.6834 119.812 74.5614C119.136 71.0566 118.874 67.4844 119.032 63.9184C117.562 64.3304 116.034 64.4967 114.51 64.4107C114.85 67.7228 114.883 71.0592 114.609 74.3773L114.623 74.8014C114.617 74.92 114.567 75.032 114.482 75.1152C114.397 75.1983 114.284 75.2464 114.166 75.2498ZM108.248 54.8942L108.106 54.8986C107.723 54.9109 107.347 55.0074 107.006 55.1812C106.664 55.3551 106.365 55.602 106.129 55.9045C105.865 56.349 105.718 56.8525 105.699 57.369C105.681 57.8855 105.793 58.3982 106.025 58.8601C106.533 59.8569 107.299 60.699 108.243 61.2987C109.793 62.3656 111.567 63.0613 113.429 63.332C113.294 62.6477 113.141 61.9641 112.94 61.2913C112.461 59.206 111.523 57.2539 110.193 55.5776C109.929 55.3315 109.616 55.1436 109.274 55.0261C108.932 54.9086 108.57 54.864 108.21 54.8954L108.248 54.8942ZM124.157 53.3145C123.418 53.4615 122.76 53.8752 122.307 54.4767C120.588 56.4931 120.315 59.7653 120.096 62.3944L120.102 62.564C120.774 62.2939 121.417 61.9575 122.022 61.5599C123.361 60.7541 124.441 59.5805 125.132 58.1789C125.453 57.5019 125.608 56.7582 125.584 56.0093C125.56 55.2604 125.358 54.528 124.995 53.8727C124.93 53.7227 124.828 53.5921 124.697 53.4938C124.567 53.3954 124.413 53.3326 124.251 53.3115L124.157 53.3145Z" fill="#2D3748"/>
<path d="M167.174 53.4881C161.04 53.6826 155.868 42.2639 155.398 27.4515C154.928 12.639 159.369 0.962757 165.503 0.768278C171.637 0.5738 176.809 11.9925 177.277 26.7578C177.746 41.5231 173.308 53.2936 167.174 53.4881ZM165.534 1.74824C160.022 1.923 155.898 13.4572 156.341 27.4593C156.785 41.4614 161.633 52.7583 167.146 52.5835C172.658 52.4088 176.782 40.8746 176.336 26.8254C175.891 12.7762 171.046 1.5829 165.534 1.75766L165.534 1.74824Z" fill="#2D3748"/>
<path d="M181.744 41.8019C181.207 41.8189 180.651 41.8365 180.065 41.7985C174.74 41.6278 168.293 39.9835 161.912 37.1675C155.532 34.3515 149.983 30.6886 146.268 26.8637C142.553 23.0388 141.018 19.2486 142.233 16.5031C143.447 13.7576 147.128 12.3392 152.614 12.5143C157.939 12.685 164.386 14.3293 170.766 17.1453C177.147 19.9613 182.696 23.6243 186.41 27.4114C190.123 31.1986 191.65 35.0268 190.435 37.7724C189.354 40.259 186.295 41.6576 181.744 41.8019ZM150.992 13.4429C146.856 13.574 144.018 14.7959 143.103 16.8811C142.064 19.2155 143.464 22.6138 146.945 26.1914C150.572 29.9342 156.024 33.5153 162.299 36.2875C168.575 39.0596 174.889 40.6704 180.101 40.8353C185.086 40.998 188.555 39.7467 189.575 37.4035C190.595 35.0603 189.214 31.6708 185.733 28.0931C182.106 24.3504 176.654 20.7693 170.378 17.9971C164.103 15.2249 157.789 13.6141 152.577 13.4492C152.029 13.4289 151.501 13.4268 150.992 13.4429Z" fill="#2D3748"/>
<path d="M151.893 42.7483C147.342 42.8926 144.201 41.6906 142.956 39.3154C141.57 36.6523 142.752 32.8892 146.327 28.72C149.901 24.5508 155.107 20.6601 161.287 17.4459C167.467 14.2317 173.806 12.182 179.11 11.6743C184.564 11.1524 188.336 12.325 189.723 14.9975C191.099 17.6609 189.927 21.4237 186.352 25.5929C182.777 29.7621 177.571 33.6528 171.429 36.8658C165.287 40.0788 158.872 42.1309 153.567 42.6009C152.986 42.6948 152.43 42.7313 151.893 42.7483ZM180.787 12.4983C180.278 12.5144 179.751 12.55 179.206 12.605C174.015 13.0997 167.806 15.1075 161.728 18.2714C155.651 21.4352 150.427 25.3548 147.044 29.3198C143.797 33.1201 142.615 36.6003 143.79 38.8551C144.965 41.1098 148.507 42.1577 153.472 41.6796C158.663 41.1849 164.872 39.1771 170.949 36.0133C177.027 32.8495 182.251 28.9298 185.634 24.9648C188.881 21.1645 190.063 17.6843 188.878 15.4298C187.833 13.4162 184.923 12.3672 180.787 12.4983Z" fill="#2D3748"/>
<path d="M166.52 32.8525C169.668 32.7527 172.14 30.1194 172.04 26.971C171.94 23.8226 169.307 21.3512 166.158 21.451C163.01 21.5509 160.539 24.1841 160.638 27.3325C160.738 30.4809 163.371 32.9523 166.52 32.8525Z" fill="#2D3748"/>
<path d="M85.874 32.2684C85.8004 32.2692 85.7276 32.2531 85.6612 32.2214C85.5948 32.1897 85.5366 32.1431 85.491 32.0853C85.4455 32.0275 85.4138 31.9601 85.3984 31.8881C85.383 31.8161 85.3844 31.7416 85.4023 31.6702L90.9409 10.9043C90.9664 10.8159 91.0159 10.7362 91.0838 10.6742C91.1518 10.6121 91.2355 10.57 91.3259 10.5525L94.3301 10.1083C94.4204 10.0931 94.5132 10.1051 94.5967 10.1427C94.6802 10.1804 94.7506 10.242 94.7989 10.3198L106.139 28.551C106.178 28.6177 106.2 28.6932 106.203 28.7706C106.205 28.848 106.188 28.9248 106.153 28.9939C106.123 29.0648 106.075 29.1266 106.013 29.1732C105.952 29.2198 105.879 29.2496 105.803 29.2596L101.833 29.8665C101.74 29.8815 101.645 29.8673 101.561 29.826C101.477 29.7848 101.408 29.7185 101.363 29.6362L99.0318 25.7203L91.2126 26.9114L90.1925 31.3297C90.1683 31.4205 90.1181 31.5023 90.048 31.5648C89.9779 31.6274 89.891 31.668 89.7981 31.6818L85.9211 32.2669L85.874 32.2684ZM91.8163 11.4424L86.5387 31.2192L89.3548 30.7903L90.3752 26.3815C90.3947 26.2892 90.4421 26.2051 90.5109 26.1405C90.5796 26.076 90.6665 26.034 90.7599 26.0203L99.2083 24.7432C99.3021 24.7276 99.3984 24.7413 99.4841 24.7825C99.5698 24.8237 99.6408 24.8903 99.6872 24.9733L102.018 28.8797L104.956 28.4376L94.2101 11.0836L91.8163 11.4424ZM91.5766 23.8156C91.5103 23.8182 91.4443 23.8061 91.3831 23.7804C91.322 23.7546 91.2673 23.7157 91.2229 23.6664C91.1707 23.6091 91.1328 23.5403 91.1124 23.4655C91.092 23.3907 91.0897 23.3122 91.1055 23.2363L92.9712 14.8485C92.9908 14.7563 93.0382 14.6722 93.1069 14.6076C93.1757 14.543 93.2626 14.5011 93.3559 14.4874C93.4498 14.4703 93.5467 14.4834 93.6327 14.5247C93.7187 14.566 93.7894 14.6335 93.8348 14.7174L98.0334 22.196C98.0727 22.2628 98.0946 22.3383 98.097 22.4157C98.0995 22.4931 98.0824 22.5698 98.0475 22.6389C98.0127 22.7057 97.963 22.7635 97.9022 22.808C97.8415 22.8524 97.7713 22.8823 97.6972 22.8952L91.6328 23.8044L91.5766 23.8156ZM93.6179 16.2051L92.1741 22.7308L96.8676 22.0161L93.6179 16.2051Z" fill="#2D3748"/>
<path d="M143.852 63.4333L144.45 63.5275C144.763 63.5754 145.079 63.6063 145.396 63.6202C145.695 63.6286 145.993 63.5873 146.279 63.4979C146.542 63.4026 146.777 63.2427 146.962 63.0329C147.173 62.7553 147.303 62.4247 147.337 62.0778C147.382 61.8402 147.374 61.5956 147.315 61.3613C147.255 61.1269 147.145 60.9084 146.992 60.721C146.664 60.3206 146.192 60.0647 145.677 60.0082C145.235 59.9362 144.782 60.0067 144.382 60.2096C143.987 60.4337 143.668 60.7727 143.47 61.1817L141.136 60.1616C141.339 59.7321 141.613 59.3406 141.948 59.004C142.274 58.6826 142.655 58.4243 143.075 58.242C143.504 58.0624 143.959 57.9494 144.422 57.9068C145.481 57.8178 146.544 57.9983 147.514 58.4314C147.992 58.649 148.424 58.9553 148.788 59.3342C149.139 59.6926 149.404 60.126 149.563 60.6018C149.736 61.1297 149.777 61.692 149.681 62.2393C149.59 62.9337 149.28 63.5811 148.797 64.0877C148.302 64.591 147.641 64.8969 146.938 64.9484C147.314 65.045 147.666 65.218 147.972 65.4566C148.278 65.6952 148.532 65.9942 148.717 66.3351C149.076 67.0383 149.194 67.8396 149.054 68.6164C148.981 69.2153 148.767 69.7882 148.427 70.2869C148.109 70.7347 147.7 71.1108 147.227 71.3908C146.739 71.6662 146.204 71.8495 145.65 71.9313C145.062 72.0157 144.465 72.0155 143.877 71.9309C143.342 71.8505 142.819 71.7089 142.316 71.5087C141.857 71.3224 141.431 71.0619 141.056 70.7375C140.687 70.4186 140.383 70.031 140.162 69.5963C139.916 69.1118 139.761 68.5858 139.707 68.045L142.254 67.7662C142.284 68.285 142.478 68.7809 142.809 69.1823C143.172 69.5674 143.662 69.8095 144.188 69.8648C144.501 69.9176 144.822 69.9075 145.131 69.8349C145.412 69.7802 145.681 69.6725 145.922 69.5174C146.164 69.3644 146.369 69.1618 146.526 68.9229C146.691 68.6697 146.798 68.3827 146.839 68.083C146.908 67.7094 146.866 67.324 146.719 66.9738C146.583 66.6806 146.373 66.4274 146.111 66.2385C145.819 66.039 145.495 65.8898 145.154 65.7972C144.812 65.6917 144.462 65.6114 144.108 65.5568L143.55 65.4802L143.852 63.4333Z" fill="white"/>
<path d="M144.979 72.4901C144.587 72.5004 144.196 72.4781 143.807 72.4235C143.237 72.3347 142.678 72.1816 142.142 71.967C141.634 71.7662 141.162 71.4815 140.748 71.1246C140.345 70.7615 140.011 70.3277 139.764 69.8447C139.493 69.3101 139.321 68.7307 139.257 68.1347C139.249 68.0721 139.254 68.0086 139.272 67.948C139.289 67.8875 139.319 67.8311 139.359 67.7825C139.438 67.6872 139.551 67.6262 139.675 67.6121L142.222 67.3239C142.347 67.3138 142.473 67.3501 142.574 67.4259C142.67 67.5086 142.731 67.6246 142.744 67.7506C142.772 68.1716 142.926 68.5744 143.187 68.9062C143.479 69.2047 143.871 69.3867 144.288 69.4183C144.529 69.453 144.774 69.4452 145.013 69.3953C145.238 69.3493 145.453 69.2626 145.646 69.1394C145.826 69.0165 145.981 68.8613 146.103 68.6816C146.232 68.4862 146.315 68.2644 146.347 68.0325C146.4 67.7514 146.371 67.461 146.264 67.1957C146.164 66.9731 146.004 66.7824 145.803 66.6444C145.567 66.4762 145.305 66.3475 145.027 66.2634C144.714 66.1729 144.397 66.098 144.077 66.0389L143.518 65.9623C143.395 65.9432 143.284 65.8764 143.21 65.7762C143.137 65.6761 143.105 65.5508 143.123 65.4277L143.435 63.3522C143.454 63.2292 143.521 63.1188 143.621 63.0449C143.721 62.9711 143.846 62.9398 143.97 62.958L144.567 63.0522C144.88 63.0991 145.196 63.1269 145.513 63.1354C145.755 63.1473 145.997 63.114 146.226 63.0373C146.415 62.9784 146.582 62.8648 146.706 62.7108C146.863 62.5064 146.957 62.261 146.976 62.0043C147.012 61.8309 147.007 61.6519 146.964 61.4802C146.921 61.3086 146.841 61.1488 146.728 61.0124C146.603 60.8592 146.448 60.7323 146.274 60.6391C146.099 60.5459 145.908 60.4882 145.711 60.4693C145.364 60.4141 145.009 60.4717 144.698 60.6334C144.369 60.8067 144.104 61.0791 143.939 61.412C143.883 61.5168 143.789 61.5964 143.677 61.635C143.564 61.6735 143.442 61.6681 143.333 61.6199L141.009 60.6089C140.949 60.5838 140.896 60.5464 140.852 60.4989C140.808 60.4515 140.775 60.3953 140.755 60.334C140.725 60.2775 140.709 60.2152 140.707 60.1516C140.705 60.088 140.717 60.0247 140.743 59.9665C140.963 59.4735 141.268 59.0232 141.644 58.6363C142.011 58.2732 142.443 57.9841 142.919 57.7847C143.392 57.5824 143.894 57.4551 144.407 57.4074C144.932 57.3566 145.462 57.3715 145.983 57.4518C146.589 57.5412 147.179 57.7163 147.735 57.9716C148.264 58.2148 148.744 58.551 149.153 58.9642C149.554 59.372 149.857 59.8655 150.038 60.4075C150.234 61.015 150.28 61.6605 150.174 62.2897C150.061 63.0848 149.698 63.8233 149.137 64.3976C148.87 64.6717 148.558 64.8984 148.215 65.0682C148.624 65.3444 148.959 65.7157 149.192 66.1502C149.597 66.9428 149.735 67.8449 149.585 68.7222C149.499 69.4053 149.255 70.059 148.872 70.6312C148.517 71.1363 148.058 71.5594 147.525 71.8718C146.985 72.1763 146.394 72.3804 145.78 72.4742C145.514 72.4961 145.246 72.5014 144.979 72.4901ZM140.259 68.4897C140.321 68.8146 140.429 69.1289 140.581 69.4227C140.775 69.805 141.042 70.1457 141.367 70.4258C141.704 70.7179 142.088 70.9513 142.502 71.1161C142.967 71.3035 143.452 71.4338 143.948 71.5042C144.489 71.59 145.039 71.5917 145.58 71.509C146.079 71.4422 146.561 71.2796 146.999 71.0302C147.41 70.7801 147.766 70.4477 148.043 70.0538C148.338 69.6137 148.526 69.1101 148.59 68.5839C148.718 67.9067 148.616 67.2064 148.301 66.5935C148.14 66.3077 147.921 66.0587 147.658 65.8624C147.395 65.666 147.094 65.5268 146.775 65.4534C146.666 65.4185 146.574 65.3464 146.514 65.2499C146.454 65.1533 146.43 65.0387 146.447 64.9262C146.465 64.8192 146.517 64.7207 146.594 64.644C146.671 64.5672 146.769 64.5161 146.876 64.4976C147.475 64.4586 148.038 64.1988 148.457 63.7683C148.884 63.3419 149.158 62.786 149.237 62.1873C149.319 61.7156 149.284 61.2309 149.135 60.7757C149.001 60.3622 148.772 59.9854 148.468 59.6744C148.142 59.3439 147.756 59.0777 147.33 58.8899C146.44 58.4849 145.46 58.3177 144.485 58.4047C144.073 58.4409 143.668 58.5429 143.288 58.7068C142.916 58.8635 142.578 59.0886 142.29 59.3704C142.098 59.5646 141.928 59.7787 141.782 60.009L143.265 60.66C143.504 60.3228 143.818 60.045 144.182 59.848C144.671 59.5982 145.227 59.5112 145.768 59.5997C146.405 59.6744 146.987 59.9944 147.391 60.4915C147.581 60.7312 147.718 61.0088 147.793 61.3057C147.867 61.6027 147.877 61.9121 147.823 62.2133C147.779 62.6462 147.612 63.0574 147.341 63.3981C147.096 63.6798 146.775 63.8862 146.417 63.9934C146.082 64.1092 145.728 64.1588 145.375 64.1396C145.029 64.133 144.685 64.1029 144.344 64.0497L144.212 64.0538L144.04 65.1817L144.134 65.1787C144.507 65.2334 144.876 65.3163 145.236 65.4267C145.616 65.5395 145.975 65.7128 146.3 65.9401C146.661 66.1915 146.941 66.5434 147.105 66.9522C147.269 67.3611 147.309 67.809 147.221 68.2406C147.174 68.5985 147.049 68.9417 146.855 69.2461C146.661 69.5504 146.403 69.8086 146.098 70.0023C145.812 70.1828 145.497 70.3139 145.167 70.3902C144.817 70.4626 144.457 70.4741 144.102 70.424C143.455 70.3446 142.86 70.0273 142.433 69.5337C142.141 69.1892 141.94 68.7773 141.848 68.3355L140.259 68.4897Z" fill="#2D3748"/>
<path d="M152.181 70.2716L154.512 70.6221L152.127 75.4138L150.08 75.1015L152.181 70.2716Z" fill="white"/>
<path d="M152.143 75.9038L152.058 75.9065L150.011 75.5941C149.938 75.5867 149.868 75.5614 149.808 75.5206C149.747 75.4797 149.698 75.4245 149.664 75.3599C149.629 75.2966 149.61 75.2261 149.608 75.1541C149.606 75.0821 149.62 75.0106 149.65 74.9453L151.751 70.0966C151.791 70.0004 151.862 69.9204 151.953 69.8695C152.043 69.8187 152.149 69.8001 152.251 69.8166L154.583 70.1671C154.658 70.1764 154.729 70.2044 154.789 70.2487C154.85 70.293 154.899 70.352 154.93 70.4202C154.965 70.4852 154.984 70.5572 154.986 70.6307C154.989 70.7042 154.974 70.7772 154.944 70.8442L152.549 75.6362C152.511 75.713 152.454 75.7782 152.382 75.8253C152.311 75.8723 152.228 75.8994 152.143 75.9038ZM150.758 74.7593L151.857 74.9225L153.808 71.0029L152.471 70.8L150.758 74.7593Z" fill="#2D3748"/>
<path d="M162.157 63.3246L159.258 65.3029L158.125 63.4995L162.753 60.7118L164.838 61.0324L162.796 74.5757L160.503 74.2334L162.157 63.3246Z" fill="white"/>
<path d="M162.821 75.0465L162.736 75.0492L160.442 74.6975C160.381 74.6892 160.321 74.6687 160.267 74.6373C160.214 74.6059 160.167 74.5642 160.129 74.5145C160.092 74.4648 160.064 74.4082 160.049 74.3479C160.033 74.2876 160.03 74.2248 160.039 74.1632L161.528 64.316L159.525 65.6812C159.472 65.7173 159.412 65.742 159.349 65.7537C159.286 65.7654 159.221 65.764 159.159 65.7494C159.096 65.7386 159.036 65.7146 158.982 65.6789C158.929 65.6432 158.884 65.5966 158.85 65.5422L157.756 63.747C157.729 63.6916 157.714 63.631 157.712 63.5693C157.71 63.5075 157.721 63.446 157.745 63.389C157.757 63.3276 157.783 63.2698 157.821 63.2197C157.858 63.1696 157.907 63.1284 157.962 63.0991L162.59 60.3114C162.681 60.2528 162.791 60.2293 162.899 60.245L164.984 60.5562C165.106 60.5775 165.216 60.6445 165.291 60.7437C165.366 60.8429 165.4 60.9668 165.387 61.0905L163.336 74.6435C163.318 74.7515 163.264 74.8501 163.182 74.9231C163.1 74.996 162.996 75.0388 162.887 75.0444L162.821 75.0465ZM161.047 73.8389L162.412 74.0408L164.313 61.4264L162.862 61.1705L158.799 63.6197L159.394 64.544L161.887 62.8426C161.963 62.7917 162.052 62.7632 162.144 62.7603C162.235 62.7574 162.326 62.7802 162.405 62.8262C162.483 62.8757 162.545 62.947 162.583 63.0313C162.621 63.1156 162.633 63.2093 162.618 63.3005L161.047 73.8389Z" fill="#2D3748"/>
<path d="M173.53 73.377L167.768 72.5128L168.111 70.2287L174.846 62.5355L177.453 62.9339L176.136 71.6627L178.107 71.9586L177.795 74.0247L175.824 73.7288L175.411 76.4866L173.108 76.1352L173.53 73.377ZM174.667 65.7953L170.448 70.7583L173.878 71.2721L174.667 65.7953Z" fill="white"/>
<path d="M175.436 76.9575L175.351 76.9602L173.048 76.6087C172.925 76.5897 172.814 76.5228 172.74 76.4227C172.667 76.3226 172.635 76.1973 172.654 76.0742L172.996 73.7807L167.708 73.0052C167.646 72.9971 167.587 72.9762 167.534 72.9438C167.481 72.9113 167.436 72.8681 167.4 72.8169C167.362 72.7689 167.334 72.7131 167.319 72.6533C167.304 72.5935 167.302 72.5311 167.314 72.4706L167.656 70.1866C167.671 70.0974 167.711 70.0143 167.771 69.9472L174.507 62.2539C174.561 62.1979 174.627 62.1548 174.699 62.128C174.772 62.1012 174.85 62.0913 174.927 62.0991L177.533 62.4975C177.656 62.5166 177.767 62.5834 177.841 62.6836C177.914 62.7837 177.946 62.909 177.928 63.0321L176.68 71.2965L178.187 71.5222C178.31 71.5412 178.421 71.6081 178.495 71.7083C178.568 71.8084 178.6 71.9337 178.582 72.0568L178.27 74.1229C178.262 74.1845 178.241 74.2438 178.208 74.2968C178.176 74.3498 178.133 74.3955 178.081 74.4307C178.032 74.4673 177.976 74.4938 177.917 74.5087C177.858 74.5235 177.796 74.5264 177.735 74.5171L176.228 74.2914L175.886 76.5848C175.863 76.7069 175.796 76.8164 175.698 76.8926C175.618 76.937 175.527 76.9594 175.436 76.9575ZM173.662 75.7404L175.026 75.9424L175.369 73.6584C175.388 73.5354 175.455 73.4249 175.555 73.3511C175.655 73.2772 175.78 73.246 175.903 73.2641L177.41 73.4899L177.582 72.3526L176.075 72.1268C176.014 72.1177 175.955 72.0963 175.902 72.064C175.849 72.0316 175.803 71.9889 175.767 71.9385C175.73 71.8894 175.704 71.8335 175.689 71.7741C175.674 71.7146 175.671 71.6528 175.681 71.5923L176.928 63.3279L175.032 63.0484L168.569 70.4218L168.311 72.0994L173.608 72.8747C173.731 72.8937 173.842 72.9606 173.916 73.0607C173.99 73.1609 174.021 73.2862 174.003 73.4093L173.662 75.7404ZM173.866 71.7818L173.781 71.7845L170.352 71.3085C170.269 71.2965 170.191 71.2623 170.127 71.2095C170.062 71.1567 170.012 71.0874 169.984 71.0089C169.954 70.9298 169.946 70.8444 169.96 70.7612C169.974 70.678 170.01 70.5999 170.063 70.5347L174.281 65.5246C174.333 65.4661 174.398 65.4213 174.471 65.3943C174.544 65.3673 174.623 65.3589 174.7 65.3698C174.832 65.3878 174.952 65.4547 175.037 65.5572C175.112 65.6597 175.149 65.7853 175.142 65.9123L174.316 71.3809C174.298 71.4889 174.243 71.5875 174.162 71.6605C174.08 71.7334 173.976 71.7762 173.866 71.7818ZM171.334 70.4567L173.457 70.7761L173.971 67.3454L171.334 70.4567Z" fill="#2D3748"/>
<path d="M93.5972 78.3259C92.7679 78.3522 91.9494 78.132 91.2452 77.6931C90.5411 77.2542 89.9829 76.6164 89.6412 75.8603C89.2995 75.1042 89.1898 74.2637 89.3258 73.4452C89.4618 72.6267 89.8375 71.8669 90.4053 71.2619C90.9731 70.6569 91.7076 70.2338 92.5158 70.0463C93.3241 69.8587 94.1698 69.915 94.946 70.2081C95.7223 70.5011 96.3942 71.0178 96.8768 71.6928C97.3594 72.3677 97.631 73.1706 97.6573 73.9999C97.6901 75.1113 97.2813 76.1904 96.5204 77.0011C95.7595 77.8119 94.7084 78.2882 93.5972 78.3259ZM93.3612 70.882C92.7182 70.9024 92.0958 71.113 91.5725 71.4871C91.0492 71.8613 90.6487 72.3822 90.4214 72.984C90.1942 73.5858 90.1506 74.2415 90.296 74.8681C90.4414 75.4948 90.7694 76.0642 91.2384 76.5044C91.7075 76.9446 92.2965 77.2359 92.9311 77.3413C93.5657 77.4468 94.2173 77.3617 94.8035 77.0968C95.3897 76.8319 95.8842 76.3991 96.2245 75.8532C96.5647 75.3073 96.7354 74.6727 96.7151 74.0298C96.6756 73.1753 96.3021 72.3706 95.675 71.7888C95.0479 71.2071 94.2174 70.895 93.3624 70.9197L93.3612 70.882Z" fill="#D1D3D4"/>
<path d="M58.2419 28.2303C58.1176 28.2318 57.9976 28.1852 57.907 28.1001C57.8163 28.0151 57.7622 27.8982 57.7558 27.7741L57.5748 22.064C57.5733 21.9397 57.6199 21.8197 57.705 21.729C57.79 21.6384 57.9069 21.5842 58.031 21.5779C58.1559 21.5739 58.2773 21.6198 58.3685 21.7053C58.4597 21.7909 58.5131 21.9091 58.517 22.0341L58.6996 27.7913C58.6916 27.9083 58.6402 28.0181 58.5556 28.0993C58.471 28.1805 58.3591 28.2272 58.2419 28.2303Z" fill="#2D3748"/>
<path d="M61.0338 25.2555L55.2766 25.438C55.1516 25.442 55.0302 25.3961 54.9391 25.3106C54.8479 25.225 54.7945 25.1068 54.7905 24.9818C54.7865 24.8569 54.8324 24.7355 54.9179 24.6443C55.0035 24.5531 55.1218 24.4997 55.2467 24.4957L61.004 24.3132C61.1282 24.3117 61.2483 24.3583 61.3389 24.4434C61.4295 24.5285 61.4837 24.6453 61.49 24.7694C61.494 24.8944 61.4481 25.0158 61.3626 25.1069C61.277 25.1981 61.1588 25.2515 61.0338 25.2555Z" fill="#2D3748"/>
<path d="M140.318 51.0289C140.253 51.0439 140.186 51.0461 140.12 51.0352C140.063 51.0116 140.012 50.9769 139.968 50.933C139.925 50.8891 139.891 50.837 139.868 50.7797C139.845 50.7224 139.834 50.6611 139.835 50.5994C139.836 50.5377 139.85 50.4768 139.875 50.4205L141.736 46.0604C141.755 45.9966 141.787 45.9375 141.83 45.887C141.874 45.8366 141.927 45.7959 141.988 45.7676C142.048 45.7393 142.113 45.7241 142.18 45.723C142.246 45.7219 142.313 45.7348 142.374 45.761C142.435 45.7872 142.49 45.8261 142.535 45.8751C142.58 45.924 142.614 45.982 142.635 46.0451C142.656 46.1082 142.664 46.1751 142.657 46.2413C142.65 46.3075 142.63 46.3716 142.597 46.4292L140.743 50.7419C140.706 50.8243 140.646 50.8947 140.571 50.9454C140.496 50.996 140.409 51.0249 140.318 51.0289Z" fill="#2D3748"/>
<path d="M143.429 49.7795C143.364 49.7945 143.297 49.7967 143.231 49.7858L138.871 47.9244C138.771 47.8668 138.696 47.7745 138.659 47.6649C138.622 47.5554 138.627 47.4362 138.673 47.3301C138.718 47.2239 138.801 47.1382 138.906 47.0891C139.01 47.04 139.129 47.031 139.24 47.0638L143.6 48.9158C143.657 48.9403 143.709 48.9759 143.753 49.0207C143.796 49.0654 143.83 49.1183 143.853 49.1764C143.876 49.2345 143.887 49.2965 143.886 49.3589C143.885 49.4213 143.871 49.4828 143.846 49.5399C143.805 49.6143 143.745 49.676 143.671 49.7182C143.598 49.7605 143.514 49.7817 143.429 49.7795Z" fill="#2D3748"/>
<path d="M95.1665 40.9532C95.7858 40.9336 96.2719 40.4156 96.2523 39.7963C96.2326 39.1771 95.7147 38.691 95.0954 38.7106C94.4761 38.7302 93.99 39.2482 94.0097 39.8674C94.0293 40.4867 94.5472 40.9728 95.1665 40.9532Z" fill="#D1D3D4"/>
<path d="M76.8963 17.7445C74.4653 17.8216 74.5848 21.5906 77.0158 21.5136C79.4469 21.4365 79.3274 17.6674 76.8963 17.7445Z" fill="#D1D3D4"/>
<path d="M83.1096 85.4966C82.8597 85.5045 82.6232 85.6114 82.4521 85.7937C82.281 85.976 82.1893 86.2189 82.1972 86.4688C82.2052 86.7187 82.312 86.9552 82.4943 87.1263C82.6767 87.2974 82.9195 87.3891 83.1694 87.3811C83.4193 87.3732 83.6558 87.2664 83.8269 87.084C83.998 86.9017 84.0897 86.6589 84.0818 86.409C84.0738 86.1591 83.967 85.9226 83.7847 85.7515C83.6023 85.5804 83.3595 85.4887 83.1096 85.4966Z" fill="#D1D3D4"/>
<path d="M139.069 78.5725C136.648 78.6493 136.767 82.4184 139.189 82.3416C141.61 82.2648 141.5 78.4955 139.069 78.5725Z" fill="#D1D3D4"/>
<path d="M114.092 20.1161L121.349 17.5936L123.872 24.8511L116.614 27.3736L114.092 20.1161Z" fill="#D1D3D4"/>
<path d="M163.436 79.6562L169.732 81.6648L167.723 87.9608L161.427 85.9522L163.436 79.6562Z" fill="#D1D3D4"/>
<path d="M126.207 7.26783C125.94 7.27627 125.677 7.20551 125.451 7.06447C125.225 6.92344 125.046 6.71848 124.936 6.4755C124.826 6.23252 124.791 5.96244 124.834 5.69941C124.878 5.43638 124.999 5.19222 125.181 4.99781C125.364 4.80339 125.6 4.66745 125.859 4.60717C126.119 4.54689 126.391 4.56498 126.64 4.65916C126.89 4.75334 127.106 4.91937 127.261 5.13627C127.416 5.35316 127.503 5.61117 127.512 5.87767C127.523 6.23503 127.392 6.58226 127.147 6.84296C126.903 7.10367 126.564 7.2565 126.207 7.26783ZM126.151 5.51521C126.071 5.51775 125.994 5.544 125.928 5.59063C125.863 5.63726 125.813 5.70219 125.785 5.7772C125.757 5.85221 125.751 5.93393 125.769 6.01203C125.787 6.09013 125.828 6.1611 125.887 6.21597C125.945 6.27084 126.019 6.30714 126.098 6.32028C126.177 6.33342 126.258 6.32282 126.331 6.2898C126.404 6.25679 126.466 6.20285 126.508 6.13481C126.551 6.06677 126.572 5.98768 126.569 5.90754C126.566 5.80008 126.52 5.69838 126.442 5.6248C126.363 5.55122 126.259 5.5118 126.151 5.51521Z" fill="#D1D3D4"/>
</svg>
