<svg viewBox="0 0 228 224" fill="none" xmlns="http://www.w3.org/2000/svg">
<path opacity="0.18" d="M226.635 146.401C225.562 156.128 226.41 165.936 225.211 175.655C224.011 185.374 220.496 195.322 211.943 202.792C207.541 206.545 202.163 209.617 196.121 211.828C189.052 214.495 181.187 216.205 173.347 217.191C158.823 219.04 143.971 218.757 129.276 219.612C109.343 220.768 89.6212 224.014 69.6258 224C56.3343 224 42.5312 222.302 30.7367 218.039C24.7545 215.92 19.3382 213.031 14.7443 209.51C-0.658212 197.571 -3.57879 178.799 4.05176 163.347C11.4483 148.371 27.7771 135.073 26.9677 119.154C26.4802 109.856 20.0588 100.409 24.013 91.552C25.583 88.0548 28.6791 85.0082 32.3019 82.4622C47.597 71.7205 70.474 69.8396 89.9233 63.7286C98.0074 61.1934 104.721 56.577 112.63 54.1025C118.481 52.2789 126.165 53.1049 132.255 53.8343C147.998 55.7224 162.885 61.7226 173.167 70.7122C177.209 74.2521 180.637 78.3358 181.666 82.8913C182.289 85.6554 182.032 88.5804 183.562 91.1478C185.094 93.7154 188.13 95.5211 191.076 97.259L206.254 106.198C213.942 110.736 221.95 115.574 225.591 122.29C229.673 129.86 227.527 138.313 226.635 146.401Z" fill="#006CE7"/>
<g clip-path="url(#clip0_1_562)">
<path d="M199.907 131.657L205.504 79.7132H198.76L193.164 131.657H199.907Z" fill="white"/>
<path d="M199.907 132.172H193.164C193.091 132.172 193.02 132.157 192.954 132.128C192.888 132.099 192.829 132.056 192.78 132.003C192.732 131.949 192.695 131.886 192.673 131.817C192.651 131.748 192.643 131.676 192.651 131.604L198.251 79.6585C198.264 79.5322 198.324 79.4154 198.419 79.3308C198.514 79.2461 198.637 79.1997 198.764 79.2004H205.507C205.579 79.2 205.651 79.2148 205.717 79.2439C205.783 79.2731 205.842 79.3158 205.891 79.3694C205.939 79.423 205.976 79.4862 205.998 79.5548C206.02 79.6235 206.028 79.6961 206.02 79.7679L200.423 131.712C200.41 131.839 200.35 131.957 200.255 132.042C200.159 132.127 200.035 132.173 199.907 132.172ZM193.735 131.146H199.447L204.933 80.2277H199.22L193.735 131.146Z" fill="#2D3748"/>
<path d="M196.918 131.657L202.514 79.7132H195.769L190.174 131.657H196.918Z" fill="white"/>
<path d="M196.918 132.172H190.174C190.102 132.172 190.03 132.157 189.964 132.128C189.898 132.099 189.839 132.056 189.79 132.003C189.742 131.949 189.706 131.886 189.683 131.817C189.661 131.748 189.653 131.676 189.661 131.604L195.259 79.6585C195.273 79.5322 195.333 79.4154 195.428 79.3308C195.522 79.2461 195.645 79.1997 195.772 79.2004H202.516C202.588 79.2 202.66 79.2148 202.726 79.2439C202.792 79.2731 202.851 79.3158 202.899 79.3694C202.948 79.423 202.984 79.4862 203.007 79.5548C203.029 79.6235 203.036 79.6961 203.029 79.7679L197.432 131.712C197.419 131.839 197.359 131.956 197.264 132.041C197.169 132.126 197.045 132.173 196.918 132.172ZM190.745 131.146H196.458L201.943 80.2277H196.23L190.745 131.146Z" fill="#2D3748"/>
<path d="M219.969 84.65H182.695C180.746 84.65 179.338 83.0705 179.548 81.1218L182.796 51.0362C183.006 49.0874 184.755 47.5079 186.704 47.5079H223.969C225.918 47.5079 227.326 49.0874 227.116 51.0362L223.868 81.1218C223.668 83.0705 221.918 84.65 219.969 84.65Z" fill="white"/>
<path d="M219.969 85.1628H182.695C182.173 85.1729 181.655 85.07 181.177 84.8611C180.698 84.6522 180.27 84.3422 179.923 83.9525C179.576 83.5628 179.316 83.1026 179.164 82.6033C179.011 82.1041 178.967 81.5777 179.037 81.0603L182.285 50.9746C182.523 48.7763 184.507 46.9883 186.702 46.9883H223.967C224.489 46.9782 225.007 47.0811 225.486 47.2901C225.964 47.499 226.392 47.8089 226.739 48.1986C227.087 48.5883 227.346 49.0486 227.499 49.5478C227.652 50.047 227.695 50.5734 227.625 51.0909L224.377 81.1765C224.15 83.3748 222.169 85.1628 219.969 85.1628ZM186.7 48.0242C185.859 48.0441 185.053 48.3658 184.429 48.9307C183.805 49.4956 183.405 50.2659 183.302 51.1011L180.054 81.1867C180.006 81.563 180.038 81.9453 180.149 82.3081C180.26 82.6709 180.447 83.006 180.697 83.291C180.95 83.5669 181.258 83.7858 181.602 83.9332C181.946 84.0806 182.318 84.153 182.692 84.1457H219.957C220.798 84.1258 221.604 83.8041 222.228 83.2392C222.852 82.6744 223.252 81.904 223.355 81.0688L226.603 50.9832C226.652 50.6069 226.619 50.2246 226.508 49.8618C226.398 49.499 226.211 49.1639 225.96 48.8789C225.708 48.603 225.399 48.3841 225.055 48.2367C224.711 48.0893 224.34 48.0169 223.966 48.0242H186.7Z" fill="#2D3748"/>
<path d="M211.967 84.65H174.702C172.753 84.65 171.345 83.0705 171.555 81.1218L174.803 51.0362C175.013 49.0874 176.762 47.5079 178.711 47.5079H215.976C217.924 47.5079 219.333 49.0874 219.123 51.0362L215.875 81.1218C215.665 83.0705 213.916 84.65 211.967 84.65Z" fill="#006CE7"/>
<path d="M211.967 85.1628H174.702C174.18 85.1729 173.662 85.07 173.183 84.8611C172.705 84.6522 172.277 84.3422 171.93 83.9525C171.582 83.5628 171.323 83.1026 171.17 82.6033C171.017 82.1041 170.974 81.5777 171.044 81.0603L174.292 50.9746C174.529 48.7763 176.514 46.9883 178.709 46.9883H215.974C216.496 46.9782 217.014 47.0811 217.493 47.2901C217.971 47.499 218.399 47.8089 218.746 48.1986C219.094 48.5883 219.353 49.0486 219.506 49.5478C219.659 50.047 219.702 50.5734 219.632 51.0909L216.384 81.1765C216.148 83.3748 214.167 85.1628 211.967 85.1628ZM178.699 48.0242C177.857 48.0441 177.051 48.3658 176.427 48.9307C175.803 49.4956 175.403 50.2659 175.3 51.1011L172.052 81.1867C172.004 81.563 172.036 81.9453 172.147 82.3081C172.258 82.6709 172.445 83.006 172.695 83.291C172.948 83.5669 173.257 83.7858 173.601 83.9332C173.945 84.0806 174.316 84.153 174.69 84.1457H211.955C212.797 84.1258 213.603 83.8041 214.227 83.2392C214.85 82.6744 215.25 81.904 215.354 81.0688L218.601 50.9832C218.65 50.6069 218.617 50.2246 218.507 49.8618C218.396 49.499 218.209 49.1639 217.959 48.8789C217.706 48.603 217.397 48.3841 217.053 48.2367C216.709 48.0893 216.338 48.0169 215.964 48.0242H178.699Z" fill="#006CE7"/>
<path d="M172.849 143.625H180.473V160.719H172.849V143.625Z" fill="white"/>
<path d="M180.473 161.232H172.849C172.713 161.232 172.583 161.178 172.486 161.081C172.39 160.985 172.336 160.855 172.336 160.719V143.625C172.336 143.489 172.39 143.358 172.486 143.262C172.583 143.166 172.713 143.112 172.849 143.112H180.473C180.609 143.112 180.739 143.166 180.836 143.262C180.932 143.358 180.986 143.489 180.986 143.625V160.719C180.986 160.855 180.932 160.985 180.836 161.081C180.739 161.178 180.609 161.232 180.473 161.232ZM173.362 160.206H179.96V144.137H173.362V160.206Z" fill="#2D3748"/>
<path d="M164.575 138.496H188.743C188.743 140.219 188.059 141.871 186.841 143.09C185.622 144.308 183.97 144.992 182.247 144.992H171.071C169.348 144.992 167.696 144.308 166.478 143.09C165.26 141.871 164.575 140.219 164.575 138.496Z" fill="#006CE7"/>
<path d="M172.863 158.522H180.459C181.083 158.522 181.681 158.77 182.123 159.211C182.564 159.652 182.811 160.25 182.811 160.874V168.324H170.504V160.874C170.504 160.25 170.752 159.652 171.193 159.211C171.634 158.77 172.232 158.522 172.856 158.522H172.863Z" fill="#006CE7"/>
<path d="M176.661 168.326V176.616L147.622 189.594H142.011C142.011 188.554 142.276 187.531 142.78 186.621C143.283 185.71 144.01 184.943 144.892 184.391L170.511 168.332H176.664L176.661 168.326Z" fill="white"/>
<path d="M147.622 190.1H142.011C141.875 190.1 141.745 190.046 141.649 189.95C141.552 189.854 141.498 189.723 141.498 189.587C141.495 188.459 141.779 187.349 142.325 186.361C142.871 185.374 143.66 184.543 144.618 183.946L170.237 167.898C170.318 167.847 170.413 167.82 170.509 167.82H176.663C176.799 167.82 176.929 167.874 177.025 167.97C177.122 168.066 177.176 168.196 177.176 168.332V176.616C177.176 176.715 177.147 176.812 177.093 176.896C177.039 176.979 176.962 177.044 176.871 177.085L147.823 190.056C147.76 190.084 147.691 190.099 147.622 190.1ZM142.546 189.074H147.504L176.148 176.274V168.838H170.658L145.163 184.821C144.428 185.279 143.808 185.902 143.354 186.64C142.9 187.378 142.623 188.211 142.546 189.074Z" fill="#2D3748"/>
<path d="M144.517 201.575C147.177 201.575 149.333 199.419 149.333 196.76C149.333 194.1 147.177 191.945 144.517 191.945C141.858 191.945 139.702 194.1 139.702 196.76C139.702 199.419 141.858 201.575 144.517 201.575Z" fill="#2D3748"/>
<path d="M144.517 198.327C145.383 198.327 146.085 197.626 146.085 196.76C146.085 195.894 145.383 195.192 144.517 195.192C143.652 195.192 142.95 195.894 142.95 196.76C142.95 197.626 143.652 198.327 144.517 198.327Z" fill="white"/>
<path d="M176.661 168.326V176.616L205.7 189.594H211.311C211.311 188.554 211.046 187.531 210.542 186.621C210.039 185.71 209.312 184.943 208.43 184.391L182.811 168.332H176.658L176.661 168.326Z" fill="white"/>
<path d="M211.311 190.1H205.7C205.629 190.1 205.558 190.085 205.492 190.056L176.452 177.078C176.362 177.037 176.285 176.972 176.231 176.889C176.177 176.806 176.148 176.709 176.148 176.609V168.326C176.148 168.19 176.202 168.059 176.298 167.963C176.395 167.867 176.525 167.813 176.661 167.813H182.815C182.911 167.813 183.005 167.84 183.087 167.891L208.706 183.95C209.663 184.546 210.453 185.377 210.999 186.365C211.545 187.352 211.829 188.462 211.825 189.591C211.824 189.726 211.77 189.856 211.673 189.952C211.577 190.047 211.446 190.101 211.311 190.1ZM205.81 189.074H210.767C210.692 188.213 210.418 187.38 209.966 186.642C209.515 185.904 208.898 185.281 208.165 184.821L182.671 168.842H177.174V176.274L205.81 189.074Z" fill="#2D3748"/>
<path d="M208.803 201.575C211.463 201.575 213.618 199.419 213.618 196.76C213.618 194.1 211.463 191.945 208.803 191.945C206.144 191.945 203.988 194.1 203.988 196.76C203.988 199.419 206.144 201.575 208.803 201.575Z" fill="#2D3748"/>
<path d="M208.803 198.327C209.669 198.327 210.371 197.626 210.371 196.76C210.371 195.894 209.669 195.192 208.803 195.192C207.937 195.192 207.236 195.894 207.236 196.76C207.236 197.626 207.937 198.327 208.803 198.327Z" fill="white"/>
<path d="M179.856 189.587H173.464L170.51 168.326H182.811L179.856 189.587Z" fill="white"/>
<path d="M179.858 190.1H173.464C173.34 190.101 173.219 190.057 173.124 189.975C173.03 189.894 172.969 189.781 172.952 189.657L169.998 168.396C169.988 168.323 169.993 168.248 170.015 168.178C170.036 168.107 170.072 168.042 170.121 167.987C170.169 167.932 170.229 167.887 170.297 167.857C170.364 167.827 170.437 167.812 170.511 167.813H182.818C182.892 167.812 182.965 167.827 183.032 167.857C183.099 167.887 183.16 167.932 183.208 167.987C183.257 168.042 183.293 168.107 183.314 168.178C183.335 168.248 183.341 168.323 183.331 168.396L180.377 189.657C180.36 189.782 180.298 189.896 180.202 189.978C180.106 190.059 179.983 190.103 179.858 190.1ZM173.912 189.074H179.411L182.223 168.838H171.1L173.912 189.074Z" fill="#2D3748"/>
<path d="M178.82 191.945H174.861C173.948 191.945 173.208 192.685 173.208 193.598V199.922C173.208 200.835 173.948 201.575 174.861 201.575H178.82C179.733 201.575 180.473 200.835 180.473 199.922V193.598C180.473 192.685 179.733 191.945 178.82 191.945Z" fill="#2D3748"/>
<path d="M178.365 128.924H148.792C146.149 128.924 144.006 131.067 144.006 133.71C144.006 136.353 146.149 138.496 148.792 138.496H178.365C181.009 138.496 183.152 136.353 183.152 133.71C183.152 131.067 181.009 128.924 178.365 128.924Z" fill="white"/>
<path d="M178.365 139.009H148.792C147.387 139.009 146.039 138.451 145.045 137.457C144.052 136.463 143.493 135.116 143.493 133.71C143.493 132.305 144.052 130.957 145.045 129.963C146.039 128.969 147.387 128.411 148.792 128.411H178.365C179.771 128.411 181.119 128.969 182.112 129.963C183.106 130.957 183.664 132.305 183.664 133.71C183.664 135.116 183.106 136.463 182.112 137.457C181.119 138.451 179.771 139.009 178.365 139.009ZM148.792 129.437C147.659 129.437 146.572 129.887 145.771 130.688C144.969 131.49 144.519 132.577 144.519 133.71C144.519 134.843 144.969 135.93 145.771 136.732C146.572 137.533 147.659 137.984 148.792 137.984H178.365C179.499 137.984 180.586 137.533 181.387 136.732C182.189 135.93 182.639 134.843 182.639 133.71C182.639 132.577 182.189 131.49 181.387 130.688C180.586 129.887 179.499 129.437 178.365 129.437H148.792Z" fill="#2D3748"/>
<path d="M204.53 128.924H178.935C176.291 128.924 174.148 131.067 174.148 133.71C174.148 136.353 176.291 138.496 178.935 138.496H204.53C207.173 138.496 209.316 136.353 209.316 133.71C209.316 131.067 207.173 128.924 204.53 128.924Z" fill="white"/>
<path d="M204.53 139.009H178.935C177.529 139.009 176.181 138.451 175.187 137.457C174.194 136.463 173.635 135.116 173.635 133.71C173.635 132.305 174.194 130.957 175.187 129.963C176.181 128.969 177.529 128.411 178.935 128.411H204.53C205.935 128.411 207.283 128.969 208.277 129.963C209.27 130.957 209.829 132.305 209.829 133.71C209.829 135.116 209.27 136.463 208.277 137.457C207.283 138.451 205.935 139.009 204.53 139.009ZM178.935 129.437C177.801 129.437 176.714 129.887 175.913 130.688C175.111 131.49 174.661 132.577 174.661 133.71C174.661 134.843 175.111 135.93 175.913 136.732C176.714 137.533 177.801 137.984 178.935 137.984H204.53C205.663 137.984 206.75 137.533 207.551 136.732C208.353 135.93 208.803 134.843 208.803 133.71C208.803 132.577 208.353 131.49 207.551 130.688C206.75 129.887 205.663 129.437 204.53 129.437H178.935Z" fill="#2D3748"/>
<path d="M90.8811 79.6927V82.4278H68.363V79.6927L72.5511 69.9234H88.9717L84.7836 79.6927H90.8811Z" fill="white"/>
<path d="M90.8811 82.9406H68.363C68.227 82.9406 68.0966 82.8866 68.0004 82.7904C67.9043 82.6942 67.8502 82.5638 67.8502 82.4278V79.6927C67.8501 79.6234 67.8641 79.5548 67.8913 79.491L72.0793 69.7217C72.1188 69.6294 72.1846 69.5506 72.2685 69.4953C72.3524 69.44 72.4506 69.4106 72.5511 69.4106H88.9717C89.0566 69.4106 89.1401 69.4316 89.2149 69.4718C89.2896 69.5119 89.3532 69.57 89.4 69.6409C89.4467 69.7117 89.4752 69.793 89.4828 69.8775C89.4904 69.962 89.4769 70.0471 89.4435 70.1252L85.5614 79.185H90.8811C91.0171 79.185 91.1476 79.2391 91.2437 79.3352C91.3399 79.4314 91.3939 79.5618 91.3939 79.6978V82.4329C91.3926 82.568 91.338 82.6971 91.2419 82.7922C91.1459 82.8873 91.0162 82.9406 90.8811 82.9406ZM68.8759 81.9149H90.3683V80.2055H84.7836C84.6988 80.2056 84.6152 80.1846 84.5405 80.1444C84.4657 80.1042 84.4021 80.0461 84.3554 79.9753C84.3086 79.9045 84.2802 79.8232 84.2726 79.7386C84.265 79.6541 84.2785 79.569 84.3118 79.491L88.1939 70.4311H72.8896L68.8759 79.7936V81.9149Z" fill="#2D3748"/>
<path d="M77.2947 79.6927H90.8811V82.4277H77.2947V79.6927Z" fill="white"/>
<path d="M90.8811 82.9406H77.2947C77.1587 82.9406 77.0282 82.8865 76.9321 82.7904C76.8359 82.6942 76.7819 82.5638 76.7819 82.4278V79.6927C76.7819 79.5567 76.8359 79.4262 76.9321 79.3301C77.0282 79.2339 77.1587 79.1799 77.2947 79.1799H90.8811C91.0171 79.1799 91.1475 79.2339 91.2437 79.3301C91.3399 79.4262 91.3939 79.5567 91.3939 79.6927V82.4278C91.3939 82.5638 91.3399 82.6942 91.2437 82.7904C91.1475 82.8865 91.0171 82.9406 90.8811 82.9406ZM77.8075 81.9149H90.3683V80.2055H77.8075V81.9149Z" fill="#2D3748"/>
<path d="M77.2947 79.6927V82.4278H68.363V79.6927L72.5511 69.9234H75.3853L71.1972 79.6927H77.2947Z" fill="white"/>
<path d="M77.2947 82.9406H68.363C68.227 82.9406 68.0966 82.8866 68.0004 82.7904C67.9043 82.6942 67.8502 82.5638 67.8502 82.4278V79.6927C67.8501 79.6234 67.8641 79.5548 67.8913 79.491L72.0793 69.7217C72.1188 69.6294 72.1846 69.5506 72.2685 69.4953C72.3524 69.44 72.4506 69.4106 72.5511 69.4106H75.3853C75.4695 69.4109 75.5524 69.432 75.6265 69.4719C75.7007 69.5118 75.7638 69.5693 75.8105 69.6394C75.8571 69.7096 75.8857 69.7901 75.8939 69.8739C75.902 69.9577 75.8894 70.0422 75.8571 70.12L71.975 79.1799H77.2947C77.4307 79.1799 77.5612 79.2339 77.6573 79.3301C77.7535 79.4263 77.8075 79.5567 77.8075 79.6927V82.4278C77.8075 82.5638 77.7535 82.6942 77.6573 82.7904C77.5612 82.8866 77.4307 82.9406 77.2947 82.9406ZM68.8759 81.9149H76.7819V80.2055H71.1972C71.1124 80.2056 71.0288 80.1846 70.9541 80.1444C70.8794 80.1042 70.8157 80.0461 70.769 79.9753C70.7222 79.9045 70.6938 79.8232 70.6862 79.7386C70.6786 79.6541 70.6921 79.569 70.7254 79.491L74.6075 70.4311H72.8896L68.8759 79.7936V81.9149Z" fill="#2D3748"/>
<path d="M111.854 73.197H44.5578C44.0592 73.1865 43.5811 72.9964 43.2114 72.6617C42.8418 72.3269 42.6054 71.8699 42.5458 71.3747L38.1714 29.3232C38.1411 29.0929 38.1609 28.8586 38.2295 28.6366C38.2981 28.4146 38.4139 28.2101 38.5689 28.037C38.724 27.8639 38.9146 27.7264 39.1278 27.6339C39.3409 27.5414 39.5716 27.4961 39.8039 27.501H107.1C107.599 27.5114 108.077 27.7015 108.446 28.0363C108.816 28.3711 109.052 28.8281 109.112 29.3232L113.486 71.3747C113.517 71.6051 113.497 71.8393 113.428 72.0613C113.36 72.2833 113.244 72.4879 113.089 72.661C112.934 72.834 112.743 72.9715 112.53 73.0641C112.317 73.1566 112.086 73.2019 111.854 73.197Z" fill="#E75300"/>
<path d="M114.789 73.197H47.4928C46.9942 73.1865 46.5161 72.9964 46.1465 72.6617C45.7768 72.3269 45.5405 71.8699 45.4809 71.3747L41.1065 29.3232C41.0761 29.0929 41.0959 28.8586 41.1645 28.6366C41.2331 28.4146 41.3489 28.2101 41.504 28.037C41.659 27.8639 41.8497 27.7264 42.0628 27.6339C42.276 27.5414 42.5066 27.4961 42.739 27.501H110.035C110.534 27.5114 111.012 27.7015 111.381 28.0363C111.751 28.3711 111.987 28.8281 112.047 29.3232L116.421 71.3747C116.452 71.6051 116.432 71.8393 116.363 72.0613C116.295 72.2833 116.179 72.4879 116.024 72.661C115.869 72.834 115.678 72.9715 115.465 73.0641C115.252 73.1566 115.021 73.2019 114.789 73.197Z" fill="#006CE7"/>
<path d="M112.638 69.9234H48.963C48.702 69.9179 48.4518 69.8184 48.2584 69.6431C48.0649 69.4679 47.9412 69.2287 47.91 68.9696L44.0348 31.7301C44.019 31.6095 44.0294 31.4869 44.0654 31.3708C44.1014 31.2546 44.162 31.1476 44.2432 31.057C44.3243 30.9664 44.4241 30.8944 44.5356 30.846C44.6472 30.7975 44.7679 30.7737 44.8895 30.7762H108.565C108.826 30.7818 109.076 30.8813 109.27 31.0565C109.463 31.2318 109.587 31.471 109.618 31.7301L113.493 68.9696C113.509 69.0902 113.498 69.2128 113.463 69.3289C113.427 69.4451 113.366 69.5521 113.285 69.6427C113.204 69.7333 113.104 69.8053 112.992 69.8537C112.881 69.9022 112.76 69.926 112.638 69.9234Z" fill="white"/>
<path d="M112.638 70.4362H48.9629C48.5745 70.4324 48.201 70.2864 47.9128 70.026C47.6246 69.7655 47.4418 69.4086 47.3988 69.0226L43.5236 31.7831C43.5004 31.5908 43.5186 31.3958 43.577 31.2112C43.6354 31.0266 43.7326 30.8566 43.8622 30.7126C43.9917 30.5687 44.1505 30.4541 44.328 30.3766C44.5055 30.2991 44.6975 30.2605 44.8911 30.2634H108.567C108.955 30.2673 109.329 30.4132 109.617 30.6737C109.905 30.9341 110.088 31.291 110.131 31.6771L114.003 68.9234C114.025 69.1148 114.006 69.3088 113.947 69.4924C113.888 69.6759 113.791 69.8449 113.662 69.988C113.533 70.1311 113.375 70.2451 113.199 70.3224C113.022 70.3997 112.831 70.4385 112.638 70.4362ZM44.8894 31.2907C44.8403 31.2888 44.7914 31.2973 44.746 31.3159C44.7006 31.3345 44.6597 31.3626 44.6261 31.3984C44.5934 31.4367 44.5691 31.4815 44.555 31.5298C44.5408 31.5781 44.5371 31.6289 44.5441 31.6788L48.4193 68.9234C48.4383 69.0562 48.5029 69.1781 48.6022 69.2683C48.7014 69.3585 48.829 69.4112 48.9629 69.4174H112.638C112.687 69.4194 112.736 69.4108 112.782 69.3923C112.827 69.3737 112.868 69.3455 112.902 69.3097C112.934 69.2715 112.959 69.2267 112.973 69.1784C112.987 69.1301 112.991 69.0793 112.984 69.0294L109.109 31.7831C109.09 31.6503 109.025 31.5284 108.926 31.4382C108.826 31.348 108.699 31.2953 108.565 31.289H44.8894V31.2907Z" fill="#2D3748"/>
<path d="M88.7495 61.2311H52.339C52.0781 61.2255 51.8279 61.126 51.6344 60.9508C51.441 60.7755 51.3173 60.5364 51.286 60.2772L48.9544 37.9113C48.9386 37.7907 48.9491 37.6681 48.985 37.552C49.021 37.4358 49.0816 37.3288 49.1628 37.2382C49.244 37.1476 49.3437 37.0756 49.4553 37.0272C49.5668 36.9787 49.6875 36.9549 49.8091 36.9575H86.2195C86.4805 36.963 86.7307 37.0625 86.9242 37.2378C87.1176 37.413 87.2413 37.6522 87.2726 37.9113L89.5991 60.2789C89.6145 60.399 89.604 60.5209 89.5682 60.6365C89.5324 60.7521 89.4722 60.8586 89.3916 60.9489C89.311 61.0392 89.212 61.1111 89.1012 61.1598C88.9904 61.2085 88.8705 61.2328 88.7495 61.2311Z" fill="#E75300"/>
<path d="M87.5033 59.0806H53.1339L51.0552 39.1113H85.4246L87.5033 59.0806Z" fill="white"/>
<path d="M87.5033 59.5935H53.1339C53.0066 59.5941 52.8836 59.5474 52.7888 59.4625C52.694 59.3775 52.6342 59.2603 52.6211 59.1336L50.5458 39.1643C50.5384 39.0926 50.5461 39.0202 50.5685 38.9517C50.591 38.8833 50.6276 38.8203 50.6759 38.7669C50.7243 38.7135 50.7834 38.6709 50.8494 38.6419C50.9153 38.6129 50.9866 38.5981 51.0587 38.5985H85.4298C85.5571 38.5978 85.6801 38.6445 85.7749 38.7295C85.8697 38.8145 85.9294 38.9317 85.9426 39.0583L88.0195 59.0276C88.027 59.0996 88.0192 59.1723 87.9966 59.241C87.9739 59.3097 87.937 59.3729 87.8883 59.4263C87.8395 59.4798 87.78 59.5223 87.7137 59.5511C87.6473 59.5799 87.5756 59.5943 87.5033 59.5935ZM53.5971 58.5678H86.9306L84.9631 39.6241H51.6296L53.5971 58.5678Z" fill="#2D3748"/>
<path d="M100.891 47.672C100.891 47.672 105.382 49.3541 108.035 69.9234H102.565L100.891 47.672Z" fill="#006CE7"/>
<path d="M90.5255 37.5027C90.5255 37.5027 89.5443 40.684 91.3956 44.2959H97.9564C97.9564 44.2959 98.0435 40.8344 97.3358 38.3335C96.6281 35.8326 90.5255 37.5027 90.5255 37.5027Z" fill="#2D3748"/>
<path d="M82.0759 53.8806L78.546 47.6036C78.4956 47.5172 78.4176 47.4503 78.3246 47.4137C78.2315 47.3771 78.1289 47.373 78.0331 47.4019C77.9874 47.419 77.9456 47.445 77.91 47.4784C77.8744 47.5118 77.8459 47.5519 77.826 47.5965C77.8061 47.641 77.7953 47.6891 77.7942 47.7379C77.793 47.7866 77.8016 47.8351 77.8195 47.8806L78.4212 49.6584L77.534 50.684C77.0212 51.2669 77.1255 52.1934 77.7511 52.7763L80.893 55.084L82.0759 53.8806Z" fill="white"/>
<path d="M80.8998 55.5986C80.791 55.5985 80.685 55.5637 80.5973 55.4994L77.4537 53.1969L77.4075 53.1592C76.575 52.3832 76.4639 51.1524 77.1528 50.3558L77.8468 49.5524L77.334 48.0532C77.2943 47.9446 77.2764 47.8292 77.2813 47.7136C77.2863 47.5981 77.314 47.4846 77.3629 47.3798C77.4119 47.275 77.481 47.1808 77.5664 47.1028C77.6518 47.0248 77.7517 46.9643 77.8605 46.925C78.0674 46.8556 78.2919 46.8592 78.4965 46.9351C78.7011 47.011 78.8736 47.1546 78.9853 47.3421L78.9938 47.3575L82.5238 53.6293C82.5778 53.7259 82.5992 53.8373 82.5847 53.947C82.5702 54.0566 82.5207 54.1587 82.4434 54.2379L81.2691 55.443C81.2211 55.4924 81.1637 55.5316 81.1003 55.5583C81.0368 55.5851 80.9687 55.5988 80.8998 55.5986ZM78.0793 52.3849L80.8366 54.4088L81.4332 53.7969L78.7391 49.0105L78.9101 49.4943C78.9393 49.5792 78.9457 49.6704 78.9286 49.7586C78.9115 49.8468 78.8715 49.9289 78.8126 49.9968L77.9255 51.0225C77.6126 51.3849 77.6844 52.0003 78.0793 52.3849Z" fill="#2D3748"/>
<path d="M88.9682 47.672C87.7716 48.7541 86.3563 51.272 84.6947 55.4498L82.1973 52.8003L79.7716 54.9798C79.7716 54.9798 83.0742 64.1251 85.8947 64.1251C88.7152 64.1251 91.9255 57.6567 91.9255 57.6567L88.9682 47.672Z" fill="#006CE7"/>
<path d="M85.1443 61.9148C85.0321 61.9148 84.9231 61.878 84.8339 61.8101C84.7447 61.7421 84.6802 61.6468 84.6503 61.5388C84.1766 59.7821 84.0352 57.9524 84.2332 56.1439C84.2427 56.0772 84.2653 56.013 84.2996 55.9551C84.3339 55.8972 84.3793 55.8465 84.4332 55.8061C84.4871 55.7657 84.5484 55.7364 84.6137 55.7197C84.6789 55.703 84.7468 55.6993 84.8135 55.7088C84.8802 55.7184 84.9443 55.7409 85.0023 55.7753C85.0602 55.8096 85.1108 55.855 85.1512 55.9089C85.1916 55.9628 85.221 56.0241 85.2377 56.0893C85.2544 56.1546 85.2581 56.2225 85.2486 56.2892C85.0743 57.9576 85.2052 59.6437 85.6349 61.2653C85.6559 61.3411 85.6591 61.4208 85.6444 61.4981C85.6296 61.5754 85.5973 61.6483 85.5499 61.7111C85.5024 61.7739 85.4412 61.8249 85.3708 61.8603C85.3005 61.8956 85.223 61.9143 85.1443 61.9148Z" fill="#2D3748"/>
<path d="M103.862 69.9234H90.6298C88.7614 59.096 88.97 47.672 88.97 47.672C91.1084 46.0481 94.6948 45.3934 94.6948 45.3934C94.6948 45.3934 98.4162 46.0481 100.893 47.672C100.893 47.672 103.478 59.096 103.862 69.9234Z" fill="#006CE7"/>
<path d="M89.4418 60.8054C89.3126 60.8059 89.188 60.7575 89.0929 60.67C88.9978 60.5826 88.9393 60.4624 88.9289 60.3336C88.5255 55.3952 88.4537 51.1729 88.4469 49.096C88.4469 48.96 88.5009 48.8295 88.5971 48.7334C88.6933 48.6372 88.8237 48.5832 88.9597 48.5832C89.0957 48.5832 89.2262 48.6372 89.3223 48.7334C89.4185 48.8295 89.4725 48.96 89.4725 49.096C89.4725 51.1575 89.5512 55.349 89.9512 60.2533C89.962 60.3889 89.9186 60.5232 89.8305 60.6267C89.7423 60.7303 89.6166 60.7945 89.4811 60.8054H89.4384H89.4418Z" fill="#2D3748"/>
<path d="M103.779 68.6431C103.648 68.6433 103.521 68.5933 103.426 68.5033C103.331 68.4133 103.273 68.2902 103.266 68.1593C102.816 60.2054 101.315 52.2498 100.691 49.1985C100.678 49.1325 100.678 49.0645 100.69 48.9984C100.703 48.9323 100.729 48.8693 100.766 48.8131C100.803 48.7569 100.851 48.7086 100.907 48.6709C100.963 48.6332 101.025 48.6069 101.091 48.5934C101.157 48.5799 101.225 48.5796 101.291 48.5924C101.358 48.6052 101.421 48.6309 101.477 48.6681C101.533 48.7052 101.581 48.7531 101.619 48.8089C101.657 48.8647 101.683 48.9274 101.697 48.9934C102.326 52.0703 103.838 60.0806 104.291 68.1029C104.299 68.2387 104.252 68.3719 104.161 68.4732C104.071 68.5745 103.943 68.6356 103.808 68.6431H103.779Z" fill="#2D3748"/>
<path d="M94.9221 47.5985C96.5221 47.5985 97.2213 48.4532 97.2213 48.4532C97.5136 46.1558 95.9614 44.6429 94.6144 44.6429C93.2674 44.6429 92.0298 46.1558 92.8007 48.4532C92.8007 48.4481 93.3221 47.5985 94.9221 47.5985Z" fill="#E75300"/>
<path d="M95.1666 42.7575L95.4674 45.6413L94.7973 46.39L93.9717 45.6413L93.6708 42.7575H95.1666Z" fill="white"/>
<path d="M94.7973 46.9028C94.6708 46.9021 94.5491 46.8546 94.4555 46.7695L93.6349 46.0173C93.5395 45.9334 93.4786 45.8171 93.464 45.6908L93.1631 42.8071C93.1557 42.7354 93.1634 42.663 93.1859 42.5945C93.2083 42.526 93.2449 42.4631 93.2933 42.4097C93.3416 42.3563 93.4007 42.3137 93.4667 42.2847C93.5326 42.2557 93.6039 42.2409 93.676 42.2412H95.1734C95.3007 42.2406 95.4237 42.2873 95.5185 42.3723C95.6133 42.4572 95.6731 42.5745 95.6862 42.7011L95.9871 45.5849C95.9944 45.656 95.9868 45.7278 95.9647 45.7958C95.9427 45.8638 95.9066 45.9265 95.8589 45.9797L95.1734 46.7319C95.1284 46.7824 95.0738 46.8236 95.0127 46.8529C94.9517 46.8822 94.8855 46.8992 94.8179 46.9028H94.7973ZM94.4555 45.3934L94.7546 45.6635L94.9255 45.4686L94.6965 43.2703H94.2315L94.4555 45.3934Z" fill="#2D3748"/>
<path d="M94.5033 43.5695C93.8546 43.5556 93.2325 43.3083 92.7515 42.8727C92.2704 42.4372 91.9626 41.8427 91.8845 41.1985L91.7238 39.66C91.6846 39.3603 91.7106 39.0556 91.8001 38.7668C91.8895 38.478 92.0402 38.212 92.242 37.9868C92.4438 37.7617 92.6918 37.5828 92.9691 37.4624C93.2464 37.342 93.5464 37.2828 93.8486 37.2891C94.4974 37.3029 95.1195 37.5503 95.6005 37.9858C96.0816 38.4213 96.3894 39.0158 96.4675 39.66L96.6281 41.1985C96.6674 41.4983 96.6413 41.803 96.5519 42.0917C96.4625 42.3805 96.3117 42.6466 96.11 42.8717C95.9082 43.0968 95.6602 43.2757 95.3829 43.3962C95.1056 43.5166 94.8056 43.5757 94.5033 43.5695Z" fill="white"/>
<path d="M94.5033 44.0823C93.7288 44.065 92.9863 43.7695 92.4119 43.2496C91.8374 42.7298 91.4694 42.0205 91.3751 41.2515L91.2144 39.713C91.1673 39.3416 91.2006 38.9643 91.3122 38.6069C91.4237 38.2494 91.6108 37.9201 91.8609 37.6414C92.1109 37.3627 92.418 37.141 92.7612 36.9914C93.1045 36.8419 93.476 36.7679 93.8503 36.7746C94.6249 36.7918 95.3673 37.0874 95.9418 37.6072C96.5162 38.127 96.8843 38.8364 96.9786 39.6053L97.1392 41.1438C97.1864 41.5153 97.1531 41.8925 97.0415 42.25C96.93 42.6074 96.7428 42.9367 96.4928 43.2154C96.2428 43.4941 95.9357 43.7158 95.5924 43.8654C95.2492 44.015 94.8777 44.0889 94.5033 44.0823ZM93.8503 37.8002C93.6222 37.7945 93.3955 37.8373 93.1851 37.9257C92.9747 38.0141 92.7854 38.1461 92.6298 38.313C92.4767 38.4871 92.3623 38.6917 92.2942 38.9133C92.2261 39.1349 92.2059 39.3685 92.2349 39.5985L92.3956 41.137C92.4584 41.6559 92.7059 42.1349 93.093 42.4862C93.4801 42.8375 93.9808 43.0376 94.5033 43.0498C94.7315 43.0555 94.9582 43.0127 95.1686 42.9243C95.379 42.8359 95.5682 42.7039 95.7238 42.537C95.877 42.3629 95.9914 42.1583 96.0595 41.9367C96.1276 41.7151 96.1478 41.4815 96.1187 41.2515L95.958 39.713C95.8953 39.1941 95.6477 38.7151 95.2607 38.3638C94.8736 38.0125 94.3729 37.8124 93.8503 37.8002Z" fill="#2D3748"/>
<path d="M91.1136 39.9369C91.1136 39.9369 94.7461 40.8891 95.7717 38.154C95.7717 38.154 95.4298 40.5592 96.5632 40.5592C96.5632 40.5592 97.4606 39.9404 97.3358 38.3369C97.211 36.7335 95.1734 34.2549 92.358 35.4703C89.0862 36.8805 91.1136 39.9369 91.1136 39.9369Z" fill="#2D3748"/>
<path d="M106.18 98.2996H110.315V201.574H106.18V98.2996Z" fill="#E75300"/>
<path d="M128.474 98.2996H132.609V201.574H128.474V98.2996Z" fill="#E75300"/>
<path d="M128.474 98.2996V201.574H120.203V186.355H106.18V201.574H97.9084V98.2996H106.18V178.083H120.203V98.2996H128.474Z" fill="#E75300"/>
<path d="M106.18 201.232C106.067 201.232 105.958 201.187 105.878 201.107C105.798 201.026 105.753 200.918 105.753 200.804V186.36C105.753 186.247 105.798 186.138 105.878 186.058C105.958 185.978 106.067 185.933 106.18 185.933C106.294 185.933 106.402 185.978 106.483 186.058C106.563 186.138 106.608 186.247 106.608 186.36V200.81C106.606 200.922 106.561 201.029 106.481 201.108C106.401 201.187 106.293 201.232 106.18 201.232Z" fill="#2D3748"/>
<path d="M128.474 200.89C128.361 200.89 128.252 200.845 128.172 200.765C128.092 200.685 128.047 200.576 128.047 200.463V98.2996C128.047 98.1863 128.092 98.0776 128.172 97.9975C128.252 97.9173 128.361 97.8723 128.474 97.8723C128.588 97.8723 128.697 97.9173 128.777 97.9975C128.857 98.0776 128.902 98.1863 128.902 98.2996V200.463C128.902 200.576 128.857 200.685 128.777 200.765C128.697 200.845 128.588 200.89 128.474 200.89Z" fill="#2D3748"/>
<path d="M106.18 178.51C106.067 178.51 105.958 178.465 105.878 178.385C105.798 178.305 105.753 178.196 105.753 178.083V98.2996C105.753 98.1863 105.798 98.0776 105.878 97.9975C105.958 97.9173 106.067 97.8723 106.18 97.8723C106.294 97.8723 106.402 97.9173 106.483 97.9975C106.563 98.0776 106.608 98.1863 106.608 98.2996V178.083C106.608 178.196 106.563 178.305 106.483 178.385C106.402 178.465 106.294 178.51 106.18 178.51Z" fill="#2D3748"/>
<path d="M64.5801 178.083H120.203V186.355H64.5801V178.083Z" fill="#E75300"/>
<path d="M109.568 186.782H98.9341C98.8208 186.782 98.7121 186.737 98.6319 186.657C98.5518 186.577 98.5068 186.468 98.5068 186.355C98.5068 186.241 98.5518 186.133 98.6319 186.053C98.7121 185.972 98.8208 185.927 98.9341 185.927H109.568C109.682 185.927 109.79 185.972 109.871 186.053C109.951 186.133 109.996 186.241 109.996 186.355C109.996 186.468 109.951 186.577 109.871 186.657C109.79 186.737 109.682 186.782 109.568 186.782Z" fill="#2D3748"/>
<path d="M120.203 186.047C120.089 186.047 119.981 186.002 119.9 185.922C119.82 185.842 119.775 185.733 119.775 185.62V178.953C119.775 178.84 119.82 178.731 119.9 178.651C119.981 178.571 120.089 178.526 120.203 178.526C120.316 178.526 120.425 178.571 120.505 178.651C120.585 178.731 120.63 178.84 120.63 178.953V185.62C120.63 185.733 120.585 185.842 120.505 185.922C120.425 186.002 120.316 186.047 120.203 186.047Z" fill="#2D3748"/>
<path d="M109.611 178.51H99.0127C98.8994 178.51 98.7907 178.465 98.7106 178.385C98.6304 178.305 98.5854 178.196 98.5854 178.083C98.5854 177.97 98.6304 177.861 98.7106 177.781C98.7907 177.701 98.8994 177.656 99.0127 177.656H109.611C109.724 177.656 109.833 177.701 109.913 177.781C109.993 177.861 110.038 177.97 110.038 178.083C110.038 178.196 109.993 178.305 109.913 178.385C109.833 178.465 109.724 178.51 109.611 178.51Z" fill="#2D3748"/>
<path d="M50.5579 98.2996H54.693V201.574H50.5579V98.2996Z" fill="#E75300"/>
<path d="M72.8519 98.2996H76.987V201.574H72.8519V98.2996Z" fill="#E75300"/>
<path d="M76.987 186.047C76.8736 186.047 76.7649 186.002 76.6848 185.922C76.6047 185.842 76.5596 185.733 76.5596 185.62V178.967C76.5596 178.853 76.6047 178.745 76.6848 178.665C76.7649 178.584 76.8736 178.539 76.987 178.539C77.1003 178.539 77.209 178.584 77.2892 178.665C77.3693 178.745 77.4143 178.853 77.4143 178.967V185.62C77.4143 185.733 77.3693 185.842 77.2892 185.922C77.209 186.002 77.1003 186.047 76.987 186.047Z" fill="#2D3748"/>
<path d="M72.8519 98.2996V201.574H64.5801V186.355H50.5578V201.574H42.2859V98.2996H50.5578V178.083H64.5801V98.2996H72.8519Z" fill="#E75300"/>
<path d="M50.5578 200.89C50.4444 200.89 50.3357 200.845 50.2556 200.765C50.1755 200.685 50.1304 200.576 50.1304 200.463V186.36C50.1304 186.247 50.1755 186.138 50.2556 186.058C50.3357 185.978 50.4444 185.933 50.5578 185.933H54.0621C54.1754 185.933 54.2841 185.978 54.3643 186.058C54.4444 186.138 54.4894 186.247 54.4894 186.36C54.4894 186.473 54.4444 186.582 54.3643 186.662C54.2841 186.742 54.1754 186.787 54.0621 186.787H50.9851V200.463C50.9851 200.576 50.9401 200.685 50.86 200.765C50.7798 200.845 50.6711 200.89 50.5578 200.89Z" fill="#2D3748"/>
<path d="M72.852 201.232C72.7386 201.232 72.6299 201.187 72.5498 201.107C72.4696 201.026 72.4246 200.918 72.4246 200.804V98.727H64.575C64.4617 98.727 64.353 98.682 64.2728 98.6018C64.1927 98.5217 64.1476 98.413 64.1476 98.2996C64.1476 98.1863 64.1927 98.0776 64.2728 97.9975C64.353 97.9173 64.4617 97.8723 64.575 97.8723H72.8468C72.9602 97.8723 73.0689 97.9173 73.149 97.9975C73.2292 98.0776 73.2742 98.1863 73.2742 98.2996V200.804C73.2742 200.917 73.2299 201.025 73.1508 201.105C73.0718 201.185 72.9644 201.23 72.852 201.232Z" fill="#2D3748"/>
<path d="M54.0621 178.51H50.5578C50.4444 178.51 50.3357 178.465 50.2556 178.385C50.1755 178.305 50.1304 178.196 50.1304 178.083V98.2996C50.1304 98.1863 50.1755 98.0776 50.2556 97.9975C50.3357 97.9173 50.4444 97.8723 50.5578 97.8723C50.6711 97.8723 50.7798 97.9173 50.86 97.9975C50.9401 98.0776 50.9851 98.1863 50.9851 98.2996V177.656H54.0621C54.1754 177.656 54.2841 177.701 54.3643 177.781C54.4444 177.861 54.4894 177.97 54.4894 178.083C54.4894 178.196 54.4444 178.305 54.3643 178.385C54.2841 178.465 54.1754 178.51 54.0621 178.51Z" fill="#2D3748"/>
<path d="M36.8159 82.4278H71.0827V91.6466H36.8159V82.4278Z" fill="#006CE7"/>
<path d="M138.08 91.6466H71.0827V82.4278H138.08V91.6466Z" fill="#006CE7"/>
<path d="M71.0827 92.074C70.9693 92.074 70.8606 92.0289 70.7805 91.9488C70.7004 91.8686 70.6553 91.7599 70.6553 91.6466V83.1936C70.6553 83.0802 70.7004 82.9715 70.7805 82.8914C70.8606 82.8112 70.9693 82.7662 71.0827 82.7662C71.196 82.7662 71.3047 82.8112 71.3849 82.8914C71.465 82.9715 71.51 83.0802 71.51 83.1936V91.6466C71.51 91.7599 71.465 91.8686 71.3849 91.9488C71.3047 92.0289 71.196 92.074 71.0827 92.074Z" fill="#2D3748"/>
<path d="M42.2859 91.6466H72.8502V98.3013H42.2859V91.6466Z" fill="white"/>
<path d="M72.8519 98.8125H42.286C42.1499 98.8125 42.0195 98.7584 41.9233 98.6623C41.8272 98.5661 41.7731 98.4356 41.7731 98.2996V91.6466C41.7731 91.5106 41.8272 91.3802 41.9233 91.284C42.0195 91.1878 42.1499 91.1338 42.286 91.1338H72.8502C72.9862 91.1338 73.1167 91.1878 73.2128 91.284C73.309 91.3802 73.363 91.5106 73.363 91.6466V98.3013C73.3626 98.4368 73.3086 98.5665 73.2128 98.6623C73.1171 98.758 72.9873 98.812 72.8519 98.8125ZM42.8005 97.7868H72.3391V92.1594H42.7988V97.7885L42.8005 97.7868Z" fill="#2D3748"/>
<path d="M132.609 98.2997H72.8519V91.6449H132.609V98.2997Z" fill="white"/>
<path d="M132.61 98.8125H72.8519C72.7159 98.8125 72.5855 98.7584 72.4893 98.6623C72.3931 98.5661 72.3391 98.4356 72.3391 98.2996V91.6466C72.3391 91.5106 72.3931 91.3802 72.4893 91.284C72.5855 91.1878 72.7159 91.1338 72.8519 91.1338H132.61C132.746 91.1338 132.876 91.1878 132.972 91.284C133.068 91.3802 133.122 91.5106 133.122 91.6466V98.3013C133.122 98.4371 133.068 98.5671 132.972 98.6629C132.875 98.7587 132.745 98.8125 132.61 98.8125ZM73.3648 97.7868H132.097V92.1594H73.3648V97.7885V97.7868Z" fill="#2D3748"/>
<path d="M108.657 169.409L107.409 182.756L112.633 182.987L115.131 169.618L108.657 169.409Z" fill="white"/>
<path d="M112.633 183.5H112.609L107.386 183.268C107.316 183.264 107.248 183.247 107.186 183.217C107.123 183.187 107.067 183.144 107.022 183.092C106.976 183.039 106.942 182.978 106.921 182.912C106.899 182.846 106.892 182.776 106.898 182.707L108.146 169.36C108.158 169.23 108.219 169.109 108.317 169.023C108.415 168.937 108.542 168.891 108.673 168.895L115.144 169.103C115.218 169.106 115.291 169.124 115.357 169.157C115.423 169.19 115.481 169.237 115.527 169.295C115.574 169.353 115.607 169.419 115.625 169.491C115.643 169.563 115.645 169.638 115.632 169.71L113.134 183.08C113.113 183.197 113.051 183.303 112.96 183.38C112.868 183.457 112.753 183.499 112.633 183.5ZM107.97 182.268L112.211 182.456L114.517 170.112L109.124 169.941L107.97 182.268Z" fill="#2D3748"/>
<path d="M86.5973 199.247V201.574H115.365C115.365 201.574 115.459 200.358 115.548 198.316C115.719 194.297 115.934 187.546 115.399 180.073L106.218 178.601C106.218 178.601 98.3375 186.806 91.3255 193.182C90.5973 193.845 89.8315 194.49 89.0247 195.102C87.4811 196.275 86.5973 197.734 86.5973 199.247Z" fill="#006CE7"/>
<path d="M100.185 193.444C100.085 193.444 99.9865 193.414 99.9027 193.359C99.8188 193.303 99.7532 193.224 99.7138 193.132C99.6745 193.039 99.6632 192.937 99.6814 192.838C99.6996 192.739 99.7465 192.648 99.8162 192.575C105.951 186.215 108.705 180.951 108.736 180.898C108.8 180.781 108.908 180.694 109.036 180.656C109.163 180.617 109.301 180.629 109.42 180.691C109.539 180.752 109.629 180.857 109.671 180.983C109.713 181.11 109.705 181.248 109.647 181.368C109.534 181.587 106.804 186.808 100.555 193.286C100.507 193.336 100.449 193.376 100.386 193.403C100.323 193.43 100.254 193.444 100.185 193.444Z" fill="#2D3748"/>
<path d="M110.811 193.762C112.222 193.762 113.365 192.489 113.365 190.919C113.365 189.349 112.222 188.076 110.811 188.076C109.401 188.076 108.257 189.349 108.257 190.919C108.257 192.489 109.401 193.762 110.811 193.762Z" fill="white"/>
<path d="M110.811 194.274C109.12 194.274 107.744 192.768 107.744 190.919C107.744 189.069 109.112 187.563 110.811 187.563C112.51 187.563 113.878 189.069 113.878 190.919C113.878 192.768 112.502 194.274 110.811 194.274ZM110.811 188.587C109.686 188.587 108.77 189.633 108.77 190.917C108.77 192.201 109.686 193.247 110.811 193.247C111.936 193.247 112.852 192.201 112.852 190.917C112.852 189.633 111.938 188.582 110.811 188.582V188.587Z" fill="#2D3748"/>
<path d="M86.5973 199.247V201.574H115.365C115.365 201.574 115.459 200.358 115.548 198.316H100.361C100.361 198.316 99.3905 191.55 91.3255 193.187C90.5973 193.851 89.8315 194.495 89.0247 195.107C87.4811 196.274 86.5973 197.734 86.5973 199.247Z" fill="white"/>
<path d="M115.367 202.086H86.5973C86.4613 202.086 86.3308 202.032 86.2347 201.936C86.1385 201.84 86.0845 201.71 86.0845 201.574V199.245C86.0845 197.598 87.0178 195.98 88.7135 194.693C89.4708 194.119 90.2332 193.483 90.9802 192.803C91.0486 192.741 91.1324 192.698 91.223 192.68C94.0042 192.115 96.2948 192.451 98.0315 193.674C99.8897 194.984 100.561 196.934 100.777 197.801H115.548C115.617 197.801 115.686 197.815 115.749 197.842C115.813 197.869 115.871 197.909 115.919 197.959C115.966 198.009 116.004 198.068 116.028 198.133C116.053 198.198 116.064 198.267 116.061 198.336C115.972 200.363 115.878 201.598 115.876 201.61C115.867 201.739 115.809 201.86 115.715 201.948C115.621 202.036 115.496 202.086 115.367 202.086ZM87.1118 201.061H114.888C114.919 200.606 114.965 199.84 115.013 198.828H100.363C100.239 198.83 100.119 198.786 100.024 198.705C99.9299 198.624 99.8681 198.512 99.8503 198.389C99.8503 198.367 99.4657 195.938 97.4281 194.507C95.9614 193.481 93.9888 193.192 91.5614 193.652C90.8264 194.316 90.0759 194.939 89.3392 195.505C87.905 196.592 87.117 197.919 87.117 199.24V201.061H87.1118Z" fill="#2D3748"/>
<path d="M169.039 104.44C169.039 104.44 166.071 121.384 164.905 123.112C161.228 128.563 124.001 138.221 124.001 138.221L118.968 174.837L103.926 173.197C103.926 173.197 103.449 150.551 104.16 136.801C104.437 131.449 104.891 127.442 105.626 126.645C106.232 125.987 108.614 124.423 111.936 122.404C123.218 115.541 145.3 103.382 145.3 103.382C145.3 103.382 149.875 91.2774 158.013 94.7868C165.581 98.0501 169.979 98.7903 169.039 104.44Z" fill="#006CE7"/>
<path d="M113.175 131.642C111.45 135.604 107.534 137.782 104.16 136.801C104.437 131.449 104.891 127.442 105.626 126.645C106.232 125.987 108.615 124.423 111.936 122.404C114.069 124.513 114.661 128.219 113.175 131.642Z" fill="white"/>
<path d="M112.074 168.211H112.015C111.902 168.195 111.801 168.136 111.733 168.045C111.664 167.955 111.635 167.841 111.65 167.729L116.199 135.204C116.208 135.129 116.237 135.058 116.283 134.998C116.329 134.938 116.389 134.891 116.459 134.862L156.569 118.255L158.531 106.365C158.553 106.256 158.616 106.161 158.707 106.098C158.798 106.036 158.91 106.011 159.019 106.029C159.128 106.047 159.226 106.106 159.292 106.195C159.358 106.283 159.387 106.394 159.374 106.503L157.372 118.628C157.36 118.7 157.33 118.767 157.285 118.824C157.24 118.881 157.181 118.925 157.114 118.953L117.011 135.556L112.495 167.835C112.482 167.938 112.433 168.033 112.355 168.102C112.278 168.172 112.178 168.21 112.074 168.211Z" fill="#2D3748"/>
<path d="M116.746 171.524H116.7L106.177 170.406C106.064 170.394 105.96 170.337 105.888 170.249C105.816 170.16 105.783 170.047 105.795 169.933C105.807 169.82 105.863 169.716 105.952 169.644C106.041 169.573 106.154 169.539 106.268 169.551L116.791 170.669C116.904 170.675 117.01 170.726 117.086 170.81C117.162 170.894 117.202 171.005 117.196 171.119C117.19 171.232 117.139 171.339 117.055 171.414C116.971 171.49 116.859 171.53 116.746 171.524Z" fill="#2D3748"/>
<path d="M143.285 170.51L144.796 183.83L149.957 182.987L149.663 169.391L143.285 170.51Z" fill="white"/>
<path d="M144.796 184.343C144.669 184.344 144.547 184.298 144.452 184.214C144.358 184.13 144.297 184.014 144.283 183.888L142.772 170.568C142.757 170.439 142.793 170.308 142.871 170.204C142.949 170.099 143.064 170.029 143.192 170.006L149.57 168.886C149.643 168.873 149.718 168.877 149.789 168.895C149.861 168.914 149.928 168.948 149.985 168.995C150.042 169.042 150.088 169.101 150.121 169.167C150.153 169.234 150.17 169.306 150.172 169.38L150.466 182.977C150.468 183.1 150.425 183.219 150.346 183.313C150.267 183.408 150.157 183.47 150.035 183.49L144.875 184.333C144.849 184.338 144.822 184.341 144.796 184.343ZM143.849 170.932L145.245 183.24L149.435 182.556L149.163 170.003L143.849 170.932Z" fill="#2D3748"/>
<path d="M123.921 199.247V201.574H152.688C152.688 201.574 152.782 200.358 152.871 198.316C153.042 194.297 153.257 187.546 152.722 180.073L143.55 178.603C143.55 178.603 135.669 186.808 128.657 193.184C127.929 193.847 127.163 194.492 126.356 195.104C124.799 196.275 123.921 197.734 123.921 199.247Z" fill="#006CE7"/>
<path d="M137.509 193.444C137.408 193.444 137.31 193.414 137.226 193.359C137.142 193.303 137.076 193.224 137.037 193.132C136.998 193.039 136.986 192.937 137.005 192.838C137.023 192.739 137.07 192.648 137.139 192.575C143.293 186.204 146.028 180.951 146.059 180.9C146.089 180.838 146.131 180.783 146.182 180.738C146.233 180.692 146.293 180.658 146.358 180.636C146.423 180.614 146.492 180.606 146.561 180.611C146.629 180.616 146.696 180.635 146.756 180.667C146.817 180.698 146.871 180.741 146.915 180.794C146.959 180.847 146.992 180.908 147.012 180.973C147.032 181.039 147.038 181.108 147.031 181.176C147.024 181.244 147.003 181.31 146.97 181.37C146.857 181.589 144.127 186.809 137.878 193.288C137.83 193.338 137.773 193.377 137.709 193.403C137.646 193.43 137.577 193.444 137.509 193.444Z" fill="#2D3748"/>
<path d="M148.134 193.762C149.545 193.762 150.688 192.489 150.688 190.919C150.688 189.349 149.545 188.076 148.134 188.076C146.724 188.076 145.581 189.349 145.581 190.919C145.581 192.489 146.724 193.762 148.134 193.762Z" fill="white"/>
<path d="M148.134 194.274C146.444 194.274 145.068 192.768 145.068 190.919C145.068 189.069 146.435 187.563 148.134 187.563C149.834 187.563 151.201 189.069 151.201 190.919C151.201 192.768 149.825 194.274 148.134 194.274ZM148.134 188.587C147.01 188.587 146.093 189.633 146.093 190.917C146.093 192.201 147.01 193.247 148.134 193.247C149.259 193.247 150.175 192.201 150.175 190.917C150.175 189.633 149.261 188.582 148.134 188.582V188.587Z" fill="#2D3748"/>
<path d="M123.921 199.247V201.574H152.688C152.688 201.574 152.782 200.358 152.871 198.316H137.685C137.685 198.316 136.714 191.55 128.649 193.187C127.921 193.851 127.155 194.495 126.348 195.107C124.799 196.274 123.921 197.734 123.921 199.247Z" fill="white"/>
<path d="M152.69 202.086H123.921C123.785 202.086 123.654 202.032 123.558 201.936C123.462 201.84 123.408 201.71 123.408 201.574V199.245C123.408 197.598 124.341 195.98 126.037 194.693C126.794 194.119 127.556 193.483 128.303 192.803C128.372 192.741 128.456 192.698 128.546 192.68C131.329 192.115 133.618 192.451 135.355 193.674C137.213 194.984 137.885 196.934 138.1 197.801H152.871C152.94 197.801 153.009 197.815 153.073 197.842C153.136 197.869 153.194 197.909 153.242 197.959C153.29 198.009 153.327 198.068 153.351 198.133C153.376 198.198 153.387 198.267 153.384 198.336C153.295 200.363 153.201 201.598 153.199 201.61C153.19 201.739 153.133 201.86 153.038 201.948C152.944 202.036 152.819 202.086 152.69 202.086ZM124.435 201.061H152.211C152.24 200.606 152.288 199.84 152.336 198.828H137.686C137.562 198.83 137.442 198.786 137.347 198.705C137.253 198.624 137.191 198.512 137.174 198.389C137.174 198.365 136.789 195.938 134.751 194.507C133.285 193.481 131.31 193.192 128.885 193.652C128.15 194.317 127.399 194.939 126.662 195.505C125.228 196.592 124.44 197.919 124.44 199.24V201.061H124.435Z" fill="#2D3748"/>
<path d="M192.229 104.44C192.229 104.44 191.458 121.384 190.292 123.112C186.615 128.563 149.387 138.221 149.387 138.221L153.022 174.394L138.023 174.314C138.023 174.314 133.122 150.958 131.264 137.175C130.519 131.635 130.262 127.462 131.015 126.645C131.647 125.961 134.232 124.276 137.801 122.113C149.208 115.204 170.687 103.382 170.687 103.382C170.687 103.382 175.158 94.7868 183.399 94.7868C191.641 94.7868 193.17 98.7902 192.229 104.44Z" fill="#006CE7"/>
<path d="M139.637 131.869C138.02 135.584 134.483 137.729 131.261 137.168C130.515 131.628 130.259 127.455 131.011 126.638C131.644 125.954 134.228 124.269 137.798 122.107C140.411 124.088 141.257 128.148 139.637 131.869Z" fill="white"/>
<path d="M130.967 135.24C130.862 135.24 130.761 135.201 130.683 135.132C130.605 135.062 130.555 134.966 130.543 134.862C129.782 128.3 130.227 126.869 130.7 126.356C133.326 123.501 167.734 104.52 170.37 103.069C171.268 101.501 172.372 100.06 173.651 98.7834C176.543 95.8911 179.914 94.3611 183.394 94.3611C183.508 94.3611 183.616 94.4062 183.697 94.4863C183.777 94.5665 183.822 94.6752 183.822 94.7885C183.822 94.9018 183.777 95.0105 183.697 95.0907C183.616 95.1708 183.508 95.2159 183.394 95.2159C175.504 95.2159 171.104 103.496 171.059 103.58C171.02 103.652 170.961 103.712 170.888 103.751C170.522 103.966 133.907 124.137 131.329 126.934C131.103 127.178 130.659 128.431 131.392 134.763C131.399 134.819 131.394 134.875 131.379 134.929C131.363 134.983 131.337 135.034 131.302 135.078C131.268 135.122 131.224 135.158 131.175 135.186C131.126 135.213 131.072 135.23 131.016 135.237L130.967 135.24Z" fill="#2D3748"/>
<path d="M182.811 116.05C182.779 116.05 182.746 116.046 182.714 116.038C181.259 115.696 180.242 114.944 179.692 113.799C178.381 111.076 180.227 107.132 180.307 106.961C180.356 106.859 180.443 106.78 180.55 106.742C180.657 106.704 180.775 106.71 180.877 106.759C180.98 106.807 181.059 106.895 181.097 107.002C181.135 107.109 181.129 107.226 181.08 107.329C181.063 107.366 179.329 111.076 180.463 113.43C180.897 114.329 181.719 114.927 182.909 115.206C183.012 115.229 183.103 115.289 183.164 115.375C183.225 115.461 183.253 115.567 183.24 115.672C183.228 115.777 183.178 115.873 183.099 115.943C183.019 116.013 182.917 116.051 182.811 116.05Z" fill="#2D3748"/>
<path d="M146.17 168.211C146.066 168.211 145.966 168.173 145.888 168.105C145.81 168.036 145.76 167.941 145.746 167.838L141.587 135.317C141.575 135.224 141.594 135.129 141.641 135.048C141.688 134.967 141.76 134.903 141.847 134.867L181.957 118.26L183.919 106.37C183.941 106.262 184.005 106.166 184.095 106.104C184.186 106.041 184.298 106.016 184.407 106.034C184.516 106.052 184.614 106.111 184.68 106.2C184.746 106.288 184.775 106.399 184.762 106.508L182.76 118.633C182.748 118.705 182.718 118.772 182.673 118.829C182.628 118.886 182.569 118.93 182.502 118.958L142.476 135.534L146.594 167.727C146.601 167.783 146.597 167.84 146.583 167.894C146.568 167.948 146.543 167.999 146.509 168.043C146.474 168.088 146.432 168.125 146.383 168.153C146.334 168.181 146.281 168.199 146.225 168.206L146.17 168.211Z" fill="#2D3748"/>
<path d="M150.842 171.524H140.319C140.206 171.524 140.097 171.479 140.017 171.399C139.937 171.319 139.892 171.21 139.892 171.097C139.892 170.983 139.937 170.875 140.017 170.794C140.097 170.714 140.206 170.669 140.319 170.669H150.842C150.955 170.669 151.064 170.714 151.144 170.794C151.224 170.875 151.269 170.983 151.269 171.097C151.269 171.21 151.224 171.319 151.144 171.399C151.064 171.479 150.955 171.524 150.842 171.524Z" fill="#2D3748"/>
<path d="M94.9803 81.5577C95.0955 81.7302 95.2671 81.8574 95.4658 81.9173C95.6645 81.9771 95.8778 81.966 96.0692 81.8859L104.917 78.1799C105.089 78.1083 105.281 78.1038 105.455 78.1671C105.63 78.2304 105.775 78.357 105.861 78.5218C105.909 78.6138 105.938 78.7151 105.945 78.8189C105.952 78.9228 105.937 79.027 105.901 79.1247C105.865 79.2224 105.809 79.3115 105.736 79.3861C105.664 79.4607 105.576 79.5191 105.48 79.5577L102.589 80.7115C102.349 80.8074 102.148 80.9799 102.016 81.2023C101.885 81.4246 101.831 81.6843 101.862 81.9406C101.896 82.2141 102.025 82.4669 102.227 82.6545C102.428 82.8422 102.69 82.9526 102.965 82.9662L107.409 83.1902C108.796 83.2604 110.161 82.8174 111.242 81.9457L112.582 80.8671L115.844 80.7338L117.738 75.4055L113.312 74.9594L106.968 72.6619C106.488 72.4876 105.97 72.4404 105.466 72.5248C104.961 72.6093 104.487 72.8225 104.09 73.144L95.1546 80.3645C94.9819 80.5058 94.8683 80.7065 94.836 80.9273C94.8037 81.1481 94.8552 81.3729 94.9803 81.5577Z" fill="white"/>
<path d="M107.695 83.7064C107.591 83.7064 107.487 83.7064 107.384 83.7064L102.939 83.4825C102.553 83.4663 102.185 83.3178 101.896 83.0621C101.606 82.8063 101.414 82.4588 101.35 82.0778C101.287 81.6969 101.357 81.3058 101.548 80.9701C101.739 80.6345 102.039 80.3748 102.399 80.2346L105.29 79.0807C105.318 79.0695 105.343 79.0529 105.365 79.0318C105.386 79.0108 105.403 78.9857 105.415 78.958C105.427 78.9303 105.433 78.9005 105.434 78.8704C105.434 78.8403 105.428 78.8104 105.417 78.7824C105.406 78.7545 105.389 78.729 105.368 78.7075C105.347 78.686 105.322 78.6688 105.294 78.657C105.267 78.6452 105.237 78.6389 105.207 78.6386C105.177 78.6383 105.147 78.6439 105.119 78.6551L96.2674 82.3577C95.9671 82.4824 95.6328 82.4995 95.3213 82.4061C95.0098 82.3126 94.7401 82.1143 94.558 81.8449C94.3601 81.5531 94.2795 81.1973 94.3325 80.8488C94.3854 80.5002 94.5679 80.1844 94.8435 79.9645L103.779 72.7439C104.246 72.3685 104.802 72.1193 105.393 72.0203C105.984 71.9212 106.591 71.9755 107.155 72.1781L113.43 74.4534L117.792 74.8927C117.87 74.9003 117.945 74.9256 118.011 74.9665C118.078 75.0074 118.134 75.063 118.176 75.1289C118.217 75.1949 118.243 75.2694 118.252 75.347C118.26 75.4245 118.251 75.503 118.225 75.5764L116.321 80.9064C116.287 81.0029 116.224 81.0871 116.142 81.148C116.06 81.2089 115.961 81.2438 115.859 81.2483L112.765 81.3748L111.558 82.3474C110.463 83.2282 109.1 83.7077 107.695 83.7064ZM105.208 77.6072C105.501 77.6058 105.786 77.7072 106.012 77.8938C106.239 78.0805 106.393 78.3406 106.448 78.6289C106.503 78.9173 106.455 79.2158 106.313 79.4726C106.17 79.7293 105.943 79.9282 105.669 80.0346L102.779 81.1884C102.64 81.244 102.524 81.3455 102.45 81.4759C102.377 81.6063 102.35 81.7579 102.375 81.9055C102.399 82.0531 102.474 82.1879 102.585 82.2876C102.697 82.3872 102.839 82.4457 102.989 82.4534L107.433 82.6773C108.692 82.7407 109.931 82.3392 110.914 81.5491L112.254 80.4705C112.339 80.4016 112.445 80.3621 112.555 80.3577L115.471 80.238L117.035 75.8534L113.261 75.4739C113.219 75.4699 113.177 75.4607 113.138 75.4465L106.797 73.144C106.4 73.0012 105.973 72.9625 105.557 73.0317C105.141 73.1008 104.749 73.2754 104.42 73.5388L95.4845 80.7594C95.4111 80.8165 95.3611 80.8985 95.344 80.9899C95.3268 81.0813 95.3437 81.1759 95.3914 81.2557C95.4391 81.3355 95.5143 81.3952 95.603 81.4234C95.6916 81.4517 95.7875 81.4465 95.8726 81.4089L104.72 77.7047C104.875 77.6403 105.04 77.6072 105.208 77.6072Z" fill="#2D3748"/>
<path d="M165.114 62.3371C165.114 62.3371 154.951 71.4192 147.104 78.1406C146.472 78.6807 145.859 79.2038 145.263 79.7098C143.194 81.465 140.57 82.4283 137.857 82.4278H115.977C113.413 80.1491 112.662 77.2636 114.324 73.573L134.092 68.0687L156.471 43.3609L165.114 62.3371Z" fill="#E75300"/>
<path d="M147.104 78.1406C146.472 78.6807 145.859 79.2038 145.263 79.7098C143.194 81.465 140.57 82.4283 137.857 82.4278H136.49C136.408 82.1858 136.346 81.9377 136.304 81.6859C135.835 78.8688 138.013 76.1594 141.157 75.6346C143.645 75.2226 145.992 76.291 147.104 78.1406Z" fill="white"/>
<path d="M117.569 81.5028C118.135 81.2184 118.363 80.529 118.079 79.963C117.795 79.3969 117.105 79.1685 116.539 79.4528C115.973 79.7371 115.745 80.4266 116.029 80.9926C116.314 81.5587 117.003 81.7871 117.569 81.5028Z" fill="white"/>
<path d="M117.054 82.1389C116.646 82.1366 116.253 81.9846 115.95 81.7117C115.647 81.4388 115.455 81.064 115.41 80.6586C115.365 80.2532 115.471 79.8455 115.707 79.5129C115.943 79.1803 116.293 78.946 116.69 78.8547C117.088 78.7633 117.505 78.8211 117.863 79.0173C118.22 79.2134 118.493 79.5341 118.63 79.9183C118.767 80.3026 118.757 80.7238 118.604 81.1016C118.45 81.4795 118.163 81.7878 117.797 81.9679C117.566 82.0818 117.312 82.1403 117.054 82.1389ZM117.054 79.8431C116.916 79.8442 116.782 79.8903 116.672 79.9745C116.562 80.0588 116.483 80.1765 116.447 80.3097C116.41 80.443 116.418 80.5846 116.47 80.7129C116.521 80.8412 116.613 80.9492 116.731 81.0205C116.85 81.0919 116.988 81.1226 117.126 81.108C117.263 81.0934 117.392 81.0343 117.493 80.9397C117.593 80.8451 117.661 80.7202 117.684 80.584C117.707 80.4478 117.685 80.3077 117.621 80.185C117.568 80.081 117.486 79.9939 117.386 79.9336C117.286 79.8732 117.171 79.8419 117.054 79.8431Z" fill="#2D3748"/>
<path d="M120.531 82.1423C120.447 82.1424 120.364 82.1219 120.29 82.0826C120.216 82.0432 120.152 81.9862 120.105 81.9166C117.396 77.9098 118.279 73.291 118.317 73.0961C118.348 72.9673 118.428 72.8555 118.539 72.7841C118.651 72.7127 118.786 72.6872 118.916 72.7131C119.046 72.7389 119.161 72.8141 119.236 72.9228C119.312 73.0314 119.343 73.1652 119.322 73.2961C119.31 73.3559 118.493 77.7064 120.953 81.3423C121.005 81.4192 121.035 81.5088 121.04 81.6016C121.045 81.6943 121.025 81.7867 120.982 81.8688C120.938 81.951 120.873 82.0198 120.794 82.0679C120.715 82.1161 120.624 82.1418 120.531 82.1423Z" fill="#2D3748"/>
<path d="M199.292 47.5113C199.292 47.5113 185.871 38.5933 175.984 38.7711C166.097 38.9489 156.473 43.3626 156.473 43.3626C148.439 60.137 144.006 103.057 144.006 103.057C144.006 103.057 154.604 107.149 184.268 108.812L185.524 101.337C185.571 101.061 185.722 100.814 185.946 100.646C186.171 100.479 186.452 100.405 186.729 100.44C186.872 100.458 187.009 100.503 187.133 100.574C187.258 100.645 187.367 100.74 187.455 100.854C187.542 100.967 187.606 101.097 187.644 101.235C187.681 101.374 187.69 101.518 187.671 101.66L186.685 109.117C189.314 109.408 191.96 109.523 194.605 109.459C199.01 77.9833 199.292 47.5113 199.292 47.5113Z" fill="#E75300"/>
<path d="M147.772 76.7029C147.708 76.7032 147.646 76.6893 147.588 76.6623C147.531 76.6352 147.48 76.5957 147.44 76.5466C147.399 76.4975 147.371 76.44 147.355 76.3783C147.34 76.3167 147.339 76.2524 147.351 76.1901L149.693 64.1371C151.208 56.496 153.295 49.4532 155.57 44.3079C155.59 44.2528 155.621 44.2023 155.661 44.1596C155.701 44.117 155.75 44.083 155.803 44.0598C155.857 44.0366 155.915 44.0248 155.974 44.0249C156.032 44.0251 156.09 44.0373 156.144 44.0608C156.197 44.0843 156.246 44.1185 156.286 44.1614C156.325 44.2043 156.356 44.255 156.376 44.3102C156.395 44.3654 156.403 44.4241 156.399 44.4825C156.395 44.5409 156.379 44.5979 156.351 44.6498C154.1 49.7421 152.033 56.7199 150.539 64.308L148.198 76.3713C148.176 76.4671 148.121 76.5524 148.044 76.6128C147.966 76.6732 147.87 76.705 147.772 76.7029Z" fill="#2D3748"/>
<path d="M186.408 43.5524C184.5 47.6242 181.109 49.1934 179.003 49.7746C178.562 46.8122 177.203 43.0618 177.203 43.0618C175.493 45.2686 174.523 48.231 174.264 49.5883C168.994 47.9541 168.553 42.8224 168.553 42.8224C169.369 37.7216 173.899 34.0053 177.675 34.2566C186.023 34.8121 186.408 43.5524 186.408 43.5524Z" fill="white"/>
<path d="M179.003 50.2908C178.879 50.2922 178.759 50.2486 178.664 50.1681C178.57 50.0877 178.508 49.9758 178.49 49.8532C178.193 47.8601 177.464 45.4703 177.035 44.1797C175.965 45.8701 175.196 47.7337 174.764 49.6874C174.75 49.7585 174.722 49.826 174.681 49.8854C174.639 49.9448 174.586 49.9948 174.524 50.0321C174.462 50.0694 174.393 50.0931 174.321 50.1018C174.249 50.1104 174.176 50.1038 174.107 50.0823C168.572 48.3729 168.042 42.9267 168.037 42.872C168.032 42.8306 168.032 42.7887 168.037 42.7472C168.934 37.1267 173.849 33.4976 177.699 33.7506C182.251 34.0532 184.519 36.7096 185.618 38.8788C186.344 40.3304 186.783 41.9087 186.909 43.5267C186.913 43.6097 186.896 43.6925 186.861 43.7677C186.123 45.348 185.048 46.748 183.713 47.87C182.378 48.9919 180.813 49.8088 179.129 50.2635C179.089 50.2779 179.046 50.2871 179.003 50.2908ZM177.203 42.5523C177.309 42.5526 177.412 42.5857 177.498 42.6469C177.584 42.7081 177.65 42.7945 177.685 42.8942C177.738 43.0395 178.9 46.2652 179.413 49.1199C180.819 48.6645 182.118 47.9281 183.231 46.9554C184.344 45.9828 185.247 44.7942 185.887 43.4618C185.746 42.0208 185.344 40.6177 184.699 39.3216C183.271 36.5215 180.897 34.9933 177.642 34.7779C174.252 34.5506 169.888 37.9523 169.071 42.8464C169.136 43.4002 169.74 47.3438 173.89 48.925C174.264 47.431 175.194 44.8224 176.796 42.7558C176.843 42.6925 176.905 42.6411 176.975 42.6055C177.046 42.57 177.124 42.5512 177.203 42.5506V42.5523Z" fill="#2D3748"/>
<path d="M207.707 126.872H175.758V120.548C175.762 116.786 177.259 113.18 179.919 110.52C182.578 107.86 186.185 106.364 189.947 106.36H207.707V126.872ZM209.588 133.71C210.902 133.71 212.163 133.188 213.093 132.258C214.023 131.328 214.545 130.068 214.545 128.753V104.479C214.545 103.164 214.023 101.903 213.093 100.974C212.163 100.044 210.902 99.5219 209.588 99.5219H189.947C184.37 99.5219 179.022 101.737 175.079 105.68C171.136 109.623 168.921 114.971 168.921 120.548V128.753C168.921 130.068 169.443 131.328 170.373 132.258C171.302 133.188 172.563 133.71 173.878 133.71H209.588Z" fill="#E75300"/>
<path d="M206.6 91.4193C205.916 95.4774 204.89 98.6466 203.352 99.4535C202.806 100.178 201.625 101.081 200.075 102.071C193.533 106.24 180.389 111.913 180.389 111.913C174.117 110.546 174.15 103.794 174.15 103.794L190.929 86.5286C190.929 86.5286 194.567 58.7644 195.164 54.6037C195.76 50.443 199.294 47.5096 199.294 47.5096C204.89 51.0584 206.74 57.8345 207.547 69.6106C207.861 74.2226 207.798 84.2226 206.6 91.4193Z" fill="#E75300"/>
<path d="M180.388 112.342C180.357 112.342 180.327 112.339 180.297 112.332C173.764 110.908 173.721 103.864 173.721 103.785C173.722 103.675 173.765 103.569 173.842 103.489L190.523 86.3252C190.803 84.1799 194.17 58.4994 194.74 54.5302C195.112 51.9284 196.571 49.7985 197.728 48.4703C197.803 48.3892 197.907 48.3406 198.018 48.3348C198.129 48.329 198.237 48.3664 198.321 48.4392C198.405 48.5119 198.457 48.6143 198.466 48.7247C198.476 48.8351 198.442 48.945 198.372 49.031C197.29 50.272 195.929 52.255 195.586 54.6515C194.996 58.7541 191.389 86.2944 191.352 86.5714C191.34 86.6629 191.298 86.748 191.234 86.8141L174.579 103.966C174.618 104.992 175.082 110.236 180.345 111.469C181.307 111.05 187.538 108.32 193.239 105.404C193.34 105.352 193.457 105.343 193.565 105.378C193.673 105.412 193.762 105.489 193.814 105.589C193.866 105.69 193.875 105.808 193.84 105.915C193.806 106.023 193.729 106.113 193.629 106.165C187.437 109.332 180.625 112.279 180.557 112.308C180.503 112.331 180.446 112.343 180.388 112.342Z" fill="#2D3748"/>
<path d="M175.401 104.594C175.401 104.594 179.907 106.281 180.473 110.548L176.712 116.103L175.7 120.604C175.648 120.834 175.527 121.044 175.354 121.204C175.18 121.364 174.962 121.467 174.728 121.5L169.574 122.219C169.409 122.242 169.242 122.23 169.082 122.183C168.923 122.135 168.776 122.054 168.65 121.945C168.525 121.836 168.424 121.702 168.355 121.551C168.287 121.399 168.251 121.235 168.251 121.069V115.334L166.883 120.729C166.841 120.896 166.762 121.052 166.652 121.185C166.542 121.318 166.403 121.425 166.247 121.497C166.09 121.57 165.92 121.607 165.747 121.606C165.574 121.605 165.404 121.565 165.249 121.49C165.053 121.395 164.888 121.247 164.773 121.063C164.657 120.879 164.595 120.666 164.594 120.448L164.575 112.869C164.574 112.415 164.688 111.968 164.908 111.571C165.127 111.173 165.444 110.838 165.828 110.597L175.401 104.594Z" fill="white"/>
<path d="M169.413 122.743C168.969 122.743 168.543 122.566 168.229 122.252C167.914 121.938 167.738 121.512 167.738 121.067V119.466L167.396 120.854C167.335 121.095 167.221 121.32 167.063 121.511C166.904 121.703 166.705 121.857 166.479 121.962C166.254 122.067 166.007 122.121 165.758 122.119C165.51 122.117 165.264 122.06 165.04 121.951C164.759 121.813 164.522 121.6 164.355 121.335C164.189 121.07 164.099 120.763 164.097 120.45L164.063 112.871C164.059 112.329 164.194 111.796 164.455 111.321C164.717 110.847 165.095 110.448 165.555 110.161L175.128 104.158C175.194 104.116 175.27 104.09 175.349 104.082C175.427 104.074 175.507 104.084 175.581 104.112C175.777 104.185 180.381 105.96 180.981 110.479C180.997 110.604 180.968 110.731 180.897 110.835L177.191 116.305L176.199 120.719C176.124 121.05 175.949 121.351 175.699 121.581C175.449 121.812 175.134 121.961 174.798 122.009L169.644 122.729C169.567 122.739 169.49 122.743 169.413 122.743ZM168.251 114.821H168.314C168.439 114.837 168.553 114.897 168.636 114.992C168.719 115.086 168.764 115.208 168.764 115.334V121.06C168.764 121.153 168.784 121.245 168.822 121.329C168.861 121.414 168.917 121.489 168.987 121.55C169.057 121.611 169.139 121.656 169.228 121.682C169.317 121.709 169.41 121.716 169.502 121.703L174.661 120.992C174.792 120.973 174.913 120.915 175.01 120.826C175.107 120.737 175.175 120.62 175.205 120.491L176.217 115.99C176.231 115.929 176.256 115.871 176.292 115.819L179.94 110.43C179.399 107.171 176.317 105.565 175.451 105.173L166.105 111.035C165.794 111.229 165.537 111.499 165.36 111.821C165.183 112.142 165.091 112.504 165.093 112.871L165.117 120.45C165.118 120.559 165.146 120.666 165.198 120.761C165.251 120.857 165.327 120.937 165.419 120.996C165.511 121.054 165.616 121.088 165.724 121.095C165.833 121.103 165.942 121.082 166.04 121.037C166.128 120.996 166.205 120.937 166.267 120.862C166.328 120.788 166.372 120.701 166.396 120.607L167.764 115.213C167.79 115.103 167.852 115.005 167.941 114.934C168.029 114.863 168.138 114.824 168.251 114.821Z" fill="#2D3748"/>
<path d="M206.6 91.4193C205.916 95.4774 204.89 98.6466 203.352 99.4535C202.806 100.178 201.625 101.081 200.075 102.071C199.933 101.951 199.794 101.821 199.661 101.684C197.362 99.3116 197.547 95.4039 200.073 92.9663C201.9 91.1885 204.456 90.6688 206.6 91.4193Z" fill="white"/>
<path d="M184.717 108.325C184.612 108.325 184.51 108.286 184.432 108.215C184.354 108.144 184.304 108.047 184.294 107.942C183.762 102.942 179.249 101.77 179.203 101.759C179.097 101.729 179.007 101.658 178.951 101.563C178.896 101.467 178.88 101.354 178.907 101.246C178.933 101.139 179 101.046 179.094 100.987C179.187 100.928 179.3 100.908 179.408 100.93C179.459 100.942 184.548 102.264 185.143 107.854C185.155 107.966 185.122 108.079 185.051 108.167C184.98 108.255 184.876 108.312 184.764 108.324L184.717 108.325Z" fill="#2D3748"/>
<path d="M182.311 109.394C182.877 109.394 183.336 108.935 183.336 108.368C183.336 107.802 182.877 107.342 182.311 107.342C181.744 107.342 181.285 107.802 181.285 108.368C181.285 108.935 181.744 109.394 182.311 109.394Z" fill="white"/>
<path d="M182.311 109.907C182.006 109.907 181.709 109.816 181.456 109.647C181.203 109.478 181.006 109.238 180.889 108.957C180.773 108.676 180.742 108.366 180.802 108.068C180.861 107.769 181.008 107.495 181.223 107.28C181.438 107.065 181.712 106.919 182.01 106.859C182.309 106.8 182.618 106.83 182.899 106.947C183.18 107.063 183.421 107.26 183.59 107.513C183.759 107.766 183.849 108.064 183.849 108.368C183.849 108.776 183.687 109.167 183.398 109.456C183.11 109.744 182.719 109.907 182.311 109.907ZM182.311 107.855C182.209 107.855 182.11 107.885 182.026 107.942C181.941 107.998 181.876 108.078 181.837 108.172C181.798 108.266 181.788 108.369 181.808 108.468C181.827 108.568 181.876 108.659 181.948 108.731C182.02 108.802 182.111 108.851 182.211 108.871C182.31 108.891 182.413 108.881 182.507 108.842C182.601 108.803 182.681 108.737 182.737 108.653C182.793 108.569 182.823 108.469 182.823 108.368C182.823 108.232 182.769 108.102 182.673 108.005C182.577 107.909 182.447 107.855 182.311 107.855Z" fill="#2D3748"/>
<path d="M182.902 24.0907L182.6 29.219L182.087 38.0002C179.064 39.9712 176.182 40.0959 173.476 37.9233L174.015 33.8549L174.83 27.6925L182.902 24.0907Z" fill="white"/>
<path d="M177.632 40.0344C176.066 40.0344 174.569 39.4652 173.153 38.325C173.084 38.2699 173.031 38.198 172.998 38.1163C172.965 38.0346 172.954 37.9457 172.965 37.8583L174.317 27.6258C174.329 27.5388 174.362 27.4563 174.415 27.3859C174.467 27.3156 174.536 27.2599 174.617 27.2241L182.695 23.6241C182.776 23.588 182.864 23.5734 182.952 23.5815C183.04 23.5896 183.124 23.6202 183.196 23.6704C183.269 23.7206 183.327 23.7886 183.366 23.868C183.404 23.9473 183.422 24.0352 183.417 24.1232L182.598 38.0361C182.593 38.1163 182.57 38.1943 182.529 38.2638C182.489 38.3333 182.433 38.3923 182.365 38.4361C180.729 39.5016 179.151 40.0344 177.632 40.0344ZM174.022 37.7045C176.334 39.4395 178.808 39.4429 181.589 37.713L182.343 24.9027L175.299 28.0463L174.022 37.7045Z" fill="#2D3748"/>
<path d="M180.114 25.3335C179.998 27.6531 179.957 35.5626 173.7 36.2156L174.827 27.6942L180.114 25.3335Z" fill="#2D3748"/>
<path d="M167.3 24.2172C167.726 28.4463 168.953 33.5027 174.027 32.7164C180.058 31.7796 183.957 27.5164 184.013 21.7762C184.07 16.036 181.423 12.8001 174.55 13.4582C173.965 13.5129 173.386 13.6164 172.818 13.7676C168.864 14.8325 166.875 18.1112 167.121 21.9557C167.165 22.6514 167.216 23.4206 167.3 24.2172Z" fill="white"/>
<path d="M173.017 33.3113C171.873 33.3373 170.757 32.9623 169.861 32.2514C167.338 30.2258 166.859 25.8924 166.613 21.995C166.463 19.6445 167.09 17.5505 168.427 15.93C169.834 14.2206 171.936 13.1949 174.505 12.9539C174.641 12.941 174.777 12.9826 174.882 13.0697C174.988 13.1567 175.054 13.282 175.067 13.418C175.08 13.554 175.038 13.6896 174.951 13.7949C174.864 13.9002 174.739 13.9666 174.603 13.9796C170.09 14.412 167.355 17.5334 167.637 21.9334C167.808 24.595 168.124 29.5489 170.507 31.4617C171.415 32.1899 172.541 32.4395 173.952 32.2207C176.199 31.8788 178.138 31.0583 179.716 29.8053C179.822 29.7207 179.958 29.682 180.093 29.6975C180.228 29.7131 180.352 29.7816 180.436 29.8882C180.521 29.9947 180.56 30.1305 180.544 30.2656C180.528 30.4007 180.46 30.5241 180.353 30.6087C178.659 31.9557 176.5 32.8651 174.109 33.2361C173.747 33.2892 173.382 33.3144 173.017 33.3113Z" fill="#2D3748"/>
<path d="M185.806 22.8565C185.225 23.6974 184.572 24.4861 183.854 25.2138L180.813 25.4018L180.165 23.248C180.165 23.248 178.235 23.1625 177.835 21.86C177.825 21.8303 177.816 21.8001 177.81 21.7694C177.707 21.342 177.312 19.4394 177.601 16.4821C177.601 16.4821 172.962 18.5334 170.435 18.7967C169.528 18.8924 168.466 18.5437 167.478 18.0548C165.502 17.077 163.774 13.8565 164.119 11.6787V11.6377C164.663 8.44621 166.326 10.6565 166.326 10.6565C166.326 10.6565 166.801 8.09236 168.411 7.90091C170.022 7.70946 171.047 10.0907 171.047 10.0907C174.138 9.37066 177.336 9.23729 180.476 9.6975C186.7 10.6479 185.152 14.9351 185.152 14.9351C185.152 14.9351 189.735 16.4069 185.806 22.8565Z" fill="#2D3748"/>
<path d="M181.475 25.0753C181.213 22.6822 182.899 20.4514 185.295 20.1762C185.803 20.115 186.319 20.1516 186.813 20.2839C189.782 21.0856 189.003 28.0001 181.736 27.4736L181.475 25.0753Z" fill="white"/>
<path d="M182.495 28.0138C182.237 28.0138 181.972 28.0036 181.699 27.9848C181.563 27.9748 181.436 27.9112 181.347 27.808C181.258 27.7047 181.213 27.5703 181.223 27.4343C181.233 27.2983 181.297 27.1719 181.4 27.0827C181.503 26.9936 181.638 26.9491 181.774 26.9591C185.776 27.2497 187.564 25.207 187.875 23.3694C188.088 22.1112 187.586 21.0206 186.678 20.7762C186.247 20.6611 185.797 20.6291 185.353 20.6822C183.261 20.9232 181.75 22.8668 181.984 25.0172C181.999 25.1532 181.959 25.2895 181.873 25.3961C181.787 25.5027 181.663 25.5709 181.527 25.5856C181.391 25.6003 181.255 25.5604 181.148 25.4747C181.041 25.3889 180.973 25.2644 180.958 25.1283C180.664 22.4189 182.581 19.9676 185.232 19.6582C185.804 19.5904 186.385 19.6322 186.941 19.7813C188.369 20.1659 189.184 21.7454 188.88 23.542C188.497 25.8309 186.377 28.0138 182.495 28.0138Z" fill="#2D3748"/>
<path d="M51.7356 202.086H208.536C208.672 202.086 208.803 202.032 208.899 201.936C208.995 201.84 209.049 201.71 209.049 201.574C209.049 201.438 208.995 201.307 208.899 201.211C208.803 201.115 208.672 201.061 208.536 201.061H51.7356C51.5996 201.061 51.4692 201.115 51.373 201.211C51.2768 201.307 51.2228 201.438 51.2228 201.574C51.2228 201.71 51.2768 201.84 51.373 201.936C51.4692 202.032 51.5996 202.086 51.7356 202.086Z" fill="#2D3748"/>
<path d="M46.9834 201.061H38.674C38.5379 201.061 38.4075 201.115 38.3113 201.211C38.2152 201.307 38.1611 201.438 38.1611 201.574C38.1611 201.71 38.2152 201.84 38.3113 201.936C38.4075 202.032 38.5379 202.086 38.674 202.086H46.9834C47.1194 202.086 47.2498 202.032 47.346 201.936C47.4422 201.84 47.4962 201.71 47.4962 201.574C47.4962 201.438 47.4422 201.307 47.346 201.211C47.2498 201.115 47.1194 201.061 46.9834 201.061Z" fill="#2D3748"/>
<path d="M216.236 201.061H212.08C211.944 201.061 211.814 201.115 211.717 201.211C211.621 201.307 211.567 201.438 211.567 201.574C211.567 201.71 211.621 201.84 211.717 201.936C211.814 202.032 211.944 202.086 212.08 202.086H216.236C216.372 202.086 216.502 202.032 216.598 201.936C216.694 201.84 216.748 201.71 216.748 201.574C216.748 201.438 216.694 201.307 216.598 201.211C216.502 201.115 216.372 201.061 216.236 201.061Z" fill="#2D3748"/>
<path d="M94.8811 208.856H165.393C165.529 208.856 165.659 208.802 165.755 208.706C165.851 208.609 165.905 208.479 165.905 208.343C165.905 208.207 165.851 208.076 165.755 207.98C165.659 207.884 165.529 207.83 165.393 207.83H94.8811C94.7451 207.83 94.6147 207.884 94.5185 207.98C94.4223 208.076 94.3683 208.207 94.3683 208.343C94.3683 208.479 94.4223 208.609 94.5185 208.706C94.6147 208.802 94.7451 208.856 94.8811 208.856Z" fill="#2D3748"/>
<path d="M71.0827 208.856H85.9136C86.0496 208.856 86.18 208.802 86.2762 208.706C86.3723 208.609 86.4264 208.479 86.4264 208.343C86.4264 208.207 86.3723 208.076 86.2762 207.98C86.18 207.884 86.0496 207.83 85.9136 207.83H71.0827C70.9467 207.83 70.8163 207.884 70.7201 207.98C70.6239 208.076 70.5699 208.207 70.5699 208.343C70.5699 208.479 70.6239 208.609 70.7201 208.706C70.8163 208.802 70.9467 208.856 71.0827 208.856Z" fill="#2D3748"/>
<path d="M175.931 208.856H180.815C180.951 208.856 181.081 208.802 181.178 208.706C181.274 208.609 181.328 208.479 181.328 208.343C181.328 208.207 181.274 208.076 181.178 207.98C181.081 207.884 180.951 207.83 180.815 207.83H175.938C175.802 207.83 175.671 207.884 175.575 207.98C175.479 208.076 175.425 208.207 175.425 208.343C175.425 208.479 175.479 208.609 175.575 208.706C175.671 208.802 175.802 208.856 175.938 208.856" fill="#2D3748"/>
<path d="M131.368 44.7113C131.297 44.7113 131.226 44.6931 131.163 44.6585C131.1 44.6238 131.046 44.5738 131.008 44.5131L129.907 42.7814C129.849 42.6858 129.83 42.5712 129.856 42.4622C129.881 42.3532 129.948 42.2585 130.043 42.1985C130.137 42.1385 130.252 42.118 130.361 42.1413C130.471 42.1646 130.566 42.23 130.628 42.3233L131.729 44.0549C131.77 44.1195 131.793 44.194 131.796 44.2705C131.798 44.347 131.78 44.4227 131.743 44.4898C131.706 44.5569 131.652 44.6128 131.586 44.6518C131.52 44.6908 131.445 44.7113 131.368 44.7113ZM133.078 43.6857C132.985 43.6857 132.895 43.6556 132.821 43.6001C132.747 43.5445 132.693 43.4665 132.668 43.3776C132.642 43.2888 132.646 43.194 132.678 43.1074C132.711 43.0209 132.771 42.9473 132.849 42.8977L134.58 41.7968C134.628 41.7654 134.681 41.7438 134.737 41.7332C134.793 41.7226 134.85 41.7233 134.906 41.7351C134.961 41.747 135.014 41.7698 135.06 41.8022C135.107 41.8346 135.147 41.876 135.177 41.924C135.208 41.9719 135.228 42.0255 135.238 42.0815C135.247 42.1375 135.246 42.1949 135.233 42.2502C135.22 42.3055 135.196 42.3577 135.163 42.4037C135.129 42.4497 135.087 42.4886 135.039 42.5182L133.307 43.619C133.24 43.6602 133.163 43.6821 133.085 43.6823L133.078 43.6857ZM136.541 41.4823C136.449 41.4822 136.359 41.4522 136.285 41.3966C136.211 41.3411 136.157 41.263 136.131 41.1742C136.105 41.0854 136.109 40.9906 136.141 40.904C136.174 40.8175 136.234 40.7438 136.312 40.6942L138.044 39.5934C138.091 39.562 138.144 39.5404 138.2 39.5298C138.256 39.5192 138.313 39.5199 138.369 39.5317C138.424 39.5435 138.477 39.5663 138.524 39.5988C138.57 39.6312 138.61 39.6726 138.64 39.7206C138.671 39.7685 138.691 39.8221 138.701 39.8781C138.711 39.9341 138.709 39.9914 138.696 40.0467C138.683 40.1021 138.659 40.1543 138.626 40.2003C138.593 40.2463 138.55 40.2852 138.502 40.3147L136.77 41.4156C136.702 41.4592 136.622 41.4823 136.541 41.4823ZM129.163 41.2498C129.091 41.2498 129.021 41.2316 128.958 41.1969C128.895 41.1623 128.841 41.1122 128.803 41.0515L127.702 39.3199C127.644 39.2243 127.625 39.1096 127.651 39.0006C127.676 38.8916 127.743 38.797 127.838 38.737C127.932 38.677 128.046 38.6564 128.156 38.6798C128.265 38.7031 128.361 38.7684 128.423 38.8617L129.533 40.5917C129.574 40.6565 129.597 40.7313 129.599 40.8081C129.601 40.8849 129.583 40.9609 129.546 41.028C129.508 41.0952 129.454 41.1511 129.387 41.1898C129.321 41.2286 129.245 41.2487 129.168 41.2481L129.163 41.2498ZM140.004 39.2823C139.912 39.2822 139.822 39.2522 139.748 39.1966C139.674 39.1411 139.62 39.063 139.594 38.9742C139.568 38.8854 139.572 38.7905 139.605 38.704C139.637 38.6175 139.697 38.5438 139.775 38.4942L141.507 37.3934C141.554 37.362 141.607 37.3404 141.663 37.3298C141.719 37.3192 141.776 37.3198 141.832 37.3317C141.888 37.3435 141.94 37.3663 141.987 37.3988C142.034 37.4312 142.073 37.4726 142.104 37.5205C142.134 37.5685 142.155 37.6221 142.164 37.6781C142.174 37.7341 142.172 37.7914 142.159 37.8467C142.146 37.9021 142.122 37.9543 142.089 38.0003C142.056 38.0463 142.014 38.0852 141.965 38.1147L140.233 39.2156C140.166 39.2577 140.089 39.2802 140.01 39.2806L140.004 39.2823ZM126.968 37.7865C126.897 37.7865 126.826 37.7683 126.763 37.7337C126.7 37.699 126.646 37.649 126.608 37.5882L125.507 35.8566C125.476 35.8092 125.454 35.7561 125.443 35.7003C125.433 35.6445 125.433 35.5871 125.445 35.5315C125.457 35.476 125.48 35.4233 125.512 35.3767C125.545 35.33 125.586 35.2903 125.634 35.2599C125.682 35.2294 125.736 35.2088 125.792 35.1993C125.848 35.1898 125.905 35.1915 125.96 35.2044C126.016 35.2173 126.068 35.2412 126.114 35.2745C126.16 35.3078 126.199 35.3499 126.228 35.3985L127.327 37.1284C127.369 37.1929 127.392 37.2674 127.395 37.344C127.398 37.4206 127.38 37.4965 127.343 37.5638C127.306 37.6311 127.252 37.6873 127.186 37.7265C127.12 37.7657 127.045 37.7864 126.968 37.7865Z" fill="#2D3748"/>
<path d="M141.741 38.1814C141.669 38.1817 141.598 38.1636 141.534 38.1289C141.471 38.0943 141.417 38.0441 141.379 37.9831L135.033 28.0002L125.05 34.3455C125.003 34.3769 124.95 34.3985 124.894 34.4091C124.838 34.4196 124.781 34.419 124.725 34.4072C124.67 34.3953 124.617 34.3725 124.571 34.3401C124.524 34.3077 124.484 34.2662 124.454 34.2183C124.423 34.1703 124.403 34.1168 124.393 34.0608C124.384 34.0048 124.385 33.9474 124.398 33.8921C124.411 33.8368 124.435 33.7846 124.468 33.7386C124.502 33.6925 124.544 33.6536 124.592 33.6241L134.936 27.0429C135.032 26.9822 135.148 26.9619 135.258 26.9866C135.369 27.0113 135.465 27.0789 135.526 27.1745L142.1 37.5181C142.143 37.5827 142.167 37.6577 142.171 37.7351C142.174 37.8125 142.157 37.8893 142.12 37.9575C142.083 38.0256 142.028 38.0824 141.961 38.1218C141.895 38.1613 141.819 38.1819 141.741 38.1814Z" fill="#2D3748"/>
<path d="M129.951 51.2396C129.879 51.2396 129.809 51.2214 129.746 51.1867C129.683 51.1521 129.629 51.102 129.591 51.0413L123.016 40.6976C122.956 40.602 122.935 40.4861 122.96 40.3755C122.985 40.2649 123.052 40.1687 123.148 40.1079L133.492 33.5386C133.587 33.4779 133.703 33.4577 133.814 33.4823C133.924 33.507 134.021 33.5746 134.081 33.6703L140.656 44.0139C140.716 44.1096 140.737 44.2254 140.712 44.336C140.687 44.4466 140.62 44.5429 140.524 44.6037L130.18 51.178C130.111 51.2198 130.032 51.2411 129.951 51.2396ZM123.968 40.6002L130.085 50.2225L139.707 44.1062L133.591 34.4839L123.968 40.6002Z" fill="#2D3748"/>
<path d="M123.379 40.8891C123.315 40.8888 123.253 40.8746 123.196 40.8473C123.139 40.82 123.089 40.7804 123.049 40.7314C123.009 40.6823 122.98 40.625 122.965 40.5636C122.95 40.5022 122.949 40.4382 122.962 40.3763L124.404 33.8908C124.429 33.7801 124.497 33.6839 124.592 33.6231C124.688 33.5624 124.804 33.5421 124.915 33.5668C125.025 33.5915 125.121 33.6592 125.182 33.7549C125.243 33.8506 125.263 33.9665 125.239 34.0771L123.794 40.5626C123.771 40.6557 123.718 40.7385 123.643 40.7977C123.568 40.8569 123.474 40.8891 123.379 40.8891Z" fill="#2D3748"/>
<path d="M133.721 34.3216C133.657 34.3213 133.595 34.307 133.538 34.2798C133.481 34.2525 133.431 34.2129 133.391 34.1639C133.351 34.1148 133.322 34.0575 133.307 33.9961C133.292 33.9347 133.291 33.8707 133.304 33.8087L134.748 27.3232C134.773 27.2126 134.84 27.1163 134.936 27.0556C135.032 26.9948 135.148 26.9746 135.258 26.9993C135.369 27.024 135.465 27.0916 135.526 27.1873C135.587 27.283 135.607 27.3989 135.582 27.5096L134.138 33.9951C134.115 34.0885 134.062 34.1715 133.986 34.2307C133.91 34.29 133.817 34.322 133.721 34.3216Z" fill="#2D3748"/>
<path d="M140.302 44.6652C140.239 44.6649 140.176 44.6507 140.119 44.6234C140.062 44.5961 140.012 44.5565 139.972 44.5075C139.932 44.4584 139.904 44.4011 139.888 44.3397C139.873 44.2783 139.872 44.2143 139.885 44.1524L141.327 37.66C141.352 37.5494 141.42 37.4531 141.516 37.3924C141.611 37.3316 141.727 37.3114 141.838 37.3361C141.948 37.3608 142.045 37.4284 142.105 37.5241C142.166 37.6198 142.186 37.7357 142.162 37.8463L140.717 44.3318C140.696 44.4262 140.643 44.5106 140.568 44.5711C140.492 44.6317 140.399 44.6648 140.302 44.6652Z" fill="#2D3748"/>
<path d="M130.059 50.7609C129.996 50.7607 129.933 50.7464 129.876 50.7192C129.819 50.6919 129.769 50.6523 129.729 50.6033C129.689 50.5542 129.661 50.4969 129.646 50.4355C129.631 50.3741 129.629 50.3101 129.642 50.2481L130.086 48.2396C130.111 48.1289 130.179 48.0327 130.274 47.9719C130.37 47.9112 130.486 47.8909 130.597 47.9156C130.707 47.9403 130.804 48.008 130.864 48.1037C130.925 48.1994 130.945 48.3153 130.921 48.4259L130.474 50.4276C130.453 50.522 130.4 50.6063 130.325 50.6669C130.25 50.7275 130.156 50.7606 130.059 50.7609ZM130.951 46.7558C130.888 46.7556 130.826 46.7413 130.769 46.714C130.712 46.6867 130.661 46.6472 130.621 46.5981C130.582 46.549 130.553 46.4917 130.538 46.4303C130.523 46.3689 130.522 46.3049 130.534 46.243L130.98 44.2413C131.005 44.1306 131.073 44.0344 131.168 43.9736C131.264 43.9129 131.38 43.8926 131.491 43.9173C131.601 43.942 131.698 44.0097 131.758 44.1054C131.819 44.2011 131.839 44.317 131.815 44.4276L131.368 46.4293C131.346 46.523 131.293 46.6064 131.217 46.666C131.141 46.7256 131.048 46.7578 130.951 46.7575V46.7558Z" fill="#2D3748"/>
<path d="M101.804 17.9369H101.741L87.5682 15.8377C87.4847 15.8252 87.4067 15.7882 87.3442 15.7315C87.2817 15.6747 87.2373 15.6006 87.2169 15.5187C87.1964 15.4368 87.2006 15.3506 87.2291 15.2711C87.2576 15.1915 87.3089 15.1222 87.3768 15.0719L103.65 2.99832C103.718 2.94584 103.8 2.91493 103.886 2.90961C103.971 2.90429 104.056 2.92479 104.13 2.96847C104.204 3.01215 104.262 3.07698 104.299 3.15455C104.335 3.23211 104.348 3.31883 104.334 3.40345L102.226 17.5728C102.211 17.6739 102.16 17.7663 102.083 17.8331C102.005 17.9 101.906 17.9368 101.804 17.9369ZM88.7135 15.1386L101.443 17.0189L103.324 4.28893L88.7135 15.1386Z" fill="#2D3748"/>
<path d="M99.6674 15.0565C99.6011 15.0565 99.5357 15.041 99.4763 15.0114C99.417 14.9817 99.3654 14.9386 99.3256 14.8855L98.7119 14.0513C98.6439 13.9607 98.6147 13.8467 98.6307 13.7345C98.6467 13.6223 98.7067 13.5211 98.7974 13.4531C98.888 13.3851 99.002 13.3559 99.1142 13.3719C99.2264 13.3879 99.3276 13.4479 99.3956 13.5385L100.008 14.3625C100.058 14.4258 100.09 14.5021 100.098 14.5826C100.107 14.6632 100.093 14.7445 100.057 14.8173C100.022 14.89 99.9662 14.9511 99.8971 14.9935C99.8281 15.0358 99.7484 15.0577 99.6674 15.0565Z" fill="#2D3748"/>
<path d="M97.7256 12.4394C97.6592 12.4394 97.5938 12.4239 97.5345 12.3943C97.4751 12.3646 97.4235 12.3215 97.3837 12.2684L96.0538 10.4753C96.0201 10.4304 95.9956 10.3793 95.9817 10.3249C95.9677 10.2705 95.9647 10.214 95.9726 10.1584C95.9805 10.1028 95.9993 10.0494 96.0279 10.0011C96.0565 9.95282 96.0944 9.91064 96.1393 9.87696C96.1841 9.84329 96.2352 9.81879 96.2896 9.80486C96.344 9.79093 96.4005 9.78785 96.4561 9.79579C96.5116 9.80373 96.5651 9.82253 96.6134 9.85112C96.6617 9.87971 96.7039 9.91754 96.7375 9.96243L98.0675 11.7556C98.1151 11.8191 98.1441 11.8946 98.1512 11.9736C98.1583 12.0527 98.1433 12.1321 98.1078 12.2031C98.0723 12.2741 98.0178 12.3338 97.9503 12.3755C97.8827 12.4173 97.8049 12.4394 97.7256 12.4394ZM95.064 8.84961C94.9977 8.84961 94.9322 8.83416 94.8729 8.80449C94.8136 8.77482 94.7619 8.73174 94.7221 8.67867L93.3922 6.8855C93.3242 6.79482 93.295 6.68085 93.311 6.56865C93.3271 6.45644 93.387 6.35521 93.4777 6.2872C93.5684 6.2192 93.6823 6.19 93.7945 6.20603C93.9067 6.22206 94.008 6.282 94.076 6.37267L95.4059 8.16584C95.454 8.22933 95.4834 8.30499 95.4908 8.38431C95.4982 8.46362 95.4833 8.54342 95.4477 8.6147C95.4122 8.68598 95.3574 8.74591 95.2896 8.78772C95.2218 8.82953 95.1437 8.85156 95.064 8.85132V8.84961ZM92.4025 5.25985C92.3361 5.25985 92.2707 5.2444 92.2114 5.21473C92.152 5.18506 92.1004 5.14198 92.0606 5.08891L90.729 3.29915C90.661 3.20848 90.6318 3.09451 90.6478 2.9823C90.6638 2.8701 90.7238 2.76886 90.8144 2.70086C90.9051 2.63285 91.0191 2.60366 91.1313 2.61968C91.2435 2.63571 91.3447 2.69566 91.4127 2.78633L92.7427 4.5795C92.7907 4.64287 92.8201 4.71838 92.8275 4.79754C92.835 4.8767 92.8202 4.95637 92.7849 5.02759C92.7495 5.09882 92.695 5.15877 92.6274 5.2007C92.5599 5.24264 92.482 5.2649 92.4025 5.26498V5.25985Z" fill="#2D3748"/>
<path d="M89.7426 1.67864C89.6763 1.67864 89.6108 1.6632 89.5515 1.63353C89.4922 1.60386 89.4406 1.56078 89.4007 1.5077L88.7905 0.683766C88.7225 0.593094 88.6933 0.47912 88.7093 0.366918C88.7253 0.254716 88.7853 0.153477 88.876 0.0854727C88.9666 0.0174681 89.0806 -0.011732 89.1928 0.00429681C89.305 0.0203256 89.4062 0.0802704 89.4743 0.170943L90.0845 0.994879C90.1321 1.05837 90.1611 1.13387 90.1683 1.21291C90.1754 1.29195 90.1604 1.37142 90.1249 1.44241C90.0894 1.51339 90.0348 1.57309 89.9673 1.61482C89.8998 1.65654 89.822 1.67864 89.7426 1.67864Z" fill="#2D3748"/>
<path d="M101.804 17.9369H101.741L98.1922 17.4104C98.1366 17.4022 98.0832 17.3832 98.035 17.3544C97.9868 17.3255 97.9447 17.2875 97.9112 17.2424C97.8777 17.1973 97.8534 17.1461 97.8398 17.0916C97.8261 17.0371 97.8233 16.9804 97.8315 16.9249C97.9878 15.8713 98.5559 14.9228 99.4111 14.2879C100.266 13.6529 101.338 13.3834 102.392 13.5385C102.448 13.5467 102.501 13.5657 102.549 13.5946C102.598 13.6234 102.64 13.6614 102.673 13.7065C102.707 13.7516 102.731 13.8028 102.745 13.8573C102.758 13.9118 102.761 13.9685 102.753 14.024L102.226 17.5728C102.211 17.6739 102.16 17.7663 102.083 17.8331C102.005 17.9 101.906 17.9368 101.804 17.9369ZM98.7632 16.6274L101.437 17.024L101.84 14.3505H101.802C101.118 14.3506 100.452 14.5725 99.9038 14.983C99.3558 15.3935 98.9556 15.9704 98.7632 16.6274Z" fill="#2D3748"/>
<path d="M45.8552 12.3607C45.8093 12.3606 45.7637 12.3531 45.7202 12.3385L34.1987 8.52141C34.0911 8.48582 34.0019 8.40892 33.951 8.30761C33.9 8.20631 33.8913 8.08891 33.9269 7.98124C33.9625 7.87356 34.0394 7.78443 34.1407 7.73346C34.242 7.68249 34.3594 7.67385 34.4671 7.70944L45.9885 11.5266C46.0857 11.5578 46.1685 11.6228 46.2219 11.7098C46.2753 11.7968 46.2959 11.9 46.2797 12.0008C46.2636 12.1017 46.212 12.1934 46.1341 12.2594C46.0562 12.3254 45.9573 12.3614 45.8552 12.3607Z" fill="#2D3748"/>
<path d="M42.7766 18.13L42.0928 16.142L40.4347 17.3556L39.4091 17.0138L41.8125 15.3043L40.8467 12.4975L42.1082 12.9163L42.7749 14.8753L44.3134 13.6445L45.339 13.9864L43.0364 15.6428L44.0091 18.5368L42.7766 18.13Z" fill="#2D3748"/>
<path d="M38.3133 16.7334C38.2674 16.7334 38.2218 16.7259 38.1782 16.7112L32.5526 14.848C32.4789 14.8237 32.4133 14.7799 32.3626 14.7212C32.312 14.6624 32.2783 14.5911 32.2651 14.5147C32.252 14.4383 32.2598 14.3597 32.2879 14.2874C32.3159 14.2152 32.3631 14.1519 32.4244 14.1044L36.6261 10.8428C36.6816 10.7999 36.7467 10.7712 36.8159 10.7594C36.885 10.7476 36.956 10.7531 37.0226 10.7752C37.0891 10.7973 37.1492 10.8355 37.1975 10.8863C37.2458 10.9372 37.2809 10.9991 37.2996 11.0667L38.7218 16.195C38.7388 16.258 38.7411 16.324 38.7286 16.3881C38.7161 16.4521 38.6891 16.5124 38.6496 16.5644C38.6102 16.6164 38.5594 16.6587 38.5011 16.688C38.4428 16.7172 38.3785 16.7328 38.3133 16.7334ZM33.5833 14.289L35.6346 14.9727L37.6859 15.6565L36.6483 11.9163L33.5833 14.289Z" fill="#2D3748"/>
<path d="M41.0997 8.32142C41.0537 8.32134 41.0081 8.31384 40.9646 8.2992L38.1526 7.36757L35.3441 6.43594C35.2704 6.41168 35.2048 6.36785 35.1541 6.30914C35.1035 6.25043 35.0698 6.17905 35.0566 6.10265C35.0435 6.02624 35.0513 5.9477 35.0794 5.87542C35.1074 5.80314 35.1546 5.73986 35.2159 5.69234L39.4159 2.42737C39.4713 2.38443 39.5365 2.3558 39.6057 2.344C39.6748 2.33221 39.7458 2.33762 39.8124 2.35975C39.8789 2.38188 39.939 2.42005 39.9873 2.4709C40.0356 2.52174 40.0707 2.5837 40.0894 2.6513L41.5116 7.77953C41.5293 7.84304 41.532 7.90977 41.5196 7.9745C41.5072 8.03924 41.48 8.10023 41.4401 8.1527C41.4002 8.20518 41.3487 8.24771 41.2897 8.27698C41.2306 8.30625 41.1656 8.32146 41.0997 8.32142ZM38.421 6.55731L40.4723 7.24107L39.4347 3.50088L36.3697 5.87696L38.421 6.55731Z" fill="#2D3748"/>
<path d="M44.7663 6.55559L44.1954 6.35901L44.4193 5.67525L44.9903 5.86499L45.4535 4.46498C45.6131 3.98179 45.8455 3.64789 46.151 3.46327C46.3166 3.37071 46.501 3.31665 46.6904 3.3051C46.8798 3.29356 47.0693 3.32484 47.245 3.3966C47.3719 3.43819 47.4931 3.49562 47.6057 3.56754C47.7202 3.6402 47.8229 3.73015 47.9099 3.83421L47.4074 4.27524C47.3779 4.21643 47.3363 4.16455 47.2854 4.123C47.2344 4.08145 47.1752 4.05119 47.1116 4.03421C47.0252 3.99952 46.9315 3.98652 46.8388 3.99635C46.7461 4.00618 46.6573 4.03855 46.58 4.09062C46.391 4.25374 46.2577 4.4719 46.1988 4.71456L45.7373 6.10602L46.7971 6.47867L46.5732 7.16243L45.5116 6.81029L44.6296 9.47356L43.8911 9.21885L44.7663 6.55559Z" fill="#2D3748"/>
<path d="M14.0414 67.4926C13.975 67.4926 13.9096 67.4772 13.8503 67.4475C13.7909 67.4178 13.7393 67.3748 13.6995 67.3217C13.5884 67.1764 10.9388 63.6943 9.28752 57.9302C7.63622 52.1661 8.03794 47.8105 8.05503 47.6276C8.06614 47.5142 8.12181 47.4099 8.20981 47.3377C8.29781 47.2654 8.41092 47.231 8.52426 47.2421C8.6376 47.2532 8.74189 47.3089 8.81418 47.3969C8.88647 47.4849 8.92084 47.598 8.90973 47.7113C8.90973 47.7541 8.50802 52.0977 10.1063 57.6943C11.7046 63.2909 14.3474 66.7644 14.3798 66.7986C14.4303 66.8618 14.4618 66.938 14.4707 67.0183C14.4796 67.0987 14.4655 67.1799 14.43 67.2526C14.3946 67.3253 14.3393 67.3864 14.2705 67.4289C14.2017 67.4714 14.1222 67.4935 14.0414 67.4926Z" fill="#2D3748"/>
<path d="M22.0944 65.1849H22.0517C21.9957 65.1796 21.9414 65.1633 21.8918 65.1369C21.8422 65.1106 21.7983 65.0747 21.7626 65.0313C21.7269 64.988 21.7001 64.938 21.6837 64.8843C21.6673 64.8306 21.6616 64.7742 21.667 64.7183C21.667 64.6755 22.0687 60.3319 20.4704 54.7353C18.8722 49.1387 16.2294 45.6652 16.1969 45.6293C16.1289 45.5386 16.0997 45.4246 16.1157 45.3124C16.1318 45.2002 16.1917 45.099 16.2824 45.031C16.3731 44.963 16.487 44.9338 16.5992 44.9498C16.7114 44.9659 16.8127 45.0258 16.8807 45.1165C16.9918 45.2618 19.6414 48.7438 21.2927 54.508C22.944 60.2721 22.5423 64.6277 22.5252 64.8106C22.5121 64.9151 22.4609 65.0111 22.3814 65.0802C22.3019 65.1493 22.1997 65.1866 22.0944 65.1849Z" fill="#2D3748"/>
<path d="M15.2072 46.7712L14.2003 54.3695L13.1867 54.6601L13.561 52.0139L10.1832 48.2122L11.3405 47.8806L13.7491 50.708L14.2619 47.043L15.2072 46.7712Z" fill="#2D3748"/>
<path d="M18.3576 63.6243L16.6739 62.3661L15.9901 64.3029L14.9439 64.602L15.9696 61.8294L13.5884 60.055L14.867 59.6892L16.5234 60.9319L17.0927 59.0516L18.1286 58.7542L17.1764 61.4242L19.6038 63.2824L18.3576 63.6243Z" fill="#2D3748"/>
<path d="M11.6567 57.6858C11.554 57.6854 11.4549 57.648 11.3775 57.5804C11.3001 57.5129 11.2496 57.4197 11.2353 57.318C11.2209 57.2163 11.2437 57.1128 11.2995 57.0265C11.3552 56.9402 11.4402 56.8769 11.5388 56.8482L19.214 54.6481C19.268 54.6327 19.3245 54.628 19.3803 54.6343C19.4361 54.6407 19.4902 54.6579 19.5393 54.6852C19.5884 54.7124 19.6317 54.749 19.6667 54.793C19.7016 54.8369 19.7276 54.8873 19.7431 54.9413C19.7586 54.9953 19.7633 55.0518 19.7569 55.1076C19.7506 55.1634 19.7333 55.2174 19.7061 55.2666C19.6789 55.3157 19.6422 55.359 19.5983 55.3939C19.5543 55.4289 19.5039 55.4549 19.4499 55.4704L11.7747 57.6704C11.7363 57.681 11.6966 57.6862 11.6567 57.6858Z" fill="#2D3748"/>
<path d="M11.5029 101.166L10.7541 99.3697L9.29602 100.59L8.31995 100.336L10.4379 98.6073L9.37807 96.0723L10.5747 96.3834L11.3029 98.1543L12.643 96.9253L13.6089 97.1765L11.5832 98.8535L12.655 101.469L11.5029 101.166Z" fill="#2D3748"/>
<path d="M20.2123 99.139L19.9935 99.9817L14.7371 98.6142L14.9559 97.7714L20.2123 99.139ZM19.6875 101.151L19.4687 101.994L14.2123 100.626L14.4311 99.7834L19.6875 101.151Z" fill="#2D3748"/>
<path d="M23.65 104.334L22.9012 102.537L21.4431 103.758L20.4722 103.503L22.5901 101.775L21.5303 99.2398L22.7269 99.5509L23.4602 101.322L24.8004 100.093L25.7662 100.344L23.7491 102.023L24.8209 104.638L23.65 104.334Z" fill="#2D3748"/>
<path d="M26.5611 101.556C26.8512 101.264 27.2162 101.058 27.6158 100.959C28.0417 100.855 28.4872 100.861 28.9099 100.978C29.3328 101.081 29.7217 101.291 30.0381 101.59C30.3322 101.869 30.5434 102.224 30.6483 102.616C30.7564 103.017 30.7564 103.44 30.6483 103.842C30.548 104.247 30.3436 104.619 30.0552 104.92C29.7718 105.214 29.4116 105.421 29.0158 105.52C28.5883 105.626 28.1407 105.619 27.7167 105.5C27.2973 105.398 26.9097 105.193 26.5885 104.905C26.2874 104.633 26.0693 104.282 25.9594 103.891C25.8442 103.476 25.8442 103.037 25.9594 102.621C26.0603 102.218 26.2682 101.85 26.5611 101.556ZM26.903 103.671C26.9592 103.919 27.0814 104.149 27.2569 104.334C27.4787 104.562 27.772 104.707 28.0879 104.746C28.4038 104.785 28.7234 104.714 28.9936 104.546C29.3291 104.329 29.5669 103.99 29.6569 103.601C29.7688 103.215 29.7272 102.802 29.5406 102.447C29.453 102.276 29.3294 102.127 29.1782 102.008C29.0271 101.89 28.8521 101.807 28.6654 101.763C28.4189 101.695 28.1578 101.701 27.915 101.782C27.6733 101.863 27.4566 102.004 27.2859 102.194C27.1103 102.392 26.9846 102.63 26.9192 102.887C26.8538 103.143 26.8506 103.412 26.9099 103.671H26.903Z" fill="#2D3748"/>
</g>
<defs>
<clipPath id="clip0_1_562">
<rect width="220" height="209" fill="white" transform="translate(8)"/>
</clipPath>
</defs>
</svg>
