<svg viewBox="0 0 99 22" fill="none" xmlns="http://www.w3.org/2000/svg">
<path d="M32.896 16.16C32.0107 16.16 31.248 15.9947 30.608 15.664C29.968 15.3333 29.472 14.864 29.12 14.256C28.7787 13.648 28.608 12.928 28.608 12.096C28.608 11.2853 28.7733 10.576 29.104 9.968C29.4453 9.36 29.9093 8.88533 30.496 8.544C31.0933 8.192 31.7707 8.016 32.528 8.016C33.0827 8.016 33.5787 8.10667 34.016 8.288C34.464 8.46933 34.8427 8.73067 35.152 9.072C35.472 9.41333 35.712 9.82933 35.872 10.32C36.0427 10.8 36.128 11.344 36.128 11.952C36.128 12.144 36.0587 12.2933 35.92 12.4C35.792 12.496 35.6053 12.544 35.36 12.544H30.224V11.392H34.72L34.464 11.632C34.464 11.1413 34.3893 10.7307 34.24 10.4C34.1013 10.0693 33.8933 9.81867 33.616 9.648C33.3493 9.46667 33.0133 9.376 32.608 9.376C32.16 9.376 31.776 9.48267 31.456 9.696C31.1467 9.89867 30.9067 10.192 30.736 10.576C30.576 10.9493 30.496 11.3973 30.496 11.92V12.032C30.496 12.9067 30.6987 13.5627 31.104 14C31.52 14.4267 32.128 14.64 32.928 14.64C33.2053 14.64 33.5147 14.608 33.856 14.544C34.208 14.4693 34.5387 14.3467 34.848 14.176C35.072 14.048 35.2693 13.9947 35.44 14.016C35.6107 14.0267 35.744 14.0853 35.84 14.192C35.9467 14.2987 36.0107 14.432 36.032 14.592C36.0533 14.7413 36.0213 14.896 35.936 15.056C35.8613 15.216 35.728 15.3547 35.536 15.472C35.1627 15.7067 34.7307 15.8827 34.24 16C33.76 16.1067 33.312 16.16 32.896 16.16ZM40.7199 16.16C40.0372 16.16 39.4345 15.9947 38.9119 15.664C38.3999 15.3333 37.9999 14.864 37.7119 14.256C37.4239 13.6373 37.2799 12.912 37.2799 12.08C37.2799 11.2373 37.4239 10.5173 37.7119 9.92C37.9999 9.312 38.3999 8.84267 38.9119 8.512C39.4345 8.18133 40.0372 8.016 40.7199 8.016C41.3705 8.016 41.9359 8.176 42.4159 8.496C42.9065 8.816 43.2372 9.23733 43.4079 9.76H43.2319V5.6C43.2319 5.26933 43.3172 5.01867 43.4879 4.848C43.6585 4.67733 43.9039 4.592 44.2239 4.592C44.5439 4.592 44.7892 4.67733 44.9599 4.848C45.1412 5.01867 45.2319 5.26933 45.2319 5.6V15.104C45.2319 15.4347 45.1465 15.6907 44.9759 15.872C44.8052 16.0427 44.5599 16.128 44.2399 16.128C43.9199 16.128 43.6745 16.0427 43.5039 15.872C43.3332 15.6907 43.2479 15.4347 43.2479 15.104V13.856L43.4239 14.336C43.2639 14.8907 42.9385 15.3333 42.4479 15.664C41.9572 15.9947 41.3812 16.16 40.7199 16.16ZM41.2799 14.64C41.6745 14.64 42.0212 14.544 42.3199 14.352C42.6185 14.16 42.8479 13.8773 43.0079 13.504C43.1785 13.12 43.2639 12.6453 43.2639 12.08C43.2639 11.2267 43.0825 10.592 42.7199 10.176C42.3572 9.74933 41.8772 9.536 41.2799 9.536C40.8852 9.536 40.5385 9.632 40.2399 9.824C39.9412 10.0053 39.7065 10.288 39.5359 10.672C39.3759 11.0453 39.2959 11.5147 39.2959 12.08C39.2959 12.9227 39.4772 13.5627 39.8399 14C40.2025 14.4267 40.6825 14.64 41.2799 14.64ZM50.1376 16.16C49.487 16.16 48.9483 16.0427 48.5216 15.808C48.095 15.5627 47.775 15.2 47.5616 14.72C47.359 14.24 47.2576 13.6427 47.2576 12.928V9.056C47.2576 8.71467 47.343 8.464 47.5136 8.304C47.6843 8.13333 47.9296 8.048 48.2496 8.048C48.5696 8.048 48.815 8.13333 48.9856 8.304C49.167 8.464 49.2576 8.71467 49.2576 9.056V12.96C49.2576 13.5147 49.3696 13.9253 49.5936 14.192C49.8176 14.4587 50.175 14.592 50.6656 14.592C51.199 14.592 51.6363 14.4107 51.9776 14.048C52.319 13.6747 52.4896 13.184 52.4896 12.576V9.056C52.4896 8.71467 52.575 8.464 52.7456 8.304C52.9163 8.13333 53.1616 8.048 53.4816 8.048C53.8016 8.048 54.047 8.13333 54.2176 8.304C54.399 8.464 54.4896 8.71467 54.4896 9.056V15.104C54.4896 15.7867 54.1643 16.128 53.5136 16.128C53.2043 16.128 52.9643 16.0427 52.7936 15.872C52.623 15.6907 52.5376 15.4347 52.5376 15.104V13.888L52.7616 14.368C52.5376 14.944 52.1963 15.3867 51.7376 15.696C51.2896 16.0053 50.7563 16.16 50.1376 16.16Z" fill="#006CE7"/>
<path d="M61.0833 16.16C60.4219 16.16 59.8406 15.9947 59.3393 15.664C58.8486 15.3333 58.5233 14.8907 58.3633 14.336L58.5393 13.936V15.104C58.5393 15.4347 58.4539 15.6907 58.2833 15.872C58.1126 16.0427 57.8726 16.128 57.5633 16.128C57.2433 16.128 56.9979 16.0427 56.8273 15.872C56.6566 15.6907 56.5713 15.4347 56.5713 15.104V5.6C56.5713 5.26933 56.6566 5.01867 56.8273 4.848C56.9979 4.67733 57.2433 4.592 57.5633 4.592C57.8833 4.592 58.1286 4.67733 58.2993 4.848C58.4806 5.01867 58.5713 5.26933 58.5713 5.6V9.76H58.3793C58.5499 9.23733 58.8806 8.816 59.3713 8.496C59.8619 8.176 60.4326 8.016 61.0833 8.016C61.7766 8.016 62.3793 8.18133 62.8913 8.512C63.4033 8.84267 63.8033 9.312 64.0913 9.92C64.3793 10.5173 64.5233 11.2373 64.5233 12.08C64.5233 12.912 64.3793 13.6373 64.0913 14.256C63.8033 14.864 63.3979 15.3333 62.8753 15.664C62.3633 15.9947 61.7659 16.16 61.0833 16.16ZM60.5233 14.64C60.9179 14.64 61.2646 14.544 61.5633 14.352C61.8619 14.16 62.0913 13.8773 62.2513 13.504C62.4219 13.12 62.5073 12.6453 62.5073 12.08C62.5073 11.2267 62.3259 10.592 61.9633 10.176C61.6006 9.74933 61.1206 9.536 60.5233 9.536C60.1286 9.536 59.7819 9.632 59.4833 9.824C59.1846 10.0053 58.9499 10.288 58.7793 10.672C58.6193 11.0453 58.5393 11.5147 58.5393 12.08C58.5393 12.9227 58.7206 13.5627 59.0833 14C59.4459 14.4267 59.9259 14.64 60.5233 14.64ZM69.733 16.16C68.9223 16.16 68.2183 15.9947 67.621 15.664C67.0237 15.3333 66.5597 14.864 66.229 14.256C65.8983 13.6373 65.733 12.912 65.733 12.08C65.733 11.4507 65.8237 10.8907 66.005 10.4C66.197 9.89867 66.469 9.472 66.821 9.12C67.173 8.75733 67.5943 8.48533 68.085 8.304C68.5757 8.112 69.125 8.016 69.733 8.016C70.5437 8.016 71.2477 8.18133 71.845 8.512C72.4423 8.84267 72.9063 9.312 73.237 9.92C73.5677 10.528 73.733 11.248 73.733 12.08C73.733 12.7093 73.637 13.2747 73.445 13.776C73.2637 14.2773 72.997 14.7093 72.645 15.072C72.293 15.424 71.8717 15.696 71.381 15.888C70.8903 16.0693 70.341 16.16 69.733 16.16ZM69.733 14.64C70.1277 14.64 70.4743 14.544 70.773 14.352C71.0717 14.16 71.301 13.8773 71.461 13.504C71.6317 13.12 71.717 12.6453 71.717 12.08C71.717 11.2267 71.5357 10.592 71.173 10.176C70.8103 9.74933 70.3303 9.536 69.733 9.536C69.3383 9.536 68.9917 9.632 68.693 9.824C68.3943 10.0053 68.1597 10.288 67.989 10.672C67.829 11.0453 67.749 11.5147 67.749 12.08C67.749 12.9227 67.9303 13.5627 68.293 14C68.6557 14.4267 69.1357 14.64 69.733 14.64ZM77.9598 16.16C77.3944 16.16 76.8878 16.0533 76.4398 15.84C76.0024 15.616 75.6558 15.3173 75.3997 14.944C75.1544 14.5707 75.0318 14.1493 75.0318 13.68C75.0318 13.104 75.1811 12.6507 75.4798 12.32C75.7784 11.9787 76.2638 11.7333 76.9358 11.584C77.6078 11.4347 78.5091 11.36 79.6398 11.36H80.4398V12.512H79.6558C78.9944 12.512 78.4664 12.544 78.0718 12.608C77.6771 12.672 77.3944 12.784 77.2238 12.944C77.0638 13.0933 76.9838 13.3067 76.9838 13.584C76.9838 13.936 77.1064 14.224 77.3518 14.448C77.5971 14.672 77.9384 14.784 78.3758 14.784C78.7278 14.784 79.0371 14.704 79.3038 14.544C79.5811 14.3733 79.7998 14.144 79.9598 13.856C80.1198 13.568 80.1998 13.2373 80.1998 12.864V11.024C80.1998 10.4907 80.0824 10.1067 79.8478 9.872C79.6131 9.63733 79.2184 9.52 78.6638 9.52C78.3544 9.52 78.0184 9.55733 77.6558 9.632C77.3038 9.70667 76.9304 9.83467 76.5358 10.016C76.3331 10.112 76.1518 10.1387 75.9918 10.096C75.8424 10.0533 75.7251 9.968 75.6398 9.84C75.5544 9.70133 75.5118 9.552 75.5118 9.392C75.5118 9.232 75.5544 9.07733 75.6398 8.928C75.7251 8.768 75.8691 8.65067 76.0718 8.576C76.5624 8.37333 77.0318 8.22933 77.4798 8.144C77.9384 8.05867 78.3544 8.016 78.7278 8.016C79.4958 8.016 80.1251 8.13333 80.6158 8.368C81.1171 8.60267 81.4904 8.96 81.7358 9.44C81.9811 9.90933 82.1038 10.5173 82.1038 11.264V15.104C82.1038 15.4347 82.0238 15.6907 81.8638 15.872C81.7038 16.0427 81.4744 16.128 81.1758 16.128C80.8771 16.128 80.6424 16.0427 80.4718 15.872C80.3118 15.6907 80.2318 15.4347 80.2318 15.104V14.336H80.3598C80.2851 14.7093 80.1358 15.0347 79.9118 15.312C79.6984 15.5787 79.4264 15.7867 79.0958 15.936C78.7651 16.0853 78.3864 16.16 77.9598 16.16ZM85.1578 16.128C84.8271 16.128 84.5711 16.0427 84.3898 15.872C84.2191 15.6907 84.1338 15.4347 84.1338 15.104V9.056C84.1338 8.72533 84.2191 8.47467 84.3898 8.304C84.5604 8.13333 84.8004 8.048 85.1098 8.048C85.4191 8.048 85.6591 8.13333 85.8298 8.304C86.0004 8.47467 86.0858 8.72533 86.0858 9.056V10.064H85.9258C86.0751 9.424 86.3684 8.93867 86.8058 8.608C87.2431 8.27733 87.8244 8.08 88.5498 8.016C88.7738 7.99467 88.9498 8.05333 89.0778 8.192C89.2164 8.32 89.2964 8.52267 89.3178 8.8C89.3391 9.06667 89.2751 9.28533 89.1258 9.456C88.9871 9.616 88.7738 9.712 88.4858 9.744L88.1338 9.776C87.4831 9.84 86.9924 10.0427 86.6618 10.384C86.3311 10.7147 86.1658 11.184 86.1658 11.792V15.104C86.1658 15.4347 86.0804 15.6907 85.9098 15.872C85.7391 16.0427 85.4884 16.128 85.1578 16.128ZM93.2824 16.16C92.5997 16.16 91.997 15.9947 91.4744 15.664C90.9624 15.3333 90.5624 14.864 90.2744 14.256C89.9864 13.6373 89.8424 12.912 89.8424 12.08C89.8424 11.2373 89.9864 10.5173 90.2744 9.92C90.5624 9.312 90.9624 8.84267 91.4744 8.512C91.997 8.18133 92.5997 8.016 93.2824 8.016C93.933 8.016 94.4984 8.176 94.9784 8.496C95.469 8.816 95.7997 9.23733 95.9704 9.76H95.7944V5.6C95.7944 5.26933 95.8797 5.01867 96.0504 4.848C96.221 4.67733 96.4664 4.592 96.7864 4.592C97.1064 4.592 97.3517 4.67733 97.5224 4.848C97.7037 5.01867 97.7944 5.26933 97.7944 5.6V15.104C97.7944 15.4347 97.709 15.6907 97.5384 15.872C97.3677 16.0427 97.1224 16.128 96.8024 16.128C96.4824 16.128 96.237 16.0427 96.0664 15.872C95.8957 15.6907 95.8104 15.4347 95.8104 15.104V13.856L95.9864 14.336C95.8264 14.8907 95.501 15.3333 95.0104 15.664C94.5197 15.9947 93.9437 16.16 93.2824 16.16ZM93.8424 14.64C94.237 14.64 94.5837 14.544 94.8824 14.352C95.181 14.16 95.4104 13.8773 95.5704 13.504C95.741 13.12 95.8264 12.6453 95.8264 12.08C95.8264 11.2267 95.645 10.592 95.2824 10.176C94.9197 9.74933 94.4397 9.536 93.8424 9.536C93.4477 9.536 93.101 9.632 92.8024 9.824C92.5037 10.0053 92.269 10.288 92.0984 10.672C91.9384 11.0453 91.8584 11.5147 91.8584 12.08C91.8584 12.9227 92.0397 13.5627 92.4024 14C92.765 14.4267 93.245 14.64 93.8424 14.64Z" fill="#E75300"/>
<path d="M23.3377 7.34511L12.8774 4.13134C12.3074 3.95622 11.6924 3.95622 11.1227 4.13134L0.662065 7.34511C-0.220688 7.61623 -0.220688 8.78361 0.662065 9.05474L2.4857 9.61499C2.08557 10.1096 1.83957 10.713 1.81519 11.3737C1.45407 11.5807 1.19982 11.9542 1.19982 12.4001C1.19982 12.8044 1.41282 13.1445 1.71957 13.362L0.762191 17.67C0.67894 18.0446 0.963941 18.4001 1.34757 18.4001H3.4517C3.8357 18.4001 4.1207 18.0446 4.03745 17.67L3.08007 13.362C3.38683 13.1445 3.59983 12.8044 3.59983 12.4001C3.59983 11.9662 3.3572 11.6032 3.01257 11.3925C3.04107 10.8292 3.32908 10.3312 3.78845 10.0155L11.1224 12.2689C11.4621 12.3731 12.1139 12.5033 12.877 12.2689L23.3377 9.05511C24.2208 8.78361 24.2208 7.61661 23.3377 7.34511ZM13.2295 13.416C12.1596 13.7445 11.248 13.563 10.7699 13.416L5.33158 11.7454L4.79983 16.0001C4.79983 17.3258 8.02334 18.4001 11.9999 18.4001C15.9764 18.4001 19.1999 17.3258 19.1999 16.0001L18.6681 11.745L13.2295 13.416Z" fill="#006CE7"/>
</svg>
