<svg viewBox="0 0 193 148" fill="none" xmlns="http://www.w3.org/2000/svg">
<path opacity="0.18" d="M82.9856 4.20641C78.7848 2.58437 74.4261 1.40535 69.9805 0.688533C53.4055 -1.93199 35.2634 2.92541 23.9555 15.2998C17.7065 22.1469 13.805 30.8018 10.6447 39.5217C3.86259 58.2166 -0.0194345 77.5616 7.31693e-05 97.3944C0.0748943 108.965 4.65059 120.052 12.7581 128.308C24.1765 139.817 41.0637 144.148 57.2485 145C73.4333 145.851 89.6702 143.732 105.855 144.603C121.169 145.429 136.417 148.934 151.704 147.763C166.992 146.593 183.196 139.401 189.244 125.303C195.798 110.009 190.375 83.2449 177.344 72.9188C162.642 61.2728 144.279 55.0953 130.188 42.6495C123.997 37.1938 118.919 30.6068 113.17 24.6894C104.633 15.9175 94.352 8.55662 82.9856 4.20641Z" fill="#006CE7"/>
<path d="M59.5764 66.9885C59.6219 68.6596 60.4478 70.1942 61.2736 71.6508C65.006 78.2509 69.2002 84.7534 74.9874 89.6564C83.4993 96.8547 94.6447 99.9629 105.413 102.87C104.45 102.401 103.293 97.4399 102.864 96.367C102.032 94.2341 101.251 92.0753 100.451 89.9295C99.1899 86.5351 96.5499 83.8041 93.9489 81.3071C88.0901 75.6685 80.9797 71.4972 73.1992 69.1343C68.7827 67.7783 64.196 67.0558 59.5764 66.9885Z" fill="#006CE7"/>
<path d="M59.5764 66.9885C59.6219 68.6596 60.4478 70.1942 61.2736 71.6508C65.006 78.2509 69.2002 84.7534 74.9874 89.6564C83.4993 96.8547 94.6447 99.9629 105.413 102.87C104.45 102.401 103.293 97.4399 102.864 96.367C102.032 94.2341 101.251 92.0753 100.451 89.9295C99.1899 86.5351 96.5499 83.8041 93.9489 81.3071C88.0901 75.6685 80.9797 71.4972 73.1992 69.1343C68.7827 67.7783 64.196 67.0558 59.5764 66.9885Z" fill="url(#paint0_linear_3_1160)"/>
<path d="M101.7 70.682C100.822 64.5436 99.9182 58.3271 97.4472 52.6244C94.9763 46.9216 90.6911 41.7521 84.8778 39.6193C84.7088 48.4194 84.5375 57.2152 84.3641 66.0066C84.2666 71.0916 84.182 76.2676 85.6646 81.1381C88.2266 89.6694 97.0961 99.6833 105.647 102.505C106.947 98.4023 104.789 92.1924 104.184 87.9397L101.7 70.682Z" fill="#006CE7"/>
<path d="M101.7 70.682C100.822 64.5436 99.9182 58.3271 97.4472 52.6244C94.9763 46.9216 90.6911 41.7521 84.8778 39.6193C84.7088 48.4194 84.5375 57.2152 84.3641 66.0066C84.2666 71.0916 84.182 76.2676 85.6646 81.1381C88.2266 89.6694 97.0961 99.6833 105.647 102.505C106.947 98.4023 104.789 92.1924 104.184 87.9397L101.7 70.682Z" fill="url(#paint1_linear_3_1160)"/>
<path d="M148.083 127.508C111.792 132.163 75.02 128.587 38.4301 128.691C35.7836 128.691 32.1552 129.79 32.5778 132.404C53.8607 137.431 75.9238 137.827 97.7854 138.191L137.574 138.842C146.678 138.991 155.782 139.147 164.853 138.627C168.24 138.438 171.706 138.133 174.75 136.644C183.32 132.45 179.074 126.942 171.687 126.012C163.838 125.056 155.847 126.513 148.083 127.508Z" fill="url(#paint2_linear_3_1160)"/>
<path d="M95.1193 26.172V124.66C95.1193 128.919 98.8973 132.365 103.573 132.352L148.609 132.281C153.259 132.281 157.063 128.821 157.063 124.562V26.0744C157.063 21.8153 153.291 18.3689 148.609 18.3754L103.54 18.4469C98.8973 18.4534 95.1193 21.9128 95.1193 26.172ZM99.4175 26.237C99.4175 23.636 101.745 21.4836 104.62 21.4771H110.966V22.0623C110.985 22.4795 111.086 22.8888 111.264 23.2668C111.441 23.6449 111.691 23.9843 112 24.2657C112.308 24.547 112.669 24.7649 113.062 24.9068C113.455 25.0486 113.872 25.1118 114.289 25.0925L138.491 25.0535C139.336 25.0888 140.16 24.7886 140.783 24.2185C141.407 23.6483 141.78 22.8545 141.821 22.0103V21.4251H148.375C151.243 21.4251 153.577 23.5449 153.577 26.1655V124.354C153.577 126.955 151.249 129.107 148.375 129.114L104.62 129.179C101.752 129.179 99.4175 127.059 99.4175 124.438V26.237Z" fill="#006CE7"/>
<path d="M92.9995 28.1683V126.688C92.9995 130.941 96.7775 134.387 101.453 134.381L146.483 134.309C151.132 134.309 154.936 130.843 154.936 126.584V28.0968C154.936 23.8441 151.158 20.3912 146.483 20.4042L101.453 20.4693C96.7775 20.4823 92.9995 23.9416 92.9995 28.1683ZM97.2977 28.2398C97.2977 25.6388 99.6256 23.4865 102.5 23.48H108.846V24.0652C108.887 24.9088 109.26 25.702 109.884 26.2711C110.508 26.8402 111.332 27.139 112.175 27.1019L136.378 27.0629C137.221 27.0964 138.044 26.7954 138.666 26.2254C139.288 25.6554 139.66 24.8626 139.701 24.0197V23.4344H146.255C149.123 23.4344 151.457 25.5543 151.457 28.1813V126.37C151.457 128.971 149.129 131.123 146.255 131.13L102.5 131.201C99.6321 131.201 97.2977 129.081 97.2977 126.454V28.2398Z" fill="white"/>
<path d="M97.2977 28.2658V126.454C97.2977 129.055 99.6256 131.201 102.5 131.201L146.255 131.13C149.123 131.13 151.457 128.997 151.457 126.37V28.1683C151.457 25.5673 149.129 23.4149 146.255 23.4214H139.701V24.0067C139.66 24.8496 139.288 25.6424 138.666 26.2124C138.044 26.7824 137.221 27.0834 136.378 27.0499L112.176 27.0889C111.332 27.126 110.508 26.8272 109.884 26.2581C109.26 25.689 108.887 24.8958 108.846 24.0522V23.467H102.5C99.6386 23.5125 97.2977 25.6388 97.2977 28.2658Z" stroke="url(#paint3_linear_3_1160)" stroke-width="0.0398372" stroke-miterlimit="10"/>
<path d="M151.444 28.1683V126.357C151.444 128.958 149.116 131.117 146.242 131.117H139.824H126.969H126.006H113.437H102.487C99.6191 131.117 97.2847 128.997 97.2847 126.37V28.1813C97.2847 25.5803 99.6126 23.4215 102.487 23.4215H108.84V24.0067C108.858 24.4235 108.958 24.8327 109.135 25.2107C109.312 25.5887 109.561 25.9281 109.869 26.2096C110.177 26.4911 110.538 26.709 110.93 26.851C111.323 26.9929 111.739 27.0561 112.156 27.0369L136.358 27.0044C137.204 27.0396 138.029 26.7386 138.653 26.167C139.277 25.5954 139.649 24.7999 139.688 23.9547V23.3759H146.242C149.116 23.428 151.444 25.5673 151.444 28.1683Z" fill="#006CE7"/>
<path d="M120.967 24.9625L129.29 24.9495V24.2733L120.967 24.2863V24.9625Z" fill="url(#paint4_linear_3_1160)"/>
<path d="M118.79 25.351C119.289 25.3462 119.69 24.9725 119.686 24.5164C119.681 24.0604 119.273 23.6946 118.774 23.6995C118.275 23.7044 117.874 24.078 117.878 24.5341C117.883 24.9902 118.291 25.3559 118.79 25.351Z" fill="url(#paint5_linear_3_1160)"/>
<path d="M103.891 72.262H103.475C102.175 72.262 101.121 73.3159 101.121 74.616V126.838C101.121 128.138 102.175 129.192 103.475 129.192H103.891C105.191 129.192 106.245 128.138 106.245 126.838V74.616C106.245 73.3159 105.191 72.262 103.891 72.262Z" fill="#006CE7"/>
<path d="M85.8467 51.9221H42.5918C40.0168 51.9221 37.9294 54.0095 37.9294 56.5844V121.655C37.9294 124.23 40.0168 126.318 42.5918 126.318H85.8467C88.4216 126.318 90.509 124.23 90.509 121.655V56.5844C90.509 54.0095 88.4216 51.9221 85.8467 51.9221Z" fill="#006CE7"/>
<path d="M84.9949 53.1966H41.7399C39.165 53.1966 37.0776 55.284 37.0776 57.8589V122.93C37.0776 125.505 39.165 127.592 41.7399 127.592H84.9949C87.5698 127.592 89.6572 125.505 89.6572 122.93V57.8589C89.6572 55.284 87.5698 53.1966 84.9949 53.1966Z" fill="url(#paint6_linear_3_1160)"/>
<path d="M83.1416 55.3034H39.8867C37.3118 55.3034 35.2244 57.3908 35.2244 59.9657V125.037C35.2244 127.612 37.3118 129.699 39.8867 129.699H83.1416C85.7166 129.699 87.804 127.612 87.804 125.037V59.9657C87.804 57.3908 85.7166 55.3034 83.1416 55.3034Z" fill="white"/>
<path d="M87.804 87.1139V125.056C87.8022 126.293 87.3096 127.479 86.4342 128.353C85.5588 129.228 84.3723 129.719 83.1351 129.719H39.8867C38.6502 129.719 37.4643 129.227 36.5899 128.353C35.7156 127.479 35.2244 126.293 35.2244 125.056V105.172C70.4357 112.988 87.804 87.1139 87.804 87.1139Z" fill="url(#paint7_linear_3_1160)"/>
<path d="M76.3985 76.6187V137.19H70.8778V76.6187C70.8803 76.3865 70.9086 76.1554 70.9623 75.9295C71.023 75.7041 71.108 75.4861 71.2159 75.2792L71.307 75.1101L73.6414 70.6884L76.0668 75.2792C76.1734 75.486 76.2563 75.7041 76.3139 75.9295C76.3708 76.1548 76.3992 76.3863 76.3985 76.6187Z" fill="#006CE7"/>
<path d="M76.3985 76.6187V137.19H70.8778V76.6187C70.8803 76.3865 70.9086 76.1554 70.9623 75.9295C71.023 75.7041 71.108 75.4861 71.2159 75.2792L71.307 75.1101L73.6414 70.6884L76.0668 75.2792C76.1734 75.486 76.2563 75.7041 76.3139 75.9295C76.3708 76.1548 76.3992 76.3863 76.3985 76.6187Z" fill="url(#paint8_linear_3_1160)"/>
<path d="M73.6284 89.4548V75.9035H76.3074V137.19H73.6284V91.6007C73.6284 91.0025 73.6284 90.4042 73.6284 89.806C73.5958 89.6561 73.6066 89.5 73.6596 89.356C73.7125 89.212 73.8055 89.0862 73.9275 88.9932C74.2089 88.7379 74.5641 88.5785 74.9419 88.538C75.1999 88.5428 75.4563 88.4964 75.6962 88.4014C75.8039 88.3254 75.8956 88.2288 75.9659 88.1172C76.0362 88.0056 76.0838 87.8812 76.1059 87.7512C76.1725 87.5229 76.2075 87.2867 76.2099 87.0489C76.2176 87.0121 76.2163 86.9739 76.2061 86.9377C76.1959 86.9015 76.1771 86.8682 76.1514 86.8408C76.1096 86.8103 76.06 86.7922 76.0083 86.7888C75.67 86.7426 75.3255 86.7829 75.0069 86.9058C74.7802 87.0233 74.54 87.1128 74.2917 87.1725C74.1242 87.1926 73.9545 87.1655 73.8017 87.0943C73.6489 87.0231 73.519 86.9105 73.4268 86.7693" fill="#006CE7"/>
<path d="M76.314 75.9295C75.5302 76.4799 74.5958 76.7752 73.6381 76.7752C72.6805 76.7752 71.7461 76.4799 70.9624 75.9295L71.307 75.1101L73.6414 70.6884L76.0669 75.2792C76.1734 75.486 76.2563 75.7041 76.314 75.9295Z" fill="#006CE7"/>
<path d="M35.2244 61.884C33.9673 61.8085 32.7113 62.0477 31.5699 62.5797C32.7107 63.114 33.9668 63.3554 35.2244 63.282V64.9792C32.4998 64.9792 29.7557 64.2379 29.7557 62.5862C29.7557 60.9346 32.4998 60.1933 35.2244 60.1933V61.884Z" fill="#006CE7"/>
<path d="M40.68 62.5797C40.68 64.2314 37.9424 64.9727 35.2244 64.9727V63.282C37.3897 63.282 38.7292 62.7748 38.9958 62.4887C39.0223 62.2758 39.1288 62.0809 39.2937 61.9436C39.4585 61.8063 39.6694 61.7368 39.8836 61.7492C40.0978 61.7616 40.2992 61.855 40.4471 62.0104C40.595 62.1658 40.6783 62.3717 40.68 62.5862V62.5797Z" fill="#006CE7"/>
<path d="M35.2244 71.5663C33.9673 71.4909 32.7113 71.73 31.5699 72.2621C32.7113 72.7941 33.9673 73.0333 35.2244 72.9578V74.655C32.4998 74.655 29.7557 73.9137 29.7557 72.2621C29.7557 70.6104 32.4998 69.8691 35.2244 69.8691V71.5663Z" fill="#006CE7"/>
<path d="M40.68 72.2621C40.68 73.9137 37.9424 74.655 35.2244 74.655V72.9578C37.3897 72.9578 38.7292 72.4506 38.9958 72.1645C39.0223 71.9516 39.1288 71.7568 39.2937 71.6194C39.4585 71.4821 39.6694 71.4126 39.8836 71.425C40.0978 71.4374 40.2992 71.5308 40.4471 71.6862C40.595 71.8417 40.6783 72.0475 40.68 72.2621Z" fill="#006CE7"/>
<path d="M35.2244 81.2421C33.9667 81.1676 32.7104 81.409 31.5699 81.9443C32.7113 82.4764 33.9673 82.7156 35.2244 82.6401V84.3373C32.4998 84.3373 29.7557 83.596 29.7557 81.9443C29.7557 80.2927 32.4998 79.5384 35.2244 79.5384V81.2421Z" fill="#006CE7"/>
<path d="M40.68 81.9443C40.68 83.5959 37.9424 84.3372 35.2244 84.3372V82.6401C37.3897 82.6401 38.7292 82.1329 38.9958 81.8468C39.0223 81.6339 39.1288 81.439 39.2937 81.3017C39.4585 81.1644 39.6694 81.0949 39.8836 81.1073C40.0978 81.1197 40.2992 81.2131 40.4471 81.3685C40.595 81.5239 40.6783 81.7298 40.68 81.9443Z" fill="#006CE7"/>
<path d="M35.2244 90.9244C33.9667 90.8499 32.7104 91.0913 31.5699 91.6266C32.7113 92.1587 33.9673 92.3978 35.2244 92.3224V94.0196C32.4998 94.0196 29.7557 93.2783 29.7557 91.6266C29.7557 89.975 32.4998 89.2337 35.2244 89.2337V90.9244Z" fill="#006CE7"/>
<path d="M40.68 91.6267C40.68 93.2783 37.9424 94.0196 35.2244 94.0196V92.3224C37.3897 92.3224 38.7292 91.8152 38.9958 91.5291C39.0223 91.3162 39.1288 91.1214 39.2937 90.984C39.4585 90.8467 39.6694 90.7772 39.8836 90.7896C40.0978 90.802 40.2992 90.8954 40.4471 91.0508C40.595 91.2063 40.6783 91.4121 40.68 91.6267Z" fill="#006CE7"/>
<path d="M35.2244 100.607C33.9667 100.532 32.7104 100.774 31.5699 101.309C32.7124 101.838 33.9675 102.077 35.2244 102.005V103.702C32.4998 103.702 29.7557 102.961 29.7557 101.309C29.7557 99.6573 32.4998 98.9095 35.2244 98.9095V100.607Z" fill="#006CE7"/>
<path d="M40.68 101.309C40.68 102.961 37.9424 103.702 35.2244 103.702V102.005C37.3897 102.005 38.7292 101.498 38.9958 101.205C39.0225 100.992 39.1294 100.796 39.295 100.659C39.4605 100.522 39.6721 100.453 39.8868 100.466C40.1015 100.479 40.303 100.574 40.4504 100.73C40.5977 100.887 40.6799 101.094 40.68 101.309Z" fill="#006CE7"/>
<path d="M35.2244 110.289C33.9667 110.214 32.7104 110.456 31.5699 110.991C32.7124 111.52 33.9675 111.759 35.2244 111.687V113.384C32.4998 113.384 29.7557 112.643 29.7557 110.991C29.7557 109.34 32.4998 108.592 35.2244 108.592V110.289Z" fill="#006CE7"/>
<path d="M40.68 110.991C40.68 112.643 37.9424 113.384 35.2244 113.384V111.687C37.3897 111.687 38.7292 111.18 38.9958 110.887C39.0225 110.674 39.1294 110.479 39.295 110.341C39.4605 110.204 39.6721 110.135 39.8868 110.148C40.1015 110.161 40.303 110.256 40.4504 110.413C40.5977 110.569 40.6799 110.776 40.68 110.991Z" fill="#006CE7"/>
<path d="M35.2244 119.971C33.9667 119.897 32.7104 120.138 31.5699 120.674C32.7124 121.202 33.9675 121.441 35.2244 121.369V123.067C32.4998 123.067 29.7557 122.325 29.7557 120.674C29.7557 119.022 32.4998 118.274 35.2244 118.274V119.971Z" fill="#006CE7"/>
<path d="M40.68 120.674C40.68 122.325 37.9424 123.067 35.2244 123.067V121.369C37.3897 121.369 38.7292 120.862 38.9958 120.57C39.0225 120.356 39.1294 120.161 39.295 120.024C39.4605 119.886 39.6721 119.817 39.8868 119.83C40.1015 119.844 40.303 119.938 40.4504 120.095C40.5977 120.252 40.6799 120.459 40.68 120.674Z" fill="#006CE7"/>
<path d="M59.0627 123.821C58.1591 125.271 57.1253 126.636 55.974 127.898C54.1988 129.748 52.3094 131.486 50.3168 133.1C49.3349 133.945 48.366 134.797 47.4166 135.701C46.6363 136.442 45.6414 136.949 45.4659 138.094C45.3488 138.744 45.4659 139.59 44.9522 140.045C44.7582 140.194 44.5247 140.282 44.2808 140.299C44.0369 140.317 43.7933 140.262 43.5801 140.142C43.1606 139.892 42.8098 139.541 42.5592 139.121C42.4488 138.97 42.3653 138.8 42.3121 138.621C42.2634 138.424 42.2634 138.219 42.3121 138.022C42.5202 137.073 43.255 136.358 43.8923 135.629C44.4652 134.979 44.9849 134.283 45.4464 133.549C45.8318 132.984 46.267 132.455 46.7469 131.969L50.5054 127.735C51.8514 126.22 53.2364 124.64 53.8477 122.709C54.011 121.937 54.2894 121.194 54.6735 120.505C55.6359 119.1 57.8792 118.892 59.3553 119.555C61.15 120.394 59.7845 122.67 59.0627 123.821Z" fill="#FFBBAB"/>
<path d="M51.2791 121.044C51.2791 121.044 50.3038 129.55 51.2791 134.147C51.8733 136.978 52.1287 139.871 52.0399 142.763C51.7213 143.205 52.0399 143.862 52.4951 144.161C52.9835 144.416 53.5315 144.535 54.0817 144.505L56.3186 144.583C56.4485 144.608 56.582 144.603 56.71 144.571C56.838 144.538 56.9574 144.478 57.0599 144.395C57.3525 144.076 57.0599 143.543 56.6697 143.354C56.2796 143.166 55.8179 143.153 55.4538 142.932C54.7515 142.509 54.6605 141.553 54.6475 140.734L54.5889 137.171C54.5044 132.047 54.4264 126.896 55.2392 121.838C55.2846 121.608 55.2846 121.371 55.2392 121.142C55.067 120.737 54.7458 120.413 54.3418 120.238C53.934 119.965 53.4767 119.775 52.9958 119.679C52.7542 119.637 52.5057 119.666 52.2805 119.763C52.0553 119.86 51.8632 120.02 51.7278 120.225" fill="#FFBBAB"/>
<path d="M63.2243 89.5264L64.4793 90.2156C65.084 90.5473 65.7798 91.1585 66.4301 90.9179C67.516 90.4952 68.6279 89.4158 69.5838 88.7395C70.5397 88.0633 71.6516 87.244 72.679 86.4767C72.9496 86.3054 73.1857 86.0848 73.3748 85.8264C73.6804 85.3192 73.6869 84.5714 74.2201 84.3113L74.5192 85.6118L76.1644 84.7405C76.3577 84.6154 76.5844 84.5519 76.8146 84.5584C77.2568 84.6364 77.4649 85.1762 77.4064 85.6248C77.2763 87.1269 75.7352 87.6081 74.5127 87.9853C74.1822 88.0641 73.8616 88.1797 73.5569 88.3299C73.3222 88.4672 73.1041 88.6308 72.9066 88.8176C71.789 89.7151 70.7806 90.7409 69.9024 91.8738C69.506 92.4382 69.0715 92.9748 68.6019 93.4799C68.2356 94.0236 67.7423 94.47 67.1648 94.7804C66.725 94.9212 66.2551 94.9392 65.8058 94.8324C64.1737 94.5268 62.6651 93.4149 61.3841 92.407C61.241 92.2964 61.085 92.1209 61.176 91.9648C61.2294 91.8973 61.3019 91.8475 61.3841 91.8218C61.8861 91.6431 62.3339 91.3386 62.6846 90.9374C62.8778 90.7602 63.0272 90.5404 63.1208 90.2955C63.2145 90.0506 63.2499 89.7873 63.2243 89.5264Z" fill="#FFBBAB"/>
<path d="M60.2331 81.2356C60.1127 81.4525 59.9438 81.6387 59.7397 81.7796C59.5356 81.9206 59.3017 82.0126 59.0562 82.0484C58.9295 82.0336 58.8015 82.061 58.692 82.1265C58.6502 82.18 58.6209 82.2423 58.6062 82.3087C58.5916 82.3751 58.5921 82.4439 58.6075 82.5101L58.7376 84.1878C58.7637 84.32 58.7454 84.4572 58.6855 84.5779C58.5836 84.7007 58.4401 84.7817 58.2824 84.8055C57.6711 84.9746 56.9233 85.1046 56.4942 84.6429C56.2915 84.3749 56.1697 84.0545 56.143 83.7196C55.723 81.8186 55.6089 79.8628 55.8049 77.9258C55.848 77.3392 56.0173 76.7688 56.3012 76.2536C56.5852 75.7385 56.9771 75.2908 57.4501 74.9411C58.614 74.2389 61.5922 74.0243 61.4686 75.975C61.3417 76.7545 61.257 77.5403 61.215 78.329C61.2215 79.3803 60.8758 80.4035 60.2331 81.2356Z" fill="#FFBBAB"/>
<path d="M61.5272 74.4014C61.6509 74.7417 61.6509 75.1146 61.5272 75.4548C61.4288 75.6086 61.3003 75.7409 61.1494 75.8437C60.9986 75.9466 60.8284 76.0178 60.6493 76.0531C59.7715 76.2937 58.8286 76.2286 57.9703 76.5017C57.8293 76.5376 57.701 76.6119 57.5996 76.7163C57.5229 76.8395 57.4803 76.9809 57.4761 77.126C57.2809 78.8239 57.3334 80.5412 57.6321 82.224C56.0505 82.6927 54.3641 82.6723 52.7942 82.1655C52.5422 82.1178 52.3114 81.9925 52.1341 81.8071C51.9569 81.6217 51.8421 81.3855 51.8059 81.1316C51.4408 79.9379 51.3286 78.6813 51.4764 77.4419C51.6242 76.2025 52.0287 75.0075 52.6642 73.9332C52.9519 73.3694 53.3839 72.8918 53.9162 72.5491C54.4484 72.2065 55.062 72.011 55.6944 71.9825C57.8142 71.6769 60.9744 71.8914 61.5272 74.4014Z" fill="#E75300"/>
<path d="M59.6089 101.979C59.4789 106.134 60.9939 110.042 62.1254 114.041C62.6261 115.777 63.1788 117.565 62.9902 119.36C62.9935 119.408 62.9935 119.455 62.9902 119.503C57.5086 121.083 51.5002 121.87 46.1941 119.763C46.7593 116.962 47.0598 114.115 47.0915 111.258C47.0433 110.13 47.1196 109 47.3191 107.889C47.7483 105.997 48.9707 104.391 50.2452 102.928C50.7596 102.421 51.1627 101.812 51.4287 101.14C51.5831 100.501 51.6097 99.8381 51.5067 99.1891C51.2762 97.0426 51.224 94.8807 51.3507 92.7255C51.4831 90.7729 51.9816 88.8627 52.8202 87.0943C53.1769 86.2883 53.6721 85.5511 54.2833 84.916C54.9015 84.2797 55.7227 83.8795 56.6047 83.7845C57.0448 83.7447 57.4876 83.8217 57.8884 84.0078C58.2891 84.1939 58.6336 84.4825 58.8871 84.8445C60.2201 86.8993 62.444 87.3609 64.0892 89.2077C64.1869 89.2944 64.2532 89.411 64.2777 89.5393C64.2756 89.6798 64.225 89.8153 64.1347 89.923C63.569 90.8268 62.9967 91.7307 62.431 92.641C62.2545 92.9281 62.0544 93.1999 61.8328 93.4538C61.6312 93.6619 61.3841 93.831 61.1825 94.0391C60.6572 94.6914 60.332 95.4818 60.2461 96.315C59.8873 98.1835 59.6742 100.077 59.6089 101.979Z" fill="#006CE7"/>
<path d="M57.9052 143.537L57.3525 143.361C56.9108 143.199 56.4494 143.096 55.9805 143.055C55.9004 143.049 55.8199 143.062 55.7464 143.094C55.6526 143.153 55.5797 143.239 55.5383 143.342C55.4618 143.499 55.3506 143.637 55.2132 143.745C55.0651 143.808 54.9059 143.84 54.745 143.84C54.5841 143.84 54.4249 143.808 54.2768 143.745C53.9519 143.671 53.6374 143.557 53.3404 143.407C53.0478 143.244 52.8007 143.01 52.5016 142.867C52.4189 142.821 52.3271 142.794 52.2328 142.787C52.1385 142.78 52.0438 142.794 51.9554 142.828C51.8687 142.88 51.7952 142.951 51.7408 143.036C51.6184 143.166 51.5252 143.322 51.4677 143.491C51.4344 143.658 51.4344 143.831 51.4677 143.998C51.4749 144.147 51.5173 144.292 51.5912 144.421C51.6834 144.511 51.7936 144.581 51.9146 144.626C52.0356 144.671 52.1648 144.69 52.2935 144.681L54.9986 144.85C55.8439 144.902 56.6892 144.954 57.5411 144.941C58.0072 144.95 58.4726 144.9 58.9261 144.792C58.9911 144.792 59.0627 144.753 59.0822 144.688C59.0982 144.646 59.0982 144.599 59.0822 144.557C58.9244 144.288 58.7143 144.052 58.4641 143.864C58.214 143.677 57.9289 143.541 57.6256 143.465" fill="#006CE7"/>
<path d="M42.6763 137.307C42.7478 137.574 42.6763 137.873 42.7413 138.139C42.8111 138.35 42.9216 138.544 43.0664 138.712L43.7167 139.518C43.7887 139.62 43.8791 139.709 43.9833 139.778C44.125 139.834 44.2767 139.86 44.4289 139.854C44.581 139.849 44.7304 139.812 44.8676 139.746C44.9059 139.726 44.9483 139.716 44.9912 139.716C45.0341 139.716 45.0764 139.726 45.1147 139.746C45.1576 139.786 45.1871 139.838 45.1993 139.895L45.5764 141.196C45.7323 141.742 45.8175 142.305 45.83 142.873C45.7781 142.942 45.7084 142.996 45.6284 143.029C45.0302 143.335 44.0028 141.976 43.4891 141.54C43.0057 141.065 42.6347 140.487 42.4032 139.85C42.2536 139.518 42.1171 139.199 41.987 138.848C41.8366 138.541 41.7356 138.212 41.6879 137.873C41.6862 137.779 41.7109 137.686 41.7592 137.606C41.8074 137.526 41.8774 137.46 41.961 137.418C42.1366 137.346 42.5982 137.014 42.6763 137.307Z" fill="#006CE7"/>
<path d="M72.5295 72.7758H74.7468L73.6414 70.6755L72.5295 72.7758Z" fill="url(#paint9_linear_3_1160)"/>
<path d="M62.9902 119.36C62.5957 119.496 62.1762 119.545 61.7609 119.504C61.3455 119.462 60.9441 119.331 60.5843 119.119C59.3293 118.333 58.8286 116.766 58.6335 115.302C58.1328 112.097 58.432 108.624 56.7413 105.854C56.2276 105.015 55.5123 104.164 55.6164 103.175C55.7204 102.187 56.6893 101.452 57.242 100.574C57.7711 99.5712 58.0542 98.4568 58.0678 97.3229C58.2564 95.2096 58.445 93.0898 58.64 90.9764C58.64 91.5097 60.981 92.6476 61.8328 93.4669C61.6312 93.675 61.3841 93.8441 61.1825 94.0522C60.6572 94.7045 60.332 95.4949 60.2462 96.3281C59.8985 98.1953 59.6963 100.087 59.6414 101.985C59.5114 106.14 61.0265 110.048 62.1579 114.047C62.6261 115.777 63.1788 117.565 62.9902 119.36Z" fill="url(#paint10_linear_3_1160)"/>
<path d="M139.831 131.162H126.975H126.013L123.776 107.655L129.193 107.837L139.831 108.189C139.831 108.189 140.026 118.768 139.831 131.162Z" fill="#2D3748"/>
<path d="M129.362 106.088L129.193 107.863L126.949 131.182H125.987H113.417C113.209 113.625 114.868 103.507 114.868 103.507L129.362 106.088Z" fill="#2D3748"/>
<path d="M105.445 85.0525C105.53 86.6002 106.031 87.9592 107.396 88.4014C107.507 88.4454 107.623 88.478 107.741 88.4989C110.218 88.9931 113.469 87.1074 115.739 85.4622C116.68 84.7771 117.583 84.0412 118.444 83.2578V66.6699L106.388 79.0247C105.752 80.9703 105.434 83.0056 105.445 85.0525Z" fill="white"/>
<path d="M115.635 85.3907C115.635 86.1645 115.537 86.9513 115.537 87.7316C115.537 92.0168 116.532 96.4385 115.251 100.639C114.965 101.576 114.562 102.59 114.894 103.507C115.266 104.278 115.903 104.889 116.688 105.23C120.466 107.298 124.829 107.929 129.095 108.527C132.301 108.975 136.846 109.931 139.811 108.202C141.073 107.467 141.502 106.095 141.905 104.729C143.206 100.386 143.563 95.7102 143.901 91.2105C143.947 90.6187 143.986 90.0205 144.025 89.4288C144.272 85.3235 144.354 81.2182 144.272 77.1129C144.214 74.1348 143.979 70.916 142.035 68.6596C139.434 65.662 134.44 63.6787 130.643 62.9829C129.411 62.7323 128.149 62.6622 126.897 62.7748C125.121 63.057 123.406 63.6397 121.825 64.498C119.94 65.4279 118.262 66.2147 117.332 68.0809C116.322 70.2464 115.62 72.5423 115.245 74.9021C114.903 77.1104 114.864 79.3548 115.128 81.5737C115.238 82.6596 115.524 83.739 115.628 84.825C115.622 85.0135 115.635 85.2086 115.635 85.3907Z" fill="white"/>
<path opacity="0.1" d="M133.12 109.678C134.362 110.042 137.23 108.904 138.186 108.735C138.751 108.637 139.272 108.351 139.837 108.215C142.672 107.506 143.011 99.5337 143.29 97.3878C144.025 91.7176 145.156 85.8458 145.241 80.1561C145.367 77.9613 145.112 75.7612 144.487 73.6535C143.771 71.5857 142.295 69.674 140.234 68.9262C136.606 67.6257 135.533 79.0832 135.032 81.4631L132.307 94.4292C131.925 96.0203 131.677 97.6409 131.566 99.2736C131.469 101.543 132.216 103.175 132.776 105.178C133.107 106.309 132.197 108.468 132.645 109.307C132.749 109.488 132.919 109.621 133.12 109.678Z" fill="#2D3748"/>
<path d="M124.394 59.452C124.85 59.9482 125.472 60.2604 126.143 60.3299C126.703 60.3819 127.267 60.3819 127.827 60.3299H128.139C128.22 60.3142 128.304 60.3305 128.373 60.3754C128.405 60.4079 128.431 60.4465 128.447 60.489C128.464 60.5314 128.472 60.5768 128.471 60.6225C128.593 61.7432 128.615 62.8727 128.536 63.9973C128.536 64.1989 128.503 64.4005 128.484 64.602C128.44 64.8194 128.458 65.0448 128.536 65.2523C128.698 65.4836 128.942 65.6441 129.219 65.701C129.71 65.8646 130.223 65.9523 130.74 65.9611C131.848 65.8564 132.913 65.4812 133.842 64.8687C133.768 62.9451 133.87 61.0188 134.148 59.1139C134.505 56.6559 135.149 54.198 134.882 51.727C134.882 51.1423 134.755 50.5646 134.51 50.0338C134.265 49.503 133.907 49.0318 133.462 48.6527C133.017 48.2737 132.495 47.9958 131.931 47.8384C131.368 47.681 130.778 47.6477 130.201 47.7409C128.428 47.707 126.683 48.1833 125.174 49.113C124.948 49.2912 124.765 49.5171 124.637 49.7745C124.509 50.032 124.439 50.3146 124.433 50.6021C124.238 51.5709 124.082 52.5528 123.978 53.5282C123.854 54.6531 123.789 55.7781 123.77 56.903C123.67 57.7997 123.891 58.7026 124.394 59.452Z" fill="#FDBAAC"/>
<path d="M126.351 49.6917C127.606 49.8998 128.952 49.6917 130.175 50.1664C131.839 50.8166 132.548 53.008 131.989 54.7181C132.47 54.8937 132.561 54.0289 132.932 53.6777C133.302 53.3266 134.141 53.7948 134.232 54.3995C134.199 55.005 134.016 55.5927 133.699 56.1097C133.247 57.173 133.169 58.3582 133.478 59.4715C133.556 59.7316 133.744 60.0437 134.011 59.9722C134.278 59.9007 134.46 59.4585 134.616 59.2634C134.853 58.9557 135.117 58.6686 135.403 58.4051C135.994 57.8914 136.632 57.4427 137.23 56.942C138.296 56.0512 139.285 54.8417 139.22 53.4567C139.186 52.8919 138.997 52.3473 138.673 51.883C138.401 51.4818 138.049 51.1409 137.639 50.8816C137.47 50.7711 137.275 50.6606 137.243 50.459C137.234 50.3491 137.247 50.2385 137.282 50.1338C137.407 49.4245 137.327 48.6942 137.051 48.0286C136.776 47.3629 136.317 46.7895 135.728 46.3754C134.519 45.5638 133.135 45.0512 131.69 44.8798C130.76 44.7107 129.83 44.5807 128.894 44.4701C128.12 44.4349 127.359 44.2563 126.65 43.9434C126.832 43.4231 127.081 42.929 127.391 42.4738C126.726 42.6695 126.093 42.9609 125.512 43.3387C125.544 43.0147 125.63 42.6983 125.766 42.4023C124.713 42.6564 123.755 43.2044 123.002 43.9824C122.611 44.5231 122.392 45.1696 122.375 45.8368C122.357 46.5041 122.542 47.161 122.905 47.7214C123.626 48.8594 124.764 49.3145 126.013 49.6136L126.351 49.6917Z" fill="#E75300"/>
<path d="M127.827 60.3558H128.139C128.22 60.3401 128.304 60.3565 128.373 60.4014C128.405 60.4338 128.431 60.4725 128.447 60.5149C128.464 60.5574 128.472 60.6028 128.471 60.6485C128.593 61.7692 128.615 62.8987 128.536 64.0233C128.536 64.0233 131.787 63.204 131.651 59.2309C130.425 59.7394 129.151 60.1186 127.847 60.3623L127.827 60.3558Z" fill="#DEA095"/>
<path d="M103.195 73.9917C102.971 76.7305 103.224 79.4874 103.943 82.1394C104.477 84.025 105.481 85.7437 106.863 87.1334C107.111 87.3744 107.415 87.5495 107.748 87.6426C108.08 87.7358 108.431 87.744 108.768 87.6666C110.007 87.4397 111.144 86.8303 112.019 85.9239C114.237 83.4725 112.728 79.701 112.728 79.701C112.728 79.701 108.137 72.4767 107.117 72.184C106.564 72.015 105.445 72.5742 104.516 73.1139C103.807 73.5561 103.195 73.9917 103.195 73.9917Z" fill="white"/>
<path opacity="0.1" d="M103.592 79.2913C103.951 81.3856 104.416 83.4604 104.984 85.5078C105.14 86.1957 105.432 86.8457 105.842 87.4195C106.993 88.8306 109.093 88.72 110.654 88.2258C111.161 88.0633 115.921 85.9499 115.726 85.4623V85.4102L114.959 80.4488C115.024 80.8519 112.962 82.2565 112.689 82.4646C111.389 83.4595 109.477 85.0656 107.942 83.5375C107.431 82.9562 107.051 82.2706 106.83 81.5282C105.861 78.9299 105.132 76.2483 104.652 73.5171C104.505 73.4603 104.348 73.4336 104.19 73.4387C104.033 73.4438 103.878 73.4805 103.735 73.5466C103.592 73.6127 103.463 73.7069 103.357 73.8236C103.251 73.9402 103.17 74.0771 103.117 74.2259C102.927 74.8357 102.911 75.4868 103.072 76.1051C103.228 77.1715 103.404 78.2379 103.592 79.2913Z" fill="#2D3748"/>
<path d="M149.383 86.1645C150.456 89.0776 151.405 92.1663 150.963 95.2355C150.437 98.9615 147.959 102.076 145.573 104.989C143.7 105.269 141.242 105.23 140.579 103.455C140.411 102.883 140.367 102.283 140.449 101.693L140.715 97.8496C140.936 96.1398 140.848 94.4042 140.455 92.7256C139.889 90.8463 138.589 89.2987 137.561 87.6276C135.885 84.9118 134.89 81.8309 134.661 78.6475C134.447 75.6564 136.703 66.0066 141.112 68.8937C142.939 70.0902 144.558 75.0516 145.521 77.0479C146.96 80.0087 148.247 83.0476 149.383 86.1645Z" fill="white"/>
<path d="M139.447 107.61C139.345 107.757 139.291 107.932 139.291 108.111C139.291 108.286 139.512 108.449 139.668 108.371C140.117 109.749 139.181 111.193 139.181 112.649C139.177 112.78 139.197 112.91 139.239 113.033C139.304 113.192 139.415 113.328 139.558 113.423C139.801 113.577 140.08 113.667 140.367 113.686C140.655 113.704 140.942 113.649 141.203 113.527C141.726 113.282 142.193 112.932 142.575 112.5C143.41 111.733 144.048 110.776 144.435 109.71C144.569 109.212 144.658 108.703 144.701 108.189L145.15 104.398C142.302 103.468 140.767 105.354 139.447 107.61Z" fill="#FDBAAC"/>
<path d="M108.131 68.8613C108.238 68.6161 108.276 68.3463 108.241 68.081C108.219 67.9507 108.147 67.8344 108.04 67.7566C107.933 67.6789 107.8 67.646 107.669 67.6648C107.513 67.7038 107.409 67.8404 107.273 67.9184C107.109 68.0032 106.924 68.0361 106.742 68.0129C106.559 67.9896 106.388 67.9113 106.252 67.7884C105.978 67.5429 105.756 67.2442 105.601 66.9105C105.09 66.0123 104.527 65.1439 103.917 64.3095C103.792 64.098 103.603 63.9318 103.378 63.8348C103.243 63.8062 103.104 63.8046 102.969 63.8303C102.834 63.856 102.705 63.9084 102.591 63.9844C102.042 64.3222 101.586 64.7906 101.263 65.3477C100.939 65.9048 100.759 66.5333 100.738 67.1771C100.71 68.4715 101.092 69.7415 101.83 70.8055C102.561 71.8665 103.419 72.8339 104.385 73.6862C104.602 73.9347 104.887 74.1135 105.205 74.1999C107.012 74.499 107.793 69.9017 108.131 68.8613Z" fill="#FDBAAC"/>
<path opacity="0.41" d="M100.731 34.2872H119.914V51.1873H100.731V34.2872Z" fill="white"/>
<defs>
<linearGradient id="paint0_linear_3_1160" x1="105.387" y1="65.4279" x2="38.5797" y2="122.338" gradientUnits="userSpaceOnUse">
<stop offset="0.01" stop-color="#2D3748"/>
<stop offset="0.13" stop-color="#2D3748" stop-opacity="0.69"/>
<stop offset="0.25" stop-color="#2D3748" stop-opacity="0.32"/>
<stop offset="1" stop-color="#2D3748" stop-opacity="0"/>
</linearGradient>
<linearGradient id="paint1_linear_3_1160" x1="1081.8" y1="115.146" x2="1182.41" y2="22.1795" gradientUnits="userSpaceOnUse">
<stop offset="0.01" stop-color="#2D3748"/>
<stop offset="0.13" stop-color="#2D3748" stop-opacity="0.69"/>
<stop offset="0.25" stop-color="#2D3748" stop-opacity="0.32"/>
<stop offset="1" stop-color="#2D3748" stop-opacity="0"/>
</linearGradient>
<linearGradient id="paint2_linear_3_1160" x1="101.043" y1="85.137" x2="119.192" y2="255.153" gradientUnits="userSpaceOnUse">
<stop offset="0.01" stop-color="#2D3748"/>
<stop offset="0.08" stop-color="#2D3748" stop-opacity="0.69"/>
<stop offset="0.21" stop-color="#2D3748" stop-opacity="0.32"/>
<stop offset="1" stop-color="#2D3748" stop-opacity="0"/>
</linearGradient>
<linearGradient id="paint3_linear_3_1160" x1="173.347" y1="42.3504" x2="92.1113" y2="113.074" gradientUnits="userSpaceOnUse">
<stop stop-color="white"/>
<stop offset="1" stop-color="#CBCBCB"/>
</linearGradient>
<linearGradient id="paint4_linear_3_1160" x1="130.466" y1="16.9059" x2="130.501" y2="22.2575" gradientUnits="userSpaceOnUse">
<stop stop-color="white"/>
<stop offset="1" stop-color="#CBCBCB"/>
</linearGradient>
<linearGradient id="paint5_linear_3_1160" x1="124.336" y1="18.562" x2="124.07" y2="22.487" gradientUnits="userSpaceOnUse">
<stop stop-color="white"/>
<stop offset="1" stop-color="#CBCBCB"/>
</linearGradient>
<linearGradient id="paint6_linear_3_1160" x1="920.735" y1="81.6973" x2="1717.31" y2="120.856" gradientUnits="userSpaceOnUse">
<stop offset="0.01" stop-color="#2D3748"/>
<stop offset="0.13" stop-color="#2D3748" stop-opacity="0.69"/>
<stop offset="0.25" stop-color="#2D3748" stop-opacity="0.32"/>
<stop offset="1" stop-color="#2D3748" stop-opacity="0"/>
</linearGradient>
<linearGradient id="paint7_linear_3_1160" x1="43.8988" y1="25.2292" x2="80.196" y2="192.377" gradientUnits="userSpaceOnUse">
<stop offset="0.01" stop-color="#2D3748"/>
<stop offset="0.08" stop-color="#2D3748" stop-opacity="0.69"/>
<stop offset="0.21" stop-color="#2D3748" stop-opacity="0.32"/>
<stop offset="1" stop-color="#2D3748" stop-opacity="0"/>
</linearGradient>
<linearGradient id="paint8_linear_3_1160" x1="1091.67" y1="104.56" x2="1157.47" y2="102.226" gradientUnits="userSpaceOnUse">
<stop offset="0.01" stop-color="#2D3748"/>
<stop offset="0.13" stop-color="#2D3748" stop-opacity="0.69"/>
<stop offset="0.25" stop-color="#2D3748" stop-opacity="0.32"/>
<stop offset="1" stop-color="#2D3748" stop-opacity="0"/>
</linearGradient>
<linearGradient id="paint9_linear_3_1160" x1="1104.46" y1="70.1813" x2="1124.09" y2="80.5788" gradientUnits="userSpaceOnUse">
<stop offset="0.01" stop-color="#2D3748"/>
<stop offset="0.13" stop-color="#2D3748" stop-opacity="0.69"/>
<stop offset="0.25" stop-color="#2D3748" stop-opacity="0.32"/>
<stop offset="1" stop-color="#2D3748" stop-opacity="0"/>
</linearGradient>
<linearGradient id="paint10_linear_3_1160" x1="1062.98" y1="98.2918" x2="1140.68" y2="115.459" gradientUnits="userSpaceOnUse">
<stop offset="0.01" stop-color="#2D3748"/>
<stop offset="0.13" stop-color="#2D3748" stop-opacity="0.69"/>
<stop offset="0.25" stop-color="#2D3748" stop-opacity="0.32"/>
<stop offset="1" stop-color="#2D3748" stop-opacity="0"/>
</linearGradient>
</defs>
</svg>
