<svg viewBox="0 0 196 133" fill="none" xmlns="http://www.w3.org/2000/svg">
<path d="M87.008 34.315C87.008 34.315 87.4851 26.999 87.008 24.9759C86.5308 22.9529 83.6617 18.0543 82.7074 18.4106C81.7531 18.7668 81.6323 20.2046 82.7074 22.1131C82.7074 22.1131 76.6128 17.1573 74.2844 17.2464C71.956 17.3354 70.6455 20.3255 71.0017 21.7569C71.358 23.1883 76.7273 25.6694 77.0963 26.8463C77.4653 28.0232 78.4068 36.2935 78.4068 36.2935" fill="white"/>
<path d="M78.4196 36.6434C78.3418 36.6426 78.2669 36.6139 78.2085 36.5626C78.1501 36.5112 78.1122 36.4406 78.1015 36.3635C78.1015 36.2808 77.1472 28.1377 76.8291 26.9672C76.6892 26.5028 75.2705 25.5676 74.1317 24.8169C72.4968 23.729 70.9509 22.7048 70.7346 21.8332C70.652 21.2356 70.6918 20.6274 70.8515 20.0456C71.0112 19.4638 71.2874 18.9206 71.6634 18.4488C71.959 18.0157 72.3479 17.6544 72.8015 17.3913C73.255 17.1282 73.7617 16.97 74.2844 16.9283C76.1357 16.8583 80.01 19.6384 81.8867 21.0571C81.6148 20.4014 81.57 19.6736 81.7595 18.9895C81.8264 18.7902 81.9372 18.6085 82.0836 18.4576C82.23 18.3068 82.4084 18.1907 82.6056 18.118C82.7109 18.0838 82.8223 18.073 82.9321 18.0861C83.042 18.0993 83.1476 18.1362 83.2418 18.1943C84.5587 18.8941 86.9062 23.1438 87.3197 24.906C87.8032 26.9545 87.3197 34.0351 87.3197 34.3341C87.3181 34.3762 87.308 34.4175 87.29 34.4556C87.272 34.4937 87.2465 34.5277 87.215 34.5557C87.1835 34.5836 87.1466 34.6049 87.1067 34.6182C87.0667 34.6315 87.0245 34.6366 86.9825 34.6331C86.8992 34.6266 86.8219 34.5876 86.7671 34.5245C86.7124 34.4614 86.6846 34.3793 86.6899 34.2959C86.6899 34.2196 87.1543 27.0053 86.6899 25.0523C86.1746 22.8575 83.4454 18.6205 82.8028 18.6905C82.6938 18.7342 82.5957 18.8012 82.5154 18.887C82.4352 18.9727 82.3748 19.075 82.3384 19.1867C82.1094 19.8229 82.3384 20.8153 82.9746 21.9414C83.0111 22.0049 83.0242 22.0792 83.0114 22.1513C82.9986 22.2234 82.9608 22.2888 82.9046 22.3358C82.8475 22.3834 82.7754 22.4095 82.701 22.4095C82.6267 22.4095 82.5546 22.3834 82.4975 22.3358C80.8307 20.9744 76.1357 17.469 74.2908 17.539C73.8581 17.5761 73.4392 17.7096 73.0649 17.9298C72.6906 18.15 72.3704 18.4512 72.1278 18.8114C71.4883 19.6156 71.1932 20.6403 71.3071 21.6615C71.4662 22.2976 73.1139 23.3855 74.4435 24.2634C76.1484 25.3958 77.2045 26.1274 77.3953 26.77C77.7516 27.9914 78.6677 35.9309 78.7186 36.2681C78.7276 36.3523 78.7034 36.4366 78.6511 36.5032C78.5988 36.5697 78.5226 36.6132 78.4387 36.6243L78.4196 36.6434Z" fill="#2D3748"/>
<path d="M102.683 132.274L192.136 111.426V97.0294L102.683 106.216V132.274Z" fill="white"/>
<path d="M102.683 132.598C102.61 132.598 102.538 132.573 102.48 132.528C102.442 132.497 102.411 132.459 102.389 132.415C102.367 132.371 102.354 132.323 102.353 132.274V106.19C102.352 106.108 102.383 106.028 102.438 105.967C102.493 105.906 102.569 105.867 102.652 105.86L192.098 96.6795C192.144 96.6735 192.191 96.6778 192.235 96.6921C192.279 96.7064 192.319 96.7304 192.353 96.7622C192.386 96.7929 192.413 96.8302 192.432 96.8718C192.45 96.9134 192.46 96.9584 192.461 97.0039V111.401C192.461 111.476 192.436 111.548 192.39 111.607C192.344 111.666 192.279 111.708 192.206 111.725L102.76 132.592L102.683 132.598ZM103.014 106.515V131.866L191.805 111.172V97.392L103.014 106.515Z" fill="#2D3748"/>
<path d="M4.57212 82.4227V98.1681L102.683 132.274V101.018L4.57212 82.4227Z" fill="white"/>
<path d="M102.683 132.598H102.575L4.46397 98.4798C4.40029 98.4563 4.34538 98.4138 4.30669 98.3581C4.268 98.3023 4.24739 98.236 4.24767 98.1681V82.4227C4.24828 82.3747 4.25876 82.3273 4.27846 82.2836C4.29816 82.2398 4.32666 82.2005 4.36218 82.1682C4.39979 82.1371 4.44383 82.1147 4.49112 82.1026C4.53842 82.0905 4.5878 82.089 4.63574 82.0983L102.747 100.694C102.822 100.708 102.89 100.749 102.939 100.808C102.987 100.867 103.014 100.942 103.014 101.018V132.274C103.012 132.326 102.999 132.377 102.974 132.423C102.95 132.469 102.916 132.509 102.874 132.541C102.818 132.579 102.751 132.599 102.683 132.598ZM4.90293 97.9391L102.353 131.828V101.292L4.90293 82.8426V97.9391Z" fill="#2D3748"/>
<path d="M168.719 94.93C168.719 94.93 177.676 42.4772 170.15 35.053C162.624 27.6288 128.226 26.2419 120.528 28.2395C112.83 30.2371 106.927 83.3261 106.927 83.3261L168.719 94.93Z" fill="#2D3748"/>
<path d="M168.719 95.229H168.661L106.857 83.6188C106.778 83.6033 106.708 83.5586 106.661 83.4938C106.614 83.4289 106.593 83.3485 106.602 83.2689C106.844 81.0932 112.608 29.9509 120.439 27.9215C127.622 26.0575 162.541 27.0881 170.373 34.8176C177.924 42.2673 169.399 92.8243 169.03 94.9682C169.024 95.0105 169.008 95.0509 168.985 95.0871C168.962 95.1232 168.932 95.1542 168.897 95.1781C168.844 95.2135 168.782 95.2313 168.719 95.229ZM107.264 83.0526L168.439 94.5419C169.17 90.1523 176.932 42.1846 169.908 35.2629C166.727 32.1202 157.776 29.6264 145.352 28.4113C135.446 27.4443 124.562 27.4952 120.579 28.5258C118.467 29.0729 115.114 34.385 111.119 56.5685C108.931 68.8467 107.493 81.0232 107.264 83.0526Z" fill="#2D3748"/>
<path d="M195.324 94.4529V99.8286L103.256 119.003L0.322457 83.7587V79.4709L195.324 94.4529Z" fill="white"/>
<path d="M103.256 119.321C103.222 119.327 103.188 119.327 103.154 119.321L0.22067 84.0768C0.158508 84.0548 0.10451 84.0144 0.0658681 83.961C0.0272266 83.9076 0.00577557 83.8437 0.00436994 83.7778V79.4708C0.00422889 79.4268 0.0132187 79.3833 0.0307714 79.3429C0.048324 79.3026 0.0740577 79.2663 0.106345 79.2364C0.138632 79.2065 0.176771 79.1837 0.21835 79.1693C0.259929 79.1549 0.304042 79.1492 0.347904 79.1528L195.349 94.1347C195.429 94.1411 195.503 94.1775 195.558 94.2364C195.612 94.2954 195.642 94.3727 195.642 94.4528V99.8285C195.642 99.9018 195.616 99.9729 195.57 100.03C195.524 100.087 195.459 100.126 195.387 100.14L103.326 119.308L103.256 119.321ZM0.640547 83.5297L103.281 118.672L195.005 99.5868V94.7709L0.640547 79.8144V83.5297Z" fill="#2D3748"/>
<path d="M154.354 37.2987C157.363 48.2664 150.276 99.8349 150.276 99.8349L108.829 83.6314C108.829 83.6314 117.341 73.4017 107.162 51.9625C103.001 43.196 107.283 38.6028 110.184 36.1345C112.62 34.0605 151.338 26.331 154.354 37.2987Z" fill="#006CE7"/>
<path d="M67.3819 67.6825L195.324 94.4528L103.256 112.196L0.322457 79.4709L67.3819 67.6825Z" fill="white"/>
<path d="M103.256 112.52H103.161L0.220668 79.7826C0.152414 79.7585 0.0939473 79.7127 0.0542343 79.6521C0.0145213 79.5916 -0.00424673 79.5198 0.000807799 79.4475C0.00586233 79.3753 0.0344612 79.3068 0.082218 79.2524C0.129975 79.198 0.194254 79.1608 0.265201 79.1464L67.3246 67.3644C67.3644 67.3549 67.4058 67.3549 67.4455 67.3644L195.393 94.1347C195.468 94.1508 195.534 94.1917 195.581 94.2508C195.629 94.3098 195.655 94.3834 195.654 94.4592C195.652 94.5344 195.624 94.6066 195.576 94.6643C195.527 94.7219 195.461 94.7617 195.387 94.7773L103.32 112.514L103.256 112.52ZM1.6966 79.5599L103.275 111.852L193.657 94.4401L67.3755 68.0197L1.6966 79.5599Z" fill="#2D3748"/>
<path d="M108.886 86.3352C108.886 86.3352 77.7198 76.4808 77.179 76.4808C76.6383 76.4808 37.2398 83.2434 37.2398 83.2434L69.9584 94.4338L108.886 86.3352Z" fill="white"/>
<path d="M69.9584 94.7837C69.9227 94.7903 69.886 94.7903 69.8503 94.7837L37.1317 83.587C37.063 83.5645 37.0039 83.5197 36.9635 83.4598C36.9232 83.3999 36.904 83.3282 36.909 83.2562C36.915 83.183 36.9451 83.114 36.9946 83.0599C37.0442 83.0057 37.1103 82.9696 37.1826 82.9572C41.2159 82.2637 76.6256 76.1882 77.179 76.1882C77.7325 76.1882 101.659 83.7269 108.988 86.0426C109.058 86.0616 109.119 86.1044 109.161 86.1637C109.203 86.2229 109.222 86.2948 109.217 86.3671C109.214 86.4399 109.187 86.5096 109.139 86.565C109.092 86.6204 109.028 86.6582 108.956 86.6724L70.022 94.7773L69.9584 94.7837ZM38.5631 83.3325L69.9775 94.0839L107.588 86.2398C98.351 83.3261 77.9361 76.9135 77.1472 76.7926C76.5047 76.8753 52.3299 81.0041 38.5631 83.3643V83.3325Z" fill="#2D3748"/>
<path d="M65.5561 90.4768C65.5142 90.4863 65.4707 90.4863 65.4288 90.4768L48.0803 82.6709C48.0176 82.6422 47.966 82.594 47.9331 82.5335C47.9003 82.4729 47.8879 82.4034 47.8979 82.3352C47.908 82.2671 47.9399 82.2041 47.9888 82.1556C48.0378 82.1071 48.1011 82.0759 48.1693 82.0665L68.457 79.21C68.511 79.1941 68.5684 79.1941 68.6224 79.21L86.6708 86.8824C86.7348 86.9085 86.7882 86.9552 86.8228 87.0151C86.8573 87.075 86.871 87.1447 86.8616 87.2132C86.8525 87.2825 86.8207 87.3469 86.7712 87.3963C86.7218 87.4458 86.6574 87.4775 86.5881 87.4867L65.5942 90.4768H65.5561ZM49.3463 82.4864L65.607 89.796L85.373 86.9905L68.457 79.7953L49.3463 82.4864Z" fill="#D1D3D4"/>
<path d="M69.9584 94.4528L109.064 89.8469L108.886 86.3352L69.9584 91.5455V94.4528Z" fill="white"/>
<path d="M69.9584 94.7837C69.8769 94.7824 69.7983 94.7532 69.7358 94.701C69.7013 94.6696 69.6738 94.6313 69.6552 94.5885C69.6365 94.5457 69.6271 94.4995 69.6276 94.4529V91.5455C69.6271 91.4657 69.656 91.3885 69.7088 91.3286C69.7616 91.2688 69.8346 91.2305 69.9139 91.2211L108.842 86.0235C108.886 86.0163 108.932 86.0186 108.976 86.0305C109.02 86.0424 109.06 86.0635 109.095 86.0924C109.13 86.1214 109.159 86.1574 109.179 86.1982C109.198 86.239 109.209 86.2835 109.211 86.3289L109.395 89.8406C109.399 89.9243 109.371 90.0062 109.316 90.07C109.262 90.1338 109.186 90.1745 109.102 90.1841L69.9966 94.7964L69.9584 94.7837ZM70.2829 91.8318V94.0839L108.721 89.5543L108.574 86.7042L70.2829 91.8318Z" fill="#2D3748"/>
<path d="M69.9584 94.4528L62.7951 42.4072L29.8347 40.734L37.2398 83.2625L69.9584 94.4528Z" fill="white"/>
<path d="M69.9584 94.7837C69.9227 94.7902 69.886 94.7902 69.8503 94.7837L37.1317 83.5869C37.0756 83.5687 37.0256 83.5353 36.9874 83.4904C36.9492 83.4454 36.9243 83.3908 36.9154 83.3325L29.5103 40.7913C29.5019 40.7429 29.5044 40.6932 29.5176 40.6459C29.5308 40.5986 29.5544 40.5548 29.5866 40.5177C29.6191 40.4812 29.6595 40.4525 29.7046 40.4338C29.7498 40.4151 29.7986 40.4068 29.8474 40.4096L62.8332 42.0764C62.9101 42.0813 62.9829 42.1124 63.0396 42.1645C63.0963 42.2166 63.1335 42.2865 63.145 42.3627L70.3083 94.4083C70.3154 94.4643 70.3079 94.5212 70.2868 94.5735C70.2656 94.6259 70.2314 94.6719 70.1874 94.7073C70.1563 94.7346 70.12 94.7554 70.0806 94.7686C70.0413 94.7817 69.9998 94.7868 69.9584 94.7837ZM37.5134 83.0144L69.5449 93.9694L62.4897 42.7189L30.2164 41.0839L37.5134 83.0144Z" fill="#2D3748"/>
<path d="M86.9571 85.1138H86.8489L76.0339 81.2967C75.9495 81.29 75.8713 81.25 75.8164 81.1855C75.7615 81.1211 75.7345 81.0375 75.7413 80.9532C75.748 80.8688 75.788 80.7906 75.8524 80.7357C75.9168 80.6808 76.0004 80.6538 76.0848 80.6605L82.2684 79.6935C82.3207 79.6806 82.3753 79.6806 82.4275 79.6935L93.4715 83.7269C93.5396 83.7509 93.5974 83.7974 93.6356 83.8587C93.6737 83.92 93.6899 83.9924 93.6815 84.0641C93.6728 84.1358 93.6395 84.2022 93.5873 84.2521C93.5351 84.302 93.4672 84.3323 93.3952 84.3376L87.0334 85.0565L86.9571 85.1138ZM77.4144 81.1313L87.008 84.4712L91.9765 83.9178L82.2812 80.3742L77.4144 81.1313Z" fill="#D1D3D4"/>
<path d="M155.079 44.7292L157.363 63.1211C158.737 74.2606 159.678 84.942 155.384 87.6267C151.09 90.3113 114.033 90.4067 114.033 90.4067C114.725 87.2751 114.888 84.0497 114.516 80.8641C114.516 80.8641 145.053 76.4999 144.716 73.4526C144.378 70.4053 134.702 49.6341 134.537 44.7928C134.371 39.9515 149.194 41.2239 155.079 44.7292Z" fill="#006CE7"/>
<path d="M110.184 36.1345C110.184 36.1345 89.7308 52.7896 89.8771 49.6405C89.9535 47.9801 89.5081 31.5477 89.5081 31.5477L76.7401 32.1075C76.7401 32.1075 71.6952 59.056 76.1039 65.6913C81.6895 74.0888 89.7562 71.3724 100.508 65.106C114.275 57.0775 117.684 53.6548 117.684 53.6548L110.184 36.1345Z" fill="#006CE7"/>
<path d="M114.491 80.8641C114.491 80.8641 108.129 81.1313 107.283 79.9289C106.437 78.7265 105.063 77.2315 104.248 77.0852C103.434 76.9389 93.4715 78.084 94.0695 79.121C94.6676 80.1579 98.9745 79.2673 98.9745 79.2673C98.9745 79.2673 95.2337 80.2216 95.4055 81.4685C95.5773 82.7154 96.4425 82.5818 97.8739 82.1046C99.3053 81.6275 102.76 80.7941 102.76 80.7941C102.76 80.7941 97.4731 83.2434 97.3904 84.5094C97.3077 85.7754 99.8588 85.1456 103.453 83.237C103.453 83.237 99.2671 85.8708 100.565 86.647C101.863 87.4231 104.91 85.8199 104.91 85.8199C104.91 85.8199 106.348 88.142 108.288 88.7209C110.228 89.2998 114.268 89.2489 114.268 89.2489C114.268 89.2489 116.183 84.9611 114.491 80.8641Z" fill="white"/>
<path d="M114.014 89.5543C113.104 89.5543 109.879 89.5161 108.167 89.0072C106.456 88.4983 105.215 86.8569 104.77 86.2144C103.943 86.6152 101.589 87.6394 100.368 86.9078C100.247 86.8404 100.146 86.7428 100.075 86.6246C100.003 86.5063 99.964 86.3715 99.9605 86.2335C100.056 85.6849 100.348 85.1898 100.781 84.8402C99.4071 85.3937 98.0647 85.7309 97.4158 85.3237C97.2826 85.234 97.1766 85.1094 97.1093 84.9636C97.042 84.8178 97.016 84.6563 97.0341 84.4967C97.085 83.7015 98.5482 82.6709 100.005 81.8375C99.2289 82.0411 98.4592 82.2574 97.9502 82.4228C97.0214 82.7281 96.2007 82.9508 95.6409 82.6009C95.4674 82.4771 95.3245 82.3153 95.2231 82.1279C95.1217 81.9404 95.0644 81.7323 95.0556 81.5194C94.9665 80.8832 95.5264 80.3679 96.2453 79.9544C95.132 79.9989 94.0759 79.8653 93.7514 79.28C93.7039 79.1924 93.6828 79.0929 93.6907 78.9935C93.6986 78.8942 93.7352 78.7992 93.796 78.7202C94.6294 77.5624 103.542 76.6272 104.312 76.7671C105.349 76.9516 106.857 78.7902 107.55 79.7381C108.059 80.4697 111.908 80.6478 114.478 80.5397C114.546 80.5362 114.613 80.5539 114.67 80.5904C114.727 80.6269 114.771 80.6804 114.796 80.7433C116.52 84.9229 114.624 89.1853 114.542 89.3635C114.516 89.4199 114.475 89.4678 114.423 89.5016C114.371 89.5355 114.311 89.5537 114.249 89.5543H114.014ZM104.885 85.4637C104.941 85.4642 104.996 85.479 105.045 85.5069C105.094 85.5347 105.135 85.5746 105.164 85.6227C105.164 85.6227 106.564 87.8494 108.345 88.3774C109.961 88.8609 113.155 88.899 114.014 88.899C114.345 88.0529 115.547 84.573 114.262 81.2013C112.773 81.2522 107.849 81.3285 107.003 80.1198C106.011 78.7075 104.77 77.5178 104.178 77.4097C103.192 77.2316 95.2719 78.3194 94.3813 79.0447C94.8393 79.4455 97.0023 79.3309 98.8727 78.9492C98.9136 78.9399 98.956 78.9387 98.9974 78.9458C99.0388 78.9529 99.0784 78.9681 99.1139 78.9906C99.1494 79.013 99.1801 79.0423 99.2042 79.0767C99.2283 79.1111 99.2454 79.15 99.2544 79.191C99.2649 79.2323 99.2671 79.2754 99.2609 79.3176C99.2548 79.3598 99.2404 79.4004 99.2185 79.437C99.1966 79.4737 99.1678 79.5056 99.1335 79.5311C99.0993 79.5565 99.0604 79.575 99.019 79.5854C97.6258 79.9417 95.6027 80.7751 95.6918 81.424C95.6886 81.5441 95.7121 81.6634 95.7605 81.7734C95.8089 81.8834 95.881 81.9813 95.9717 82.0601C96.2962 82.2637 97.0532 82.0601 97.7339 81.8184C99.1653 81.3476 102.499 80.546 102.645 80.5015C102.687 80.4877 102.731 80.4823 102.775 80.4856C102.819 80.4888 102.862 80.5007 102.901 80.5205C102.94 80.5402 102.975 80.5676 103.004 80.6009C103.033 80.6342 103.054 80.6729 103.068 80.7146C103.082 80.7564 103.087 80.8005 103.084 80.8443C103.081 80.8882 103.069 80.931 103.049 80.9703C103.03 81.0096 103.002 81.0446 102.969 81.0733C102.936 81.102 102.897 81.1239 102.855 81.1377C100.399 82.2764 97.7212 83.9114 97.6767 84.5794C97.6767 84.7448 97.7275 84.783 97.7594 84.8084C98.1156 85.0374 99.6679 84.9038 103.256 82.9571C103.33 82.9263 103.412 82.9233 103.488 82.9487C103.564 82.9742 103.629 83.0264 103.669 83.0955C103.709 83.1647 103.723 83.2462 103.708 83.3249C103.693 83.4036 103.65 83.4741 103.587 83.5234C102.149 84.4331 100.597 85.7372 100.603 86.2589C100.603 86.2907 100.603 86.3289 100.692 86.3798C101.627 86.9396 103.918 85.9663 104.719 85.54C104.766 85.4999 104.823 85.4735 104.885 85.4637Z" fill="#2D3748"/>
<path d="M119.256 80.4633C119.18 80.4566 119.109 80.4235 119.055 80.3698C119.001 80.316 118.968 80.245 118.961 80.1692C118.954 80.0933 118.974 80.0175 119.018 79.955C119.061 79.8924 119.125 79.8472 119.199 79.8271L144.124 75.4884C142.5 71.1733 141.119 66.7704 139.989 62.3004C137.482 52.2679 137.101 44.6465 138.85 39.6398C138.863 39.5987 138.884 39.5606 138.912 39.5278C138.94 39.4951 138.974 39.4684 139.013 39.4493C139.052 39.4303 139.094 39.4193 139.137 39.4171C139.18 39.4148 139.223 39.4213 139.264 39.4362C139.346 39.4651 139.414 39.5255 139.452 39.6042C139.49 39.6828 139.496 39.7734 139.467 39.8561C135.396 51.5299 144.786 75.3866 144.881 75.622C144.903 75.6654 144.914 75.7133 144.914 75.7619C144.914 75.8105 144.903 75.8585 144.881 75.9019C144.857 75.9444 144.824 75.9812 144.785 76.0097C144.745 76.0383 144.7 76.0579 144.652 76.0673L119.332 80.476L119.256 80.4633Z" fill="#2D3748"/>
<path d="M103.256 119.327C103.17 119.327 103.087 119.293 103.027 119.232C102.966 119.172 102.931 119.089 102.931 119.003V112.196C102.917 112.147 102.915 112.095 102.924 112.044C102.934 111.994 102.955 111.947 102.985 111.906C103.016 111.865 103.056 111.832 103.102 111.809C103.148 111.786 103.198 111.774 103.25 111.774C103.301 111.774 103.351 111.786 103.397 111.809C103.443 111.832 103.483 111.865 103.514 111.906C103.544 111.947 103.565 111.994 103.575 112.044C103.584 112.095 103.582 112.147 103.568 112.196V119.003C103.568 119.087 103.535 119.167 103.477 119.228C103.419 119.288 103.34 119.324 103.256 119.327Z" fill="#2D3748"/>
<path d="M112.131 70.2908C112.047 70.2909 111.966 70.2585 111.906 70.2003C111.845 70.1422 111.809 70.0629 111.806 69.9791C111.583 65.3732 110.343 61.7788 109.261 58.6042C108.516 56.7316 107.993 54.7779 107.703 52.7832C107.658 52.3315 107.614 51.8989 107.576 51.5109C107.219 47.961 106.939 45.1491 109.045 38.8509C109.073 38.7687 109.132 38.7007 109.209 38.6614C109.286 38.6221 109.376 38.6148 109.459 38.641C109.499 38.6546 109.537 38.6762 109.569 38.7044C109.601 38.7326 109.628 38.7669 109.647 38.8053C109.666 38.8438 109.677 38.8856 109.679 38.9284C109.682 38.9711 109.676 39.014 109.662 39.0545C107.607 45.2318 107.868 47.8401 108.231 51.4473C108.269 51.8671 108.314 52.2997 108.352 52.7514C108.639 54.6937 109.152 56.5959 109.879 58.4198C110.992 61.6388 112.251 65.2778 112.474 69.9791C112.478 70.0658 112.447 70.1504 112.389 70.2147C112.33 70.2789 112.249 70.3177 112.162 70.3226L112.131 70.2908Z" fill="#2D3748"/>
<path d="M130.656 103.289C136.432 103.289 141.115 101.879 141.115 100.14C141.115 98.4011 136.432 96.9912 130.656 96.9912C124.88 96.9912 120.197 98.4011 120.197 100.14C120.197 101.879 124.88 103.289 130.656 103.289Z" fill="white"/>
<path d="M130.656 103.62C125.427 103.62 119.841 102.399 119.841 100.14C119.841 97.8819 125.401 96.6667 130.656 96.6667C135.911 96.6667 141.471 97.8819 141.471 100.14C141.471 102.399 135.892 103.62 130.656 103.62ZM130.656 97.322C124.689 97.322 120.522 98.8043 120.522 100.14C120.522 101.476 124.689 102.965 130.656 102.965C136.623 102.965 140.79 101.476 140.79 100.14C140.79 98.8043 136.63 97.322 130.656 97.322Z" fill="#2D3748"/>
<path d="M122.774 91.5773L122.519 91.6218C121.771 91.7375 121.092 92.1248 120.611 92.7097C120.337 93.1275 120.186 93.6137 120.175 94.1129C120.164 94.6122 120.293 95.1046 120.547 95.5343C121.654 97.5383 124.364 98.079 126.445 98.289C126.739 98.3344 127.039 98.3105 127.323 98.219C127.463 98.1698 127.585 98.0789 127.673 97.9584C127.76 97.8379 127.809 97.6936 127.812 97.5447C127.797 97.4246 127.752 97.3104 127.681 97.2125C127.609 97.1146 127.515 97.0363 127.405 96.9848C127.187 96.8821 126.952 96.8176 126.712 96.794C125.398 96.661 124.112 96.333 122.895 95.8206C122.201 95.4707 121.234 94.6691 121.737 93.8103C121.912 93.5304 122.167 93.309 122.468 93.1741C123.658 92.6079 124.791 93.0342 125.967 93.3841C126.053 93.4157 126.144 93.4288 126.235 93.4222C126.464 93.4222 126.591 93.1232 126.572 92.8942C126.534 92.3789 126.025 92.0417 125.541 91.8572C124.659 91.5222 123.705 91.4256 122.774 91.5773Z" fill="white"/>
<path d="M126.775 98.6325C126.648 98.639 126.521 98.639 126.394 98.6325C123.175 98.3271 121.158 97.3601 120.242 95.7124C119.955 95.2282 119.81 94.6728 119.825 94.1101C119.84 93.5474 120.013 93.0002 120.325 92.5316C120.864 91.8817 121.622 91.4499 122.456 91.3165L122.723 91.2719C123.699 91.1247 124.696 91.2321 125.618 91.5837C126.375 91.8763 126.814 92.3407 126.858 92.9005C126.885 93.1012 126.833 93.3044 126.715 93.4687C126.597 93.633 126.421 93.7461 126.222 93.7848C126.084 93.7937 125.946 93.7764 125.815 93.7339L125.509 93.6385C124.492 93.3331 123.531 93.0405 122.558 93.5049C122.315 93.6033 122.108 93.7744 121.966 93.9948C121.92 94.0693 121.891 94.1523 121.879 94.2388C121.867 94.3252 121.872 94.4133 121.896 94.4974C122.12 94.9667 122.507 95.3394 122.984 95.547C124.023 96.0011 125.126 96.2929 126.254 96.4122L126.737 96.4886C127.014 96.516 127.283 96.5936 127.532 96.7176C127.715 96.7981 127.869 96.9329 127.973 97.1039C128.076 97.2748 128.125 97.4734 128.112 97.6729C128.099 97.8723 128.024 98.0629 127.899 98.2186C127.774 98.3744 127.604 98.4878 127.412 98.5434C127.207 98.6114 126.991 98.6416 126.775 98.6325ZM122.825 91.9018L122.583 91.9399C121.909 92.0398 121.294 92.3812 120.853 92.9005C120.615 93.268 120.485 93.6949 120.479 94.1324C120.472 94.57 120.588 95.0007 120.814 95.3753C121.622 96.8321 123.467 97.6782 126.457 97.9582C126.699 97.9979 126.947 97.9827 127.183 97.9136C127.258 97.9059 127.328 97.872 127.381 97.8177C127.435 97.7635 127.467 97.6924 127.473 97.6167C127.479 97.5411 127.458 97.4657 127.415 97.4037C127.371 97.3418 127.307 97.2971 127.233 97.2774C127.046 97.1907 126.847 97.1349 126.642 97.112L126.165 97.0357C124.968 96.9097 123.798 96.5985 122.698 96.1132C122.061 95.8221 121.556 95.3053 121.279 94.6628C121.229 94.4931 121.215 94.315 121.238 94.1397C121.261 93.9645 121.321 93.7959 121.412 93.6449C121.618 93.3086 121.922 93.0441 122.284 92.8878C123.486 92.3153 124.619 92.6588 125.713 92.9896L126.018 93.085C126.061 93.0899 126.103 93.0899 126.146 93.085C126.167 93.0611 126.183 93.0328 126.193 93.0021C126.203 92.9714 126.206 92.939 126.203 92.9069C126.171 92.4998 125.618 92.2707 125.382 92.1499C124.571 91.8434 123.695 91.7492 122.837 91.8763L122.825 91.9018Z" fill="#2D3748"/>
<path d="M123.747 89.4334C123.747 89.4334 125.707 99.2051 125.866 99.7904C126.025 100.376 131.229 101.89 134.34 100.427L137.565 90.4386L123.747 89.4334Z" fill="white"/>
<path d="M131.07 101.374C129.417 101.38 127.778 101.071 126.241 100.465C125.821 100.268 125.605 100.083 125.554 99.8731C125.395 99.2815 123.505 89.8915 123.429 89.4971C123.419 89.4467 123.421 89.3947 123.434 89.3451C123.447 89.2955 123.472 89.2495 123.505 89.2108C123.539 89.1734 123.58 89.1441 123.626 89.1254C123.673 89.1066 123.723 89.0988 123.773 89.1026L137.59 90.1078C137.64 90.1111 137.688 90.1257 137.731 90.1504C137.774 90.1752 137.811 90.2095 137.838 90.2506C137.866 90.2918 137.884 90.3387 137.89 90.3878C137.897 90.437 137.892 90.487 137.877 90.534L134.658 100.522C134.643 100.565 134.619 100.605 134.588 100.639C134.558 100.672 134.521 100.7 134.48 100.719C133.404 101.183 132.24 101.407 131.07 101.374ZM124.154 89.7897C124.854 93.2569 126.063 99.2687 126.184 99.7013C126.521 100.096 131.108 101.483 134.072 100.185L137.126 90.7312L124.154 89.7897Z" fill="#2D3748"/>
<path d="M137.6 89.9997C137.668 88.3462 134.624 86.8786 130.801 86.7217C126.978 86.5648 123.823 87.7781 123.756 89.4315C123.688 91.085 126.732 92.5526 130.555 92.7095C134.378 92.8664 137.532 91.6532 137.6 89.9997Z" fill="#2D3748"/>
<path d="M131.222 93.0214H130.535C128.818 92.984 127.125 92.6079 125.554 91.9145C124.148 91.2338 123.397 90.3431 123.435 89.4079C123.474 88.4728 124.294 87.6521 125.751 87.0922C129.04 86.0167 132.607 86.1636 135.796 87.5058C137.202 88.1801 137.953 89.0708 137.915 90.0059C137.845 91.7491 134.957 93.0214 131.222 93.0214ZM130.128 87.0032C128.717 86.9757 127.312 87.2019 125.98 87.6712C124.791 88.1292 124.072 88.7654 124.072 89.427C124.072 90.0886 124.708 90.7757 125.834 91.3356C127.329 91.9926 128.94 92.3472 130.573 92.3789C134.524 92.5443 137.234 91.2656 137.291 89.9741C137.291 89.338 136.655 88.6191 135.529 88.0656C134.034 87.407 132.423 87.0503 130.79 87.0159L130.128 87.0032Z" fill="#2D3748"/>
<path d="M122.513 1.21473C122.513 1.21473 115.789 1.45012 113.816 4.70098C111.844 7.95185 112.112 12.7614 109.573 15.885C107.035 19.0086 103.924 25.7012 105.533 29.1302C107.143 32.5592 123.881 33.4689 132.647 29.4928C141.414 25.5167 141.853 18.4106 141.191 13.8937C140.53 9.37689 137.323 -2.88861 122.513 1.21473Z" fill="white"/>
<path d="M117.85 32.4256C117.366 32.4256 116.883 32.4256 116.399 32.4256C111.66 32.292 106.221 31.395 105.247 29.2892C103.606 25.7966 106.615 19.0404 109.325 15.7068C110.68 14.0337 111.234 11.8198 111.749 9.66951C112.09 7.89319 112.695 6.1778 113.543 4.58009C115.521 1.31014 121.851 0.960242 122.449 0.934795C127.501 -0.458433 131.706 -0.0894511 134.95 2.02266C139.753 5.15901 141.128 11.3617 141.497 13.8874C142.241 18.9768 141.331 25.9302 132.762 29.7918C129.066 31.4649 123.575 32.4256 117.85 32.4256ZM128.029 0.705771C126.181 0.731378 124.345 1.00527 122.57 1.52008H122.5C122.43 1.52008 115.922 1.78727 114.058 4.85365C113.241 6.40369 112.662 8.06792 112.341 9.79038C111.8 12.0043 111.234 14.2945 109.796 16.0695C107.137 19.3521 104.331 25.8475 105.807 28.9838C107.226 32.0057 123.544 33.2462 132.495 29.1874C140.701 25.4658 141.573 18.8368 140.86 13.9192C140.504 11.4826 139.181 5.49619 134.594 2.49979C132.638 1.27169 130.363 0.647658 128.054 0.705771H128.029Z" fill="#2D3748"/>
<path d="M134.486 38.7619C134.486 38.7619 129.021 52.1216 124.472 51.7526C119.924 51.3837 120.089 41.4402 120.089 41.4402L134.486 38.7619Z" fill="#2D3748"/>
<path d="M124.657 52.0771H124.447C119.663 51.689 119.739 41.86 119.746 41.4465C119.745 41.3736 119.77 41.3028 119.816 41.2468C119.863 41.1908 119.928 41.1533 120 41.1412L134.429 38.4565C134.484 38.4446 134.541 38.4484 134.594 38.4675C134.647 38.4867 134.693 38.5203 134.728 38.5646C134.765 38.609 134.789 38.6626 134.798 38.7198C134.807 38.777 134.8 38.8355 134.779 38.8891C134.556 39.4299 129.326 52.0771 124.657 52.0771ZM120.375 41.7074C120.375 43.2469 120.694 51.1291 124.498 51.4409C127.876 51.7208 132.272 43.1706 133.964 39.1817L120.375 41.7074Z" fill="#2D3748"/>
<path d="M121.285 32.1456L120.089 41.4402C120.089 41.4402 121.622 45.2572 127.87 44.6656C131.725 44.2839 134.518 38.7619 134.518 38.7619L135.752 20.5354C135.752 20.5354 127.087 15.7641 122.093 7.50647C122.093 7.50647 117.983 14.2881 114.981 13.6265C114.981 13.6265 114.007 22.7811 115.095 27.4379C116.183 32.0947 121.285 32.1456 121.285 32.1456Z" fill="white"/>
<path d="M126.502 45.0474C121.222 45.0474 119.828 41.7138 119.765 41.5611C119.752 41.5088 119.752 41.4544 119.765 41.4021L120.942 32.4383C119.727 32.3238 115.757 31.6177 114.803 27.508C113.715 22.8511 114.643 13.9637 114.688 13.5884C114.692 13.5444 114.706 13.5018 114.728 13.4634C114.75 13.425 114.779 13.3917 114.815 13.3657C114.852 13.3405 114.894 13.323 114.937 13.3143C114.981 13.3056 115.026 13.3057 115.07 13.3148C117.36 13.8238 120.732 9.17333 121.839 7.34114C121.869 7.29653 121.91 7.26002 121.957 7.23478C122.005 7.20954 122.058 7.19635 122.112 7.19635C122.166 7.19635 122.219 7.20954 122.267 7.23478C122.315 7.26002 122.355 7.29653 122.386 7.34114C127.291 15.427 135.809 20.211 135.892 20.2555C135.944 20.2856 135.987 20.3293 136.016 20.382C136.045 20.4347 136.059 20.4944 136.057 20.5545L134.823 38.781C134.818 38.8234 134.805 38.8644 134.785 38.9019C134.67 39.1373 131.871 44.5893 127.889 44.9774C127.428 45.0253 126.965 45.0487 126.502 45.0474ZM120.388 41.3957C120.63 41.9174 122.297 44.8883 127.806 44.3476C131.241 44.0104 133.869 39.2582 134.168 38.6729L135.389 20.7136C134.149 19.9883 126.718 15.4333 122.093 8.11092C121.139 9.56776 117.952 14.1355 115.267 13.9828C115.108 15.6496 114.459 23.3028 115.401 27.3426C116.418 31.694 121.088 31.7958 121.285 31.7958C121.33 31.7963 121.375 31.8064 121.416 31.8255C121.457 31.8446 121.494 31.8722 121.523 31.9065C121.553 31.9408 121.575 31.9811 121.587 32.0245C121.6 32.0679 121.603 32.1136 121.597 32.1584L120.388 41.3957Z" fill="#2D3748"/>
<path d="M120.643 37.0379C121.704 37.1632 122.78 37.0283 123.777 36.6448C124.775 36.2613 125.664 35.6407 126.368 34.8367C128.856 32.0566 128.277 31.554 128.277 31.554C126.015 32.2604 123.627 32.4644 121.279 32.152L120.643 37.0379Z" fill="#2D3748"/>
<path d="M121.406 37.4068C121.131 37.4095 120.857 37.3883 120.585 37.3432C120.506 37.3292 120.434 37.2851 120.386 37.2201C120.337 37.155 120.315 37.0739 120.325 36.9933L120.961 32.1075C120.965 32.0658 120.978 32.0255 120.999 31.989C121.02 31.9525 121.047 31.9205 121.081 31.8949C121.114 31.8694 121.152 31.8508 121.193 31.8403C121.233 31.8299 121.276 31.8277 121.317 31.8339C123.62 32.1388 125.963 31.9391 128.181 31.2486C128.236 31.2299 128.295 31.2258 128.352 31.237C128.409 31.2482 128.462 31.2741 128.506 31.3123C128.595 31.395 128.779 31.6431 128.563 32.2538C128.072 33.2865 127.409 34.2287 126.604 35.0403C125.956 35.7818 125.157 36.3765 124.26 36.7846C123.364 37.1927 122.391 37.4049 121.406 37.4068ZM120.999 36.7707C121.962 36.834 122.926 36.6741 123.816 36.3033C124.707 35.9325 125.5 35.3609 126.133 34.6331C127.469 33.1381 127.87 32.3556 127.991 31.993C125.899 32.5732 123.716 32.7481 121.559 32.5083L120.999 36.7707Z" fill="#2D3748"/>
<path d="M123.359 17.399C123.359 17.399 120.35 22.2976 121.139 23.1246C121.928 23.9517 124.033 23.2964 124.033 23.2964" fill="white"/>
<path d="M122.468 23.8181C121.906 23.8607 121.349 23.6827 120.916 23.3219C120.045 22.4376 122.144 18.7732 123.086 17.2337C123.13 17.162 123.202 17.1109 123.284 17.0919C123.366 17.0728 123.453 17.0872 123.525 17.1319C123.596 17.1766 123.647 17.248 123.666 17.3303C123.685 17.4126 123.671 17.4991 123.626 17.5708C122.093 20.0647 121.037 22.5394 121.368 22.8702C121.902 23.4109 123.41 23.1183 123.944 22.9593C124.025 22.9354 124.111 22.944 124.185 22.9833C124.259 23.0226 124.314 23.0894 124.339 23.1692C124.363 23.2502 124.354 23.3374 124.315 23.4122C124.276 23.4871 124.209 23.5437 124.129 23.57C123.588 23.7236 123.03 23.807 122.468 23.8181Z" fill="#2D3748"/>
<path d="M127.328 18.0291C127.76 17.9752 128.049 17.4368 127.973 16.8267C127.897 16.2166 127.484 15.7657 127.052 15.8196C126.62 15.8735 126.331 16.4118 126.407 17.022C126.483 17.6321 126.895 18.083 127.328 18.0291Z" fill="#2D3748"/>
<path d="M120.502 17.3859C120.609 16.7805 120.348 16.2282 119.919 16.1524C119.49 16.0766 119.055 16.5059 118.948 17.1114C118.841 17.7169 119.102 18.2692 119.531 18.345C119.96 18.4208 120.395 17.9914 120.502 17.3859Z" fill="#2D3748"/>
<path d="M123.098 27.4952C122.276 27.5312 121.463 27.3193 120.763 26.8871C120.063 26.4549 119.509 25.8223 119.173 25.0714C119.154 25.0233 119.148 24.9713 119.154 24.9201C119.161 24.8689 119.181 24.8203 119.211 24.7787C119.24 24.7368 119.28 24.7027 119.325 24.6794C119.37 24.6561 119.421 24.6443 119.472 24.6451C126.693 24.6451 126.731 24.6833 126.852 24.8169C126.883 24.8495 126.907 24.8887 126.921 24.9316C126.935 24.9745 126.94 25.0201 126.934 25.065C126.932 25.1206 126.912 25.174 126.877 25.2177C126.814 25.3067 125.319 27.3552 123.518 27.4825L123.098 27.4952ZM119.994 25.2813C120.365 25.8465 120.889 26.2947 121.505 26.574C122.121 26.8533 122.804 26.9521 123.474 26.859C124.498 26.789 125.459 25.8984 125.974 25.3322C124.784 25.3067 122.042 25.294 119.994 25.294V25.2813Z" fill="#2D3748"/>
<path d="M136.802 17.45C136.802 17.45 139.289 6.77493 134.67 2.63342C130.052 -1.50809 122.513 1.21475 122.513 1.21475C122.513 1.21475 130.987 0.68672 132.736 4.51651C134.486 8.34629 133.08 19.2567 133.08 19.2567L136.802 17.45Z" fill="white"/>
<path d="M133.08 19.5748C133.011 19.5763 132.943 19.5538 132.889 19.5112C132.843 19.4769 132.808 19.4312 132.785 19.3787C132.763 19.3263 132.755 19.2688 132.762 19.2122C132.762 19.104 134.136 8.3399 132.45 4.64371C130.809 1.06203 122.615 1.52644 122.532 1.52644C122.456 1.53266 122.381 1.51085 122.32 1.46514C122.259 1.41942 122.217 1.35297 122.201 1.27833C122.185 1.20343 122.196 1.12502 122.234 1.05811C122.271 0.991207 122.332 0.940505 122.405 0.915712C122.717 0.8012 130.185 -1.83257 134.887 2.39164C139.588 6.61586 137.215 17.0746 137.107 17.5199C137.097 17.566 137.077 17.6093 137.049 17.6467C137.02 17.6841 136.983 17.7147 136.942 17.7362L133.214 19.543C133.172 19.5632 133.126 19.574 133.08 19.5748ZM125.07 0.909349C127.787 1.06839 131.827 1.76183 133.029 4.38288C134.575 7.7737 133.729 16.3748 133.462 18.7159L136.522 17.2273C136.795 15.9549 138.596 6.57769 134.46 2.86878C131.642 0.33679 127.622 0.470386 125.07 0.909349Z" fill="#2D3748"/>
<path d="M140.106 21.7633C140.757 18.4061 139.238 15.2879 136.714 14.7986C134.19 14.3093 131.617 16.6341 130.966 19.9913C130.315 23.3484 131.833 26.4666 134.357 26.956C136.881 27.4453 139.455 25.1204 140.106 21.7633Z" fill="white"/>
<path d="M134.721 26.859C134.48 26.8599 134.24 26.8386 134.002 26.7954C131.299 26.2801 129.651 22.9783 130.325 19.4539C130.607 17.8392 131.401 16.3581 132.59 15.2297C133.086 14.7273 133.694 14.3499 134.364 14.1287C135.035 13.9074 135.748 13.8487 136.445 13.9574C139.143 14.4727 140.79 17.7744 140.116 21.2988C139.493 24.5179 137.158 26.859 134.721 26.859ZM135.714 14.549C134.702 14.5826 133.74 14.9933 133.016 15.7005C131.932 16.7375 131.209 18.0958 130.955 19.5748C130.319 22.7557 131.763 25.7203 134.136 26.1656C136.509 26.6109 138.901 24.3907 139.512 21.2034C140.116 18.0225 138.697 15.0579 136.331 14.6126C136.125 14.5616 135.913 14.5339 135.701 14.5299L135.714 14.549Z" fill="#2D3748"/>
<path d="M126.228 30.0845C126.144 30.0845 126.063 30.051 126.003 29.9913C125.944 29.9317 125.91 29.8507 125.91 29.7664C125.91 29.682 125.944 29.6011 126.003 29.5415C126.063 29.4818 126.144 29.4483 126.228 29.4483C128.487 29.3274 132.329 28.8439 132.991 28.0487C133.754 27.1199 134.263 24.1489 134.378 23.0865C134.383 23.0448 134.396 23.0044 134.417 22.9677C134.437 22.931 134.465 22.8988 134.498 22.8728C134.531 22.8468 134.569 22.8276 134.609 22.8162C134.65 22.8049 134.692 22.8016 134.734 22.8066C134.776 22.8116 134.816 22.8248 134.853 22.8454C134.889 22.866 134.922 22.8937 134.948 22.9268C134.974 22.9598 134.993 22.9977 135.004 23.0382C135.016 23.0787 135.019 23.1211 135.014 23.1629C135.014 23.3283 134.524 27.1899 133.474 28.4495C132.425 29.7091 126.877 30.0399 126.247 30.0845H126.228Z" fill="#2D3748"/>
<path d="M128.391 28.628L124.919 28.9415C124.433 28.9855 124.074 29.4139 124.118 29.8986C124.161 30.3832 124.591 30.7405 125.078 30.6966L128.55 30.3831C129.036 30.3391 129.395 29.9106 129.351 29.426C129.307 28.9413 128.878 28.5841 128.391 28.628Z" fill="white"/>
<path d="M124.988 31.0323C124.689 31.0303 124.402 30.9172 124.182 30.7149C123.962 30.5126 123.825 30.2357 123.798 29.9381C123.775 29.6265 123.876 29.3183 124.078 29.0803C124.28 28.8422 124.568 28.6933 124.88 28.6657L128.359 28.3476C128.677 28.3203 128.992 28.4185 129.237 28.6212C129.418 28.7721 129.551 28.9729 129.619 29.1985C129.687 29.4242 129.687 29.6649 129.619 29.8906C129.551 30.1163 129.419 30.3171 129.238 30.468C129.057 30.619 128.835 30.7135 128.601 30.7397L125.121 31.0514L124.988 31.0323ZM128.474 28.9584H128.417L124.937 29.2701C124.861 29.278 124.788 29.3008 124.722 29.3371C124.655 29.3735 124.597 29.4227 124.549 29.4819C124.502 29.541 124.467 29.609 124.446 29.6819C124.425 29.7547 124.419 29.831 124.428 29.9063C124.434 29.9803 124.456 30.0523 124.491 30.1178C124.526 30.1834 124.574 30.2413 124.631 30.288C124.686 30.3375 124.751 30.3749 124.821 30.3979C124.891 30.4209 124.965 30.429 125.039 30.4216L128.519 30.1035C128.595 30.0972 128.669 30.0756 128.737 30.0398C128.804 30.0041 128.864 29.955 128.912 29.8956C128.96 29.8361 128.996 29.7675 129.017 29.6939C129.038 29.6203 129.044 29.5432 129.034 29.4673C129.016 29.3191 128.943 29.183 128.83 29.0856C128.73 29.0036 128.604 28.9587 128.474 28.9584Z" fill="#2D3748"/>
<path d="M45.491 4.31293C35.2168 4.31293 26.8829 10.5029 26.8829 18.1307C26.8829 22.6285 29.7775 26.6237 34.2562 29.1429L38.4168 35.0339V30.9115C40.7104 31.6059 43.0946 31.9554 45.491 31.9485C55.7653 31.9485 64.1056 25.7648 64.1056 18.1307C64.1056 10.4966 55.7653 4.31293 45.491 4.31293Z" fill="white"/>
<path d="M38.4167 35.352C38.3657 35.3528 38.3151 35.341 38.2697 35.3177C38.2242 35.2945 38.1851 35.2603 38.1559 35.2184L34.0335 29.4037C29.2876 26.6873 26.5711 22.5903 26.5711 18.1307C26.5711 10.3184 35.0577 3.99481 45.491 3.99481C55.9243 3.99481 64.4109 10.3566 64.4109 18.1307C64.4109 25.9048 55.9243 32.2665 45.491 32.2665C43.2055 32.2646 40.9315 31.9434 38.7348 31.3123V35.0085C38.7352 35.0765 38.7138 35.1428 38.6738 35.1978C38.6337 35.2527 38.5771 35.2934 38.5122 35.3138C38.4834 35.3331 38.4509 35.3461 38.4167 35.352ZM45.491 4.63099C35.4076 4.63099 27.2073 10.6874 27.2073 18.1307C27.2073 22.4058 29.8284 26.2865 34.4088 28.8693C34.4516 28.8898 34.4887 28.9204 34.517 28.9584L38.0987 34.0478V30.9115C38.0991 30.8622 38.1109 30.8136 38.1329 30.7695C38.1549 30.7255 38.1867 30.687 38.2259 30.657C38.2672 30.6285 38.3141 30.6092 38.3635 30.6004C38.4129 30.5916 38.4636 30.5936 38.5122 30.6061C40.7807 31.2944 43.1395 31.6397 45.5101 31.6304C55.5935 31.6304 63.7939 25.5739 63.7939 18.1307C63.7939 10.6874 55.5744 4.63099 45.491 4.63099Z" fill="#D1D3D4"/>
<path d="M36.5591 19.7021C37.4375 19.7021 38.1495 18.99 38.1495 18.1116C38.1495 17.2332 37.4375 16.5212 36.5591 16.5212C35.6807 16.5212 34.9687 17.2332 34.9687 18.1116C34.9687 18.99 35.6807 19.7021 36.5591 19.7021Z" fill="#D1D3D4"/>
<path d="M45.491 19.7021C46.3694 19.7021 47.0815 18.99 47.0815 18.1116C47.0815 17.2332 46.3694 16.5212 45.491 16.5212C44.6127 16.5212 43.9006 17.2332 43.9006 18.1116C43.9006 18.99 44.6127 19.7021 45.491 19.7021Z" fill="#D1D3D4"/>
<path d="M54.4166 19.7021C55.295 19.7021 56.0071 18.99 56.0071 18.1116C56.0071 17.2332 55.295 16.5212 54.4166 16.5212C53.5382 16.5212 52.8262 17.2332 52.8262 18.1116C52.8262 18.99 53.5382 19.7021 54.4166 19.7021Z" fill="#D1D3D4"/>
<path d="M159.532 56.7085H159.5C159.414 56.6988 159.335 56.6565 159.28 56.5901C159.224 56.5238 159.196 56.4386 159.201 56.3522C160.474 41.5865 165.531 36.3126 165.741 36.0963C165.804 36.0456 165.884 36.0196 165.964 36.0234C166.045 36.0271 166.122 36.0603 166.18 36.1167C166.238 36.1731 166.273 36.2488 166.279 36.3294C166.285 36.41 166.261 36.4901 166.212 36.5544C166.161 36.6053 161.123 41.9173 159.85 56.4095C159.844 56.4899 159.808 56.5652 159.749 56.6205C159.69 56.6758 159.613 56.7071 159.532 56.7085Z" fill="white"/>
</svg>
