<svg width="20" height="12" viewBox="0 0 20 12" fill="none" xmlns="http://www.w3.org/2000/svg">
<path d="M19.4479 2.78757L10.7311 0.109449C10.2561 -0.0364831 9.7436 -0.0364831 9.26885 0.109449L0.551717 2.78757C-0.183906 3.0135 -0.183906 3.98631 0.551717 4.21225L2.0714 4.67913C1.73796 5.0913 1.53296 5.59413 1.51265 6.14471C1.21172 6.31721 0.999843 6.62845 0.999843 7.00003C0.999843 7.33695 1.17734 7.62036 1.43296 7.80161L0.635154 11.3916C0.565779 11.7038 0.803278 12 1.12297 12H2.8764C3.19639 12 3.43389 11.7038 3.36452 11.3916L2.56671 7.80161C2.82234 7.62036 2.99984 7.33695 2.99984 7.00003C2.99984 6.63845 2.79765 6.33596 2.51046 6.16037C2.53421 5.69096 2.77421 5.27596 3.15702 5.01288L9.2686 6.8907C9.55168 6.97753 10.0948 7.08603 10.7308 6.8907L19.4479 4.21256C20.1839 3.98631 20.1839 3.01382 19.4479 2.78757ZM11.0245 7.84661C10.1329 8.12036 9.37327 7.96911 8.97485 7.84661L4.44295 6.45446L3.99983 10C3.99983 11.1048 6.68607 12 9.99985 12C13.3136 12 15.9998 11.1048 15.9998 10L15.5566 6.45412L11.0245 7.84661Z" fill="#006CE7"/>
</svg>
