<svg viewBox="0 0 34 33" fill="none" xmlns="http://www.w3.org/2000/svg">
<g filter="url(#filter0_d_13_684)">
<path d="M19.663 1.98627C19.117 2.30942 18.961 2.86659 18.8963 3.09614C18.8807 3.15185 18.698 3.83605 19.0144 4.54922C19.108 4.76094 19.2083 4.97935 19.4357 5.08409C19.5671 5.1465 19.6853 5.14204 20.1488 5.10192C20.365 5.0841 20.599 5.06181 20.8486 5.03506C21.0247 4.80997 21.3278 4.35978 21.4169 3.72685C21.4325 3.60873 21.6153 2.20022 20.8486 1.82581C20.3472 1.57843 19.7432 1.93724 19.663 1.98627Z" fill="#2D3748"/>
<path d="M9.58053 5.30922C9.8587 5.30922 10.0842 5.05977 10.0842 4.75206C10.0842 4.44434 9.8587 4.19489 9.58053 4.19489C9.30235 4.19489 9.07685 4.44434 9.07685 4.75206C9.07685 5.05977 9.30235 5.30922 9.58053 5.30922Z" fill="#2D3748"/>
<path d="M21.0024 14.2372C21.2092 14.2372 21.3768 14.0755 21.3768 13.8761C21.3768 13.6767 21.2092 13.5151 21.0024 13.5151C20.7956 13.5151 20.628 13.6767 20.628 13.8761C20.628 14.0755 20.7956 14.2372 21.0024 14.2372Z" fill="#2D3748"/>
<path d="M9.58499 12.0576C9.73885 12.0576 9.86357 11.9328 9.86357 11.779C9.86357 11.6251 9.73885 11.5004 9.58499 11.5004C9.43114 11.5004 9.30641 11.6251 9.30641 11.779C9.30641 11.9328 9.43114 12.0576 9.58499 12.0576Z" fill="#2D3748"/>
<path d="M9.06571 5.12423C9.31065 5.12423 9.50921 4.91569 9.50921 4.65845C9.50921 4.4012 9.31065 4.19266 9.06571 4.19266C8.82077 4.19266 8.62221 4.4012 8.62221 4.65845C8.62221 4.91569 8.82077 5.12423 9.06571 5.12423Z" fill="#2D3748"/>
<path d="M20.8998 13.6667C21.0512 13.6667 21.174 13.5389 21.174 13.3814C21.174 13.2238 21.0512 13.0961 20.8998 13.0961C20.7484 13.0961 20.6257 13.2238 20.6257 13.3814C20.6257 13.5389 20.7484 13.6667 20.8998 13.6667Z" fill="#2D3748"/>
<path d="M24.5638 5.79952C24.7299 5.79952 24.8646 5.65584 24.8646 5.47859C24.8646 5.30135 24.7299 5.15767 24.5638 5.15767C24.3976 5.15767 24.2629 5.30135 24.2629 5.47859C24.2629 5.65584 24.3976 5.79952 24.5638 5.79952Z" fill="#2D3748"/>
<path d="M18.0294 7.783C17.9803 7.70499 17.9001 7.77854 17.8667 7.83203C17.7976 7.94346 17.753 8.08164 17.8043 8.20867C17.8422 8.3045 17.9358 8.38473 18.045 8.36913C18.1453 8.35576 18.221 8.2733 18.2188 8.17301C18.2188 8.14627 18.1809 8.12621 18.1609 8.1485C18.0427 8.29781 17.8979 8.50954 18.016 8.7012C18.0985 8.83269 18.3013 8.85052 18.3815 8.70789C18.3614 8.70566 18.3414 8.70343 18.3213 8.69897C18.3325 8.76137 18.3436 8.82378 18.3525 8.88618C18.3592 8.92852 18.4238 8.91069 18.4172 8.86835C18.406 8.80595 18.3949 8.74355 18.386 8.68114C18.3815 8.65217 18.3369 8.64994 18.3258 8.67223C18.2901 8.73463 18.2099 8.75692 18.1453 8.72572C18.0739 8.69006 18.0427 8.60983 18.0427 8.53182C18.0427 8.40256 18.1341 8.2889 18.2099 8.19307C18.1898 8.18415 18.172 8.17747 18.152 8.16855C18.1542 8.25324 18.0717 8.31564 17.9893 8.29782C17.9269 8.28444 17.8867 8.23096 17.8645 8.17301C17.8422 8.11284 17.8444 8.05266 17.8622 7.99249C17.8645 7.98803 17.9558 7.78968 17.9692 7.81197C17.9937 7.85209 18.0517 7.81866 18.0294 7.783Z" fill="#2D3748"/>
<path d="M8.92976 7.9836C8.97879 7.84988 9.14148 7.90782 9.19274 8.00143C9.21057 8.03263 9.21949 8.06829 9.22394 8.10395C9.23286 8.1708 9.22617 8.19755 9.16823 8.23766C9.10582 8.30007 9.09022 8.27555 9.12365 8.16412C9.13925 8.15743 9.15708 8.15075 9.17268 8.14406C9.21503 8.13292 9.26406 8.13515 9.3064 8.14852C9.41338 8.18418 9.46687 8.29784 9.45127 8.40259C9.44681 8.42933 9.47355 8.45607 9.50029 8.44047C9.64516 8.35801 9.83682 8.44939 9.87025 8.61208C9.87917 8.65442 9.9438 8.63659 9.93488 8.59425C9.89254 8.38921 9.64961 8.28224 9.46687 8.38476C9.48247 8.39813 9.5003 8.40927 9.5159 8.42264C9.54487 8.22652 9.39555 8.04377 9.18828 8.07497C9.11697 8.08612 9.00999 8.13069 9.00108 8.21538C8.99439 8.28447 9.05902 8.33573 9.12365 8.34241C9.31532 8.36024 9.31086 8.08166 9.24846 7.97023C9.16377 7.81868 8.92976 7.78079 8.8629 7.968C8.84953 8.00589 8.91416 8.02371 8.92976 7.9836Z" fill="#2D3748"/>
<path d="M20.6636 16.3722C20.8352 16.4859 20.9801 16.6308 21.096 16.8001C21.1205 16.8358 21.1784 16.8024 21.1539 16.7667C21.0313 16.5884 20.8798 16.4369 20.6993 16.3165C20.6614 16.2898 20.628 16.3477 20.6636 16.3722Z" fill="#2D3748"/>
<path d="M21.0982 16.4948C21.1339 16.5372 21.1673 16.5817 21.203 16.6241C21.2297 16.6575 21.2765 16.6107 21.2498 16.5773C21.2141 16.5349 21.1807 16.4904 21.145 16.448C21.1183 16.4146 21.0715 16.4636 21.0982 16.4948Z" fill="#2D3748"/>
<path d="M20.8932 15.8708C21.0469 16.0134 21.174 16.1761 21.272 16.3611C21.2921 16.399 21.35 16.3655 21.33 16.3277C21.2297 16.1382 21.0982 15.9688 20.94 15.824C20.9088 15.7928 20.862 15.8418 20.8932 15.8708Z" fill="#2D3748"/>
<path d="M5.48427 18.3802C5.5333 18.8638 5.61799 19.3408 5.73611 19.8132C5.74725 19.8556 5.81188 19.8378 5.80074 19.7954C5.68485 19.3296 5.60016 18.8572 5.55113 18.3802C5.54667 18.3379 5.47981 18.3379 5.48427 18.3802Z" fill="#2D3748"/>
<path d="M5.7495 19.8356C6.18854 19.9492 6.64541 19.9492 7.08446 19.8356C7.1268 19.8244 7.10897 19.7598 7.06663 19.7709C6.63873 19.8824 6.19523 19.8824 5.76732 19.7709C5.72721 19.7598 5.70938 19.8244 5.7495 19.8356Z" fill="#2D3748"/>
<path d="M7.1357 19.7687C7.16467 19.294 7.20256 18.8193 7.24713 18.3446C7.25159 18.3022 7.18473 18.3022 7.18027 18.3446C7.1357 18.8193 7.09781 19.294 7.06884 19.7687C7.06661 19.811 7.13347 19.811 7.1357 19.7687Z" fill="#2D3748"/>
<path d="M5.52218 18.4159C6.07711 18.5296 6.64764 18.5251 7.20258 18.4003C7.24492 18.3914 7.22709 18.3268 7.18475 18.3357C6.64319 18.456 6.0838 18.4627 5.54 18.3513C5.49766 18.3424 5.47983 18.407 5.52218 18.4159Z" fill="#2D3748"/>
<path d="M5.51548 18.5764C5.53331 18.6677 5.6492 18.6633 5.72052 18.67C5.90104 18.6856 6.08379 18.69 6.26431 18.6856C6.43815 18.6811 6.61198 18.6677 6.78582 18.6477C6.92399 18.6299 7.05771 18.612 7.18029 18.5429C7.21817 18.5229 7.18474 18.4649 7.14686 18.485C6.92622 18.6076 6.6209 18.6031 6.37351 18.6143C6.25094 18.6187 6.12613 18.6209 6.00356 18.6187C5.93893 18.6165 5.59349 18.6321 5.58012 18.5585C5.5712 18.5162 5.5088 18.534 5.51548 18.5764Z" fill="#2D3748"/>
<path d="M5.64253 19.3497C5.7495 19.5391 5.88545 19.7063 6.04814 19.8511C6.07934 19.8801 6.12837 19.8333 6.09494 19.8043C5.93448 19.6639 5.80299 19.5013 5.70047 19.3163C5.68041 19.2784 5.62247 19.3118 5.64253 19.3497Z" fill="#2D3748"/>
<path d="M5.5556 18.8349C5.78292 19.2182 6.05927 19.5703 6.37574 19.8868C6.40694 19.918 6.45374 19.869 6.42254 19.84C6.11053 19.528 5.83863 19.1803 5.61354 18.8015C5.59125 18.7658 5.53331 18.7992 5.5556 18.8349Z" fill="#2D3748"/>
<path d="M5.92777 18.6744C6.16401 19.0956 6.43813 19.4946 6.74792 19.8667C6.77466 19.9002 6.82146 19.8534 6.79472 19.8199C6.48939 19.4522 6.2175 19.0577 5.98572 18.641C5.96566 18.6031 5.90772 18.6365 5.92777 18.6744Z" fill="#2D3748"/>
<path d="M6.35347 18.69C6.58302 19.0333 6.8148 19.3742 7.04881 19.7152C7.07333 19.7509 7.13127 19.7175 7.10676 19.6818C6.87275 19.3408 6.64097 18.9998 6.41142 18.6566C6.3869 18.621 6.32896 18.6544 6.35347 18.69Z" fill="#2D3748"/>
<path d="M6.71005 18.67C6.82594 18.8572 6.95075 19.0399 7.08001 19.2182C7.10452 19.2516 7.16247 19.2182 7.13795 19.1848C7.00869 19.0065 6.88389 18.8237 6.768 18.6365C6.74571 18.6009 6.68777 18.6343 6.71005 18.67Z" fill="#2D3748"/>
<path d="M4.78228 16.419C4.80902 16.5728 4.83576 16.7288 4.86474 16.8826C4.87365 16.9249 4.88034 16.9695 4.916 16.9963C4.94051 17.0163 5.02074 17.0141 5.03634 17.0364C5.03857 17.023 5.0408 17.0096 5.0408 16.9963C5.00737 17.0297 4.97394 17.0631 4.93828 17.0943C4.92937 17.1032 4.92714 17.1166 4.92937 17.1278C4.94942 17.1879 4.9628 17.2771 5.00291 17.3283C5.02297 17.3551 5.05863 17.3506 5.07423 17.3662C5.0876 17.3796 5.08314 17.3707 5.07646 17.4108C5.072 17.4442 5.072 17.4799 5.07646 17.5155C5.08314 17.569 5.09874 17.6203 5.1188 17.6693C5.23469 17.9501 5.45979 18.1774 5.67596 18.3869C5.70717 18.4159 5.75397 18.3691 5.72277 18.3401C5.58459 18.2064 5.44641 18.0682 5.33275 17.9122C5.22132 17.7585 5.08983 17.5512 5.15892 17.3551C5.16338 17.3439 5.15892 17.3283 5.15 17.3216C5.10766 17.2882 5.06531 17.3016 5.03634 17.2481C4.98063 17.1478 5.01183 17.1144 5.08314 17.0453C5.09429 17.0364 5.09652 17.0163 5.0876 17.0052C5.06977 16.9784 5.0564 16.9695 5.02743 16.9606C5.0096 16.9539 4.98285 16.9606 4.96503 16.9517C4.92714 16.9316 4.92714 16.8826 4.92045 16.8469C4.89371 16.6998 4.86696 16.5505 4.84245 16.4034C4.83799 16.3589 4.77336 16.3767 4.78228 16.419Z" fill="#2D3748"/>
<path d="M4.8313 16.4101C5.70047 16.6998 6.29552 17.5111 6.31335 18.4293C6.31335 18.4716 6.38021 18.4716 6.38021 18.4293C6.36238 17.4821 5.74727 16.6463 4.84913 16.3455C4.80901 16.3321 4.79118 16.3967 4.8313 16.4101Z" fill="#2D3748"/>
<path d="M6.16624 17.5155C6.38242 16.916 6.70112 16.3366 7.21148 15.9421C7.24491 15.9154 7.21148 15.8574 7.17805 15.8842C6.65209 16.292 6.32448 16.8804 6.10161 17.4977C6.08824 17.5378 6.15287 17.5556 6.16624 17.5155Z" fill="#2D3748"/>
<path d="M7.15352 15.9287C7.16912 16.1338 7.18695 16.3388 7.20255 16.5461C7.20701 16.5884 7.27387 16.5884 7.26941 16.5461C7.25381 16.341 7.23598 16.136 7.22038 15.9287C7.21815 15.8864 7.15129 15.8864 7.15352 15.9287Z" fill="#2D3748"/>
<path d="M7.23155 16.5238C7.20258 16.5305 7.17361 16.5372 7.14686 16.5461C7.10452 16.5572 7.12235 16.6218 7.16469 16.6107C7.19366 16.604 7.22264 16.5973 7.24938 16.5884C7.29172 16.5773 7.2739 16.5149 7.23155 16.5238Z" fill="#2D3748"/>
<path d="M7.11344 16.6062C7.12236 16.6486 7.15801 16.6753 7.19813 16.6798C7.21596 16.682 7.23156 16.6642 7.23156 16.6464C7.23156 16.6263 7.21596 16.6152 7.19813 16.6129C7.20482 16.6129 7.19813 16.6129 7.1959 16.6129C7.19367 16.6129 7.18921 16.6107 7.19367 16.6129C7.19144 16.6107 7.18922 16.6107 7.18699 16.6085C7.18253 16.6062 7.19144 16.6129 7.18476 16.6062C7.18253 16.604 7.18253 16.604 7.1803 16.6018C7.18476 16.6062 7.1803 16.6018 7.1803 16.5996C7.17807 16.5973 7.17807 16.5929 7.17807 16.5973C7.17807 16.5951 7.17584 16.5906 7.17584 16.5884C7.17139 16.5706 7.15133 16.5594 7.13573 16.5661C7.1179 16.5706 7.10898 16.5884 7.11344 16.6062Z" fill="#2D3748"/>
<path d="M7.16469 16.6553C7.16692 16.7823 7.16246 16.9071 7.14909 17.0319C7.14463 17.072 7.15132 17.1656 7.12457 17.1968C7.12234 17.1991 7.08223 17.2057 7.07331 17.2124C7.03988 17.2392 7.08669 17.286 7.12012 17.2592C7.13126 17.2503 7.158 17.2592 7.17583 17.2392C7.20258 17.2124 7.19812 17.15 7.20258 17.1188C7.22263 16.965 7.23155 16.809 7.22932 16.653C7.23155 16.6129 7.16469 16.6129 7.16469 16.6553Z" fill="#2D3748"/>
<path d="M7.04656 17.2704C7.11788 17.3551 7.09782 17.4955 7.09114 17.598C7.08222 17.7161 7.06217 17.8253 7.00422 17.9278C6.92176 18.0794 6.80587 18.2064 6.7457 18.3713C6.7301 18.4115 6.79473 18.4293 6.81033 18.3892C6.89056 18.173 7.07554 18.0125 7.13125 17.7852C7.17137 17.6225 7.20926 17.3618 7.09337 17.2236C7.06662 17.1924 7.01982 17.2392 7.04656 17.2704Z" fill="#2D3748"/>
<path d="M6.52061 18.4025C6.58301 17.7696 6.75016 17.1523 7.0176 16.5773C7.03543 16.5394 6.97748 16.5037 6.95965 16.5438C6.68776 17.1322 6.51615 17.7585 6.45375 18.4048C6.44929 18.4471 6.51615 18.4449 6.52061 18.4025Z" fill="#2D3748"/>
<path d="M5.2057 16.7823C5.59572 17.2726 5.88098 17.8365 6.04813 18.4382C6.05927 18.4805 6.12391 18.4627 6.11276 18.4204C5.94116 17.8053 5.6492 17.2347 5.2525 16.7355C5.22576 16.7021 5.17896 16.7489 5.2057 16.7823Z" fill="#2D3748"/>
<path d="M5.24805 17.6047C5.43526 17.5935 5.60909 17.6381 5.76733 17.7362C5.80299 17.7585 5.83864 17.7005 5.80076 17.6782C5.63361 17.5757 5.44417 17.5267 5.24805 17.5378C5.20348 17.54 5.20348 17.6069 5.24805 17.6047Z" fill="#2D3748"/>
<path d="M5.6559 17.306C5.64253 17.1834 5.65813 17.0653 5.70493 16.9494C5.72053 16.9093 5.6559 16.8915 5.6403 16.9316C5.59127 17.052 5.57567 17.1768 5.58904 17.306C5.5935 17.3484 5.66036 17.3484 5.6559 17.306Z" fill="#2D3748"/>
<path d="M6.37798 16.9361C6.45152 17.1166 6.5585 17.3083 6.58524 17.4999C6.59193 17.5423 6.65656 17.5245 6.64987 17.4821C6.6209 17.2882 6.51392 17.0966 6.44261 16.9183C6.42701 16.8781 6.36237 16.896 6.37798 16.9361Z" fill="#2D3748"/>
<path d="M6.78803 17.1478C6.85266 17.0743 6.91506 16.9873 6.99752 16.9316C7.06661 16.8848 7.14238 16.8536 7.19587 16.789C7.22261 16.7556 7.17581 16.7088 7.14907 16.7422C7.09112 16.8113 7.00643 16.8402 6.93735 16.8937C6.86157 16.9517 6.80363 17.0297 6.74123 17.101C6.71225 17.1344 6.75905 17.1812 6.78803 17.1478Z" fill="#2D3748"/>
<path d="M6.81034 18.3802C6.91731 18.3513 7.02651 18.3401 7.13795 18.3468C7.18029 18.349 7.18029 18.2822 7.13795 18.2799C7.01983 18.2733 6.90617 18.2844 6.79251 18.3156C6.75239 18.3267 6.76799 18.3914 6.81034 18.3802Z" fill="#2D3748"/>
<path d="M6.80143 18.407C6.92623 18.4181 7.04658 18.4025 7.16693 18.3646C7.20704 18.3513 7.18921 18.2866 7.1491 18.3C7.03544 18.3357 6.91955 18.349 6.80143 18.3401C6.75908 18.3379 6.75908 18.4048 6.80143 18.407Z" fill="#2D3748"/>
<path d="M5.55114 18.3958H5.63583C5.67818 18.3958 5.67818 18.329 5.63583 18.329C5.60686 18.329 5.58012 18.329 5.55114 18.329C5.5088 18.329 5.5088 18.3958 5.55114 18.3958Z" fill="#2D3748"/>
<path d="M7.18474 18.9352H9.30641C9.34876 18.9352 9.34876 18.8683 9.30641 18.8683C8.59993 18.8683 7.89122 18.8683 7.18474 18.8683C7.14239 18.8683 7.14239 18.9352 7.18474 18.9352Z" fill="#2D3748"/>
<path d="M19.1437 18.4939H20.4051C20.4474 18.4939 20.4474 18.427 20.4051 18.427C19.9839 18.427 19.5649 18.427 19.1437 18.427C19.1013 18.427 19.1013 18.4939 19.1437 18.4939Z" fill="#2D3748"/>
<path d="M22.968 18.534H28.4171H29.9682C30.0106 18.534 30.0106 18.4672 29.9682 18.4672C28.1519 18.4672 26.3355 18.4672 24.5192 18.4672C24.0021 18.4672 23.4851 18.4672 22.968 18.4672C22.9257 18.4672 22.9257 18.534 22.968 18.534Z" fill="#2D3748"/>
<path d="M20.2781 11.2174C20.1087 11.5673 19.9259 11.9105 19.732 12.247C19.7231 12.2648 19.7298 12.2938 19.7521 12.296C20.7082 12.4409 21.564 12.9156 22.3886 13.3948C22.4265 13.4171 22.4599 13.3591 22.422 13.3368C21.5907 12.8554 20.7305 12.3785 19.7677 12.2314C19.7744 12.247 19.7811 12.2648 19.7878 12.2804C19.9839 11.9439 20.1644 11.6007 20.3338 11.2508C20.3538 11.2129 20.2981 11.1773 20.2781 11.2174Z" fill="#2D3748"/>
<path d="M20.4252 12.432C20.492 12.2403 20.5589 12.0464 20.6257 11.8547C20.6547 11.7745 20.6748 11.6854 20.7126 11.6074C20.7216 11.5606 20.7505 11.5249 20.7951 11.4982C20.8219 11.5048 20.8486 11.5115 20.8753 11.5182C20.9155 11.5294 20.9556 11.5383 20.9935 11.5494C21.0848 11.5717 21.2319 11.5717 21.2163 11.6943C21.2052 11.7812 21.1539 11.8748 21.1249 11.9595C21.0581 12.1489 20.9935 12.3384 20.9266 12.5278C20.9132 12.5679 20.9779 12.5857 20.9912 12.5456C21.0781 12.296 21.1651 12.0442 21.252 11.7946C21.272 11.7366 21.3278 11.6386 21.2832 11.5762C21.2342 11.5093 21.0871 11.5048 21.0113 11.4848C20.9377 11.467 20.8085 11.4001 20.7327 11.4358C20.6681 11.4647 20.6547 11.5762 20.6346 11.6319C20.5433 11.8926 20.4519 12.1556 20.3605 12.4164C20.3472 12.4542 20.4118 12.4721 20.4252 12.432Z" fill="#2D3748"/>
<path d="M21.2854 12.6705C21.428 12.3696 21.5729 12.0665 21.7155 11.7656C21.7868 11.6141 21.8582 11.4648 21.9317 11.3132C21.9651 11.2441 21.9919 11.1617 22.0342 11.097C22.0699 11.0413 22.0788 11.0279 22.1412 11.0525C22.1746 11.0658 22.2147 11.0993 22.2437 11.1193C22.2816 11.1461 22.3418 11.175 22.3685 11.2107C22.402 11.253 22.3886 11.2976 22.3685 11.3511C22.3418 11.4224 22.3017 11.4915 22.2682 11.5606C22.1947 11.7121 22.1211 11.8637 22.0431 12.0152C21.896 12.3027 21.7423 12.588 21.584 12.871C21.5618 12.9089 21.6197 12.9424 21.642 12.9045C21.8359 12.5613 22.0209 12.2136 22.1947 11.8615C22.2816 11.6876 22.3774 11.5093 22.451 11.3288C22.5022 11.1973 22.3908 11.1438 22.2927 11.0747C22.2147 11.0213 22.0922 10.8987 22.0075 10.999C21.954 11.0614 21.925 11.1661 21.8894 11.2419C21.8448 11.3333 21.8024 11.4246 21.7579 11.5182C21.5796 11.8927 21.4013 12.2671 21.2252 12.6415C21.2096 12.6749 21.2676 12.7106 21.2854 12.6705Z" fill="#2D3748"/>
<path d="M22.0253 13.134C22.217 12.8331 22.4332 12.5479 22.6716 12.2849C22.6583 12.2871 22.6449 12.2893 22.6315 12.2893C22.7162 12.3473 22.7987 12.403 22.8834 12.461C22.8789 12.4453 22.8745 12.4297 22.8722 12.4141C22.6828 12.7106 22.4934 13.0047 22.3039 13.3012C22.2816 13.3368 22.3373 13.3702 22.3619 13.3346C22.5513 13.0382 22.7407 12.744 22.9302 12.4476C22.9413 12.432 22.9324 12.4119 22.919 12.4008C22.8343 12.3428 22.7519 12.2871 22.6672 12.2292C22.656 12.2203 22.636 12.2247 22.6271 12.2336C22.3841 12.5033 22.1635 12.7908 21.9696 13.0961C21.9451 13.1385 22.003 13.1719 22.0253 13.134Z" fill="#2D3748"/>
<path d="M24.6841 11.0145C24.4612 10.9298 24.3208 10.707 24.361 10.4685C24.4011 10.2256 24.6395 10.0094 24.8847 10.1543C25.0541 10.2546 25.141 10.4819 25.0764 10.6669C25.0095 10.8652 24.7911 10.9833 24.5883 10.9521C24.5459 10.9454 24.5281 11.0101 24.5704 11.0168C24.8089 11.0524 25.0607 10.9209 25.141 10.6847C25.2212 10.4485 25.092 10.1632 24.8602 10.0674C24.5883 9.95593 24.3409 10.1899 24.2941 10.4507C24.2451 10.727 24.4078 10.9811 24.6641 11.0792C24.7064 11.0948 24.7242 11.0301 24.6841 11.0145Z" fill="#2D3748"/>
<path d="M25.141 10.9722C24.6975 10.9588 24.8646 10.2479 25.2569 10.2747C25.6491 10.3036 25.4886 11.1037 25.0585 10.9566C25.0184 10.9432 25.0006 11.0079 25.0407 11.0213C25.5377 11.1906 25.7605 10.2858 25.2858 10.21C25.0541 10.1721 24.8446 10.3905 24.8089 10.6067C24.7732 10.8207 24.9181 11.0302 25.141 11.0369C25.1833 11.0413 25.1833 10.9745 25.141 10.9722Z" fill="#2D3748"/>
<path d="M24.8089 8.95527C24.771 8.91516 24.7532 8.85053 24.7822 8.8015C24.8112 8.7547 24.8825 8.73241 24.927 8.76807C24.9672 8.79927 24.9761 8.86613 24.9382 8.89956C24.8936 8.93967 24.8223 8.91962 24.78 8.88619C24.7465 8.85944 24.6997 8.90624 24.7332 8.93299C24.8022 8.98648 24.9092 9.01322 24.9828 8.94859C25.0496 8.88841 25.0429 8.77698 24.9761 8.71904C24.907 8.65886 24.7978 8.67669 24.7398 8.74355C24.6752 8.81933 24.693 8.93299 24.7599 9.00208C24.7911 9.03328 24.8379 8.98648 24.8089 8.95527Z" fill="#2D3748"/>
<path d="M18.3414 10.6334C18.279 10.2546 18.4996 9.7977 18.9275 9.80216C19.1459 9.80438 19.3576 9.89353 19.5783 9.86233C19.7343 9.84004 19.868 9.7509 19.9616 9.62832C20.0552 9.50575 20.1087 9.35197 20.1176 9.19819C20.1287 8.97087 20.0418 8.73909 20.1042 8.514C20.1354 8.40033 20.2023 8.29559 20.316 8.25324C20.4252 8.21536 20.5433 8.23764 20.6569 8.23319C20.8219 8.2265 20.9511 8.15518 21.0336 8.01032C21.1495 7.80751 21.1227 7.56459 21.203 7.35064C21.2988 7.09212 21.5685 6.87148 21.8537 6.99851C21.8916 7.01634 21.9273 6.9584 21.8871 6.94057C21.4994 6.76673 21.1762 7.11663 21.1004 7.46876C21.0514 7.69831 21.0603 8.05489 20.7862 8.14627C20.5945 8.2109 20.3784 8.11061 20.2023 8.2421C20.0574 8.34908 20.0151 8.5452 20.0173 8.7168C20.024 8.96864 20.102 9.21379 19.9906 9.45449C19.888 9.68181 19.6852 9.81776 19.4334 9.80216C19.2105 9.78878 18.9899 9.69741 18.7648 9.75535C18.3837 9.85119 18.221 10.3014 18.2812 10.6535C18.2857 10.6914 18.3503 10.6736 18.3414 10.6334Z" fill="#2D3748"/>
<path d="M21.1584 9.04442C21.0759 8.85721 21.1896 8.67892 21.3701 8.61874C21.5016 8.57417 21.6465 8.57194 21.7601 8.4828C21.8493 8.41371 21.8782 8.32679 21.8671 8.21536C21.856 8.11061 21.856 8.02815 21.9384 7.95684C22.0075 7.89666 22.0989 7.87437 22.188 7.86992C22.4332 7.861 22.7697 7.98581 22.948 7.74734C23.0305 7.63591 23.0059 7.49773 23.0438 7.37293C23.0951 7.19909 23.2622 7.09212 23.4405 7.10103C23.4829 7.10326 23.4829 7.0364 23.4405 7.03417C23.3046 7.02749 23.1731 7.07875 23.0795 7.17681C22.9636 7.29938 22.9792 7.43756 22.9435 7.59134C22.8477 8.01255 22.2616 7.71614 21.9852 7.84763C21.8827 7.89666 21.8002 7.98358 21.7913 8.09947C21.7802 8.23542 21.8426 8.34685 21.7044 8.44045C21.6309 8.48948 21.5462 8.50508 21.4615 8.52514C21.3211 8.55857 21.1829 8.60092 21.1116 8.73686C21.0536 8.84384 21.0536 8.96641 21.1027 9.07562C21.1183 9.11796 21.174 9.0823 21.1584 9.04442Z" fill="#2D3748"/>
<path d="M25.1298 6.07587C25.1209 6.05581 25.112 6.03352 25.1053 6.01124C25.1343 5.97781 25.161 5.94438 25.19 5.91095C25.1989 5.90872 25.239 5.93546 25.2524 5.93546C25.2858 5.93992 25.3148 5.93101 25.3416 5.91095C25.424 5.84632 25.395 5.7438 25.4196 5.65688C25.4597 5.50756 25.6357 5.61008 25.716 5.49865C25.7962 5.38944 25.7672 5.15766 25.9812 5.22007C26.0235 5.23121 26.0413 5.16658 25.999 5.15544C25.8764 5.11978 25.765 5.17772 25.7204 5.29584C25.707 5.32927 25.7026 5.36716 25.6892 5.40059C25.6602 5.47859 25.629 5.48973 25.5444 5.49419C25.482 5.49865 25.4329 5.49419 25.3906 5.54768C25.3549 5.59448 25.3549 5.65465 25.3482 5.71037C25.3416 5.79283 25.3482 5.86192 25.2257 5.853C25.2011 5.85077 25.1811 5.82849 25.1543 5.82849C25.0073 5.82626 25.0318 6.00678 25.0674 6.0937C25.0808 6.13381 25.1477 6.11598 25.1298 6.07587Z" fill="#2D3748"/>
<path d="M25.5488 6.26085C25.5132 6.21405 25.453 6.0781 25.5578 6.04244C25.5956 6.02907 25.6447 6.04467 25.6848 6.04467C25.7205 6.04467 25.7517 6.04467 25.7806 6.02016C25.8698 5.94884 25.8051 5.82181 25.8519 5.73266C25.9277 5.5878 26.0793 5.70146 26.1862 5.62568C26.262 5.5722 26.2821 5.46968 26.2954 5.38499C26.3021 5.34265 26.2375 5.32482 26.2308 5.36716C26.2152 5.46745 26.1974 5.57888 26.0726 5.59003C26.0079 5.59671 25.9589 5.57443 25.8987 5.6034C25.8007 5.6502 25.7695 5.73712 25.7673 5.83741C25.765 5.9221 25.7851 5.96444 25.6424 5.97113C25.6246 5.97113 25.6068 5.96667 25.589 5.96667C25.5377 5.97113 25.4931 5.99787 25.4642 6.04021C25.4018 6.12936 25.4374 6.23188 25.4998 6.30988C25.5288 6.34331 25.5756 6.29428 25.5488 6.26085Z" fill="#2D3748"/>
<path d="M6.60082 7.46877C6.7858 7.2459 7.04878 7.06315 7.35188 7.09435C7.68172 7.12778 7.84441 7.39076 7.87561 7.69832C7.9291 8.20868 7.80429 8.81933 8.14973 9.25392C8.28568 9.42552 8.48849 9.5169 8.7069 9.46341C8.96988 9.40101 9.17491 9.19374 9.40892 9.07117C9.68527 8.9263 10.0664 8.8483 10.316 9.09122C10.4987 9.26952 10.5388 9.54141 10.599 9.77765C10.6547 9.9916 10.7506 10.2278 10.9422 10.3549C11.0581 10.4306 11.1852 10.4373 11.3189 10.4284C11.4682 10.4173 11.7735 10.4084 11.7423 10.6424C11.7379 10.6847 11.8047 10.6847 11.8092 10.6424C11.8203 10.551 11.778 10.4774 11.7044 10.424C11.5885 10.3393 11.4548 10.3526 11.3189 10.3616C11.1651 10.3727 11.0336 10.3593 10.9155 10.2501C10.8085 10.1521 10.7439 10.0139 10.6971 9.87794C10.6191 9.64393 10.5968 9.38763 10.4631 9.17368C10.3316 8.96196 10.1043 8.85944 9.85911 8.86836C9.54933 8.8795 9.28857 9.05779 9.04119 9.22271C8.92307 9.30072 8.79604 9.38318 8.65118 9.40769C8.47734 9.43667 8.32357 9.36089 8.21213 9.23163C8.00264 8.98648 7.96921 8.63658 7.95807 8.32903C7.94693 8.04153 7.98481 7.72952 7.88898 7.45094C7.80206 7.19687 7.58143 7.03864 7.31622 7.02526C7.00866 7.00966 6.739 7.19464 6.54956 7.42197C6.52505 7.4554 6.57185 7.5022 6.60082 7.46877Z" fill="#2D3748"/>
<path d="M5.47538 10.9076C5.82305 11.487 6.13283 12.0865 6.40696 12.7039C6.42479 12.744 6.48273 12.7083 6.4649 12.6704C6.19078 12.0531 5.87877 11.4536 5.53333 10.8741C5.51104 10.8362 5.45309 10.8697 5.47538 10.9076Z" fill="#2D3748"/>
<path d="M5.5177 10.8808C6.05926 10.5443 6.61643 10.23 7.18919 9.94478C7.22708 9.92472 7.19365 9.86678 7.15576 9.88683C6.58523 10.1721 6.02806 10.4863 5.48427 10.8229C5.44638 10.8474 5.47981 10.9053 5.5177 10.8808Z" fill="#2D3748"/>
<path d="M7.14909 9.91583C7.43213 10.5109 7.73077 11.097 8.04724 11.6742C8.0673 11.7121 8.12524 11.6787 8.10518 11.6408C7.78871 11.0636 7.48785 10.4775 7.20704 9.8824C7.18698 9.84229 7.13126 9.87572 7.14909 9.91583Z" fill="#2D3748"/>
<path d="M6.48273 12.7172C7.01537 12.3963 7.54134 12.0665 8.06284 11.7277C8.0985 11.7054 8.06507 11.6475 8.02941 11.6698C7.50791 12.0085 6.98194 12.3384 6.4493 12.6593C6.41364 12.6816 6.44707 12.7395 6.48273 12.7172Z" fill="#2D3748"/>
<path d="M6.44036 10.6847C6.42699 11.1126 6.4515 11.5383 6.51391 11.9617C6.52059 12.0041 6.58522 11.9863 6.57854 11.9439C6.51613 11.5272 6.49385 11.1059 6.50722 10.6847C6.50945 10.6424 6.44259 10.6424 6.44036 10.6847Z" fill="#2D3748"/>
<path d="M6.4426 10.6624C6.75238 10.9053 7.06216 11.1438 7.3764 11.38C7.40983 11.4068 7.44326 11.3488 7.40983 11.3221C7.10005 11.0903 6.7925 10.8541 6.4894 10.6156C6.45597 10.5889 6.40917 10.6357 6.4426 10.6624Z" fill="#2D3748"/>
<path d="M6.583 11.9751C6.83929 11.7456 7.17359 11.623 7.41651 11.3756C7.44771 11.3444 7.39868 11.2976 7.36971 11.3288C7.12679 11.574 6.79472 11.6988 6.53619 11.9283C6.50277 11.9551 6.5518 12.0019 6.583 11.9751Z" fill="#2D3748"/>
<path d="M5.56452 11.2575C5.63583 11.2218 5.70715 11.1884 5.77847 11.1527C5.81635 11.1349 5.78292 11.077 5.74504 11.0948C5.67372 11.1304 5.6024 11.1639 5.53109 11.1995C5.4932 11.2196 5.52663 11.2753 5.56452 11.2575Z" fill="#2D3748"/>
<path d="M5.79407 11.6363C5.85425 11.5962 5.91888 11.5628 5.98574 11.5338C6.02585 11.5182 6.00802 11.4536 5.96791 11.4692C5.89436 11.5004 5.82527 11.536 5.75841 11.5784C5.72498 11.6029 5.75841 11.6608 5.79407 11.6363Z" fill="#2D3748"/>
<path d="M6.04592 12.0732C6.10832 12.042 6.17072 12.0108 6.23312 11.9818C6.27101 11.9617 6.23758 11.906 6.19969 11.9239C6.13729 11.9551 6.07489 11.9863 6.01249 12.0152C5.9746 12.0331 6.00803 12.091 6.04592 12.0732Z" fill="#2D3748"/>
<path d="M6.17515 12.51C6.24424 12.4498 6.31556 12.3985 6.39579 12.354C6.43368 12.3317 6.40025 12.276 6.36236 12.296C6.2799 12.3428 6.2019 12.3985 6.12835 12.4632C6.09492 12.4921 6.14172 12.539 6.17515 12.51Z" fill="#2D3748"/>
<path d="M7.27611 10.3549C7.32737 10.3192 7.38086 10.2947 7.44103 10.2791C7.48338 10.2679 7.46555 10.2055 7.4232 10.2145C7.35857 10.2301 7.29617 10.2568 7.24045 10.2969C7.20702 10.3214 7.24045 10.3794 7.27611 10.3549Z" fill="#2D3748"/>
<path d="M7.47448 10.736C7.5458 10.6914 7.61711 10.6468 7.6862 10.6C7.72186 10.5777 7.68843 10.5198 7.65277 10.5421C7.58146 10.5866 7.51014 10.6312 7.44105 10.678C7.40316 10.7025 7.43659 10.7605 7.47448 10.736Z" fill="#2D3748"/>
<path d="M7.7018 11.1928C7.77758 11.1594 7.85558 11.126 7.93135 11.0925C7.97147 11.0747 7.93581 11.0168 7.89792 11.0346C7.82215 11.068 7.74415 11.1015 7.66837 11.1349C7.62826 11.1527 7.66391 11.2107 7.7018 11.1928Z" fill="#2D3748"/>
<path d="M7.86447 11.4915C7.92465 11.4335 7.99151 11.3845 8.06505 11.3421C8.10294 11.3221 8.06951 11.2641 8.03162 11.2842C7.95362 11.3288 7.8823 11.38 7.81767 11.4424C7.78647 11.4736 7.83327 11.5204 7.86447 11.4915Z" fill="#2D3748"/>
<path d="M6.67215 12.4231C6.72787 12.5055 6.77467 12.5925 6.81033 12.6838C6.82593 12.7239 6.89056 12.7061 6.87496 12.666C6.83707 12.5679 6.79027 12.4743 6.7301 12.3874C6.70558 12.354 6.64764 12.3874 6.67215 12.4231Z" fill="#2D3748"/>
<path d="M7.01313 12.2381C7.05548 12.3139 7.09559 12.3874 7.13794 12.4632C7.15799 12.5011 7.21594 12.4677 7.19588 12.4298C7.15354 12.354 7.11342 12.2804 7.07108 12.2047C7.05102 12.1668 6.99307 12.2002 7.01313 12.2381Z" fill="#2D3748"/>
<path d="M7.40762 11.9551C7.45219 12.0353 7.49676 12.1155 7.54134 12.1958C7.56139 12.2336 7.61934 12.2002 7.59928 12.1623C7.55471 12.0821 7.51013 12.0019 7.46556 11.9216C7.4455 11.8837 7.38756 11.9172 7.40762 11.9551Z" fill="#2D3748"/>
<path d="M7.76196 11.7433C7.79762 11.828 7.83328 11.9127 7.87117 11.9951C7.889 12.0353 7.94471 11.9996 7.92911 11.9617C7.89346 11.877 7.8578 11.7923 7.81991 11.7099C7.80208 11.672 7.74414 11.7054 7.76196 11.7433Z" fill="#2D3748"/>
<path d="M5.74057 10.5376C5.78291 10.6067 5.82303 10.6758 5.86537 10.7427C5.88766 10.7805 5.94561 10.7449 5.92332 10.7092C5.88097 10.6401 5.84086 10.571 5.79851 10.5042C5.77623 10.4685 5.71828 10.502 5.74057 10.5376Z" fill="#2D3748"/>
<path d="M6.12389 10.3148L6.24424 10.5822C6.26207 10.6223 6.32001 10.5866 6.30218 10.5488C6.26207 10.4596 6.22195 10.3705 6.18184 10.2813C6.16178 10.2412 6.10606 10.2746 6.12389 10.3148Z" fill="#2D3748"/>
<path d="M6.46936 10.1008C6.52953 10.181 6.57633 10.2679 6.60753 10.3615C6.6209 10.4017 6.68553 10.3838 6.67216 10.3437C6.63873 10.2434 6.59193 10.1498 6.5273 10.0674C6.50279 10.0339 6.44484 10.0651 6.46936 10.1008Z" fill="#2D3748"/>
<path d="M6.84151 9.92919C6.88831 10.0005 6.93288 10.0696 6.97969 10.1409C7.00197 10.1766 7.05992 10.1431 7.03763 10.1075C6.99083 10.0362 6.94626 9.96708 6.89945 9.89576C6.87494 9.8601 6.81699 9.89353 6.84151 9.92919Z" fill="#2D3748"/>
<path d="M10.3071 5.50977C10.0909 5.44291 10.0798 5.21336 10.1823 5.04175C10.2826 4.8746 10.4765 4.83003 10.628 4.96821C10.7528 5.0841 10.764 5.28245 10.6481 5.40948C10.5322 5.53874 10.3427 5.53651 10.209 5.43845C10.1756 5.41171 10.1422 5.46965 10.1756 5.4964C10.345 5.6212 10.5924 5.60115 10.7194 5.42508C10.8509 5.24679 10.8041 4.99718 10.6191 4.87683C10.1734 4.58934 9.79004 5.4184 10.2893 5.5744C10.3316 5.58777 10.3494 5.52314 10.3071 5.50977Z" fill="#2D3748"/>
<path d="M10.6659 5.56774C10.4988 5.619 10.4586 5.41842 10.5322 5.31144C10.5924 5.22453 10.7105 5.17327 10.8174 5.20224C10.92 5.22898 10.9935 5.33373 10.9668 5.43848C10.9333 5.56997 10.7952 5.61677 10.6726 5.59671C10.6302 5.59002 10.6124 5.65466 10.6548 5.66134C10.8197 5.69031 10.998 5.619 11.0336 5.44071C11.0648 5.28693 10.9445 5.14652 10.7952 5.12869C10.6302 5.10864 10.4497 5.22898 10.4274 5.39836C10.4074 5.54545 10.5411 5.67694 10.6882 5.63014C10.7261 5.619 10.7082 5.55437 10.6659 5.56774Z" fill="#2D3748"/>
<path d="M9.244 7.01857C9.19051 7.12778 9.26629 7.23698 9.37772 7.26595C9.46241 7.28824 9.55156 7.26818 9.63847 7.27264C9.73208 7.2771 9.82568 7.29938 9.91037 7.33727C10.0976 7.42196 10.2179 7.57574 10.2246 7.783C10.2313 7.95684 10.18 8.13736 10.2558 8.30228C10.4163 8.64995 10.8575 8.38474 11.0849 8.60983C11.2743 8.79927 11.1963 9.14471 11.4504 9.28957C11.4883 9.31186 11.5217 9.25391 11.4838 9.23162C11.2565 9.10236 11.31 8.76584 11.1495 8.57863C11.0648 8.48057 10.9422 8.45382 10.8174 8.44491C10.6659 8.436 10.4698 8.4672 10.3583 8.33793C10.2291 8.18639 10.2982 7.95906 10.2915 7.78077C10.287 7.64037 10.2402 7.51333 10.1421 7.41304C10.0552 7.32613 9.94157 7.26595 9.82345 7.23475C9.76328 7.21915 9.70088 7.20801 9.63847 7.20578C9.55824 7.20132 9.21057 7.24144 9.30418 7.052C9.32201 7.01412 9.26406 6.98069 9.244 7.01857Z" fill="#2D3748"/>
<path d="M4.03343 19.0489H5.24136C5.2837 19.0489 5.2837 18.982 5.24136 18.982C4.83797 18.982 4.43682 18.982 4.03343 18.982C3.98886 18.982 3.98886 19.0489 4.03343 19.0489Z" fill="#2D3748"/>
<path d="M4.6842 20.5599H7.00869C7.05103 20.5599 7.05103 20.493 7.00869 20.493C6.23311 20.493 5.45977 20.493 4.6842 20.493C4.63963 20.493 4.63963 20.5599 4.6842 20.5599Z" fill="#2D3748"/>
<path d="M6.91507 20.1409H9.07687C9.11921 20.1409 9.11921 20.074 9.07687 20.074C8.35701 20.074 7.63493 20.074 6.91507 20.074C6.8705 20.074 6.8705 20.1409 6.91507 20.1409Z" fill="#2D3748"/>
<path d="M18.903 20.025C19.2663 19.9358 19.6318 19.9269 20.0017 19.9848C20.1577 20.0094 20.316 20.0339 20.4742 20.0205C20.628 20.0071 20.7773 19.9603 20.9266 19.9202C21.096 19.8734 21.2654 19.8378 21.4436 19.8511C21.6264 19.8645 21.8025 19.9158 21.9808 19.9559C22.1345 19.9915 22.2905 20.016 22.4488 20.0138C22.6159 20.0094 22.7808 19.9804 22.9435 19.9559C23.3893 19.8846 23.8082 19.9291 24.2495 20.0027C24.2919 20.0094 24.3097 19.9447 24.2673 19.938C23.9108 19.8801 23.552 19.8199 23.1887 19.8556C22.8098 19.8935 22.4577 19.9871 22.0744 19.9091C21.7534 19.8444 21.4481 19.7442 21.1183 19.8066C20.9422 19.84 20.7751 19.9024 20.599 19.9358C20.4029 19.9737 20.2134 19.9514 20.0173 19.9202C19.6362 19.8623 19.2596 19.8667 18.8829 19.9603C18.845 19.9715 18.8629 20.0361 18.903 20.025Z" fill="#2D3748"/>
<path d="M22.3262 19.3475C23.026 19.3096 23.7258 19.2717 24.4256 19.2361C24.771 19.2182 25.1053 19.2249 25.4485 19.2717C25.6023 19.2918 25.7494 19.2962 25.9032 19.2784C26.0748 19.2583 26.2531 19.2316 26.4135 19.3141C26.4514 19.3341 26.4849 19.2762 26.447 19.2561C26.1751 19.1179 25.8608 19.2472 25.5689 19.2204C25.395 19.2048 25.2257 19.1714 25.0518 19.1625C24.8713 19.1536 24.6908 19.158 24.5103 19.167C23.7815 19.2004 23.0527 19.245 22.324 19.2829C22.2838 19.2829 22.2838 19.3497 22.3262 19.3475Z" fill="#2D3748"/>
<path d="M8.62221 21.2619C8.95205 21.2931 9.28412 21.3243 9.61396 21.2864C9.76773 21.2686 9.91482 21.2351 10.0641 21.1906C10.258 21.1326 10.4319 21.117 10.6325 21.1527C10.7862 21.1794 10.9378 21.2173 11.0916 21.2307C11.2542 21.244 11.4169 21.2351 11.5796 21.2195C11.9206 21.1861 12.2616 21.1282 12.6003 21.2039C12.6427 21.2128 12.6605 21.1482 12.6182 21.1393C12.2928 21.068 11.9674 21.1148 11.6398 21.1482C11.4771 21.1638 11.3144 21.1794 11.1517 21.1705C10.9667 21.1616 10.7885 21.1126 10.6079 21.0836C10.4564 21.0591 10.3115 21.0591 10.1622 21.0947C10.0017 21.1348 9.85019 21.1883 9.68527 21.2128C9.33315 21.2641 8.97433 21.2284 8.62221 21.1972C8.57763 21.1906 8.57986 21.2574 8.62221 21.2619Z" fill="#2D3748"/>
<path d="M12.1479 3.27891C12.061 3.21873 11.9429 3.1229 11.9786 3.00255C12.0164 2.87775 12.1101 2.93792 12.197 2.90895C12.3129 2.87106 12.3062 2.73066 12.2727 2.63928C12.2393 2.55014 12.168 2.33396 12.353 2.4075C12.3953 2.42533 12.4265 2.45431 12.4756 2.43871C12.5201 2.42533 12.5424 2.38522 12.5536 2.34287C12.5625 2.30499 12.5558 2.26487 12.5536 2.22476C12.5491 2.19801 12.5469 2.16904 12.5469 2.1423C12.538 2.07766 12.5781 2.05092 12.6628 2.06206C12.665 2.10441 12.7318 2.10441 12.7296 2.06206C12.7252 1.99966 12.6784 1.95509 12.6115 1.95732C12.5335 1.95955 12.4912 2.03532 12.4822 2.10664C12.4756 2.15567 12.5157 2.26933 12.4934 2.30944C12.4666 2.32727 12.4399 2.34733 12.4109 2.36516C12.3998 2.35847 12.3886 2.35179 12.3775 2.3451C12.3574 2.33842 12.3418 2.32504 12.3218 2.32059C12.2527 2.30499 12.197 2.34733 12.1725 2.40973C12.1301 2.51671 12.2059 2.60585 12.2282 2.70614C12.2571 2.84432 12.1524 2.82872 12.061 2.84432C12.0209 2.85101 11.9875 2.87106 11.9607 2.90004C11.8203 3.06273 11.983 3.24325 12.1167 3.33685C12.1502 3.36137 12.1836 3.30342 12.1479 3.27891Z" fill="#2D3748"/>
<path d="M12.587 3.21649C12.5135 3.1318 12.4577 3.01591 12.6004 2.97134C12.636 2.96019 12.6762 2.96465 12.7096 2.94237C12.7831 2.89111 12.7519 2.82202 12.7386 2.7507C12.7319 2.71059 12.7163 2.6571 12.7408 2.61698C12.7586 2.58801 12.8232 2.57687 12.8567 2.57018C12.9035 2.55904 12.9525 2.55235 12.9926 2.52561C13.0528 2.48326 13.0751 2.40749 13.035 2.34286C13.0127 2.3072 12.9547 2.34063 12.977 2.37629C13.0439 2.48326 12.7319 2.51224 12.6784 2.59024C12.616 2.68161 12.7475 2.84208 12.6383 2.90002C12.5959 2.92231 12.5424 2.90671 12.5023 2.93568C12.4733 2.95574 12.4533 2.98694 12.4444 3.02037C12.4199 3.1162 12.4845 3.19866 12.5424 3.26552C12.5692 3.29672 12.616 3.24992 12.587 3.21649Z" fill="#2D3748"/>
<path d="M9.95496 2.6883C9.89701 2.64819 9.89033 2.57687 9.90816 2.51447C9.9193 2.47212 9.97279 2.35623 10.024 2.35178C10.1087 2.34286 10.1511 2.44984 10.1734 2.51224C10.1934 2.57241 10.2001 2.63259 10.2023 2.69499C10.2023 2.73733 10.2692 2.73733 10.2692 2.69499C10.267 2.57018 10.1845 2.18686 9.97947 2.29829C9.90147 2.34063 9.84352 2.46321 9.83461 2.5479C9.8257 2.62813 9.8569 2.69945 9.92153 2.74625C9.95496 2.77076 9.98839 2.71282 9.95496 2.6883Z" fill="#2D3748"/>
<path d="M9.9282 2.72396C9.84797 2.74402 9.76773 2.76408 9.68527 2.78414C9.63847 2.79528 9.55824 2.79974 9.52035 2.8354C9.45572 2.89557 9.47355 3.08055 9.47355 3.15855C9.47355 3.18084 9.49584 3.19644 9.5159 3.18975C9.52704 3.18752 9.53818 3.18307 9.55156 3.18084C9.6095 3.14964 9.63847 3.16969 9.6407 3.23655C9.68527 3.28113 9.68527 3.30787 9.6407 3.31233C9.61396 3.32347 9.58721 3.32793 9.55824 3.32793C9.54041 3.33016 9.52481 3.3413 9.52481 3.36136C9.52927 3.50399 9.54041 3.6444 9.55601 3.78703C9.56047 3.82938 9.62733 3.82938 9.62287 3.78703C9.60727 3.6444 9.59613 3.50399 9.59167 3.36136C9.58053 3.3725 9.56938 3.38364 9.55824 3.39479C9.65184 3.38364 9.80116 3.34576 9.78111 3.21872C9.75882 3.08278 9.5939 3.09838 9.5003 3.12512C9.51367 3.13626 9.52927 3.14741 9.54264 3.15632C9.54264 3.10506 9.54264 3.05603 9.5471 3.00477C9.55378 2.92454 9.54933 2.89557 9.62287 2.8666C9.72316 2.82648 9.84128 2.81311 9.94603 2.78637C9.98837 2.77968 9.97054 2.71505 9.9282 2.72396Z" fill="#2D3748"/>
<path d="M10.2491 2.74404C10.3427 2.73958 10.4386 2.73958 10.5322 2.75073C10.6213 2.76187 10.6168 2.77524 10.6302 2.85324C10.6391 2.90227 10.6414 2.95353 10.6458 3.00256C10.6636 3.19423 10.677 3.38589 10.6882 3.57756C10.6904 3.6199 10.7573 3.6199 10.755 3.57756C10.7417 3.3168 10.7327 3.04937 10.6904 2.79084C10.6792 2.72621 10.6681 2.70615 10.6012 2.69501C10.4854 2.67272 10.365 2.67272 10.2491 2.67941C10.2068 2.67941 10.2068 2.74627 10.2491 2.74404Z" fill="#2D3748"/>
<path d="M9.60508 3.83383C9.73657 3.81155 9.86806 3.78926 9.99732 3.76697C10.1466 3.74246 10.2893 3.7536 10.4386 3.74246C10.5077 3.73577 10.8353 3.70234 10.7149 3.5664C10.686 3.5352 10.6392 3.582 10.6681 3.6132C10.686 3.63326 10.3829 3.67783 10.3762 3.67783C10.2826 3.68006 10.189 3.6756 10.0954 3.68674C9.926 3.7068 9.75662 3.74246 9.58725 3.77143C9.5449 3.77589 9.56273 3.84052 9.60508 3.83383Z" fill="#2D3748"/>
<path d="M21.4437 16.6686C21.437 16.9026 21.4303 17.1366 21.4236 17.3729C21.72 17.3929 22.0142 17.4108 22.3106 17.4308C22.3106 17.1901 22.3106 16.9494 22.3106 16.7087C22.0209 16.6954 21.7334 16.682 21.4437 16.6686Z" fill="white" stroke="#2D3748" stroke-width="0.0089713" stroke-miterlimit="10"/>
<path d="M21.8292 19.2695C21.8693 19.528 21.8872 19.742 21.8961 19.8957C21.9251 20.4061 21.9028 20.5242 21.8582 20.6178C21.749 20.8474 21.5506 20.9432 21.5685 20.9744C21.5818 20.9945 21.6799 20.9722 22.1167 20.7426C22.09 20.2345 22.0655 19.7286 22.0387 19.2205C21.9696 19.2383 21.9005 19.2539 21.8292 19.2695Z" fill="white" stroke="#2D3748" stroke-width="0.0089713" stroke-miterlimit="10"/>
<path d="M21.252 17.6314C21.6309 17.6336 22.0097 17.6381 22.3886 17.6403C22.3463 18.1484 22.3062 18.6544 22.2638 19.1625C21.934 19.1357 21.6019 19.1112 21.2721 19.0845C21.2631 18.6009 21.2565 18.1172 21.252 17.6314Z" fill="white" stroke="#2D3748" stroke-width="0.0089713" stroke-miterlimit="10"/>
<path d="M21.4058 19.2517C21.5261 19.5436 21.5662 19.7954 21.5796 19.9648C21.5997 20.2144 21.613 20.4061 21.4927 20.5331C21.4481 20.5822 21.3746 20.629 21.2319 20.7248C21.1049 20.8095 21.0447 20.8407 21.0492 20.8496C21.0559 20.863 21.1784 20.8362 21.7133 20.6468C21.749 20.4663 21.7779 20.2345 21.7713 19.9626C21.7623 19.6729 21.7155 19.4255 21.6643 19.2405C21.5796 19.245 21.4927 19.2472 21.4058 19.2517Z" fill="white" stroke="#2D3748" stroke-width="0.0089713" stroke-miterlimit="10"/>
<path d="M21.5996 20.9945C21.6665 20.9387 21.7289 20.8786 21.7891 20.8139C21.8582 20.7382 21.9607 20.6223 22.0677 20.7226C22.0699 20.7047 22.0721 20.6869 22.0743 20.6691C21.9161 20.7471 21.7601 20.8251 21.6019 20.9009C21.5707 20.9165 21.5863 20.9633 21.6197 20.9633C21.769 20.9655 21.8626 20.7047 22.0164 20.7538C22.0565 20.7671 22.0743 20.7025 22.0342 20.6891C21.9674 20.6691 21.9161 20.6869 21.8604 20.727C21.7958 20.7738 21.7044 20.8964 21.6219 20.8964C21.6286 20.9165 21.6331 20.9387 21.6398 20.9588C21.798 20.8808 21.954 20.8028 22.1122 20.727C22.1323 20.7181 22.1345 20.6891 22.1189 20.6735C22.0587 20.6178 21.9518 20.5978 21.876 20.6334C21.8203 20.6579 21.7846 20.7226 21.7445 20.7649C21.6843 20.8295 21.6219 20.8875 21.5551 20.9454C21.5194 20.9744 21.5662 21.0234 21.5996 20.9945Z" fill="#2D3748"/>
<path d="M21.8738 20.6468C21.9406 20.649 22.0053 20.6624 22.0677 20.6891C22.1056 20.7069 22.1412 20.649 22.1011 20.6312C22.0275 20.5977 21.954 20.5799 21.8738 20.5777C21.8314 20.5799 21.8314 20.6468 21.8738 20.6468Z" fill="#2D3748"/>
<path d="M21.5083 20.5688C21.5596 20.5821 21.6041 20.6089 21.6398 20.649C21.6688 20.6802 21.7156 20.6334 21.6866 20.6022C21.642 20.5554 21.5863 20.522 21.5239 20.5064C21.486 20.493 21.4682 20.5576 21.5083 20.5688Z" fill="#2D3748"/>
<path d="M21.1472 20.8384C21.2163 20.7872 21.2876 20.7404 21.3612 20.6958C21.3946 20.6758 21.4303 20.649 21.4659 20.6379C21.5216 20.6178 21.5551 20.6312 21.6063 20.6535C21.6063 20.6334 21.6063 20.6156 21.6063 20.5955C21.535 20.6267 21.4548 20.6245 21.3812 20.6557C21.3099 20.6847 21.2431 20.756 21.1695 20.7694C21.1784 20.7894 21.1873 20.8095 21.1963 20.8295C21.3277 20.7649 21.4748 20.7538 21.6063 20.6891C21.6442 20.6691 21.6108 20.6134 21.5729 20.6312C21.4414 20.6958 21.2943 20.707 21.1628 20.7716C21.1272 20.7894 21.1539 20.8384 21.1896 20.8318C21.2698 20.8184 21.3344 20.7448 21.4102 20.7159C21.486 20.6869 21.5684 20.6847 21.642 20.6535C21.6643 20.6446 21.6643 20.6044 21.642 20.5955C21.5573 20.5576 21.5194 20.5353 21.4347 20.5799C21.3233 20.6379 21.2185 20.707 21.1183 20.7805C21.0781 20.805 21.1116 20.863 21.1472 20.8384Z" fill="#2D3748"/>
<path d="M21.5283 19.5926C21.584 19.5726 21.6398 19.5748 21.691 19.6015C21.7289 19.6216 21.7623 19.5637 21.7245 19.5436C21.6576 19.5079 21.5818 19.5013 21.5105 19.528C21.4704 19.5436 21.4882 19.6082 21.5283 19.5926Z" fill="#2D3748"/>
<path d="M21.5841 19.8155C21.6309 19.811 21.6754 19.8222 21.7111 19.8534C21.7445 19.8801 21.7913 19.8333 21.7579 19.8066C21.7089 19.7665 21.6487 19.7442 21.5841 19.7486C21.5417 19.7509 21.5417 19.8177 21.5841 19.8155Z" fill="#2D3748"/>
<path d="M21.6086 20.0941C21.6509 20.0896 21.691 20.1052 21.7156 20.1409C21.7378 20.1765 21.7958 20.1431 21.7735 20.1074C21.7401 20.0517 21.6754 20.0183 21.6108 20.0272C21.593 20.0294 21.5774 20.0406 21.5774 20.0606C21.5751 20.0762 21.5907 20.0963 21.6086 20.0941Z" fill="#2D3748"/>
<path d="M21.8961 19.577C21.9362 19.5548 21.9875 19.557 22.0254 19.5882C22.0588 19.6149 22.1056 19.5681 22.0722 19.5414C22.012 19.4924 21.9317 19.4812 21.8627 19.5191C21.8248 19.5414 21.8582 19.5993 21.8961 19.577Z" fill="#2D3748"/>
<path d="M21.9339 19.9983C21.9696 19.9827 22.0097 19.9893 22.0387 20.0161C22.0699 20.0451 22.1189 19.9983 22.0855 19.9693C22.0342 19.9225 21.9629 19.9113 21.8983 19.9425C21.8604 19.9581 21.8961 20.0161 21.9339 19.9983Z" fill="#2D3748"/>
<path d="M21.9429 20.3548C21.9785 20.3325 22.0231 20.3325 22.0565 20.3593C22.09 20.386 22.1368 20.3392 22.1033 20.3125C22.0476 20.2657 21.9696 20.259 21.9094 20.2991C21.8738 20.3214 21.9072 20.3793 21.9429 20.3548Z" fill="#2D3748"/>
<path d="M22.4421 17.6381C22.3975 18.1507 22.3529 18.6633 22.3084 19.1759" stroke="#2D3748" stroke-width="0.0269139" stroke-miterlimit="10"/>
<path d="M21.2654 19.1045C21.6375 19.1313 22.0097 19.1558 22.3819 19.1825" stroke="#2D3748" stroke-width="0.0269139" stroke-miterlimit="10"/>
<path d="M22.3842 16.6887C22.3752 16.9427 22.3641 17.1946 22.3552 17.4487" stroke="#2D3748" stroke-width="0.0269139" stroke-miterlimit="10"/>
<path d="M22.4309 17.939C22.6382 17.9011 22.8588 18.0638 22.8744 18.2777C22.8967 18.5452 22.5914 18.592 22.3908 18.563C22.3485 18.5563 22.3306 18.6209 22.373 18.6276C22.6181 18.6633 22.9636 18.5942 22.9413 18.2777C22.9235 18.017 22.6627 17.8275 22.4131 17.8743C22.3708 17.881 22.3886 17.9457 22.4309 17.939Z" fill="#2D3748"/>
<path d="M22.3819 18.6811C22.4688 18.6989 22.5379 18.7613 22.5624 18.846C22.5736 18.8884 22.6382 18.8705 22.6271 18.8282C22.5981 18.7212 22.5112 18.6365 22.402 18.6165C22.3574 18.6098 22.3396 18.6722 22.3819 18.6811Z" fill="#2D3748"/>
<path d="M22.3485 18.6588C22.402 18.7368 22.4265 18.8237 22.4176 18.9196C22.4154 18.9619 22.4822 18.9619 22.4844 18.9196C22.4911 18.8148 22.4644 18.7123 22.4042 18.6254C22.3819 18.5897 22.324 18.6232 22.3485 18.6588Z" fill="#2D3748"/>
<path d="M21.2498 17.9078C21.1027 17.8142 20.833 18.0838 20.7996 18.2153C20.7327 18.4828 21.0759 18.4516 21.2186 18.5407C21.2542 18.563 21.2876 18.5051 21.252 18.4828C21.1495 18.4181 20.9979 18.4427 20.9088 18.3624C20.7996 18.2644 20.8999 18.1462 20.9756 18.0772C21.0158 18.0415 21.1517 17.9234 21.2163 17.9635C21.252 17.9902 21.2876 17.9323 21.2498 17.9078Z" fill="#2D3748"/>
<path d="M21.2141 18.5095C21.1562 18.5318 21.1027 18.5652 21.0581 18.612C21.0247 18.6477 20.9823 18.7034 21.0158 18.7524C21.0403 18.7881 21.0982 18.7547 21.0737 18.719C21.0581 18.6967 21.1161 18.6477 21.1317 18.6343C21.1606 18.6076 21.1941 18.5875 21.2319 18.5741C21.2721 18.5585 21.2565 18.4939 21.2141 18.5095Z" fill="#2D3748"/>
<path d="M21.1874 18.5563C21.145 18.6232 21.1316 18.6989 21.1472 18.7747C21.1562 18.8171 21.2208 18.7992 21.2119 18.7569C21.1985 18.6967 21.2119 18.641 21.2453 18.5897C21.2698 18.5541 21.2119 18.5207 21.1874 18.5563Z" fill="#2D3748"/>
<path d="M21.3991 17.8654C21.3879 18.0281 21.3902 18.193 21.4013 18.3557C21.4058 18.3981 21.4726 18.3981 21.4682 18.3557C21.4548 18.193 21.4548 18.0281 21.4659 17.8654C21.4704 17.8231 21.4035 17.8231 21.3991 17.8654Z" fill="#2D3748"/>
<path d="M21.4481 17.8833C21.6844 17.8966 21.9184 17.9055 22.1546 17.91C22.1435 17.8989 22.1323 17.8877 22.1212 17.8766C22.1145 18.0437 22.1078 18.2131 22.0989 18.3802C22.0967 18.4226 22.1635 18.4226 22.1657 18.3802C22.1724 18.2131 22.1791 18.0437 22.188 17.8766C22.188 17.8587 22.1724 17.8431 22.1546 17.8431C21.9184 17.8387 21.6844 17.8298 21.4481 17.8164C21.4058 17.8142 21.4058 17.881 21.4481 17.8833Z" fill="#2D3748"/>
<path d="M21.4214 18.3847C21.5194 18.4114 21.6286 18.4048 21.7267 18.4114C21.847 18.4181 21.9696 18.427 22.09 18.4337C22.1323 18.436 22.1323 18.3691 22.09 18.3669C21.983 18.3602 21.876 18.3535 21.769 18.3468C21.6621 18.3401 21.5417 18.3468 21.437 18.3201C21.3991 18.3089 21.3813 18.3736 21.4214 18.3847Z" fill="#2D3748"/>
<path d="M21.4971 18.7301C21.5373 18.817 21.6242 18.7413 21.691 18.7725C21.7222 18.7858 21.7155 18.8059 21.7579 18.8081C21.8069 18.8104 21.9273 18.7123 21.9518 18.8037C21.9585 18.8282 21.9897 18.8349 22.0075 18.8193C22.0298 18.8126 22.0543 18.8059 22.0766 18.8014C22.1033 18.8349 22.1524 18.7858 22.1234 18.7546C22.0721 18.6945 22.0075 18.7279 21.9585 18.7725C21.9763 18.7769 21.9964 18.7814 22.0142 18.7881C21.9941 18.7101 21.9117 18.6588 21.8337 18.6945C21.7958 18.7123 21.7913 18.7457 21.7334 18.7234C21.7222 18.719 21.7178 18.7012 21.7066 18.6967C21.6821 18.6878 21.5529 18.7012 21.5529 18.6989C21.5373 18.6566 21.4793 18.69 21.4971 18.7301Z" fill="#2D3748"/>
<path d="M21.6153 16.9762C21.6197 16.9517 21.6487 16.945 21.6688 16.9539C21.6977 16.9651 21.7133 16.9985 21.7267 17.023C21.7445 17.0609 21.8025 17.0275 21.7846 16.9896C21.7601 16.9406 21.7222 16.8893 21.6621 16.8826C21.613 16.8781 21.5618 16.9071 21.5529 16.9562C21.5417 17.0007 21.6063 17.0186 21.6153 16.9762Z" fill="#2D3748"/>
<path d="M22.0253 17.0074C22.0298 16.9851 22.0498 16.9717 22.0721 16.9806C22.0989 16.9896 22.11 17.023 22.1145 17.0475C22.1211 17.0898 22.1858 17.072 22.1791 17.0297C22.1702 16.9762 22.1345 16.9205 22.0766 16.9116C22.0253 16.9049 21.9696 16.9361 21.9607 16.9896C21.954 17.0319 22.0186 17.0497 22.0253 17.0074Z" fill="#2D3748"/>
<path d="M21.6487 17.1166C21.7244 17.2503 21.905 17.2704 22.003 17.15C22.0298 17.1166 21.983 17.0698 21.9562 17.1032C21.8849 17.1901 21.7623 17.1834 21.7066 17.0832C21.6866 17.0453 21.6286 17.0787 21.6487 17.1166Z" fill="#2D3748"/>
<path d="M19.3108 5.00612C19.03 4.89246 18.8606 4.62056 18.7581 4.34867C18.6489 4.06563 18.6021 3.75807 18.6177 3.45498C18.6445 2.89558 18.8829 2.32951 19.3242 1.97292C19.741 1.63417 20.3583 1.53834 20.8219 1.84589C21.3055 2.16682 21.3924 2.82873 21.3968 3.36137C21.4013 3.95419 21.2631 4.57599 20.8241 5.00166C20.7929 5.03063 20.8397 5.07966 20.8709 5.04846C21.2876 4.64285 21.4459 4.0634 21.4615 3.49732C21.4771 2.94239 21.4102 2.24036 20.9533 1.85926C20.5254 1.50268 19.8903 1.52051 19.4334 1.81023C18.9275 2.13116 18.6289 2.71284 18.5642 3.29897C18.5241 3.66224 18.5687 4.03888 18.7024 4.38209C18.8161 4.67182 18.9966 4.94817 19.2952 5.06852C19.3331 5.08635 19.3487 5.02172 19.3108 5.00612Z" fill="#2D3748"/>
<path d="M19.2796 5.04847C19.2039 5.15544 19.2195 5.31367 19.3309 5.39391C19.4156 5.45408 19.5404 5.46299 19.6407 5.47637C19.761 5.4942 19.8836 5.50088 20.0062 5.50088C20.2246 5.49865 20.4742 5.48305 20.677 5.39836C20.8241 5.33596 20.9355 5.18887 20.8575 5.03064C20.8397 4.99275 20.7818 5.02618 20.7996 5.06407C20.9667 5.40505 20.1756 5.43402 20.004 5.43402C19.8457 5.43402 19.6875 5.42065 19.5337 5.39168C19.4602 5.37831 19.3777 5.36493 19.3309 5.3003C19.2841 5.23344 19.293 5.14653 19.3376 5.08412C19.3621 5.04624 19.3042 5.01281 19.2796 5.04847Z" fill="#2D3748"/>
<path d="M19.3509 5.40948C19.3509 5.52092 19.3532 5.63458 19.3665 5.74601C19.3732 5.79727 19.3844 5.84184 19.4267 5.87304C19.4869 5.91762 19.5872 5.91539 19.6585 5.92207C19.7788 5.93099 19.9014 5.93099 20.0218 5.92653C20.1354 5.92207 20.2491 5.91316 20.3628 5.90202C20.4296 5.89533 20.5054 5.89756 20.5566 5.8463C20.6703 5.73487 20.6725 5.52315 20.6436 5.38274C20.6346 5.3404 20.57 5.35822 20.5789 5.40057C20.5945 5.47634 20.599 5.55212 20.5834 5.63012C20.5611 5.73932 20.5299 5.81064 20.4073 5.83293C20.2647 5.85967 20.1042 5.85967 19.9594 5.8619C19.8167 5.86413 19.6563 5.87081 19.5159 5.83739C19.3866 5.80618 19.42 5.51646 19.42 5.40948C19.4178 5.36714 19.3509 5.36714 19.3509 5.40948Z" fill="#2D3748"/>
<path d="M19.3732 3.00923C19.6407 3.17638 19.8435 3.42153 19.9571 3.71572C19.9727 3.75583 20.0374 3.738 20.0218 3.69789C19.9014 3.38588 19.6897 3.12735 19.4089 2.95129C19.371 2.92677 19.3376 2.98472 19.3732 3.00923Z" fill="#2D3748"/>
<path d="M20.0106 3.71571C20.1421 3.43935 20.3338 3.20312 20.5789 3.02037C20.6124 2.99585 20.5789 2.93568 20.5455 2.96242C20.2914 3.15186 20.0909 3.39701 19.9527 3.68228C19.9349 3.72016 19.9928 3.75359 20.0106 3.71571Z" fill="#2D3748"/>
<path d="M19.9571 3.63772C19.9906 4.09682 20.0062 4.55592 19.9995 5.01502C19.9995 5.05737 20.0663 5.05737 20.0663 5.01502C20.073 4.55592 20.0574 4.09459 20.024 3.63772C20.0195 3.59314 19.9527 3.59314 19.9571 3.63772Z" fill="#2D3748"/>
<path d="M17.3474 4.76095C17.6438 4.66066 17.938 4.56037 18.2344 4.46008C18.2745 4.44671 18.2567 4.38208 18.2166 4.39545C17.9202 4.49574 17.626 4.59603 17.3296 4.69632C17.2872 4.70969 17.305 4.77432 17.3474 4.76095Z" fill="#2D3748"/>
<path d="M17.6861 4.31523C17.7887 4.28626 17.8912 4.25506 17.9937 4.22609C18.0338 4.21495 18.0182 4.15031 17.9759 4.16146C17.8734 4.19043 17.7708 4.22163 17.6683 4.2506C17.6282 4.26398 17.6438 4.32861 17.6861 4.31523Z" fill="#2D3748"/>
<path d="M16.944 3.57307C17.3362 3.56861 17.7262 3.57976 18.1163 3.60427C18.1586 3.6065 18.1586 3.53964 18.1163 3.53741C17.7262 3.5129 17.334 3.50398 16.944 3.50621C16.9016 3.50621 16.9016 3.57307 16.944 3.57307Z" fill="#2D3748"/>
<path d="M17.7731 3.26999C17.8667 3.2945 17.9625 3.30565 18.0583 3.30788C18.1007 3.30788 18.1007 3.24102 18.0583 3.24102C17.967 3.23879 17.8778 3.22764 17.7909 3.20536C17.7486 3.19421 17.7307 3.25884 17.7731 3.26999Z" fill="#2D3748"/>
<path d="M17.6282 1.1951C17.9781 1.49597 18.2968 1.82581 18.5843 2.18685C18.611 2.22028 18.6578 2.17348 18.6311 2.14005C18.3436 1.77901 18.0249 1.44694 17.675 1.1483C17.6438 1.11933 17.5948 1.16613 17.6282 1.1951Z" fill="#2D3748"/>
<path d="M18.6066 1.82806C18.6667 1.89046 18.7247 1.95286 18.7849 2.01749C18.8138 2.04869 18.8606 2.00189 18.8317 1.97069C18.7715 1.90829 18.7135 1.84589 18.6534 1.78126C18.6244 1.75005 18.5776 1.79686 18.6066 1.82806Z" fill="#2D3748"/>
<path d="M17.2493 1.95287C17.3585 2.0175 17.47 2.07768 17.5836 2.13339C17.6215 2.15345 17.6549 2.09551 17.617 2.07545C17.5034 2.0175 17.392 1.95733 17.2827 1.89493C17.2449 1.87264 17.2114 1.93059 17.2493 1.95287Z" fill="#2D3748"/>
<path d="M21.1272 1.44474C21.457 1.1149 21.7869 0.785056 22.1167 0.455216C22.1479 0.424015 22.0989 0.377213 22.0699 0.408414C21.7401 0.738255 21.4102 1.0681 21.0804 1.39794C21.0492 1.42914 21.096 1.47594 21.1272 1.44474Z" fill="#2D3748"/>
<path d="M21.4592 1.59849C21.5439 1.53608 21.6286 1.47591 21.7133 1.41351C21.7467 1.38899 21.7155 1.33105 21.6799 1.35556C21.5952 1.41797 21.5105 1.47814 21.4258 1.54054C21.3901 1.56506 21.4236 1.623 21.4592 1.59849Z" fill="#2D3748"/>
<path d="M20.0975 1.00791C20.1644 0.684753 20.2157 0.35937 20.2469 0.0317583C20.2513 -0.0105861 20.1845 -0.0105861 20.18 0.0317583C20.1488 0.352684 20.0998 0.67361 20.0329 0.990078C20.024 1.03242 20.0886 1.05025 20.0975 1.00791Z" fill="#2D3748"/>
<path d="M21.9718 3.05825C22.578 3.00253 23.182 2.94682 23.7882 2.8911C23.8305 2.88664 23.8305 2.81978 23.7882 2.82424C23.182 2.87996 22.578 2.93567 21.9718 2.99139C21.9295 2.99362 21.9273 3.06048 21.9718 3.05825Z" fill="#2D3748"/>
<path d="M19.4245 5.1287C19.8011 5.21116 20.1844 5.20893 20.5589 5.12424C20.6012 5.11533 20.5834 5.0507 20.541 5.05961C20.1778 5.14207 19.8056 5.1443 19.4423 5.06407C19.4 5.05515 19.3821 5.11978 19.4245 5.1287Z" fill="#2D3748"/>
<path d="M19.4802 5.69477C19.7677 5.73266 20.0552 5.74157 20.3449 5.72152C20.3873 5.71929 20.3873 5.65243 20.3449 5.65466C20.0552 5.67472 19.7677 5.6658 19.4802 5.62791C19.4379 5.62346 19.4379 5.69032 19.4802 5.69477Z" fill="#2D3748"/>
<path d="M21.5506 4.90358C22.003 5.22228 22.4644 5.52983 22.9324 5.82624C22.9681 5.84853 23.0015 5.79059 22.9658 5.7683C22.4978 5.47189 22.0365 5.16433 21.5841 4.84564C21.5484 4.82112 21.515 4.87907 21.5506 4.90358Z" fill="#2D3748"/>
<path d="M15.8564 20.5799C15.433 21.0992 15.0118 21.6162 14.5883 22.1355C15.0853 23.8828 15.3661 24.3419 15.5333 24.3174C15.6536 24.2995 15.7116 24.0388 15.7762 23.7468C15.9367 23.0181 15.8408 22.3918 15.7428 22.0018C16.0102 21.7032 16.2754 21.4023 16.5429 21.1036C16.3133 20.9298 16.086 20.756 15.8564 20.5799Z" fill="#2D3748" stroke="#2D3748" stroke-width="0.0089713" stroke-miterlimit="10"/>
<path d="M14.2941 17.9056C14.5594 18.1106 14.8134 18.037 15.3394 18.1262C15.7873 18.202 16.291 18.3691 16.8259 18.7034C16.2554 19.372 15.6848 20.0785 15.1187 20.8229C14.9828 21.0034 14.8469 21.1839 14.7154 21.3644C14.9338 21.4157 15.1968 21.4959 15.482 21.6252C15.7606 21.75 15.9879 21.8904 16.1684 22.0174C17.0176 21.2775 17.7753 20.5621 18.4506 19.8868C18.7626 19.5748 19.2039 19.0979 19.273 18.4226C19.2774 18.3847 19.2774 18.3513 19.2774 18.3179C19.2618 17.1968 17.8511 16.3856 16.993 16.087C16.0548 15.7616 14.4412 15.5855 13.9911 16.3633C13.7258 16.8224 13.8818 17.5869 14.2941 17.9056Z" fill="#2D3748"/>
<path opacity="0.29" d="M15.9411 16.7845C15.9255 16.9962 15.8876 17.2481 15.8096 17.5266C15.7539 17.725 15.687 17.9011 15.6202 18.0504C15.5466 18.0794 15.4753 18.1083 15.4018 18.1373C15.8809 18.3267 16.3623 18.5162 16.8415 18.7056C16.4849 19.1134 16.1261 19.5413 15.765 19.9871C15.3929 20.4462 15.0385 20.8964 14.702 21.3399C14.9404 21.4179 15.1767 21.4959 15.4151 21.5716C16.2687 20.6312 17.1223 19.6884 17.9759 18.7479C18.065 18.4917 18.0605 18.2911 18.0338 18.1507C17.9112 17.4642 17.071 16.9049 15.9411 16.7845Z" fill="#2D3748"/>
<path opacity="0.24" d="M16.837 18.7012C16.915 18.8193 16.9908 18.9397 17.0688 19.0578C16.4046 19.8579 15.7405 20.6557 15.0764 21.4558C14.9583 21.4246 14.8379 21.3912 14.7198 21.36C15.1455 20.7761 15.6046 20.1766 16.1016 19.5726C16.3489 19.2717 16.5941 18.982 16.837 18.7012Z" fill="#2D3748"/>
<path d="M14.6195 19.733C15.277 19.8534 15.9366 19.9715 16.5941 20.0918C17.3541 21.7499 17.4388 22.2848 17.2961 22.3762C17.1936 22.4408 16.9797 22.2804 16.7412 22.0998C16.1439 21.6474 15.8118 21.1081 15.6313 20.7448C15.2346 20.6913 14.8379 20.6356 14.4412 20.5821C14.4992 20.2991 14.5593 20.0161 14.6195 19.733Z" fill="#2D3748" stroke="#2D3748" stroke-width="0.0089713" stroke-miterlimit="10"/>
<path d="M13.2645 16.0402C12.0655 16.3923 11.3345 17.1233 10.8643 17.6047C10.2291 18.2577 9.44907 19.0578 9.67416 19.6484C9.79005 19.9492 10.1422 20.1342 11.7825 20.4195C13.0216 20.6357 14.0958 20.7515 14.9338 20.8162C15.0385 20.4328 15.1433 20.0517 15.2458 19.6684C14.4034 19.3965 13.5632 19.1269 12.7207 18.855C13.2378 18.7458 13.7816 18.6165 14.3476 18.4583C14.7778 18.3379 15.1878 18.2131 15.5779 18.0816C15.9389 17.3529 16.0169 16.5661 15.6403 16.1204C15.1143 15.4964 13.9353 15.8418 13.2645 16.0402Z" fill="#2D3748"/>
<path opacity="0.29" d="M15.9322 16.8113C15.921 17.0319 15.8832 17.3149 15.7806 17.627C15.7182 17.8164 15.6469 17.9813 15.5756 18.1173C15.5154 18.1217 15.4553 18.1284 15.3951 18.1329C14.8869 18.3 14.3454 18.4582 13.7726 18.6053C13.4027 18.7012 13.0416 18.7836 12.6917 18.8594C13.5364 19.1246 14.381 19.3876 15.2257 19.6528C15.2079 19.7442 15.1856 19.84 15.1588 19.9403C15.1276 20.0562 15.092 20.1632 15.0586 20.2612C13.893 19.9737 12.7274 19.6862 11.5618 19.3987C11.5083 19.3341 11.3322 19.1001 11.359 18.7903C11.388 18.4538 11.7089 18.2153 12.119 17.9969C13.3046 17.3684 15.2926 16.9428 15.9322 16.8113Z" fill="#2D3748"/>
<path opacity="0.24" d="M12.0922 18.9062C12.304 18.8906 12.5179 18.875 12.7296 18.8572C13.5609 19.1335 14.3922 19.4121 15.2235 19.6884C15.1878 19.8199 15.1522 19.9537 15.1165 20.0851C14.1092 19.6907 13.0996 19.2984 12.0922 18.9062Z" fill="#2D3748"/>
<path d="M12.9503 10.99C13.2801 10.7961 13.8529 10.5198 14.6151 10.4395C15.7829 10.317 16.6788 10.7359 17.0332 10.9254C16.9685 11.8012 16.8682 12.501 16.788 12.9824C16.6922 13.5574 16.6142 13.8761 16.5785 14.4043C16.5339 15.0662 16.5897 15.61 16.6409 15.9666C16.2531 16.0869 15.667 16.2184 14.9449 16.2028C14.2496 16.1872 13.688 16.0357 13.3113 15.9042C13.4116 15.1063 13.3782 14.4734 13.3291 14.0433C13.2734 13.5641 13.1977 13.3301 13.1063 12.7506C12.9882 12.0018 12.957 11.3889 12.9503 10.99Z" fill="white" stroke="#2D3748" stroke-width="0.0089713" stroke-miterlimit="10"/>
<path opacity="0.14" d="M15.3617 10.7048C15.4085 10.8741 15.462 11.1082 15.4976 11.389C15.5221 11.5784 15.6224 12.4364 15.3104 13.5686C15.1188 14.2662 14.9159 15.0038 14.2518 15.61C14.0379 15.8061 13.8306 15.9376 13.679 16.0201C14.0156 16.107 14.4546 16.1895 14.9739 16.1939C15.6536 16.2006 16.2153 16.078 16.6053 15.9577C16.583 15.7905 16.554 15.5387 16.5429 15.2356C16.5339 14.9704 16.5339 14.547 16.7167 13.3546C16.8616 12.4164 16.9641 12.013 17.0153 11.1639C17.022 11.0658 17.0243 10.9833 17.0287 10.9276C16.866 10.8318 16.6543 10.7271 16.3935 10.6424C16.1528 10.5644 15.9367 10.5242 15.7584 10.5064C15.6291 10.571 15.4954 10.6379 15.3617 10.7048Z" fill="#2D3748"/>
<path opacity="0.17" d="M16.9641 11.2909C16.8392 11.9974 16.6743 12.5679 16.5451 12.9646C16.1662 14.1235 15.901 14.9036 15.1856 15.4741C14.7421 15.8284 14.2808 15.9778 13.9843 16.0491C14.2852 16.1338 14.7109 16.2162 15.2257 16.2051C15.8185 16.1917 16.2977 16.058 16.6119 15.9443C16.5696 15.6724 16.5205 15.2646 16.5339 14.7676C16.5495 14.1235 16.6543 13.7357 16.7702 13.0293C16.8348 12.6147 16.9172 12.0219 16.9641 11.2909Z" fill="#2D3748"/>
<path d="M12.9369 10.9789C12.6472 11.1795 12.275 11.4959 11.9496 11.9662C11.2164 13.0315 11.2364 14.1614 11.2654 14.5782C11.3991 14.937 11.6287 15.4072 12.0298 15.8685C12.2639 16.1382 12.6071 16.526 13.1932 16.7756C13.3893 16.8603 13.5609 16.9071 13.6857 16.9338C13.7927 16.838 13.8975 16.7422 14.0044 16.6463C13.6612 16.2452 13.3158 15.824 12.9703 15.3894C12.7051 15.0573 12.4511 14.7275 12.2059 14.4021C12.2148 14.128 12.2728 13.631 12.5714 13.1117C12.7408 12.8175 12.9391 12.6036 13.0974 12.4587C13.0439 11.9662 12.9904 11.4736 12.9369 10.9789Z" fill="white" stroke="#2D3748" stroke-width="0.0089713" stroke-miterlimit="10"/>
<path opacity="0.13" d="M12.9792 11.4759C12.3374 12.2002 12.0321 12.8866 11.8805 13.319C11.6153 14.0678 11.671 14.46 11.7111 14.6472C11.7446 14.7943 11.8181 15.0462 12.0878 15.4295C12.3218 15.7616 12.8143 16.3566 13.7526 16.8469C13.8351 16.7667 13.9175 16.6887 14 16.6084C13.7348 16.3098 13.4673 15.9956 13.1977 15.668C12.8433 15.2378 12.5135 14.8144 12.2081 14.3999C12.2171 14.1748 12.2549 13.8605 12.3864 13.5084C12.5848 12.9802 12.8968 12.6325 13.0907 12.4476C13.0506 12.1244 13.0149 11.8012 12.9792 11.4759Z" fill="#2D3748"/>
<path opacity="0.16" d="M12.2059 14.4288C12.246 14.6896 12.3285 15.0217 12.5023 15.3805C12.8856 16.1605 13.4852 16.5906 13.7905 16.7778C13.8507 16.7244 13.9086 16.6731 13.9688 16.6196C13.3804 15.8886 12.7943 15.1576 12.2059 14.4288Z" fill="#2D3748"/>
<path d="M17.0666 10.9388C17.392 11.1371 17.811 11.4469 18.1742 11.9082C18.9988 12.9535 18.9743 14.0633 18.9431 14.4734C18.7916 14.8255 18.5353 15.2869 18.0851 15.7415C17.8221 16.0045 17.4366 16.3856 16.7791 16.633C16.5585 16.7154 16.3646 16.7622 16.2242 16.789C16.106 16.6954 15.9857 16.6018 15.8676 16.5082C16.2509 16.1137 16.6409 15.7014 17.0287 15.2735C17.3251 14.9459 17.6104 14.6227 17.8867 14.304C17.8756 14.0366 17.8132 13.5485 17.4767 13.0359C17.285 12.7462 17.0644 12.5367 16.8861 12.3941C16.9485 11.9082 17.0087 11.4246 17.0666 10.9388Z" fill="white" stroke="#2D3748" stroke-width="0.0089713" stroke-miterlimit="10"/>
<path opacity="0.16" d="M17.051 11.4803C17.334 11.7767 17.7196 12.2514 18.0204 12.9134C18.1631 13.2276 18.3948 13.738 18.3993 14.2193C18.4149 15.6836 16.3423 16.6909 16.2219 16.7489C16.1038 16.6731 15.9879 16.5995 15.8698 16.5238C16.5406 15.7883 17.2092 15.0529 17.88 14.3174C17.8667 14.0767 17.8109 13.6288 17.5435 13.1518C17.3229 12.7596 17.0487 12.5055 16.8682 12.3651C16.9306 12.0709 16.9908 11.7767 17.051 11.4803Z" fill="#2D3748"/>
<path opacity="0.12" d="M17.9023 14.3241C17.8689 14.518 17.8132 14.7297 17.7263 14.9481C17.334 15.9377 16.5406 16.4792 16.1395 16.711C16.0436 16.6486 15.95 16.5862 15.8542 16.5238C16.5362 15.7906 17.2181 15.0573 17.9023 14.3241Z" fill="#2D3748"/>
<path d="M12.0989 14.489H17.5792V17.959H12.0989V14.489Z" fill="white" stroke="#2D3748" stroke-width="0.0089713" stroke-miterlimit="10"/>
<path d="M14.7599 16.555C14.4702 16.5906 14.3298 16.2385 14.4056 16.0045C14.4791 15.7727 14.7533 15.6635 14.9761 15.7437C15.1968 15.824 15.3037 16.0936 15.2257 16.3098C15.1388 16.5505 14.8357 16.6486 14.6129 16.5416C14.575 16.5238 14.5393 16.5817 14.5794 16.5995C14.7778 16.6954 15.0207 16.6597 15.1789 16.5037C15.3327 16.3499 15.355 16.107 15.2592 15.9176C15.0408 15.4852 14.3655 15.6234 14.3187 16.0981C14.2942 16.3522 14.4769 16.6575 14.7599 16.6241C14.8023 16.6174 14.8023 16.5505 14.7599 16.555Z" fill="#2D3748"/>
<path opacity="0.14" d="M14.156 14.4801C14.8981 14.7386 15.404 15.4005 15.4196 16.1115C15.4397 17.0029 14.6908 17.8409 13.6701 17.9256C14.9694 17.9367 16.2687 17.9479 17.5702 17.959C17.5658 16.7957 17.5636 15.6323 17.5591 14.4712C16.4247 14.4712 15.2903 14.4756 14.156 14.4801Z" fill="#2D3748"/>
<path opacity="0.26" d="M17.5703 14.4689C17.5502 15.1777 17.4098 15.7304 17.2917 16.0936C17.1179 16.6218 16.993 17.0074 16.6342 17.3484C16.1462 17.8164 15.5377 17.9033 15.2703 17.9256C16.0303 17.9323 16.7902 17.939 17.5502 17.9479C17.5524 17.286 17.5569 16.6241 17.5614 15.9599C17.5614 15.4629 17.5658 14.9659 17.5703 14.4689Z" fill="#2D3748"/>
<path d="M14.6774 9.1915C14.5549 9.34082 14.673 9.52357 14.6507 10.0116C14.6396 10.2546 14.5994 10.4507 14.5682 10.5822C14.673 10.6312 14.858 10.7003 15.0964 10.707C15.3906 10.7137 15.6135 10.6223 15.7227 10.5688C15.6737 10.4707 15.609 10.3192 15.5689 10.1231C15.4686 9.62386 15.6469 9.38985 15.4998 9.20487C15.3282 8.99092 14.8424 8.98869 14.6774 9.1915Z" fill="white" stroke="#2D3748" stroke-width="0.0089713" stroke-miterlimit="10"/>
<path d="M13.8997 7.04756C13.7593 7.4086 13.8128 7.73399 13.844 7.87439C13.8306 7.87662 13.5698 7.93234 13.4985 8.13292C13.4272 8.33572 13.5743 8.62322 13.8819 8.71682C13.9933 8.98872 14.2629 9.51468 14.8313 9.80218C14.9271 9.84898 15.0185 9.88686 15.1098 9.91361C15.1923 9.88241 15.3037 9.83338 15.4308 9.75983C15.8275 9.53028 16.0481 9.24501 16.0994 9.17592C16.193 9.05112 16.32 8.85054 16.4091 8.57419C16.4582 8.5831 16.5451 8.58756 16.6298 8.54522C16.8214 8.44716 16.9173 8.14183 16.7836 7.94348C16.6721 7.77856 16.4559 7.77187 16.4292 7.77187C16.4582 7.65598 16.5473 7.23923 16.3222 6.82693C16.0637 6.35222 15.5088 6.10262 14.9873 6.17393C14.2161 6.27422 13.9131 7.0119 13.8997 7.04756Z" fill="white" stroke="#2D3748" stroke-width="0.0089713" stroke-miterlimit="10"/>
<path d="M14.6485 9.78211C14.7844 9.86234 14.9338 9.98715 15.1009 9.97378C15.2391 9.96263 15.3929 9.8824 15.4976 9.79771C15.531 9.77097 15.4842 9.72417 15.4508 9.75091C15.3527 9.82891 15.1945 9.91137 15.0652 9.90914C14.9293 9.90692 14.7911 9.79326 14.6797 9.72417C14.6463 9.70188 14.6128 9.75983 14.6485 9.78211Z" fill="#2D3748"/>
<path d="M14.6396 9.81106C14.7666 9.92026 14.9115 10.0428 15.0897 10.0339C15.2636 10.025 15.4263 9.90912 15.5399 9.78432C15.5689 9.75312 15.5221 9.70631 15.4931 9.73752C15.3951 9.84449 15.2569 9.94924 15.1054 9.96484C14.9382 9.98044 14.8045 9.86678 14.6864 9.76426C14.6552 9.73529 14.6084 9.78209 14.6396 9.81106Z" fill="#2D3748"/>
<path d="M14.7243 9.82445C14.7243 9.82222 14.7243 9.82222 14.7243 9.82445C14.7109 9.80439 14.6864 9.79993 14.6708 9.81553C14.6708 9.81553 14.6708 9.81553 14.6686 9.81776C14.6552 9.82891 14.6552 9.85342 14.6686 9.86456C14.9137 10.0986 15.3639 10.1743 15.54 9.81553C15.5578 9.77765 15.5021 9.74199 15.482 9.7821C15.326 10.103 14.9315 10.025 14.7176 9.81776V9.86456C14.7176 9.86456 14.7176 9.86456 14.7198 9.86234C14.702 9.86011 14.6842 9.85788 14.6663 9.85565V9.85788C14.6886 9.89354 14.7466 9.86011 14.7243 9.82445Z" fill="#2D3748"/>
<path d="M14.9917 7.76295C14.9627 8.124 14.9783 8.48281 15.0363 8.83939C15.0385 8.85722 15.0608 8.86836 15.0764 8.86168C15.1633 8.83271 15.2257 8.78145 15.2725 8.70345C15.2948 8.66556 15.2369 8.63213 15.2146 8.67002C15.1767 8.73465 15.1299 8.77253 15.0586 8.79705C15.0719 8.80373 15.0853 8.81265 15.0987 8.81933C15.0407 8.46944 15.0274 8.11508 15.0563 7.76073C15.063 7.71838 14.9962 7.71838 14.9917 7.76295Z" fill="#2D3748"/>
<path d="M14.595 8.1173C14.5995 8.13736 14.6329 8.26216 14.595 8.28222C14.5571 8.30228 14.4501 8.22204 14.4167 8.1173C14.39 8.02815 14.4123 7.91672 14.4546 7.90781C14.4992 7.89666 14.5683 8.01924 14.595 8.1173Z" fill="#2D3748" stroke="#2D3748" stroke-width="0.00448565" stroke-miterlimit="10"/>
<path d="M15.745 8.1173C15.7494 8.13736 15.7829 8.26216 15.745 8.28222C15.7071 8.30228 15.6001 8.22204 15.5667 8.1173C15.54 8.02815 15.5622 7.91672 15.6046 7.90781C15.6492 7.89666 15.7182 8.01924 15.745 8.1173Z" fill="#2D3748" stroke="#2D3748" stroke-width="0.00448565" stroke-miterlimit="10"/>
<path d="M14.9115 9.13357C15.1834 9.24946 15.4308 9.08676 15.6313 8.9107C15.6648 8.88173 15.6157 8.83493 15.5845 8.8639C15.4107 9.01545 15.1878 9.17814 14.9471 9.07562C14.9048 9.06002 14.8714 9.11796 14.9115 9.13357Z" fill="#2D3748"/>
<path d="M15.696 8.47166C15.7383 8.47166 15.7383 8.4048 15.696 8.4048C15.6536 8.4048 15.6536 8.47166 15.696 8.47166Z" fill="#2D3748"/>
<path d="M15.9433 8.34687C15.9456 8.34464 15.9478 8.34241 15.95 8.34018C15.9634 8.32681 15.9634 8.30675 15.95 8.29338C15.9366 8.28001 15.9166 8.28001 15.9032 8.29338C15.901 8.29561 15.8988 8.29783 15.8965 8.30006C15.8832 8.31344 15.8832 8.33349 15.8965 8.34687C15.9099 8.36024 15.93 8.36024 15.9433 8.34687Z" fill="#2D3748"/>
<path d="M15.8698 8.50953H15.8765C15.8943 8.50953 15.9099 8.49393 15.9099 8.4761C15.9099 8.45827 15.8943 8.44267 15.8765 8.44267C15.8742 8.44267 15.872 8.44267 15.8698 8.44267C15.852 8.44267 15.8363 8.45827 15.8363 8.4761C15.8363 8.49393 15.8497 8.50953 15.8698 8.50953Z" fill="#2D3748"/>
<path d="M14.332 7.71836C14.4167 7.64704 14.5415 7.64481 14.6262 7.7139C14.6596 7.74064 14.7064 7.69384 14.673 7.6671C14.5571 7.57349 14.3966 7.57349 14.283 7.67155C14.2518 7.6983 14.3008 7.7451 14.332 7.71836Z" fill="#2D3748"/>
<path d="M15.4196 7.69385C15.5154 7.60916 15.6514 7.59356 15.7651 7.65373C15.8029 7.67379 15.8364 7.61585 15.7985 7.59579C15.6581 7.52001 15.4909 7.54007 15.3728 7.64705C15.3394 7.67602 15.3862 7.72282 15.4196 7.69385Z" fill="#2D3748"/>
<path d="M14.3499 8.46499C14.3922 8.46499 14.3922 8.39813 14.3499 8.39813C14.3075 8.39813 14.3075 8.46499 14.3499 8.46499Z" fill="#2D3748"/>
<path d="M14.5861 8.43376C14.6284 8.43376 14.6284 8.3669 14.5861 8.3669C14.5437 8.3669 14.5437 8.43376 14.5861 8.43376Z" fill="#2D3748"/>
<path d="M14.468 8.48504C14.4657 8.48726 14.4635 8.48949 14.4613 8.49172C14.4479 8.50509 14.4479 8.52515 14.4613 8.53852C14.4747 8.55189 14.4947 8.55189 14.5081 8.53852C14.5103 8.53629 14.5126 8.53407 14.5148 8.53184C14.5282 8.51846 14.5282 8.49841 14.5148 8.48504C14.5014 8.47166 14.4813 8.47166 14.468 8.48504Z" fill="#2D3748"/>
<path d="M14.263 6.32325C14.1292 6.40571 13.8373 6.58623 13.6389 6.95619C13.4406 7.32391 13.4428 7.67158 13.4517 7.8209C13.1263 8.40704 12.9793 8.92408 12.9079 9.27621C12.792 9.8356 12.8544 10.0406 12.9347 10.1766C13.1308 10.5109 13.5253 10.5933 13.6211 10.6134C14.1136 10.7181 14.5059 10.4663 14.595 10.4084C14.6195 10.3348 14.6441 10.2434 14.6574 10.1409C14.6819 9.96486 14.6686 9.81332 14.6485 9.70411C14.5371 9.61274 14.4078 9.49016 14.283 9.3297C14.0936 9.08455 13.9866 8.84385 13.9264 8.67002C13.7303 8.64996 13.5832 8.51624 13.5698 8.36692C13.5565 8.22652 13.6545 8.046 13.7838 8.046C13.8796 8.046 13.9487 8.14406 13.9621 8.16189C14.0356 8.11954 14.1381 8.046 14.2295 7.93011C14.361 7.76296 14.3833 7.61364 14.4435 7.45763C14.5014 7.30608 14.6129 7.09659 14.8535 6.87818C15.0853 6.96064 15.2703 7.04087 15.3973 7.10105C15.8052 7.29048 16.037 7.40192 16.2175 7.64484C16.3178 7.77856 16.369 7.91005 16.3958 7.99251C16.603 7.83427 16.6877 7.87662 16.7056 7.88553C16.837 7.95908 16.8326 8.36246 16.6276 8.4739C16.5496 8.51624 16.4604 8.5051 16.4047 8.49173C16.3401 8.71682 16.1974 9.08455 15.8698 9.40993C15.7606 9.51913 15.6492 9.60382 15.5489 9.66845C15.54 9.75091 15.5355 9.86457 15.5578 9.99829C15.5779 10.1209 15.6135 10.2212 15.6469 10.2925C16.1885 10.6491 16.8616 10.5844 17.2271 10.2011C17.5524 9.85789 17.5524 9.33861 17.4299 8.98426C17.3184 8.6611 17.1023 8.46721 16.9953 8.38252C17.0243 8.25772 17.1847 7.51781 16.7189 6.83807C16.5986 6.662 16.2621 6.23633 15.6559 6.08924C15.014 5.93323 14.4858 6.1873 14.263 6.32325Z" fill="#2D3748"/>
<path opacity="0.17" d="M15.6759 7.23923C15.9277 7.5557 15.9946 7.84766 16.0169 7.9992C16.1083 8.6366 15.7383 9.15365 15.5511 9.41886C15.3973 9.63503 15.2391 9.78881 15.1254 9.8891C15.2235 10.1521 15.3193 10.4128 15.4174 10.6758L15.7182 10.5755C15.6714 10.4931 15.6224 10.3905 15.5845 10.2657C15.5154 10.0429 15.511 9.84676 15.5177 9.71304C15.6402 9.62612 15.7829 9.508 15.921 9.352C16.1974 9.03998 16.3356 8.71906 16.4069 8.50288C16.4515 8.51179 16.5473 8.52294 16.6387 8.47168C16.8303 8.36247 16.7991 8.09058 16.7969 8.07275C16.7902 8.01481 16.7769 7.9212 16.71 7.88331C16.632 7.84097 16.5027 7.88109 16.4002 8.00143C16.369 7.89223 16.2799 7.64039 16.0392 7.43981C15.9054 7.32838 15.7695 7.27044 15.6759 7.23923Z" fill="#2D3748"/>
<path opacity="0.19" d="M15.0229 7.78301C15.0095 7.78078 14.9649 7.97467 14.829 8.83047H15.063C15.0474 8.71681 15.0296 8.55189 15.0207 8.35131C15.0095 8.0081 15.0363 7.78524 15.0229 7.78301Z" fill="#2D3748"/>
<path opacity="0.54" d="M16.9819 8.4048C16.944 8.42708 17.0866 8.61875 17.0666 8.90401C17.0599 8.99316 17.0465 9.19597 16.886 9.33191C16.8749 9.34083 16.6364 9.53695 16.4002 9.41215C16.2598 9.3386 16.1751 9.1826 16.1796 9.01322C16.1127 9.13802 16.0035 9.30294 15.8319 9.4634C15.7249 9.56369 15.6202 9.63724 15.5288 9.69296C15.5221 9.79102 15.5221 9.92474 15.5578 10.0763C15.5778 10.1587 15.6023 10.2301 15.6269 10.288C15.6959 10.3326 15.7985 10.3928 15.9322 10.4396C16.0169 10.4685 16.4827 10.6312 16.9373 10.4061C17.0175 10.366 17.1958 10.2746 17.3251 10.0785C17.3407 10.054 17.3986 9.96708 17.441 9.81999C17.5925 9.31631 17.3697 8.86167 17.3496 8.82378C17.227 8.5764 17.0287 8.37805 16.9819 8.4048Z" fill="#2D3748"/>
<path opacity="0.35" d="M13.9242 8.67891C13.9041 8.68114 13.9487 8.86389 13.8997 9.04441C13.864 9.17813 13.7504 9.39654 13.5565 9.44111C13.3537 9.48568 13.1018 9.33636 12.9859 9.05778C12.9325 9.18036 12.8611 9.37648 12.85 9.62609C12.8433 9.78878 12.8344 9.96261 12.9146 10.1342C13.0951 10.5175 13.6256 10.6669 14.02 10.6312C14.283 10.6067 14.4814 10.5042 14.5883 10.4351C14.6151 10.3593 14.6418 10.2679 14.6597 10.1632C14.6886 9.98267 14.6819 9.82444 14.6663 9.70855C14.4903 9.58151 14.3699 9.45002 14.2942 9.35419C14.1872 9.21824 14.0423 9.0355 13.9688 8.78143C13.9576 8.75246 13.9376 8.67668 13.9242 8.67891Z" fill="#2D3748"/>
</g>
<defs>
<filter id="filter0_d_13_684" x="0" y="0" width="34" height="32.3228" filterUnits="userSpaceOnUse" color-interpolation-filters="sRGB">
<feFlood flood-opacity="0" result="BackgroundImageFix"/>
<feColorMatrix in="SourceAlpha" type="matrix" values="0 0 0 0 0 0 0 0 0 0 0 0 0 0 0 0 0 0 127 0" result="hardAlpha"/>
<feOffset dy="4"/>
<feGaussianBlur stdDeviation="2"/>
<feComposite in2="hardAlpha" operator="out"/>
<feColorMatrix type="matrix" values="0 0 0 0 0 0 0 0 0 0 0 0 0 0 0 0 0 0 0.25 0"/>
<feBlend mode="normal" in2="BackgroundImageFix" result="effect1_dropShadow_13_684"/>
<feBlend mode="normal" in="SourceGraphic" in2="effect1_dropShadow_13_684" result="shape"/>
</filter>
</defs>
</svg>
